%TF.GenerationSoftware,KiCad,Pcbnew,6.0.11+dfsg-1*%
%TF.CreationDate,2025-10-30T18:12:21+01:00*%
%TF.ProjectId,arduino,61726475-696e-46f2-9e6b-696361645f70,rev?*%
%TF.SameCoordinates,Original*%
%TF.FileFunction,Copper,L1,Top*%
%TF.FilePolarity,Positive*%
%FSLAX46Y46*%
G04 Gerber Fmt 4.6, Leading zero omitted, Abs format (unit mm)*
G04 Created by KiCad (PCBNEW 6.0.11+dfsg-1) date 2025-10-30 18:12:21*
%MOMM*%
%LPD*%
G01*
G04 APERTURE LIST*
%TA.AperFunction,ComponentPad*%
%ADD10R,1.700000X1.700000*%
%TD*%
%TA.AperFunction,ComponentPad*%
%ADD11O,1.700000X1.700000*%
%TD*%
%TA.AperFunction,ViaPad*%
%ADD12C,1.000000*%
%TD*%
%TA.AperFunction,Conductor*%
%ADD13C,0.400000*%
%TD*%
%TA.AperFunction,Conductor*%
%ADD14C,1.000000*%
%TD*%
G04 APERTURE END LIST*
D10*
%TO.P,REF\u002A\u002A,1*%
%TO.N,N/C*%
X106822000Y-97892000D03*
D11*
%TO.P,REF\u002A\u002A,2*%
X109362000Y-97892000D03*
%TO.P,REF\u002A\u002A,3*%
X111902000Y-97892000D03*
%TO.P,REF\u002A\u002A,4*%
X114442000Y-97892000D03*
%TO.P,REF\u002A\u002A,5*%
X116982000Y-97892000D03*
%TO.P,REF\u002A\u002A,6*%
X119522000Y-97892000D03*
%TO.P,REF\u002A\u002A,7*%
X122062000Y-97892000D03*
%TO.P,REF\u002A\u002A,8*%
X124602000Y-97892000D03*
%TD*%
D10*
%TO.P,5V,1*%
%TO.N,N/C*%
X89611200Y-44348400D03*
D11*
%TO.P,5V,2*%
X92151200Y-44348400D03*
%TD*%
D10*
%TO.P,REF\u002A\u002A,1*%
%TO.N,N/C*%
X104287000Y-49672000D03*
D11*
%TO.P,REF\u002A\u002A,2*%
X101747000Y-49672000D03*
%TO.P,REF\u002A\u002A,3*%
X104287000Y-52212000D03*
%TO.P,REF\u002A\u002A,4*%
X101747000Y-52212000D03*
%TO.P,REF\u002A\u002A,5*%
X104287000Y-54752000D03*
%TO.P,REF\u002A\u002A,6*%
X101747000Y-54752000D03*
%TO.P,REF\u002A\u002A,7*%
X104287000Y-57292000D03*
%TO.P,REF\u002A\u002A,8*%
X101747000Y-57292000D03*
%TO.P,REF\u002A\u002A,9*%
X104287000Y-59832000D03*
%TO.P,REF\u002A\u002A,10*%
X101747000Y-59832000D03*
%TO.P,REF\u002A\u002A,11*%
X104287000Y-62372000D03*
%TO.P,REF\u002A\u002A,12*%
X101747000Y-62372000D03*
%TO.P,REF\u002A\u002A,13*%
X104287000Y-64912000D03*
%TO.P,REF\u002A\u002A,14*%
X101747000Y-64912000D03*
%TO.P,REF\u002A\u002A,15*%
X104287000Y-67452000D03*
%TO.P,REF\u002A\u002A,16*%
X101747000Y-67452000D03*
%TO.P,REF\u002A\u002A,17*%
X104287000Y-69992000D03*
%TO.P,REF\u002A\u002A,18*%
X101747000Y-69992000D03*
%TO.P,REF\u002A\u002A,19*%
X104287000Y-72532000D03*
%TO.P,REF\u002A\u002A,20*%
X101747000Y-72532000D03*
%TO.P,REF\u002A\u002A,21*%
X104287000Y-75072000D03*
%TO.P,REF\u002A\u002A,22*%
X101747000Y-75072000D03*
%TO.P,REF\u002A\u002A,23*%
X104287000Y-77612000D03*
%TO.P,REF\u002A\u002A,24*%
X101747000Y-77612000D03*
%TO.P,REF\u002A\u002A,25*%
X104287000Y-80152000D03*
%TO.P,REF\u002A\u002A,26*%
X101747000Y-80152000D03*
%TO.P,REF\u002A\u002A,27*%
X104287000Y-82692000D03*
%TO.P,REF\u002A\u002A,28*%
X101747000Y-82692000D03*
%TO.P,REF\u002A\u002A,29*%
X104287000Y-85232000D03*
%TO.P,REF\u002A\u002A,30*%
X101747000Y-85232000D03*
%TO.P,REF\u002A\u002A,31*%
X104287000Y-87772000D03*
%TO.P,REF\u002A\u002A,32*%
X101747000Y-87772000D03*
%TO.P,REF\u002A\u002A,33*%
X104287000Y-90312000D03*
%TO.P,REF\u002A\u002A,34*%
X101747000Y-90312000D03*
%TO.P,REF\u002A\u002A,35*%
X104287000Y-92852000D03*
%TO.P,REF\u002A\u002A,36*%
X101747000Y-92852000D03*
%TD*%
D10*
%TO.P,REF\u002A\u002A,1*%
%TO.N,N/C*%
X135128000Y-58166000D03*
D11*
%TO.P,REF\u002A\u002A,2*%
X137668000Y-58166000D03*
%TD*%
D10*
%TO.P,REF\u002A\u002A,1*%
%TO.N,N/C*%
X129682000Y-97892000D03*
D11*
%TO.P,REF\u002A\u002A,2*%
X132222000Y-97892000D03*
%TO.P,REF\u002A\u002A,3*%
X134762000Y-97892000D03*
%TO.P,REF\u002A\u002A,4*%
X137302000Y-97892000D03*
%TO.P,REF\u002A\u002A,5*%
X139842000Y-97892000D03*
%TO.P,REF\u002A\u002A,6*%
X142382000Y-97892000D03*
%TO.P,REF\u002A\u002A,7*%
X144922000Y-97892000D03*
%TO.P,REF\u002A\u002A,8*%
X147462000Y-97892000D03*
%TD*%
D10*
%TO.P,REF\u002A\u002A,1*%
%TO.N,N/C*%
X130810000Y-128270000D03*
D11*
%TO.P,REF\u002A\u002A,2*%
X130810000Y-130810000D03*
%TO.P,REF\u002A\u002A,3*%
X133350000Y-128270000D03*
%TO.P,REF\u002A\u002A,4*%
X133350000Y-130810000D03*
%TO.P,REF\u002A\u002A,5*%
X135890000Y-128270000D03*
%TO.P,REF\u002A\u002A,6*%
X135890000Y-130810000D03*
%TO.P,REF\u002A\u002A,7*%
X138430000Y-128270000D03*
%TO.P,REF\u002A\u002A,8*%
X138430000Y-130810000D03*
%TO.P,REF\u002A\u002A,9*%
X140970000Y-128270000D03*
%TO.P,REF\u002A\u002A,10*%
X140970000Y-130810000D03*
%TO.P,REF\u002A\u002A,11*%
X143510000Y-128270000D03*
%TO.P,REF\u002A\u002A,12*%
X143510000Y-130810000D03*
%TO.P,REF\u002A\u002A,13*%
X146050000Y-128270000D03*
%TO.P,REF\u002A\u002A,14*%
X146050000Y-130810000D03*
%TO.P,REF\u002A\u002A,15*%
X148590000Y-128270000D03*
%TO.P,REF\u002A\u002A,16*%
X148590000Y-130810000D03*
%TO.P,REF\u002A\u002A,17*%
X151130000Y-128270000D03*
%TO.P,REF\u002A\u002A,18*%
X151130000Y-130810000D03*
%TO.P,REF\u002A\u002A,19*%
X153670000Y-128270000D03*
%TO.P,REF\u002A\u002A,20*%
X153670000Y-130810000D03*
%TD*%
D10*
%TO.P,REF\u002A\u002A,1*%
%TO.N,N/C*%
X134762000Y-49632000D03*
D11*
%TO.P,REF\u002A\u002A,2*%
X137302000Y-49632000D03*
%TO.P,REF\u002A\u002A,3*%
X139842000Y-49632000D03*
%TO.P,REF\u002A\u002A,4*%
X142382000Y-49632000D03*
%TO.P,REF\u002A\u002A,5*%
X144922000Y-49632000D03*
%TO.P,REF\u002A\u002A,6*%
X147462000Y-49632000D03*
%TO.P,REF\u002A\u002A,7*%
X150002000Y-49632000D03*
%TO.P,REF\u002A\u002A,8*%
X152542000Y-49632000D03*
%TD*%
D10*
%TO.P,REF\u002A\u002A,1*%
%TO.N,N/C*%
X90170000Y-130810000D03*
D11*
%TO.P,REF\u002A\u002A,2*%
X92710000Y-130810000D03*
%TO.P,REF\u002A\u002A,3*%
X95250000Y-130810000D03*
%TO.P,REF\u002A\u002A,4*%
X97790000Y-130810000D03*
%TO.P,REF\u002A\u002A,5*%
X100330000Y-130810000D03*
%TO.P,REF\u002A\u002A,6*%
X102870000Y-130810000D03*
%TO.P,REF\u002A\u002A,7*%
X105410000Y-130810000D03*
%TO.P,REF\u002A\u002A,8*%
X107950000Y-130810000D03*
%TO.P,REF\u002A\u002A,9*%
X110490000Y-130810000D03*
%TO.P,REF\u002A\u002A,10*%
X113030000Y-130810000D03*
%TO.P,REF\u002A\u002A,11*%
X115570000Y-130810000D03*
%TO.P,REF\u002A\u002A,12*%
X118110000Y-130810000D03*
%TO.P,REF\u002A\u002A,13*%
X120650000Y-130810000D03*
%TO.P,REF\u002A\u002A,14*%
X123190000Y-130810000D03*
%TO.P,REF\u002A\u002A,15*%
X125730000Y-130810000D03*
%TO.P,REF\u002A\u002A,16*%
X128270000Y-130810000D03*
%TD*%
D10*
%TO.P,REF\u002A\u002A,1*%
%TO.N,N/C*%
X156210000Y-130810000D03*
D11*
%TO.P,REF\u002A\u002A,2*%
X158750000Y-130810000D03*
%TO.P,REF\u002A\u002A,3*%
X161290000Y-130810000D03*
%TO.P,REF\u002A\u002A,4*%
X163830000Y-130810000D03*
%TO.P,REF\u002A\u002A,5*%
X166370000Y-130810000D03*
%TO.P,REF\u002A\u002A,6*%
X168910000Y-130810000D03*
%TO.P,REF\u002A\u002A,7*%
X171450000Y-130810000D03*
%TO.P,REF\u002A\u002A,8*%
X173990000Y-130810000D03*
%TO.P,REF\u002A\u002A,9*%
X176530000Y-130810000D03*
%TO.P,REF\u002A\u002A,10*%
X179070000Y-130810000D03*
%TD*%
D12*
%TO.N,*%
X125476000Y-87757000D03*
%TD*%
D13*
%TO.N,*%
X101782800Y-55173800D02*
X101782800Y-54762400D01*
X120142000Y-54864000D02*
X120142000Y-93980000D01*
D14*
X126492000Y-88773000D02*
X125476000Y-87757000D01*
X89662000Y-49682400D02*
X101782800Y-49682400D01*
X130810000Y-130810000D02*
X130810000Y-128270000D01*
D13*
X123444000Y-125730000D02*
X122174000Y-127000000D01*
D14*
X126492000Y-113284000D02*
X126492000Y-88773000D01*
D13*
X105410000Y-126238000D02*
X105410000Y-130810000D01*
X123444000Y-52222400D02*
X123444000Y-125730000D01*
X92710000Y-130810000D02*
X92710000Y-127000000D01*
X120777000Y-124714000D02*
X120269000Y-125222000D01*
X104322800Y-57302400D02*
X116230400Y-57302400D01*
X142422800Y-51846400D02*
X142422800Y-49682400D01*
X106426000Y-125222000D02*
X105410000Y-126238000D01*
X120777000Y-95758000D02*
X120777000Y-124714000D01*
X106934000Y-61087000D02*
X106934000Y-95123000D01*
X115697000Y-94869000D02*
X118364000Y-92202000D01*
X139882800Y-49682400D02*
X139882800Y-52151200D01*
X108077000Y-59842400D02*
X104322800Y-59842400D01*
D14*
X130454400Y-44348400D02*
X92151200Y-44348400D01*
D13*
X120142000Y-93980000D02*
X118237000Y-95885000D01*
X102870000Y-126619000D02*
X102870000Y-130810000D01*
X142422800Y-54691200D02*
X142422800Y-97942400D01*
D14*
X89662000Y-44450000D02*
X89662000Y-49682400D01*
D13*
X122301000Y-53467000D02*
X122301000Y-94234000D01*
X100330000Y-130810000D02*
X100330000Y-127254000D01*
X144962800Y-54386400D02*
X142422800Y-51846400D01*
X105410000Y-114300000D02*
X108077000Y-114300000D01*
X105918000Y-119253000D02*
X97790000Y-127381000D01*
X108204000Y-127000000D02*
X107950000Y-127254000D01*
X120040400Y-54762400D02*
X120142000Y-54864000D01*
X107950000Y-127254000D02*
X107950000Y-130810000D01*
X114935000Y-89662000D02*
X110617000Y-93980000D01*
D14*
X133350000Y-130810000D02*
X133350000Y-128270000D01*
D13*
X106807000Y-122682000D02*
X102870000Y-126619000D01*
X118364000Y-92202000D02*
X118364000Y-56007000D01*
D14*
X133350000Y-128270000D02*
X133350000Y-116459000D01*
D13*
X100330000Y-127254000D02*
X106553000Y-121031000D01*
D14*
X131953000Y-53975000D02*
X131953000Y-45847000D01*
D13*
X97790000Y-127381000D02*
X97790000Y-130810000D01*
X118237000Y-95885000D02*
X118237000Y-122682000D01*
D14*
X130810000Y-128270000D02*
X130810000Y-117602000D01*
X133350000Y-116459000D02*
X128016000Y-111125000D01*
D13*
X110617000Y-116967000D02*
X105537000Y-116967000D01*
X122301000Y-94234000D02*
X120777000Y-95758000D01*
X101782800Y-52760800D02*
X102489000Y-53467000D01*
X101782800Y-52222400D02*
X101782800Y-52760800D01*
X139882800Y-52151200D02*
X142422800Y-54691200D01*
D14*
X130810000Y-117602000D02*
X126492000Y-113284000D01*
D13*
X102489000Y-53467000D02*
X122301000Y-53467000D01*
X118364000Y-56007000D02*
X102616000Y-56007000D01*
D14*
X131953000Y-45847000D02*
X130454400Y-44348400D01*
D13*
X106934000Y-95123000D02*
X105156000Y-96901000D01*
X144962800Y-97942400D02*
X144962800Y-54386400D01*
X116332000Y-91313000D02*
X113157000Y-94488000D01*
X104322800Y-54762400D02*
X120040400Y-54762400D01*
D14*
X128016000Y-57912000D02*
X131953000Y-53975000D01*
D13*
X113157000Y-94488000D02*
X113157000Y-119253000D01*
X95250000Y-127254000D02*
X95250000Y-130810000D01*
X116230400Y-57302400D02*
X116332000Y-57404000D01*
X105156000Y-111506000D02*
X90170000Y-126492000D01*
X120269000Y-125222000D02*
X106426000Y-125222000D01*
X114935000Y-58547000D02*
X114935000Y-89662000D01*
X115570000Y-121031000D02*
X115697000Y-120904000D01*
X101782800Y-59842400D02*
X103027400Y-61087000D01*
X90170000Y-126492000D02*
X90170000Y-130810000D01*
X103027400Y-61087000D02*
X106934000Y-61087000D01*
X101782800Y-57302400D02*
X103027400Y-58547000D01*
X113157000Y-119253000D02*
X105918000Y-119253000D01*
X103027400Y-58547000D02*
X114935000Y-58547000D01*
X108077000Y-114300000D02*
X108077000Y-59842400D01*
X104322800Y-52222400D02*
X123444000Y-52222400D01*
X122174000Y-127000000D02*
X108204000Y-127000000D01*
X118237000Y-122682000D02*
X106807000Y-122682000D01*
X92710000Y-127000000D02*
X105410000Y-114300000D01*
X115697000Y-120904000D02*
X115697000Y-94869000D01*
D14*
X128016000Y-111125000D02*
X128016000Y-57912000D01*
D13*
X105156000Y-96901000D02*
X105156000Y-111506000D01*
X106553000Y-121031000D02*
X115570000Y-121031000D01*
X116332000Y-57404000D02*
X116332000Y-91313000D01*
X102616000Y-56007000D02*
X101782800Y-55173800D01*
X105537000Y-116967000D02*
X95250000Y-127254000D01*
X110617000Y-93980000D02*
X110617000Y-116967000D01*
%TD*%
M02*
