%TF.GenerationSoftware,KiCad,Pcbnew,6.0.11+dfsg-1*%
%TF.CreationDate,2025-10-30T18:12:22+01:00*%
%TF.ProjectId,arduino,61726475-696e-46f2-9e6b-696361645f70,rev?*%
%TF.SameCoordinates,Original*%
%TF.FileFunction,Legend,Top*%
%TF.FilePolarity,Positive*%
%FSLAX46Y46*%
G04 Gerber Fmt 4.6, Leading zero omitted, Abs format (unit mm)*
G04 Created by KiCad (PCBNEW 6.0.11+dfsg-1) date 2025-10-30 18:12:22*
%MOMM*%
%LPD*%
G01*
G04 APERTURE LIST*
%ADD10C,0.250000*%
%ADD11C,0.120000*%
G04 APERTURE END LIST*
D10*
X137033095Y-54189380D02*
X137604523Y-54189380D01*
X137318809Y-55189380D02*
X137318809Y-54189380D01*
X137842619Y-54189380D02*
X138509285Y-55189380D01*
X138509285Y-54189380D02*
X137842619Y-55189380D01*
X89574666Y-83231952D02*
X89574666Y-82755761D01*
X89860380Y-83327190D02*
X88860380Y-82993857D01*
X89860380Y-82660523D01*
X89860380Y-81755761D02*
X89384190Y-82089095D01*
X89860380Y-82327190D02*
X88860380Y-82327190D01*
X88860380Y-81946238D01*
X88908000Y-81851000D01*
X88955619Y-81803380D01*
X89050857Y-81755761D01*
X89193714Y-81755761D01*
X89288952Y-81803380D01*
X89336571Y-81851000D01*
X89384190Y-81946238D01*
X89384190Y-82327190D01*
X89860380Y-81327190D02*
X88860380Y-81327190D01*
X88860380Y-81089095D01*
X88908000Y-80946238D01*
X89003238Y-80851000D01*
X89098476Y-80803380D01*
X89288952Y-80755761D01*
X89431809Y-80755761D01*
X89622285Y-80803380D01*
X89717523Y-80851000D01*
X89812761Y-80946238D01*
X89860380Y-81089095D01*
X89860380Y-81327190D01*
X88860380Y-80327190D02*
X89669904Y-80327190D01*
X89765142Y-80279571D01*
X89812761Y-80231952D01*
X89860380Y-80136714D01*
X89860380Y-79946238D01*
X89812761Y-79851000D01*
X89765142Y-79803380D01*
X89669904Y-79755761D01*
X88860380Y-79755761D01*
X89860380Y-79279571D02*
X88860380Y-79279571D01*
X89860380Y-78803380D02*
X88860380Y-78803380D01*
X89860380Y-78231952D01*
X88860380Y-78231952D01*
X88860380Y-77565285D02*
X88860380Y-77374809D01*
X88908000Y-77279571D01*
X89003238Y-77184333D01*
X89193714Y-77136714D01*
X89527047Y-77136714D01*
X89717523Y-77184333D01*
X89812761Y-77279571D01*
X89860380Y-77374809D01*
X89860380Y-77565285D01*
X89812761Y-77660523D01*
X89717523Y-77755761D01*
X89527047Y-77803380D01*
X89193714Y-77803380D01*
X89003238Y-77755761D01*
X88908000Y-77660523D01*
X88860380Y-77565285D01*
X89860380Y-75946238D02*
X88860380Y-75946238D01*
X89574666Y-75612904D01*
X88860380Y-75279571D01*
X89860380Y-75279571D01*
X89336571Y-74803380D02*
X89336571Y-74470047D01*
X89860380Y-74327190D02*
X89860380Y-74803380D01*
X88860380Y-74803380D01*
X88860380Y-74327190D01*
X88908000Y-73374809D02*
X88860380Y-73470047D01*
X88860380Y-73612904D01*
X88908000Y-73755761D01*
X89003238Y-73851000D01*
X89098476Y-73898619D01*
X89288952Y-73946238D01*
X89431809Y-73946238D01*
X89622285Y-73898619D01*
X89717523Y-73851000D01*
X89812761Y-73755761D01*
X89860380Y-73612904D01*
X89860380Y-73517666D01*
X89812761Y-73374809D01*
X89765142Y-73327190D01*
X89431809Y-73327190D01*
X89431809Y-73517666D01*
X89574666Y-72946238D02*
X89574666Y-72470047D01*
X89860380Y-73041476D02*
X88860380Y-72708142D01*
X89860380Y-72374809D01*
X134834333Y-55189380D02*
X134501000Y-54713190D01*
X134262904Y-55189380D02*
X134262904Y-54189380D01*
X134643857Y-54189380D01*
X134739095Y-54237000D01*
X134786714Y-54284619D01*
X134834333Y-54379857D01*
X134834333Y-54522714D01*
X134786714Y-54617952D01*
X134739095Y-54665571D01*
X134643857Y-54713190D01*
X134262904Y-54713190D01*
X135167666Y-54189380D02*
X135834333Y-55189380D01*
X135834333Y-54189380D02*
X135167666Y-55189380D01*
X91884523Y-46696380D02*
X91408333Y-46696380D01*
X91360714Y-47172571D01*
X91408333Y-47124952D01*
X91503571Y-47077333D01*
X91741666Y-47077333D01*
X91836904Y-47124952D01*
X91884523Y-47172571D01*
X91932142Y-47267809D01*
X91932142Y-47505904D01*
X91884523Y-47601142D01*
X91836904Y-47648761D01*
X91741666Y-47696380D01*
X91503571Y-47696380D01*
X91408333Y-47648761D01*
X91360714Y-47601142D01*
X92217857Y-46696380D02*
X92551190Y-47696380D01*
X92884523Y-46696380D01*
D11*
%TO.C,REF\u002A\u002A*%
X108092000Y-96562000D02*
X125932000Y-96562000D01*
X125932000Y-99222000D02*
X125932000Y-96562000D01*
X108092000Y-99222000D02*
X125932000Y-99222000D01*
X105492000Y-97892000D02*
X105492000Y-96562000D01*
X105492000Y-96562000D02*
X106822000Y-96562000D01*
X108092000Y-99222000D02*
X108092000Y-96562000D01*
%TO.C,5V*%
X90881200Y-43018400D02*
X93481200Y-43018400D01*
X90881200Y-45678400D02*
X93481200Y-45678400D01*
X93481200Y-45678400D02*
X93481200Y-43018400D01*
X90881200Y-45678400D02*
X90881200Y-43018400D01*
X88281200Y-43018400D02*
X89611200Y-43018400D01*
X88281200Y-44348400D02*
X88281200Y-43018400D01*
%TO.C,REF\u002A\u002A*%
X105617000Y-48342000D02*
X105617000Y-49672000D01*
X103017000Y-50942000D02*
X105617000Y-50942000D01*
X105617000Y-50942000D02*
X105617000Y-94182000D01*
X103017000Y-48342000D02*
X103017000Y-50942000D01*
X104287000Y-48342000D02*
X105617000Y-48342000D01*
X100417000Y-94182000D02*
X105617000Y-94182000D01*
X100417000Y-48342000D02*
X103017000Y-48342000D01*
X100417000Y-48342000D02*
X100417000Y-94182000D01*
X136398000Y-59496000D02*
X138998000Y-59496000D01*
X133798000Y-56836000D02*
X135128000Y-56836000D01*
X136398000Y-56836000D02*
X138998000Y-56836000D01*
X138998000Y-59496000D02*
X138998000Y-56836000D01*
X133798000Y-58166000D02*
X133798000Y-56836000D01*
X136398000Y-59496000D02*
X136398000Y-56836000D01*
X130952000Y-96562000D02*
X148792000Y-96562000D01*
X148792000Y-99222000D02*
X148792000Y-96562000D01*
X130952000Y-99222000D02*
X148792000Y-99222000D01*
X128352000Y-97892000D02*
X128352000Y-96562000D01*
X128352000Y-96562000D02*
X129682000Y-96562000D01*
X130952000Y-99222000D02*
X130952000Y-96562000D01*
X129480000Y-132140000D02*
X129480000Y-129540000D01*
X155000000Y-132140000D02*
X155000000Y-126940000D01*
X132080000Y-126940000D02*
X155000000Y-126940000D01*
X132080000Y-129540000D02*
X132080000Y-126940000D01*
X129480000Y-126940000D02*
X130810000Y-126940000D01*
X129480000Y-132140000D02*
X155000000Y-132140000D01*
X129480000Y-129540000D02*
X132080000Y-129540000D01*
X129480000Y-128270000D02*
X129480000Y-126940000D01*
X136032000Y-48302000D02*
X153872000Y-48302000D01*
X153872000Y-50962000D02*
X153872000Y-48302000D01*
X136032000Y-50962000D02*
X153872000Y-50962000D01*
X133432000Y-49632000D02*
X133432000Y-48302000D01*
X133432000Y-48302000D02*
X134762000Y-48302000D01*
X136032000Y-50962000D02*
X136032000Y-48302000D01*
X88840000Y-130810000D02*
X88840000Y-129480000D01*
X91440000Y-132140000D02*
X129600000Y-132140000D01*
X91440000Y-132140000D02*
X91440000Y-129480000D01*
X129600000Y-132140000D02*
X129600000Y-129480000D01*
X88840000Y-129480000D02*
X90170000Y-129480000D01*
X91440000Y-129480000D02*
X129600000Y-129480000D01*
X157480000Y-132140000D02*
X180400000Y-132140000D01*
X154880000Y-129480000D02*
X156210000Y-129480000D01*
X154880000Y-130810000D02*
X154880000Y-129480000D01*
X157480000Y-132140000D02*
X157480000Y-129480000D01*
X180400000Y-132140000D02*
X180400000Y-129480000D01*
X157480000Y-129480000D02*
X180400000Y-129480000D01*
%TD*%
M02*
