M48
; DRILL file {KiCad 6.0.11+dfsg-1} date gio 30 ott 2025, 18:12:24
; FORMAT={-:-/ absolute / inch / decimal}
; #@! TF.CreationDate,2025-10-30T18:12:24+01:00
; #@! TF.GenerationSoftware,Kicad,Pcbnew,6.0.11+dfsg-1
; #@! TF.FileFunction,Plated,1,2,PTH
FMAT,2
INCH
; #@! TA.AperFunction,Plated,PTH,ViaDrill
T1C0.0157
; #@! TA.AperFunction,Plated,PTH,ComponentDrill
T2C0.0394
%
G90
G05
T1
X4.94Y-3.455
T2
X3.528Y-1.746
X3.55Y-5.15
X3.628Y-1.746
X3.65Y-5.15
X3.75Y-5.15
X3.85Y-5.15
X3.95Y-5.15
X4.0058Y-1.9556
X4.0058Y-2.0556
X4.0058Y-2.1556
X4.0058Y-2.2556
X4.0058Y-2.3556
X4.0058Y-2.4556
X4.0058Y-2.5556
X4.0058Y-2.6556
X4.0058Y-2.7556
X4.0058Y-2.8556
X4.0058Y-2.9556
X4.0058Y-3.0556
X4.0058Y-3.1556
X4.0058Y-3.2556
X4.0058Y-3.3556
X4.0058Y-3.4556
X4.0058Y-3.5556
X4.0058Y-3.6556
X4.05Y-5.15
X4.1058Y-1.9556
X4.1058Y-2.0556
X4.1058Y-2.1556
X4.1058Y-2.2556
X4.1058Y-2.3556
X4.1058Y-2.4556
X4.1058Y-2.5556
X4.1058Y-2.6556
X4.1058Y-2.7556
X4.1058Y-2.8556
X4.1058Y-2.9556
X4.1058Y-3.0556
X4.1058Y-3.1556
X4.1058Y-3.2556
X4.1058Y-3.3556
X4.1058Y-3.4556
X4.1058Y-3.5556
X4.1058Y-3.6556
X4.15Y-5.15
X4.2056Y-3.854
X4.25Y-5.15
X4.3056Y-3.854
X4.35Y-5.15
X4.4056Y-3.854
X4.45Y-5.15
X4.5056Y-3.854
X4.55Y-5.15
X4.6056Y-3.854
X4.65Y-5.15
X4.7056Y-3.854
X4.75Y-5.15
X4.8056Y-3.854
X4.85Y-5.15
X4.9056Y-3.854
X4.95Y-5.15
X5.05Y-5.15
X5.1056Y-3.854
X5.15Y-5.05
X5.15Y-5.15
X5.2056Y-3.854
X5.25Y-5.05
X5.25Y-5.15
X5.3056Y-1.954
X5.3056Y-3.854
X5.32Y-2.29
X5.35Y-5.05
X5.35Y-5.15
X5.4056Y-1.954
X5.4056Y-3.854
X5.42Y-2.29
X5.45Y-5.05
X5.45Y-5.15
X5.5056Y-1.954
X5.5056Y-3.854
X5.55Y-5.05
X5.55Y-5.15
X5.6056Y-1.954
X5.6056Y-3.854
X5.65Y-5.05
X5.65Y-5.15
X5.7056Y-1.954
X5.7056Y-3.854
X5.75Y-5.05
X5.75Y-5.15
X5.8056Y-1.954
X5.8056Y-3.854
X5.85Y-5.05
X5.85Y-5.15
X5.9056Y-1.954
X5.95Y-5.05
X5.95Y-5.15
X6.0056Y-1.954
X6.05Y-5.05
X6.05Y-5.15
X6.15Y-5.15
X6.25Y-5.15
X6.35Y-5.15
X6.45Y-5.15
X6.55Y-5.15
X6.65Y-5.15
X6.75Y-5.15
X6.85Y-5.15
X6.95Y-5.15
X7.05Y-5.15
T0
M30
