%TF.GenerationSoftware,KiCad,Pcbnew,6.0.11+dfsg-1*%
%TF.CreationDate,2025-09-18T15:26:03+02:00*%
%TF.ProjectId,debug,64656275-672e-46b6-9963-61645f706362,rev?*%
%TF.SameCoordinates,Original*%
%TF.FileFunction,Copper,L2,Bot*%
%TF.FilePolarity,Positive*%
%FSLAX46Y46*%
G04 Gerber Fmt 4.6, Leading zero omitted, Abs format (unit mm)*
G04 Created by KiCad (PCBNEW 6.0.11+dfsg-1) date 2025-09-18 15:26:03*
%MOMM*%
%LPD*%
G01*
G04 APERTURE LIST*
%TA.AperFunction,ComponentPad*%
%ADD10R,1.800000X1.800000*%
%TD*%
%TA.AperFunction,ComponentPad*%
%ADD11C,1.800000*%
%TD*%
%TA.AperFunction,ComponentPad*%
%ADD12C,1.600000*%
%TD*%
%TA.AperFunction,ComponentPad*%
%ADD13O,1.600000X1.600000*%
%TD*%
%TA.AperFunction,ComponentPad*%
%ADD14R,1.600000X2.400000*%
%TD*%
%TA.AperFunction,ComponentPad*%
%ADD15O,1.600000X2.400000*%
%TD*%
%TA.AperFunction,ComponentPad*%
%ADD16R,1.700000X1.700000*%
%TD*%
%TA.AperFunction,ComponentPad*%
%ADD17O,1.700000X1.700000*%
%TD*%
%TA.AperFunction,ViaPad*%
%ADD18C,0.800000*%
%TD*%
%TA.AperFunction,Conductor*%
%ADD19C,0.500000*%
%TD*%
%TA.AperFunction,Conductor*%
%ADD20C,1.000000*%
%TD*%
G04 APERTURE END LIST*
D10*
%TO.P,REF\u002A\u002A,1*%
%TO.N,N/C*%
X140970000Y-44450000D03*
D11*
%TO.P,REF\u002A\u002A,2*%
X140970000Y-41910000D03*
%TD*%
D10*
%TO.P,REF\u002A\u002A,1*%
%TO.N,N/C*%
X161290000Y-76200000D03*
D11*
%TO.P,REF\u002A\u002A,2*%
X163830000Y-76200000D03*
%TD*%
D10*
%TO.P,REF\u002A\u002A,1*%
%TO.N,N/C*%
X185420000Y-57150000D03*
D11*
%TO.P,REF\u002A\u002A,2*%
X187960000Y-57150000D03*
%TD*%
D12*
%TO.P,1k,1*%
%TO.N,N/C*%
X114300000Y-47625000D03*
D13*
%TO.P,1k,2*%
X114300000Y-57785000D03*
%TD*%
D10*
%TO.P,REF\u002A\u002A,1*%
%TO.N,N/C*%
X102870000Y-44450000D03*
D11*
%TO.P,REF\u002A\u002A,2*%
X102870000Y-41910000D03*
%TD*%
D12*
%TO.P,1k,1*%
%TO.N,N/C*%
X106680000Y-47625000D03*
D13*
%TO.P,1k,2*%
X106680000Y-57785000D03*
%TD*%
D12*
%TO.P,1k,1*%
%TO.N,N/C*%
X172085000Y-49530000D03*
D13*
%TO.P,1k,2*%
X182245000Y-49530000D03*
%TD*%
D10*
%TO.P,REF\u002A\u002A,1*%
%TO.N,N/C*%
X129540000Y-44450000D03*
D11*
%TO.P,REF\u002A\u002A,2*%
X129540000Y-41910000D03*
%TD*%
D10*
%TO.P,REF\u002A\u002A,1*%
%TO.N,N/C*%
X110490000Y-44450000D03*
D11*
%TO.P,REF\u002A\u002A,2*%
X110490000Y-41910000D03*
%TD*%
D14*
%TO.P,74hc244,1*%
%TO.N,N/C*%
X165105000Y-90160000D03*
D15*
%TO.P,74hc244,2*%
X167645000Y-90160000D03*
%TO.P,74hc244,3*%
X170185000Y-90160000D03*
%TO.P,74hc244,4*%
X172725000Y-90160000D03*
%TO.P,74hc244,5*%
X175265000Y-90160000D03*
%TO.P,74hc244,6*%
X177805000Y-90160000D03*
%TO.P,74hc244,7*%
X180345000Y-90160000D03*
%TO.P,74hc244,8*%
X182885000Y-90160000D03*
%TO.P,74hc244,9*%
X185425000Y-90160000D03*
%TO.P,74hc244,10*%
X187965000Y-90160000D03*
%TO.P,74hc244,11*%
X187965000Y-82540000D03*
%TO.P,74hc244,12*%
X185425000Y-82540000D03*
%TO.P,74hc244,13*%
X182885000Y-82540000D03*
%TO.P,74hc244,14*%
X180345000Y-82540000D03*
%TO.P,74hc244,15*%
X177805000Y-82540000D03*
%TO.P,74hc244,16*%
X175265000Y-82540000D03*
%TO.P,74hc244,17*%
X172725000Y-82540000D03*
%TO.P,74hc244,18*%
X170185000Y-82540000D03*
%TO.P,74hc244,19*%
X167645000Y-82540000D03*
%TO.P,74hc244,20*%
X165105000Y-82540000D03*
%TD*%
D12*
%TO.P,C,1*%
%TO.N,N/C*%
X138430000Y-101600000D03*
%TO.P,C,2*%
X138430000Y-99100000D03*
%TD*%
%TO.P,1k,1*%
%TO.N,N/C*%
X172085000Y-64770000D03*
D13*
%TO.P,1k,2*%
X182245000Y-64770000D03*
%TD*%
D10*
%TO.P,REF\u002A\u002A,1*%
%TO.N,N/C*%
X185420000Y-41910000D03*
D11*
%TO.P,REF\u002A\u002A,2*%
X187960000Y-41910000D03*
%TD*%
D12*
%TO.P,1k,1*%
%TO.N,N/C*%
X140970000Y-71755000D03*
D13*
%TO.P,1k,2*%
X151130000Y-71755000D03*
%TD*%
D12*
%TO.P,1k,1*%
%TO.N,N/C*%
X102870000Y-47625000D03*
D13*
%TO.P,1k,2*%
X102870000Y-57785000D03*
%TD*%
D10*
%TO.P,REF\u002A\u002A,1*%
%TO.N,N/C*%
X148590000Y-44450000D03*
D11*
%TO.P,REF\u002A\u002A,2*%
X148590000Y-41910000D03*
%TD*%
D10*
%TO.P,REF\u002A\u002A,1*%
%TO.N,N/C*%
X152400000Y-44450000D03*
D11*
%TO.P,REF\u002A\u002A,2*%
X152400000Y-41910000D03*
%TD*%
D10*
%TO.P,REF\u002A\u002A,1*%
%TO.N,N/C*%
X161290000Y-63500000D03*
D11*
%TO.P,REF\u002A\u002A,2*%
X163830000Y-63500000D03*
%TD*%
D14*
%TO.P,74hc244,1*%
%TO.N,N/C*%
X93980000Y-104140000D03*
D15*
%TO.P,74hc244,2*%
X96520000Y-104140000D03*
%TO.P,74hc244,3*%
X99060000Y-104140000D03*
%TO.P,74hc244,4*%
X101600000Y-104140000D03*
%TO.P,74hc244,5*%
X104140000Y-104140000D03*
%TO.P,74hc244,6*%
X106680000Y-104140000D03*
%TO.P,74hc244,7*%
X109220000Y-104140000D03*
%TO.P,74hc244,8*%
X111760000Y-104140000D03*
%TO.P,74hc244,9*%
X114300000Y-104140000D03*
%TO.P,74hc244,10*%
X116840000Y-104140000D03*
%TO.P,74hc244,11*%
X116840000Y-96520000D03*
%TO.P,74hc244,12*%
X114300000Y-96520000D03*
%TO.P,74hc244,13*%
X111760000Y-96520000D03*
%TO.P,74hc244,14*%
X109220000Y-96520000D03*
%TO.P,74hc244,15*%
X106680000Y-96520000D03*
%TO.P,74hc244,16*%
X104140000Y-96520000D03*
%TO.P,74hc244,17*%
X101600000Y-96520000D03*
%TO.P,74hc244,18*%
X99060000Y-96520000D03*
%TO.P,74hc244,19*%
X96520000Y-96520000D03*
%TO.P,74hc244,20*%
X93980000Y-96520000D03*
%TD*%
D10*
%TO.P,REF\u002A\u002A,1*%
%TO.N,N/C*%
X118110000Y-44450000D03*
D11*
%TO.P,REF\u002A\u002A,2*%
X118110000Y-41910000D03*
%TD*%
D10*
%TO.P,REF\u002A\u002A,1*%
%TO.N,N/C*%
X99060000Y-44450000D03*
D11*
%TO.P,REF\u002A\u002A,2*%
X99060000Y-41910000D03*
%TD*%
D16*
%TO.P,REF\u002A\u002A,1*%
%TO.N,N/C*%
X96520000Y-116840000D03*
D17*
%TO.P,REF\u002A\u002A,2*%
X99060000Y-116840000D03*
%TO.P,REF\u002A\u002A,3*%
X101600000Y-116840000D03*
%TO.P,REF\u002A\u002A,4*%
X104140000Y-116840000D03*
%TO.P,REF\u002A\u002A,5*%
X106680000Y-116840000D03*
%TO.P,REF\u002A\u002A,6*%
X109220000Y-116840000D03*
%TO.P,REF\u002A\u002A,7*%
X111760000Y-116840000D03*
%TO.P,REF\u002A\u002A,8*%
X114300000Y-116840000D03*
%TO.P,REF\u002A\u002A,9*%
X116840000Y-116840000D03*
%TO.P,REF\u002A\u002A,10*%
X119380000Y-116840000D03*
%TO.P,REF\u002A\u002A,11*%
X121920000Y-116840000D03*
%TO.P,REF\u002A\u002A,12*%
X124460000Y-116840000D03*
%TO.P,REF\u002A\u002A,13*%
X127000000Y-116840000D03*
%TO.P,REF\u002A\u002A,14*%
X129540000Y-116840000D03*
%TO.P,REF\u002A\u002A,15*%
X132080000Y-116840000D03*
%TO.P,REF\u002A\u002A,16*%
X134620000Y-116840000D03*
%TD*%
D14*
%TO.P,74hc244,1*%
%TO.N,N/C*%
X118110000Y-90170000D03*
D15*
%TO.P,74hc244,2*%
X120650000Y-90170000D03*
%TO.P,74hc244,3*%
X123190000Y-90170000D03*
%TO.P,74hc244,4*%
X125730000Y-90170000D03*
%TO.P,74hc244,5*%
X128270000Y-90170000D03*
%TO.P,74hc244,6*%
X130810000Y-90170000D03*
%TO.P,74hc244,7*%
X133350000Y-90170000D03*
%TO.P,74hc244,8*%
X135890000Y-90170000D03*
%TO.P,74hc244,9*%
X138430000Y-90170000D03*
%TO.P,74hc244,10*%
X140970000Y-90170000D03*
%TO.P,74hc244,11*%
X140970000Y-82550000D03*
%TO.P,74hc244,12*%
X138430000Y-82550000D03*
%TO.P,74hc244,13*%
X135890000Y-82550000D03*
%TO.P,74hc244,14*%
X133350000Y-82550000D03*
%TO.P,74hc244,15*%
X130810000Y-82550000D03*
%TO.P,74hc244,16*%
X128270000Y-82550000D03*
%TO.P,74hc244,17*%
X125730000Y-82550000D03*
%TO.P,74hc244,18*%
X123190000Y-82550000D03*
%TO.P,74hc244,19*%
X120650000Y-82550000D03*
%TO.P,74hc244,20*%
X118110000Y-82550000D03*
%TD*%
D12*
%TO.P,1k,1*%
%TO.N,N/C*%
X140970000Y-75565000D03*
D13*
%TO.P,1k,2*%
X151130000Y-75565000D03*
%TD*%
D12*
%TO.P,1k,1*%
%TO.N,N/C*%
X172085000Y-60960000D03*
D13*
%TO.P,1k,2*%
X182245000Y-60960000D03*
%TD*%
D12*
%TO.P,C,1*%
%TO.N,N/C*%
X93980000Y-92710000D03*
%TO.P,C,2*%
X96480000Y-92710000D03*
%TD*%
%TO.P,1k,1*%
%TO.N,N/C*%
X110490000Y-47625000D03*
D13*
%TO.P,1k,2*%
X110490000Y-57785000D03*
%TD*%
D12*
%TO.P,1k,1*%
%TO.N,N/C*%
X140970000Y-67945000D03*
D13*
%TO.P,1k,2*%
X151130000Y-67945000D03*
%TD*%
D10*
%TO.P,REF\u002A\u002A,1*%
%TO.N,N/C*%
X185420000Y-60960000D03*
D11*
%TO.P,REF\u002A\u002A,2*%
X187960000Y-60960000D03*
%TD*%
D12*
%TO.P,1k,1*%
%TO.N,N/C*%
X154940000Y-90170000D03*
D13*
%TO.P,1k,2*%
X154940000Y-80010000D03*
%TD*%
D10*
%TO.P,REF\u002A\u002A,1*%
%TO.N,N/C*%
X133350000Y-44450000D03*
D11*
%TO.P,REF\u002A\u002A,2*%
X133350000Y-41910000D03*
%TD*%
D10*
%TO.P,REF\u002A\u002A,1*%
%TO.N,N/C*%
X185420000Y-49530000D03*
D11*
%TO.P,REF\u002A\u002A,2*%
X187960000Y-49530000D03*
%TD*%
D10*
%TO.P,REF\u002A\u002A,1*%
%TO.N,N/C*%
X185420000Y-64770000D03*
D11*
%TO.P,REF\u002A\u002A,2*%
X187960000Y-64770000D03*
%TD*%
D10*
%TO.P,REF\u002A\u002A,1*%
%TO.N,N/C*%
X185420000Y-45720000D03*
D11*
%TO.P,REF\u002A\u002A,2*%
X187960000Y-45720000D03*
%TD*%
D12*
%TO.P,1k,1*%
%TO.N,N/C*%
X172085000Y-41910000D03*
D13*
%TO.P,1k,2*%
X182245000Y-41910000D03*
%TD*%
D12*
%TO.P,1k,1*%
%TO.N,N/C*%
X118110000Y-47625000D03*
D13*
%TO.P,1k,2*%
X118110000Y-57785000D03*
%TD*%
D16*
%TO.P,REF\u002A\u002A,1*%
%TO.N,N/C*%
X137160000Y-114300000D03*
D17*
%TO.P,REF\u002A\u002A,2*%
X137160000Y-116840000D03*
%TO.P,REF\u002A\u002A,3*%
X139700000Y-114300000D03*
%TO.P,REF\u002A\u002A,4*%
X139700000Y-116840000D03*
%TO.P,REF\u002A\u002A,5*%
X142240000Y-114300000D03*
%TO.P,REF\u002A\u002A,6*%
X142240000Y-116840000D03*
%TO.P,REF\u002A\u002A,7*%
X144780000Y-114300000D03*
%TO.P,REF\u002A\u002A,8*%
X144780000Y-116840000D03*
%TO.P,REF\u002A\u002A,9*%
X147320000Y-114300000D03*
%TO.P,REF\u002A\u002A,10*%
X147320000Y-116840000D03*
%TO.P,REF\u002A\u002A,11*%
X149860000Y-114300000D03*
%TO.P,REF\u002A\u002A,12*%
X149860000Y-116840000D03*
%TO.P,REF\u002A\u002A,13*%
X152400000Y-114300000D03*
%TO.P,REF\u002A\u002A,14*%
X152400000Y-116840000D03*
%TO.P,REF\u002A\u002A,15*%
X154940000Y-114300000D03*
%TO.P,REF\u002A\u002A,16*%
X154940000Y-116840000D03*
%TO.P,REF\u002A\u002A,17*%
X157480000Y-114300000D03*
%TO.P,REF\u002A\u002A,18*%
X157480000Y-116840000D03*
%TO.P,REF\u002A\u002A,19*%
X160020000Y-114300000D03*
%TO.P,REF\u002A\u002A,20*%
X160020000Y-116840000D03*
%TD*%
D10*
%TO.P,REF\u002A\u002A,1*%
%TO.N,N/C*%
X161290000Y-57150000D03*
D11*
%TO.P,REF\u002A\u002A,2*%
X163830000Y-57150000D03*
%TD*%
D10*
%TO.P,REF\u002A\u002A,1*%
%TO.N,N/C*%
X125730000Y-44450000D03*
D11*
%TO.P,REF\u002A\u002A,2*%
X125730000Y-41910000D03*
%TD*%
D12*
%TO.P,1k,1*%
%TO.N,N/C*%
X125730000Y-47625000D03*
D13*
%TO.P,1k,2*%
X125730000Y-57785000D03*
%TD*%
D12*
%TO.P,1k,1*%
%TO.N,N/C*%
X172085000Y-53340000D03*
D13*
%TO.P,1k,2*%
X182245000Y-53340000D03*
%TD*%
D12*
%TO.P,1k,1*%
%TO.N,N/C*%
X151130000Y-90170000D03*
D13*
%TO.P,1k,2*%
X151130000Y-80010000D03*
%TD*%
D12*
%TO.P,1k,1*%
%TO.N,N/C*%
X137160000Y-47625000D03*
D13*
%TO.P,1k,2*%
X137160000Y-57785000D03*
%TD*%
D12*
%TO.P,1k,1*%
%TO.N,N/C*%
X162560000Y-52070000D03*
D13*
%TO.P,1k,2*%
X162560000Y-41910000D03*
%TD*%
D12*
%TO.P,1k,1*%
%TO.N,N/C*%
X158750000Y-90170000D03*
D13*
%TO.P,1k,2*%
X158750000Y-80010000D03*
%TD*%
D12*
%TO.P,1k,1*%
%TO.N,N/C*%
X172085000Y-57150000D03*
D13*
%TO.P,1k,2*%
X182245000Y-57150000D03*
%TD*%
D10*
%TO.P,REF\u002A\u002A,1*%
%TO.N,N/C*%
X185420000Y-53340000D03*
D11*
%TO.P,REF\u002A\u002A,2*%
X187960000Y-53340000D03*
%TD*%
D10*
%TO.P,REF\u002A\u002A,1*%
%TO.N,N/C*%
X144780000Y-44450000D03*
D11*
%TO.P,REF\u002A\u002A,2*%
X144780000Y-41910000D03*
%TD*%
D10*
%TO.P,REF\u002A\u002A,1*%
%TO.N,N/C*%
X158115000Y-57150000D03*
D11*
%TO.P,REF\u002A\u002A,2*%
X155575000Y-57150000D03*
%TD*%
D10*
%TO.P,REF\u002A\u002A,1*%
%TO.N,N/C*%
X137160000Y-44450000D03*
D11*
%TO.P,REF\u002A\u002A,2*%
X137160000Y-41910000D03*
%TD*%
D12*
%TO.P,1k,1*%
%TO.N,N/C*%
X121920000Y-47625000D03*
D13*
%TO.P,1k,2*%
X121920000Y-57785000D03*
%TD*%
D10*
%TO.P,REF\u002A\u002A,1*%
%TO.N,N/C*%
X114300000Y-44450000D03*
D11*
%TO.P,REF\u002A\u002A,2*%
X114300000Y-41910000D03*
%TD*%
D10*
%TO.P,REF\u002A\u002A,1*%
%TO.N,N/C*%
X158115000Y-76200000D03*
D11*
%TO.P,REF\u002A\u002A,2*%
X155575000Y-76200000D03*
%TD*%
D10*
%TO.P,REF\u002A\u002A,1*%
%TO.N,N/C*%
X161290000Y-69850000D03*
D11*
%TO.P,REF\u002A\u002A,2*%
X163830000Y-69850000D03*
%TD*%
D12*
%TO.P,1k,1*%
%TO.N,N/C*%
X95250000Y-47625000D03*
D13*
%TO.P,1k,2*%
X95250000Y-57785000D03*
%TD*%
D12*
%TO.P,1k,1*%
%TO.N,N/C*%
X129540000Y-47625000D03*
D13*
%TO.P,1k,2*%
X129540000Y-57785000D03*
%TD*%
D12*
%TO.P,1k,1*%
%TO.N,N/C*%
X99060000Y-47625000D03*
D13*
%TO.P,1k,2*%
X99060000Y-57785000D03*
%TD*%
D10*
%TO.P,REF\u002A\u002A,1*%
%TO.N,N/C*%
X95250000Y-44450000D03*
D11*
%TO.P,REF\u002A\u002A,2*%
X95250000Y-41910000D03*
%TD*%
D10*
%TO.P,REF\u002A\u002A,1*%
%TO.N,N/C*%
X158115000Y-69850000D03*
D11*
%TO.P,REF\u002A\u002A,2*%
X155575000Y-69850000D03*
%TD*%
D12*
%TO.P,1k,1*%
%TO.N,N/C*%
X152400000Y-47625000D03*
D13*
%TO.P,1k,2*%
X152400000Y-57785000D03*
%TD*%
D12*
%TO.P,1k,1*%
%TO.N,N/C*%
X133350000Y-47625000D03*
D13*
%TO.P,1k,2*%
X133350000Y-57785000D03*
%TD*%
D12*
%TO.P,1k,1*%
%TO.N,N/C*%
X148590000Y-47625000D03*
D13*
%TO.P,1k,2*%
X148590000Y-57785000D03*
%TD*%
D12*
%TO.P,1k,1*%
%TO.N,N/C*%
X172085000Y-45720000D03*
D13*
%TO.P,1k,2*%
X182245000Y-45720000D03*
%TD*%
D12*
%TO.P,C,1*%
%TO.N,N/C*%
X161925000Y-85090000D03*
%TO.P,C,2*%
X161925000Y-82590000D03*
%TD*%
D16*
%TO.P,REF\u002A\u002A,1*%
%TO.N,N/C*%
X162560000Y-116840000D03*
D17*
%TO.P,REF\u002A\u002A,2*%
X165100000Y-116840000D03*
%TO.P,REF\u002A\u002A,3*%
X167640000Y-116840000D03*
%TO.P,REF\u002A\u002A,4*%
X170180000Y-116840000D03*
%TO.P,REF\u002A\u002A,5*%
X172720000Y-116840000D03*
%TO.P,REF\u002A\u002A,6*%
X175260000Y-116840000D03*
%TO.P,REF\u002A\u002A,7*%
X177800000Y-116840000D03*
%TO.P,REF\u002A\u002A,8*%
X180340000Y-116840000D03*
%TO.P,REF\u002A\u002A,9*%
X182880000Y-116840000D03*
%TO.P,REF\u002A\u002A,10*%
X185420000Y-116840000D03*
%TD*%
D12*
%TO.P,C,1*%
%TO.N,N/C*%
X114300000Y-87630000D03*
%TO.P,C,2*%
X114300000Y-85130000D03*
%TD*%
%TO.P,1k,1*%
%TO.N,N/C*%
X140970000Y-64135000D03*
D13*
%TO.P,1k,2*%
X151130000Y-64135000D03*
%TD*%
D12*
%TO.P,1k,1*%
%TO.N,N/C*%
X144780000Y-47625000D03*
D13*
%TO.P,1k,2*%
X144780000Y-57785000D03*
%TD*%
D10*
%TO.P,REF\u002A\u002A,1*%
%TO.N,N/C*%
X185420000Y-68580000D03*
D11*
%TO.P,REF\u002A\u002A,2*%
X187960000Y-68580000D03*
%TD*%
D12*
%TO.P,1k,1*%
%TO.N,N/C*%
X140970000Y-47625000D03*
D13*
%TO.P,1k,2*%
X140970000Y-57785000D03*
%TD*%
D10*
%TO.P,REF\u002A\u002A,1*%
%TO.N,N/C*%
X158115000Y-63500000D03*
D11*
%TO.P,REF\u002A\u002A,2*%
X155575000Y-63500000D03*
%TD*%
D10*
%TO.P,REF\u002A\u002A,1*%
%TO.N,N/C*%
X121920000Y-44450000D03*
D11*
%TO.P,REF\u002A\u002A,2*%
X121920000Y-41910000D03*
%TD*%
D14*
%TO.P,74hc244,1*%
%TO.N,N/C*%
X142245000Y-104130000D03*
D15*
%TO.P,74hc244,2*%
X144785000Y-104130000D03*
%TO.P,74hc244,3*%
X147325000Y-104130000D03*
%TO.P,74hc244,4*%
X149865000Y-104130000D03*
%TO.P,74hc244,5*%
X152405000Y-104130000D03*
%TO.P,74hc244,6*%
X154945000Y-104130000D03*
%TO.P,74hc244,7*%
X157485000Y-104130000D03*
%TO.P,74hc244,8*%
X160025000Y-104130000D03*
%TO.P,74hc244,9*%
X162565000Y-104130000D03*
%TO.P,74hc244,10*%
X165105000Y-104130000D03*
%TO.P,74hc244,11*%
X165105000Y-96510000D03*
%TO.P,74hc244,12*%
X162565000Y-96510000D03*
%TO.P,74hc244,13*%
X160025000Y-96510000D03*
%TO.P,74hc244,14*%
X157485000Y-96510000D03*
%TO.P,74hc244,15*%
X154945000Y-96510000D03*
%TO.P,74hc244,16*%
X152405000Y-96510000D03*
%TO.P,74hc244,17*%
X149865000Y-96510000D03*
%TO.P,74hc244,18*%
X147325000Y-96510000D03*
%TO.P,74hc244,19*%
X144785000Y-96510000D03*
%TO.P,74hc244,20*%
X142245000Y-96510000D03*
%TD*%
D12*
%TO.P,1k,1*%
%TO.N,N/C*%
X172085000Y-68580000D03*
D13*
%TO.P,1k,2*%
X182245000Y-68580000D03*
%TD*%
D10*
%TO.P,REF\u002A\u002A,1*%
%TO.N,N/C*%
X106680000Y-44450000D03*
D11*
%TO.P,REF\u002A\u002A,2*%
X106680000Y-41910000D03*
%TD*%
D18*
%TO.N,*%
X170180000Y-113030000D03*
X180340000Y-76200000D03*
X180340000Y-73660000D03*
X172720000Y-110490000D03*
X172720000Y-104140000D03*
X176530000Y-113030000D03*
X173990000Y-111760000D03*
X175260000Y-104140000D03*
X185420000Y-76200000D03*
X176530000Y-104140000D03*
X180340000Y-76200000D03*
X184150000Y-73660000D03*
X173990000Y-104140000D03*
X175260000Y-114300000D03*
X170180000Y-105410000D03*
X163830000Y-110490000D03*
X168910000Y-109220000D03*
%TD*%
D19*
%TO.N,*%
X151130000Y-78740000D02*
X156210000Y-73660000D01*
X177800000Y-71120000D02*
X177800000Y-67310000D01*
X96520000Y-99060000D02*
X96520000Y-96520000D01*
X153670000Y-92710000D02*
X151130000Y-90170000D01*
X163830000Y-67310000D02*
X163830000Y-69850000D01*
X149860000Y-114300000D02*
X149865000Y-114295000D01*
X172720000Y-110490000D02*
X180340000Y-110490000D01*
X97790000Y-83820000D02*
X105410000Y-91440000D01*
X96520000Y-96520000D02*
X96520000Y-92750000D01*
X167645000Y-101605000D02*
X167645000Y-90160000D01*
X138430000Y-97790000D02*
X139710000Y-96510000D01*
X167645000Y-85085000D02*
X167645000Y-82540000D01*
X134620000Y-102870000D02*
X129540000Y-107950000D01*
X166370000Y-41910000D02*
X162560000Y-41910000D01*
X93980000Y-59055000D02*
X95250000Y-57785000D01*
X172085000Y-53340000D02*
X170180000Y-55245000D01*
X166370000Y-78740000D02*
X166370000Y-41910000D01*
X147320000Y-92710000D02*
X148590000Y-93980000D01*
X168910000Y-76200000D02*
X171450000Y-78740000D01*
D20*
X187960000Y-39370000D02*
X187960000Y-41910000D01*
X95250000Y-41910000D02*
X99060000Y-41910000D01*
D19*
X182245000Y-49530000D02*
X185420000Y-49530000D01*
X149865000Y-114295000D02*
X149865000Y-104130000D01*
X147955000Y-85090000D02*
X147320000Y-84455000D01*
X144780000Y-80010000D02*
X144780000Y-92710000D01*
X185425000Y-85095000D02*
X185425000Y-90160000D01*
X136525000Y-78105000D02*
X136525000Y-62865000D01*
X134620000Y-105410000D02*
X137160000Y-102870000D01*
X100330000Y-100330000D02*
X101600000Y-99060000D01*
X104775000Y-59690000D02*
X102870000Y-59690000D01*
X93980000Y-104140000D02*
X93980000Y-101600000D01*
X153670000Y-109220000D02*
X154945000Y-107945000D01*
D20*
X137160000Y-41910000D02*
X140970000Y-41910000D01*
D19*
X151130000Y-75565000D02*
X151765000Y-75565000D01*
X118110000Y-90170000D02*
X118110000Y-86360000D01*
X182885000Y-86365000D02*
X184150000Y-87630000D01*
X129540000Y-105410000D02*
X129540000Y-86360000D01*
X142245000Y-100335000D02*
X142240000Y-100330000D01*
X163830000Y-78740000D02*
X166370000Y-78740000D01*
X106680000Y-47625000D02*
X106680000Y-44450000D01*
X143510000Y-115570000D02*
X143510000Y-109220000D01*
X110490000Y-107950000D02*
X110490000Y-100330000D01*
X180345000Y-87625000D02*
X181610000Y-86360000D01*
X147325000Y-100335000D02*
X147325000Y-104130000D01*
D20*
X189980000Y-90160000D02*
X187965000Y-90160000D01*
D19*
X129540000Y-47625000D02*
X129540000Y-44450000D01*
X181610000Y-73660000D02*
X179070000Y-71120000D01*
X135890000Y-82550000D02*
X135890000Y-86360000D01*
X107950000Y-60325000D02*
X110490000Y-57785000D01*
X182885000Y-90160000D02*
X182885000Y-104135000D01*
X135890000Y-102870000D02*
X135890000Y-90170000D01*
X170185000Y-86355000D02*
X170185000Y-90160000D01*
X167640000Y-107950000D02*
X166370000Y-109220000D01*
X105410000Y-91440000D02*
X105410000Y-101600000D01*
X120015000Y-59690000D02*
X121920000Y-57785000D01*
X165100000Y-87630000D02*
X167645000Y-85085000D01*
X99695000Y-59690000D02*
X100965000Y-59690000D01*
X124460000Y-110490000D02*
X129540000Y-105410000D01*
X157485000Y-104130000D02*
X157485000Y-99065000D01*
X99060000Y-109220000D02*
X100330000Y-107950000D01*
X152405000Y-99065000D02*
X152400000Y-99060000D01*
X167640000Y-41910000D02*
X172085000Y-41910000D01*
X144780000Y-93980000D02*
X143510000Y-92710000D01*
X171450000Y-78740000D02*
X171450000Y-85090000D01*
X165105000Y-97785000D02*
X165105000Y-96510000D01*
X142240000Y-100330000D02*
X144785000Y-97785000D01*
X102870000Y-82550000D02*
X102870000Y-74930000D01*
X124460000Y-86360000D02*
X125730000Y-85090000D01*
X119380000Y-116840000D02*
X119380000Y-113030000D01*
X153035000Y-62865000D02*
X153035000Y-64135000D01*
X142245000Y-104130000D02*
X142245000Y-100335000D01*
X99060000Y-47625000D02*
X99060000Y-44450000D01*
X97790000Y-64770000D02*
X97790000Y-83820000D01*
X106680000Y-96520000D02*
X106680000Y-101600000D01*
X160655000Y-81915000D02*
X163830000Y-78740000D01*
X172725000Y-95255000D02*
X172725000Y-90160000D01*
X115570000Y-99060000D02*
X115570000Y-95250000D01*
X157480000Y-99060000D02*
X158750000Y-99060000D01*
D20*
X118110000Y-41910000D02*
X121920000Y-41910000D01*
D19*
X152400000Y-108585000D02*
X153670000Y-107315000D01*
X118110000Y-47625000D02*
X118110000Y-44450000D01*
X137160000Y-102870000D02*
X137160000Y-95250000D01*
X152400000Y-116840000D02*
X153670000Y-115570000D01*
X152400000Y-47625000D02*
X152400000Y-44450000D01*
X116840000Y-99060000D02*
X116840000Y-96520000D01*
X165100000Y-109220000D02*
X165100000Y-116840000D01*
X180340000Y-110490000D02*
X180340000Y-116840000D01*
X119380000Y-113030000D02*
X124460000Y-107950000D01*
X160025000Y-99055000D02*
X160025000Y-96510000D01*
X161290000Y-100330000D02*
X161290000Y-95250000D01*
X157485000Y-92715000D02*
X157485000Y-96510000D01*
X162560000Y-116840000D02*
X162560000Y-110490000D01*
X118110000Y-57785000D02*
X115570000Y-60325000D01*
X161290000Y-80010000D02*
X162560000Y-78740000D01*
X143510000Y-109220000D02*
X144785000Y-107945000D01*
D20*
X125730000Y-41910000D02*
X129540000Y-41910000D01*
D19*
X146050000Y-74930000D02*
X141605000Y-74930000D01*
X173990000Y-102870000D02*
X173990000Y-104140000D01*
D20*
X133350000Y-41910000D02*
X137160000Y-41910000D01*
D19*
X102870000Y-109220000D02*
X102870000Y-115570000D01*
D20*
X152400000Y-41910000D02*
X152400000Y-39370000D01*
D19*
X140970000Y-78740000D02*
X143510000Y-78740000D01*
X175260000Y-116840000D02*
X175260000Y-114300000D01*
X121920000Y-47625000D02*
X121920000Y-44450000D01*
X110490000Y-44450000D02*
X110490000Y-47625000D01*
X161925000Y-87630000D02*
X161925000Y-85090000D01*
X128270000Y-105410000D02*
X128270000Y-92710000D01*
X184150000Y-107950000D02*
X167640000Y-107950000D01*
X176530000Y-86360000D02*
X177805000Y-85085000D01*
X148590000Y-115570000D02*
X148590000Y-100330000D01*
X102870000Y-74930000D02*
X118110000Y-59690000D01*
X152400000Y-70485000D02*
X152400000Y-66040000D01*
X102870000Y-115570000D02*
X104140000Y-116840000D01*
X114300000Y-104140000D02*
X114300000Y-100330000D01*
X172720000Y-68580000D02*
X171450000Y-68580000D01*
X106680000Y-101600000D02*
X105410000Y-102870000D01*
X105410000Y-101600000D02*
X104140000Y-102870000D01*
X116840000Y-114300000D02*
X116840000Y-116840000D01*
X177800000Y-111760000D02*
X173990000Y-111760000D01*
X140335000Y-55245000D02*
X144145000Y-55245000D01*
X99060000Y-99060000D02*
X100330000Y-97790000D01*
X154940000Y-60960000D02*
X153035000Y-62865000D01*
X172725000Y-82540000D02*
X172725000Y-85085000D01*
X171450000Y-85090000D02*
X170185000Y-86355000D01*
X179070000Y-71120000D02*
X179070000Y-64770000D01*
X118110000Y-90170000D02*
X114300000Y-90170000D01*
X144780000Y-92710000D02*
X147320000Y-92710000D01*
X132080000Y-106680000D02*
X135890000Y-102870000D01*
X181610000Y-86360000D02*
X181610000Y-73660000D01*
X186690000Y-83820000D02*
X185420000Y-85090000D01*
D20*
X187960000Y-68580000D02*
X189990000Y-70610000D01*
D19*
X182245000Y-41910000D02*
X185420000Y-41910000D01*
X129540000Y-107950000D02*
X129540000Y-116840000D01*
X100330000Y-107950000D02*
X100330000Y-100330000D01*
X135890000Y-57785000D02*
X137160000Y-57785000D01*
D20*
X106680000Y-41910000D02*
X110490000Y-41910000D01*
D19*
X109220000Y-104140000D02*
X109220000Y-99060000D01*
X115570000Y-60325000D02*
X113665000Y-60325000D01*
X156210000Y-70485000D02*
X155575000Y-69850000D01*
X182885000Y-82540000D02*
X182885000Y-86365000D01*
X133350000Y-102870000D02*
X127000000Y-109220000D01*
X138430000Y-78105000D02*
X138430000Y-70485000D01*
X128270000Y-90170000D02*
X128270000Y-85090000D01*
X129540000Y-86360000D02*
X130810000Y-85090000D01*
X138430000Y-70485000D02*
X140970000Y-67945000D01*
X162565000Y-95255000D02*
X161290000Y-93980000D01*
X93980000Y-101600000D02*
X96520000Y-99060000D01*
D20*
X102870000Y-41910000D02*
X106680000Y-41910000D01*
D19*
X151130000Y-61595000D02*
X151130000Y-64135000D01*
X154940000Y-63500000D02*
X155575000Y-63500000D01*
X175265000Y-85095000D02*
X175265000Y-90160000D01*
X111760000Y-60325000D02*
X114300000Y-57785000D01*
X121920000Y-91440000D02*
X121920000Y-109220000D01*
D20*
X110490000Y-41910000D02*
X114300000Y-41910000D01*
D19*
X128270000Y-57785000D02*
X129540000Y-57785000D01*
X100330000Y-69850000D02*
X109855000Y-60325000D01*
X99060000Y-67310000D02*
X106045000Y-60325000D01*
X109220000Y-116840000D02*
X109220000Y-109220000D01*
X109220000Y-96520000D02*
X109220000Y-93345000D01*
X156210000Y-109220000D02*
X158750000Y-106680000D01*
X124460000Y-61595000D02*
X128270000Y-57785000D01*
X110490000Y-97790000D02*
X110490000Y-92710000D01*
X101600000Y-99060000D02*
X101600000Y-96520000D01*
X128270000Y-85090000D02*
X129540000Y-85090000D01*
X186690000Y-86360000D02*
X187965000Y-85085000D01*
X143510000Y-92710000D02*
X143510000Y-80010000D01*
X161290000Y-89535000D02*
X160020000Y-88265000D01*
D20*
X148590000Y-41910000D02*
X152400000Y-41910000D01*
D19*
X113665000Y-60325000D02*
X101600000Y-72390000D01*
X130810000Y-85090000D02*
X130810000Y-82550000D01*
X175260000Y-97790000D02*
X172725000Y-95255000D01*
X152400000Y-66040000D02*
X154940000Y-63500000D01*
X101600000Y-116840000D02*
X101600000Y-104140000D01*
X111760000Y-104140000D02*
X111760000Y-116840000D01*
X151130000Y-71755000D02*
X152400000Y-70485000D01*
X137160000Y-95250000D02*
X139700000Y-92710000D01*
X147320000Y-100330000D02*
X147325000Y-100335000D01*
X160020000Y-88265000D02*
X160020000Y-81915000D01*
X115570000Y-107950000D02*
X115570000Y-100330000D01*
X109220000Y-99060000D02*
X110490000Y-97790000D01*
X170180000Y-116840000D02*
X170180000Y-113030000D01*
X118110000Y-86360000D02*
X120650000Y-83820000D01*
X184150000Y-87630000D02*
X184150000Y-107950000D01*
X186690000Y-109220000D02*
X186690000Y-86360000D01*
X139700000Y-81280000D02*
X136525000Y-78105000D01*
X170180000Y-55245000D02*
X170180000Y-71120000D01*
X163830000Y-99060000D02*
X165105000Y-97785000D01*
X184150000Y-78740000D02*
X185425000Y-80015000D01*
X124460000Y-116840000D02*
X124460000Y-110490000D01*
X173990000Y-113030000D02*
X172720000Y-114300000D01*
X138430000Y-90170000D02*
X138430000Y-85090000D01*
D20*
X168910000Y-39370000D02*
X187960000Y-39370000D01*
X144780000Y-41910000D02*
X148590000Y-41910000D01*
D19*
X105410000Y-106680000D02*
X102870000Y-109220000D01*
X138430000Y-99100000D02*
X138430000Y-97790000D01*
X101600000Y-72390000D02*
X101600000Y-82550000D01*
X151765000Y-75565000D02*
X153670000Y-73660000D01*
X139715000Y-101600000D02*
X142245000Y-104130000D01*
X182245000Y-60960000D02*
X185420000Y-60960000D01*
X100330000Y-82550000D02*
X100330000Y-69850000D01*
X163830000Y-60960000D02*
X154940000Y-60960000D01*
X154940000Y-80010000D02*
X154940000Y-76835000D01*
D20*
X139700000Y-116840000D02*
X139700000Y-114300000D01*
D19*
X147325000Y-96510000D02*
X147325000Y-95255000D01*
X180345000Y-90160000D02*
X180345000Y-87625000D01*
X100330000Y-91440000D02*
X95250000Y-86360000D01*
X140970000Y-85090000D02*
X140970000Y-82550000D01*
X177800000Y-105410000D02*
X177800000Y-90165000D01*
X93980000Y-86360000D02*
X93980000Y-59055000D01*
X151130000Y-80010000D02*
X151130000Y-78740000D01*
X144780000Y-47625000D02*
X144780000Y-44450000D01*
X187965000Y-85085000D02*
X187965000Y-82540000D01*
X153670000Y-73660000D02*
X153670000Y-67310000D01*
X139700000Y-73025000D02*
X139700000Y-77470000D01*
D20*
X99060000Y-41910000D02*
X102870000Y-41910000D01*
D19*
X125730000Y-47625000D02*
X125730000Y-44450000D01*
X110490000Y-92710000D02*
X100330000Y-82550000D01*
X136525000Y-62865000D02*
X139700000Y-59690000D01*
X99060000Y-96520000D02*
X99060000Y-91440000D01*
X133350000Y-92710000D02*
X133350000Y-102870000D01*
X182245000Y-53340000D02*
X185420000Y-53340000D01*
X154945000Y-107945000D02*
X154945000Y-104130000D01*
X110490000Y-100330000D02*
X111760000Y-99060000D01*
X143510000Y-80010000D02*
X140335000Y-80010000D01*
X139700000Y-86360000D02*
X140970000Y-85090000D01*
X170180000Y-71120000D02*
X176530000Y-77470000D01*
D20*
X140970000Y-41910000D02*
X144780000Y-41910000D01*
D19*
X171450000Y-100330000D02*
X173990000Y-102870000D01*
X184150000Y-73660000D02*
X184150000Y-78740000D01*
X172725000Y-85085000D02*
X171450000Y-86360000D01*
X109855000Y-60325000D02*
X111760000Y-60325000D01*
X142240000Y-116840000D02*
X143510000Y-115570000D01*
X115570000Y-100330000D02*
X116840000Y-99060000D01*
X175260000Y-85090000D02*
X175265000Y-85095000D01*
X170180000Y-105410000D02*
X177800000Y-105410000D01*
X176530000Y-77470000D02*
X176530000Y-85090000D01*
X180340000Y-106680000D02*
X167640000Y-106680000D01*
X162560000Y-78740000D02*
X162560000Y-77470000D01*
X114300000Y-116840000D02*
X114300000Y-109220000D01*
X121920000Y-109220000D02*
X116840000Y-114300000D01*
X186690000Y-77470000D02*
X186690000Y-83820000D01*
X139382500Y-56197500D02*
X140335000Y-55245000D01*
X137160000Y-47625000D02*
X137160000Y-44450000D01*
D20*
X137160000Y-109215000D02*
X142245000Y-104130000D01*
D19*
X151130000Y-66040000D02*
X151130000Y-67945000D01*
X106680000Y-57785000D02*
X104775000Y-59690000D01*
X160020000Y-89535000D02*
X155575000Y-85090000D01*
X139710000Y-96510000D02*
X142245000Y-96510000D01*
X124460000Y-107950000D02*
X124460000Y-86360000D01*
D20*
X187960000Y-41910000D02*
X187960000Y-68580000D01*
D19*
X175260000Y-64770000D02*
X171450000Y-64770000D01*
X100330000Y-97790000D02*
X100330000Y-91440000D01*
X124460000Y-85090000D02*
X124460000Y-61595000D01*
X104140000Y-96520000D02*
X104140000Y-93980000D01*
X153670000Y-107315000D02*
X153670000Y-99060000D01*
X111760000Y-99060000D02*
X111760000Y-96520000D01*
X172720000Y-104140000D02*
X170180000Y-104140000D01*
X162565000Y-101605000D02*
X161290000Y-100330000D01*
X167640000Y-77470000D02*
X167640000Y-41910000D01*
X102870000Y-47625000D02*
X102870000Y-44450000D01*
X125730000Y-85090000D02*
X125730000Y-82550000D01*
X104140000Y-102870000D02*
X104140000Y-104140000D01*
X155575000Y-85090000D02*
X147955000Y-85090000D01*
X105410000Y-102870000D02*
X105410000Y-106680000D01*
X129540000Y-85090000D02*
X129540000Y-64135000D01*
X165105000Y-87635000D02*
X165100000Y-87630000D01*
D20*
X152400000Y-39370000D02*
X168910000Y-39370000D01*
D19*
X104140000Y-93980000D02*
X96520000Y-86360000D01*
X167640000Y-106680000D02*
X165100000Y-109220000D01*
X182245000Y-45720000D02*
X185420000Y-45720000D01*
X181610000Y-68580000D02*
X185420000Y-68580000D01*
X176530000Y-104140000D02*
X176530000Y-86360000D01*
X177800000Y-116840000D02*
X177800000Y-111760000D01*
X163830000Y-57150000D02*
X163830000Y-53340000D01*
X179070000Y-64770000D02*
X175260000Y-60960000D01*
X164455000Y-90160000D02*
X161925000Y-87630000D01*
X138430000Y-85090000D02*
X139700000Y-83820000D01*
X133350000Y-86360000D02*
X134620000Y-85090000D01*
X134620000Y-62230000D02*
X139382500Y-57467500D01*
X127000000Y-109220000D02*
X127000000Y-116840000D01*
X185420000Y-76200000D02*
X186690000Y-77470000D01*
D20*
X114300000Y-41910000D02*
X118110000Y-41910000D01*
D19*
X147320000Y-84455000D02*
X147320000Y-65405000D01*
X149865000Y-99055000D02*
X149865000Y-96510000D01*
X161290000Y-95250000D02*
X160020000Y-93980000D01*
X96520000Y-92750000D02*
X96480000Y-92710000D01*
X152400000Y-99060000D02*
X153670000Y-97790000D01*
X158750000Y-109220000D02*
X160025000Y-107945000D01*
X101600000Y-82550000D02*
X114300000Y-95250000D01*
X132080000Y-116840000D02*
X132080000Y-106680000D01*
X157485000Y-99065000D02*
X157480000Y-99060000D01*
X148590000Y-91440000D02*
X146050000Y-91440000D01*
X182885000Y-104135000D02*
X180340000Y-106680000D01*
X160020000Y-93980000D02*
X160020000Y-89535000D01*
X162560000Y-110490000D02*
X163830000Y-110490000D01*
X148590000Y-47625000D02*
X148590000Y-44450000D01*
D20*
X129540000Y-41910000D02*
X133350000Y-41910000D01*
D19*
X162560000Y-77470000D02*
X163830000Y-76200000D01*
X106680000Y-104140000D02*
X106680000Y-116840000D01*
X176530000Y-113030000D02*
X173990000Y-113030000D01*
X133350000Y-47625000D02*
X133350000Y-44450000D01*
X130810000Y-90170000D02*
X133350000Y-92710000D01*
X99060000Y-83185000D02*
X99060000Y-67310000D01*
X114300000Y-90170000D02*
X114300000Y-87630000D01*
X118110000Y-59690000D02*
X120015000Y-59690000D01*
X161290000Y-115570000D02*
X161290000Y-109220000D01*
X154940000Y-76835000D02*
X155575000Y-76200000D01*
X96520000Y-62865000D02*
X99695000Y-59690000D01*
X152400000Y-55880000D02*
X152400000Y-57785000D01*
X181610000Y-64770000D02*
X185420000Y-64770000D01*
X147325000Y-95255000D02*
X146050000Y-93980000D01*
X99060000Y-91440000D02*
X93980000Y-86360000D01*
X177805000Y-85085000D02*
X177805000Y-82540000D01*
X99060000Y-116840000D02*
X99060000Y-109220000D01*
X153670000Y-97790000D02*
X153670000Y-92710000D01*
X114300000Y-95250000D02*
X114300000Y-96520000D01*
X114300000Y-47625000D02*
X114300000Y-44450000D01*
X95250000Y-47625000D02*
X95250000Y-44450000D01*
X121920000Y-116840000D02*
X121920000Y-111760000D01*
X162565000Y-104130000D02*
X162565000Y-101605000D01*
X171450000Y-86360000D02*
X171450000Y-100330000D01*
X144785000Y-107945000D02*
X144785000Y-104130000D01*
X139382500Y-57467500D02*
X139382500Y-56197500D01*
D20*
X137160000Y-116840000D02*
X137160000Y-114300000D01*
D19*
X109220000Y-93345000D02*
X99060000Y-83185000D01*
X138430000Y-101600000D02*
X139715000Y-101600000D01*
X185425000Y-80015000D02*
X185425000Y-82540000D01*
X163830000Y-53340000D02*
X162560000Y-52070000D01*
X182245000Y-57150000D02*
X185420000Y-57150000D01*
X170185000Y-80015000D02*
X167640000Y-77470000D01*
X135890000Y-86360000D02*
X134620000Y-87630000D01*
X177800000Y-67310000D02*
X175260000Y-64770000D01*
X172085000Y-45720000D02*
X168910000Y-48895000D01*
X96520000Y-104140000D02*
X96520000Y-116840000D01*
D20*
X137160000Y-114300000D02*
X137160000Y-109215000D01*
D19*
X165105000Y-90160000D02*
X165105000Y-87635000D01*
X158750000Y-100330000D02*
X160025000Y-99055000D01*
X170185000Y-82540000D02*
X170185000Y-80015000D01*
X151765000Y-55245000D02*
X152400000Y-55880000D01*
X175260000Y-60960000D02*
X172085000Y-60960000D01*
X95250000Y-61595000D02*
X99060000Y-57785000D01*
X121920000Y-111760000D02*
X128270000Y-105410000D01*
X160020000Y-116840000D02*
X161290000Y-115570000D01*
X148590000Y-100330000D02*
X149865000Y-99055000D01*
X180340000Y-73660000D02*
X177800000Y-71120000D01*
X106045000Y-60325000D02*
X107950000Y-60325000D01*
X148590000Y-99060000D02*
X147320000Y-100330000D01*
X156210000Y-73660000D02*
X156210000Y-70485000D01*
X158750000Y-115570000D02*
X158750000Y-109220000D01*
X170180000Y-104140000D02*
X167645000Y-101605000D01*
X162565000Y-96510000D02*
X162565000Y-95255000D01*
X153670000Y-115570000D02*
X153670000Y-109220000D01*
X160020000Y-81915000D02*
X160655000Y-81915000D01*
X134620000Y-116840000D02*
X134620000Y-105410000D01*
X114300000Y-100330000D02*
X115570000Y-99060000D01*
X146685000Y-59690000D02*
X146685000Y-56515000D01*
X168910000Y-48895000D02*
X168910000Y-76200000D01*
X102870000Y-59690000D02*
X97790000Y-64770000D01*
X154945000Y-97785000D02*
X154945000Y-96510000D01*
X139700000Y-83820000D02*
X139700000Y-81280000D01*
X144780000Y-55880000D02*
X144780000Y-57785000D01*
X96520000Y-86360000D02*
X96520000Y-62865000D01*
X155575000Y-57150000D02*
X151130000Y-61595000D01*
X146050000Y-64135000D02*
X140970000Y-64135000D01*
X175260000Y-104140000D02*
X175260000Y-97790000D01*
X152405000Y-96510000D02*
X152405000Y-95255000D01*
X180340000Y-76200000D02*
X172720000Y-68580000D01*
X140970000Y-71755000D02*
X139700000Y-73025000D01*
X144145000Y-55245000D02*
X144780000Y-55880000D01*
X129540000Y-64135000D02*
X135890000Y-57785000D01*
X176530000Y-85090000D02*
X175260000Y-85090000D01*
X139700000Y-77470000D02*
X140970000Y-78740000D01*
X158750000Y-106680000D02*
X158750000Y-100330000D01*
X146685000Y-56515000D02*
X147955000Y-55245000D01*
X156210000Y-115570000D02*
X156210000Y-109220000D01*
X140335000Y-80010000D02*
X138430000Y-78105000D01*
X143510000Y-78740000D02*
X144780000Y-80010000D01*
X152405000Y-104130000D02*
X152405000Y-99065000D01*
X147320000Y-116840000D02*
X148590000Y-115570000D01*
X133350000Y-90170000D02*
X133350000Y-86360000D01*
X123190000Y-85090000D02*
X124460000Y-85090000D01*
X109220000Y-109220000D02*
X110490000Y-107950000D01*
X166370000Y-115570000D02*
X167640000Y-116840000D01*
X153670000Y-67310000D02*
X163830000Y-67310000D01*
X154940000Y-116840000D02*
X156210000Y-115570000D01*
X152405000Y-95255000D02*
X148590000Y-91440000D01*
X120650000Y-90170000D02*
X121920000Y-91440000D01*
X139700000Y-59690000D02*
X146685000Y-59690000D01*
X146050000Y-93980000D02*
X144780000Y-93980000D01*
X161290000Y-93980000D02*
X161290000Y-89535000D01*
X147955000Y-55245000D02*
X151765000Y-55245000D01*
X128270000Y-92710000D02*
X125730000Y-90170000D01*
X154940000Y-90170000D02*
X157485000Y-92715000D01*
X134620000Y-85090000D02*
X134620000Y-62230000D01*
X160025000Y-107945000D02*
X160025000Y-104130000D01*
X123190000Y-90170000D02*
X123190000Y-85090000D01*
X153035000Y-64135000D02*
X151130000Y-66040000D01*
X140970000Y-47625000D02*
X140970000Y-44450000D01*
X148590000Y-93980000D02*
X148590000Y-99060000D01*
X158750000Y-80010000D02*
X161290000Y-80010000D01*
X115570000Y-95250000D02*
X102870000Y-82550000D01*
X144785000Y-97785000D02*
X144785000Y-96510000D01*
X172720000Y-114300000D02*
X172720000Y-116840000D01*
D20*
X121920000Y-41910000D02*
X125730000Y-41910000D01*
D19*
X139700000Y-92710000D02*
X139700000Y-86360000D01*
X158750000Y-99060000D02*
X158750000Y-90170000D01*
X177800000Y-90165000D02*
X177805000Y-90160000D01*
X95250000Y-86360000D02*
X95250000Y-61595000D01*
X161290000Y-109220000D02*
X163830000Y-106680000D01*
X168910000Y-109220000D02*
X186690000Y-109220000D01*
X141605000Y-74930000D02*
X140970000Y-75565000D01*
X100965000Y-59690000D02*
X102870000Y-57785000D01*
X153670000Y-99060000D02*
X154945000Y-97785000D01*
X152400000Y-114300000D02*
X152400000Y-108585000D01*
X134620000Y-87630000D02*
X134620000Y-102870000D01*
X146050000Y-91440000D02*
X146050000Y-74930000D01*
X163830000Y-106680000D02*
X163830000Y-99060000D01*
X114300000Y-109220000D02*
X115570000Y-107950000D01*
X120650000Y-83820000D02*
X120650000Y-82550000D01*
X147320000Y-65405000D02*
X146050000Y-64135000D01*
X165105000Y-90160000D02*
X164455000Y-90160000D01*
X157480000Y-116840000D02*
X158750000Y-115570000D01*
X185420000Y-85090000D02*
X185425000Y-85095000D01*
X163830000Y-63500000D02*
X163830000Y-60960000D01*
X99060000Y-104140000D02*
X99060000Y-99060000D01*
X166370000Y-109220000D02*
X166370000Y-115570000D01*
D20*
X189990000Y-70610000D02*
X189990000Y-90170000D01*
%TD*%
M02*
