%TF.GenerationSoftware,KiCad,Pcbnew,6.0.11+dfsg-1*%
%TF.CreationDate,2025-09-18T15:26:03+02:00*%
%TF.ProjectId,debug,64656275-672e-46b6-9963-61645f706362,rev?*%
%TF.SameCoordinates,Original*%
%TF.FileFunction,Legend,Top*%
%TF.FilePolarity,Positive*%
%FSLAX46Y46*%
G04 Gerber Fmt 4.6, Leading zero omitted, Abs format (unit mm)*
G04 Created by KiCad (PCBNEW 6.0.11+dfsg-1) date 2025-09-18 15:26:03*
%MOMM*%
%LPD*%
G01*
G04 APERTURE LIST*
%ADD10C,0.150000*%
%ADD11C,0.120000*%
G04 APERTURE END LIST*
D10*
%TO.C,1k*%
X114752380Y-52824047D02*
X114752380Y-53395476D01*
X114752380Y-53109761D02*
X113752380Y-53109761D01*
X113895238Y-53205000D01*
X113990476Y-53300238D01*
X114038095Y-53395476D01*
X114752380Y-52395476D02*
X113752380Y-52395476D01*
X114371428Y-52300238D02*
X114752380Y-52014523D01*
X114085714Y-52014523D02*
X114466666Y-52395476D01*
X107132380Y-52824047D02*
X107132380Y-53395476D01*
X107132380Y-53109761D02*
X106132380Y-53109761D01*
X106275238Y-53205000D01*
X106370476Y-53300238D01*
X106418095Y-53395476D01*
X107132380Y-52395476D02*
X106132380Y-52395476D01*
X106751428Y-52300238D02*
X107132380Y-52014523D01*
X106465714Y-52014523D02*
X106846666Y-52395476D01*
X177045952Y-49982380D02*
X176474523Y-49982380D01*
X176760238Y-49982380D02*
X176760238Y-48982380D01*
X176665000Y-49125238D01*
X176569761Y-49220476D01*
X176474523Y-49268095D01*
X177474523Y-49982380D02*
X177474523Y-48982380D01*
X177569761Y-49601428D02*
X177855476Y-49982380D01*
X177855476Y-49315714D02*
X177474523Y-49696666D01*
%TO.C,74hc244*%
X173410952Y-85812380D02*
X174077619Y-85812380D01*
X173649047Y-86812380D01*
X174887142Y-86145714D02*
X174887142Y-86812380D01*
X174649047Y-85764761D02*
X174410952Y-86479047D01*
X175030000Y-86479047D01*
X175410952Y-86812380D02*
X175410952Y-85812380D01*
X175839523Y-86812380D02*
X175839523Y-86288571D01*
X175791904Y-86193333D01*
X175696666Y-86145714D01*
X175553809Y-86145714D01*
X175458571Y-86193333D01*
X175410952Y-86240952D01*
X176744285Y-86764761D02*
X176649047Y-86812380D01*
X176458571Y-86812380D01*
X176363333Y-86764761D01*
X176315714Y-86717142D01*
X176268095Y-86621904D01*
X176268095Y-86336190D01*
X176315714Y-86240952D01*
X176363333Y-86193333D01*
X176458571Y-86145714D01*
X176649047Y-86145714D01*
X176744285Y-86193333D01*
X177125238Y-85907619D02*
X177172857Y-85860000D01*
X177268095Y-85812380D01*
X177506190Y-85812380D01*
X177601428Y-85860000D01*
X177649047Y-85907619D01*
X177696666Y-86002857D01*
X177696666Y-86098095D01*
X177649047Y-86240952D01*
X177077619Y-86812380D01*
X177696666Y-86812380D01*
X178553809Y-86145714D02*
X178553809Y-86812380D01*
X178315714Y-85764761D02*
X178077619Y-86479047D01*
X178696666Y-86479047D01*
X179506190Y-86145714D02*
X179506190Y-86812380D01*
X179268095Y-85764761D02*
X179030000Y-86479047D01*
X179649047Y-86479047D01*
%TO.C,C*%
X136537142Y-100040476D02*
X136584761Y-100088095D01*
X136632380Y-100230952D01*
X136632380Y-100326190D01*
X136584761Y-100469047D01*
X136489523Y-100564285D01*
X136394285Y-100611904D01*
X136203809Y-100659523D01*
X136060952Y-100659523D01*
X135870476Y-100611904D01*
X135775238Y-100564285D01*
X135680000Y-100469047D01*
X135632380Y-100326190D01*
X135632380Y-100230952D01*
X135680000Y-100088095D01*
X135727619Y-100040476D01*
%TO.C,1k*%
X177045952Y-65222380D02*
X176474523Y-65222380D01*
X176760238Y-65222380D02*
X176760238Y-64222380D01*
X176665000Y-64365238D01*
X176569761Y-64460476D01*
X176474523Y-64508095D01*
X177474523Y-65222380D02*
X177474523Y-64222380D01*
X177569761Y-64841428D02*
X177855476Y-65222380D01*
X177855476Y-64555714D02*
X177474523Y-64936666D01*
X145930952Y-72207380D02*
X145359523Y-72207380D01*
X145645238Y-72207380D02*
X145645238Y-71207380D01*
X145550000Y-71350238D01*
X145454761Y-71445476D01*
X145359523Y-71493095D01*
X146359523Y-72207380D02*
X146359523Y-71207380D01*
X146454761Y-71826428D02*
X146740476Y-72207380D01*
X146740476Y-71540714D02*
X146359523Y-71921666D01*
X103322380Y-52824047D02*
X103322380Y-53395476D01*
X103322380Y-53109761D02*
X102322380Y-53109761D01*
X102465238Y-53205000D01*
X102560476Y-53300238D01*
X102608095Y-53395476D01*
X103322380Y-52395476D02*
X102322380Y-52395476D01*
X102941428Y-52300238D02*
X103322380Y-52014523D01*
X102655714Y-52014523D02*
X103036666Y-52395476D01*
%TO.C,74hc244*%
X103560952Y-99782380D02*
X104227619Y-99782380D01*
X103799047Y-100782380D01*
X105037142Y-100115714D02*
X105037142Y-100782380D01*
X104799047Y-99734761D02*
X104560952Y-100449047D01*
X105180000Y-100449047D01*
X105560952Y-100782380D02*
X105560952Y-99782380D01*
X105989523Y-100782380D02*
X105989523Y-100258571D01*
X105941904Y-100163333D01*
X105846666Y-100115714D01*
X105703809Y-100115714D01*
X105608571Y-100163333D01*
X105560952Y-100210952D01*
X106894285Y-100734761D02*
X106799047Y-100782380D01*
X106608571Y-100782380D01*
X106513333Y-100734761D01*
X106465714Y-100687142D01*
X106418095Y-100591904D01*
X106418095Y-100306190D01*
X106465714Y-100210952D01*
X106513333Y-100163333D01*
X106608571Y-100115714D01*
X106799047Y-100115714D01*
X106894285Y-100163333D01*
X107275238Y-99877619D02*
X107322857Y-99830000D01*
X107418095Y-99782380D01*
X107656190Y-99782380D01*
X107751428Y-99830000D01*
X107799047Y-99877619D01*
X107846666Y-99972857D01*
X107846666Y-100068095D01*
X107799047Y-100210952D01*
X107227619Y-100782380D01*
X107846666Y-100782380D01*
X108703809Y-100115714D02*
X108703809Y-100782380D01*
X108465714Y-99734761D02*
X108227619Y-100449047D01*
X108846666Y-100449047D01*
X109656190Y-100115714D02*
X109656190Y-100782380D01*
X109418095Y-99734761D02*
X109180000Y-100449047D01*
X109799047Y-100449047D01*
X123880952Y-85812380D02*
X124547619Y-85812380D01*
X124119047Y-86812380D01*
X125357142Y-86145714D02*
X125357142Y-86812380D01*
X125119047Y-85764761D02*
X124880952Y-86479047D01*
X125500000Y-86479047D01*
X125880952Y-86812380D02*
X125880952Y-85812380D01*
X126309523Y-86812380D02*
X126309523Y-86288571D01*
X126261904Y-86193333D01*
X126166666Y-86145714D01*
X126023809Y-86145714D01*
X125928571Y-86193333D01*
X125880952Y-86240952D01*
X127214285Y-86764761D02*
X127119047Y-86812380D01*
X126928571Y-86812380D01*
X126833333Y-86764761D01*
X126785714Y-86717142D01*
X126738095Y-86621904D01*
X126738095Y-86336190D01*
X126785714Y-86240952D01*
X126833333Y-86193333D01*
X126928571Y-86145714D01*
X127119047Y-86145714D01*
X127214285Y-86193333D01*
X127595238Y-85907619D02*
X127642857Y-85860000D01*
X127738095Y-85812380D01*
X127976190Y-85812380D01*
X128071428Y-85860000D01*
X128119047Y-85907619D01*
X128166666Y-86002857D01*
X128166666Y-86098095D01*
X128119047Y-86240952D01*
X127547619Y-86812380D01*
X128166666Y-86812380D01*
X129023809Y-86145714D02*
X129023809Y-86812380D01*
X128785714Y-85764761D02*
X128547619Y-86479047D01*
X129166666Y-86479047D01*
X129976190Y-86145714D02*
X129976190Y-86812380D01*
X129738095Y-85764761D02*
X129500000Y-86479047D01*
X130119047Y-86479047D01*
%TO.C,1k*%
X145930952Y-76017380D02*
X145359523Y-76017380D01*
X145645238Y-76017380D02*
X145645238Y-75017380D01*
X145550000Y-75160238D01*
X145454761Y-75255476D01*
X145359523Y-75303095D01*
X146359523Y-76017380D02*
X146359523Y-75017380D01*
X146454761Y-75636428D02*
X146740476Y-76017380D01*
X146740476Y-75350714D02*
X146359523Y-75731666D01*
X177045952Y-61412380D02*
X176474523Y-61412380D01*
X176760238Y-61412380D02*
X176760238Y-60412380D01*
X176665000Y-60555238D01*
X176569761Y-60650476D01*
X176474523Y-60698095D01*
X177474523Y-61412380D02*
X177474523Y-60412380D01*
X177569761Y-61031428D02*
X177855476Y-61412380D01*
X177855476Y-60745714D02*
X177474523Y-61126666D01*
%TO.C,C*%
X95539523Y-90817142D02*
X95491904Y-90864761D01*
X95349047Y-90912380D01*
X95253809Y-90912380D01*
X95110952Y-90864761D01*
X95015714Y-90769523D01*
X94968095Y-90674285D01*
X94920476Y-90483809D01*
X94920476Y-90340952D01*
X94968095Y-90150476D01*
X95015714Y-90055238D01*
X95110952Y-89960000D01*
X95253809Y-89912380D01*
X95349047Y-89912380D01*
X95491904Y-89960000D01*
X95539523Y-90007619D01*
%TO.C,1k*%
X110942380Y-52824047D02*
X110942380Y-53395476D01*
X110942380Y-53109761D02*
X109942380Y-53109761D01*
X110085238Y-53205000D01*
X110180476Y-53300238D01*
X110228095Y-53395476D01*
X110942380Y-52395476D02*
X109942380Y-52395476D01*
X110561428Y-52300238D02*
X110942380Y-52014523D01*
X110275714Y-52014523D02*
X110656666Y-52395476D01*
X145930952Y-68397380D02*
X145359523Y-68397380D01*
X145645238Y-68397380D02*
X145645238Y-67397380D01*
X145550000Y-67540238D01*
X145454761Y-67635476D01*
X145359523Y-67683095D01*
X146359523Y-68397380D02*
X146359523Y-67397380D01*
X146454761Y-68016428D02*
X146740476Y-68397380D01*
X146740476Y-67730714D02*
X146359523Y-68111666D01*
X155392380Y-85209047D02*
X155392380Y-85780476D01*
X155392380Y-85494761D02*
X154392380Y-85494761D01*
X154535238Y-85590000D01*
X154630476Y-85685238D01*
X154678095Y-85780476D01*
X155392380Y-84780476D02*
X154392380Y-84780476D01*
X155011428Y-84685238D02*
X155392380Y-84399523D01*
X154725714Y-84399523D02*
X155106666Y-84780476D01*
X177045952Y-42362380D02*
X176474523Y-42362380D01*
X176760238Y-42362380D02*
X176760238Y-41362380D01*
X176665000Y-41505238D01*
X176569761Y-41600476D01*
X176474523Y-41648095D01*
X177474523Y-42362380D02*
X177474523Y-41362380D01*
X177569761Y-41981428D02*
X177855476Y-42362380D01*
X177855476Y-41695714D02*
X177474523Y-42076666D01*
X118562380Y-52824047D02*
X118562380Y-53395476D01*
X118562380Y-53109761D02*
X117562380Y-53109761D01*
X117705238Y-53205000D01*
X117800476Y-53300238D01*
X117848095Y-53395476D01*
X118562380Y-52395476D02*
X117562380Y-52395476D01*
X118181428Y-52300238D02*
X118562380Y-52014523D01*
X117895714Y-52014523D02*
X118276666Y-52395476D01*
X126182380Y-52824047D02*
X126182380Y-53395476D01*
X126182380Y-53109761D02*
X125182380Y-53109761D01*
X125325238Y-53205000D01*
X125420476Y-53300238D01*
X125468095Y-53395476D01*
X126182380Y-52395476D02*
X125182380Y-52395476D01*
X125801428Y-52300238D02*
X126182380Y-52014523D01*
X125515714Y-52014523D02*
X125896666Y-52395476D01*
X177045952Y-53792380D02*
X176474523Y-53792380D01*
X176760238Y-53792380D02*
X176760238Y-52792380D01*
X176665000Y-52935238D01*
X176569761Y-53030476D01*
X176474523Y-53078095D01*
X177474523Y-53792380D02*
X177474523Y-52792380D01*
X177569761Y-53411428D02*
X177855476Y-53792380D01*
X177855476Y-53125714D02*
X177474523Y-53506666D01*
X151582380Y-85209047D02*
X151582380Y-85780476D01*
X151582380Y-85494761D02*
X150582380Y-85494761D01*
X150725238Y-85590000D01*
X150820476Y-85685238D01*
X150868095Y-85780476D01*
X151582380Y-84780476D02*
X150582380Y-84780476D01*
X151201428Y-84685238D02*
X151582380Y-84399523D01*
X150915714Y-84399523D02*
X151296666Y-84780476D01*
X137612380Y-52824047D02*
X137612380Y-53395476D01*
X137612380Y-53109761D02*
X136612380Y-53109761D01*
X136755238Y-53205000D01*
X136850476Y-53300238D01*
X136898095Y-53395476D01*
X137612380Y-52395476D02*
X136612380Y-52395476D01*
X137231428Y-52300238D02*
X137612380Y-52014523D01*
X136945714Y-52014523D02*
X137326666Y-52395476D01*
X163012380Y-47109047D02*
X163012380Y-47680476D01*
X163012380Y-47394761D02*
X162012380Y-47394761D01*
X162155238Y-47490000D01*
X162250476Y-47585238D01*
X162298095Y-47680476D01*
X163012380Y-46680476D02*
X162012380Y-46680476D01*
X162631428Y-46585238D02*
X163012380Y-46299523D01*
X162345714Y-46299523D02*
X162726666Y-46680476D01*
X159202380Y-85209047D02*
X159202380Y-85780476D01*
X159202380Y-85494761D02*
X158202380Y-85494761D01*
X158345238Y-85590000D01*
X158440476Y-85685238D01*
X158488095Y-85780476D01*
X159202380Y-84780476D02*
X158202380Y-84780476D01*
X158821428Y-84685238D02*
X159202380Y-84399523D01*
X158535714Y-84399523D02*
X158916666Y-84780476D01*
X177045952Y-57602380D02*
X176474523Y-57602380D01*
X176760238Y-57602380D02*
X176760238Y-56602380D01*
X176665000Y-56745238D01*
X176569761Y-56840476D01*
X176474523Y-56888095D01*
X177474523Y-57602380D02*
X177474523Y-56602380D01*
X177569761Y-57221428D02*
X177855476Y-57602380D01*
X177855476Y-56935714D02*
X177474523Y-57316666D01*
X122372380Y-52824047D02*
X122372380Y-53395476D01*
X122372380Y-53109761D02*
X121372380Y-53109761D01*
X121515238Y-53205000D01*
X121610476Y-53300238D01*
X121658095Y-53395476D01*
X122372380Y-52395476D02*
X121372380Y-52395476D01*
X121991428Y-52300238D02*
X122372380Y-52014523D01*
X121705714Y-52014523D02*
X122086666Y-52395476D01*
X95702380Y-52824047D02*
X95702380Y-53395476D01*
X95702380Y-53109761D02*
X94702380Y-53109761D01*
X94845238Y-53205000D01*
X94940476Y-53300238D01*
X94988095Y-53395476D01*
X95702380Y-52395476D02*
X94702380Y-52395476D01*
X95321428Y-52300238D02*
X95702380Y-52014523D01*
X95035714Y-52014523D02*
X95416666Y-52395476D01*
X129992380Y-52824047D02*
X129992380Y-53395476D01*
X129992380Y-53109761D02*
X128992380Y-53109761D01*
X129135238Y-53205000D01*
X129230476Y-53300238D01*
X129278095Y-53395476D01*
X129992380Y-52395476D02*
X128992380Y-52395476D01*
X129611428Y-52300238D02*
X129992380Y-52014523D01*
X129325714Y-52014523D02*
X129706666Y-52395476D01*
X99512380Y-52824047D02*
X99512380Y-53395476D01*
X99512380Y-53109761D02*
X98512380Y-53109761D01*
X98655238Y-53205000D01*
X98750476Y-53300238D01*
X98798095Y-53395476D01*
X99512380Y-52395476D02*
X98512380Y-52395476D01*
X99131428Y-52300238D02*
X99512380Y-52014523D01*
X98845714Y-52014523D02*
X99226666Y-52395476D01*
X152852380Y-52824047D02*
X152852380Y-53395476D01*
X152852380Y-53109761D02*
X151852380Y-53109761D01*
X151995238Y-53205000D01*
X152090476Y-53300238D01*
X152138095Y-53395476D01*
X152852380Y-52395476D02*
X151852380Y-52395476D01*
X152471428Y-52300238D02*
X152852380Y-52014523D01*
X152185714Y-52014523D02*
X152566666Y-52395476D01*
X133802380Y-52824047D02*
X133802380Y-53395476D01*
X133802380Y-53109761D02*
X132802380Y-53109761D01*
X132945238Y-53205000D01*
X133040476Y-53300238D01*
X133088095Y-53395476D01*
X133802380Y-52395476D02*
X132802380Y-52395476D01*
X133421428Y-52300238D02*
X133802380Y-52014523D01*
X133135714Y-52014523D02*
X133516666Y-52395476D01*
X149042380Y-52824047D02*
X149042380Y-53395476D01*
X149042380Y-53109761D02*
X148042380Y-53109761D01*
X148185238Y-53205000D01*
X148280476Y-53300238D01*
X148328095Y-53395476D01*
X149042380Y-52395476D02*
X148042380Y-52395476D01*
X148661428Y-52300238D02*
X149042380Y-52014523D01*
X148375714Y-52014523D02*
X148756666Y-52395476D01*
X177045952Y-46172380D02*
X176474523Y-46172380D01*
X176760238Y-46172380D02*
X176760238Y-45172380D01*
X176665000Y-45315238D01*
X176569761Y-45410476D01*
X176474523Y-45458095D01*
X177474523Y-46172380D02*
X177474523Y-45172380D01*
X177569761Y-45791428D02*
X177855476Y-46172380D01*
X177855476Y-45505714D02*
X177474523Y-45886666D01*
%TO.C,C*%
X160032142Y-83530476D02*
X160079761Y-83578095D01*
X160127380Y-83720952D01*
X160127380Y-83816190D01*
X160079761Y-83959047D01*
X159984523Y-84054285D01*
X159889285Y-84101904D01*
X159698809Y-84149523D01*
X159555952Y-84149523D01*
X159365476Y-84101904D01*
X159270238Y-84054285D01*
X159175000Y-83959047D01*
X159127380Y-83816190D01*
X159127380Y-83720952D01*
X159175000Y-83578095D01*
X159222619Y-83530476D01*
X112407142Y-86070476D02*
X112454761Y-86118095D01*
X112502380Y-86260952D01*
X112502380Y-86356190D01*
X112454761Y-86499047D01*
X112359523Y-86594285D01*
X112264285Y-86641904D01*
X112073809Y-86689523D01*
X111930952Y-86689523D01*
X111740476Y-86641904D01*
X111645238Y-86594285D01*
X111550000Y-86499047D01*
X111502380Y-86356190D01*
X111502380Y-86260952D01*
X111550000Y-86118095D01*
X111597619Y-86070476D01*
%TO.C,1k*%
X145930952Y-64587380D02*
X145359523Y-64587380D01*
X145645238Y-64587380D02*
X145645238Y-63587380D01*
X145550000Y-63730238D01*
X145454761Y-63825476D01*
X145359523Y-63873095D01*
X146359523Y-64587380D02*
X146359523Y-63587380D01*
X146454761Y-64206428D02*
X146740476Y-64587380D01*
X146740476Y-63920714D02*
X146359523Y-64301666D01*
X145232380Y-52824047D02*
X145232380Y-53395476D01*
X145232380Y-53109761D02*
X144232380Y-53109761D01*
X144375238Y-53205000D01*
X144470476Y-53300238D01*
X144518095Y-53395476D01*
X145232380Y-52395476D02*
X144232380Y-52395476D01*
X144851428Y-52300238D02*
X145232380Y-52014523D01*
X144565714Y-52014523D02*
X144946666Y-52395476D01*
X141422380Y-52824047D02*
X141422380Y-53395476D01*
X141422380Y-53109761D02*
X140422380Y-53109761D01*
X140565238Y-53205000D01*
X140660476Y-53300238D01*
X140708095Y-53395476D01*
X141422380Y-52395476D02*
X140422380Y-52395476D01*
X141041428Y-52300238D02*
X141422380Y-52014523D01*
X140755714Y-52014523D02*
X141136666Y-52395476D01*
%TO.C,74hc244*%
X151820952Y-99772380D02*
X152487619Y-99772380D01*
X152059047Y-100772380D01*
X153297142Y-100105714D02*
X153297142Y-100772380D01*
X153059047Y-99724761D02*
X152820952Y-100439047D01*
X153440000Y-100439047D01*
X153820952Y-100772380D02*
X153820952Y-99772380D01*
X154249523Y-100772380D02*
X154249523Y-100248571D01*
X154201904Y-100153333D01*
X154106666Y-100105714D01*
X153963809Y-100105714D01*
X153868571Y-100153333D01*
X153820952Y-100200952D01*
X155154285Y-100724761D02*
X155059047Y-100772380D01*
X154868571Y-100772380D01*
X154773333Y-100724761D01*
X154725714Y-100677142D01*
X154678095Y-100581904D01*
X154678095Y-100296190D01*
X154725714Y-100200952D01*
X154773333Y-100153333D01*
X154868571Y-100105714D01*
X155059047Y-100105714D01*
X155154285Y-100153333D01*
X155535238Y-99867619D02*
X155582857Y-99820000D01*
X155678095Y-99772380D01*
X155916190Y-99772380D01*
X156011428Y-99820000D01*
X156059047Y-99867619D01*
X156106666Y-99962857D01*
X156106666Y-100058095D01*
X156059047Y-100200952D01*
X155487619Y-100772380D01*
X156106666Y-100772380D01*
X156963809Y-100105714D02*
X156963809Y-100772380D01*
X156725714Y-99724761D02*
X156487619Y-100439047D01*
X157106666Y-100439047D01*
X157916190Y-100105714D02*
X157916190Y-100772380D01*
X157678095Y-99724761D02*
X157440000Y-100439047D01*
X158059047Y-100439047D01*
%TO.C,1k*%
X177045952Y-69032380D02*
X176474523Y-69032380D01*
X176760238Y-69032380D02*
X176760238Y-68032380D01*
X176665000Y-68175238D01*
X176569761Y-68270476D01*
X176474523Y-68318095D01*
X177474523Y-69032380D02*
X177474523Y-68032380D01*
X177569761Y-68651428D02*
X177855476Y-69032380D01*
X177855476Y-68365714D02*
X177474523Y-68746666D01*
D11*
%TO.C,REF\u002A\u002A*%
X142050000Y-44740000D02*
X142206000Y-44740000D01*
X139734000Y-44740000D02*
X139890000Y-44740000D01*
X139891392Y-41507665D02*
G75*
G03*
X139734484Y-44740000I1078608J-1672335D01*
G01*
X139890163Y-42138870D02*
G75*
G03*
X139890000Y-44220961I1079837J-1041130D01*
G01*
X142050000Y-44220961D02*
G75*
G03*
X142049837Y-42138870I-1080000J1040961D01*
G01*
X142205516Y-44740000D02*
G75*
G03*
X142048608Y-41507665I-1235516J1560000D01*
G01*
X161000000Y-74964000D02*
X161000000Y-75120000D01*
X161000000Y-77280000D02*
X161000000Y-77436000D01*
X164232335Y-75121392D02*
G75*
G03*
X161000000Y-74964484I-1672335J-1078608D01*
G01*
X163601130Y-75120163D02*
G75*
G03*
X161519039Y-75120000I-1041130J-1079837D01*
G01*
X161519039Y-77280000D02*
G75*
G03*
X163601130Y-77279837I1040961J1080000D01*
G01*
X161000000Y-77435516D02*
G75*
G03*
X164232335Y-77278608I1560000J1235516D01*
G01*
X185130000Y-58230000D02*
X185130000Y-58386000D01*
X185130000Y-55914000D02*
X185130000Y-56070000D01*
X187731130Y-56070163D02*
G75*
G03*
X185649039Y-56070000I-1041130J-1079837D01*
G01*
X188362335Y-56071392D02*
G75*
G03*
X185130000Y-55914484I-1672335J-1078608D01*
G01*
X185130000Y-58385516D02*
G75*
G03*
X188362335Y-58228608I1560000J1235516D01*
G01*
X185649039Y-58230000D02*
G75*
G03*
X187731130Y-58229837I1040961J1080000D01*
G01*
%TO.C,1k*%
X115670000Y-49435000D02*
X112930000Y-49435000D01*
X115670000Y-55975000D02*
X115670000Y-49435000D01*
X112930000Y-55975000D02*
X115670000Y-55975000D01*
X114300000Y-48665000D02*
X114300000Y-49435000D01*
X114300000Y-56745000D02*
X114300000Y-55975000D01*
X112930000Y-49435000D02*
X112930000Y-55975000D01*
%TO.C,REF\u002A\u002A*%
X103950000Y-44740000D02*
X104106000Y-44740000D01*
X101634000Y-44740000D02*
X101790000Y-44740000D01*
X101790163Y-42138870D02*
G75*
G03*
X101790000Y-44220961I1079837J-1041130D01*
G01*
X103950000Y-44220961D02*
G75*
G03*
X103949837Y-42138870I-1080000J1040961D01*
G01*
X101791392Y-41507665D02*
G75*
G03*
X101634484Y-44740000I1078608J-1672335D01*
G01*
X104105516Y-44740000D02*
G75*
G03*
X103948608Y-41507665I-1235516J1560000D01*
G01*
%TO.C,1k*%
X106680000Y-56745000D02*
X106680000Y-55975000D01*
X108050000Y-55975000D02*
X108050000Y-49435000D01*
X106680000Y-48665000D02*
X106680000Y-49435000D01*
X105310000Y-49435000D02*
X105310000Y-55975000D01*
X105310000Y-55975000D02*
X108050000Y-55975000D01*
X108050000Y-49435000D02*
X105310000Y-49435000D01*
X180435000Y-48160000D02*
X173895000Y-48160000D01*
X173895000Y-50900000D02*
X180435000Y-50900000D01*
X180435000Y-50900000D02*
X180435000Y-48160000D01*
X181205000Y-49530000D02*
X180435000Y-49530000D01*
X173895000Y-48160000D02*
X173895000Y-50900000D01*
X173125000Y-49530000D02*
X173895000Y-49530000D01*
%TO.C,REF\u002A\u002A*%
X130620000Y-44740000D02*
X130776000Y-44740000D01*
X128304000Y-44740000D02*
X128460000Y-44740000D01*
X130775516Y-44740000D02*
G75*
G03*
X130618608Y-41507665I-1235516J1560000D01*
G01*
X128460163Y-42138870D02*
G75*
G03*
X128460000Y-44220961I1079837J-1041130D01*
G01*
X128461392Y-41507665D02*
G75*
G03*
X128304484Y-44740000I1078608J-1672335D01*
G01*
X130620000Y-44220961D02*
G75*
G03*
X130619837Y-42138870I-1080000J1040961D01*
G01*
X111570000Y-44740000D02*
X111726000Y-44740000D01*
X109254000Y-44740000D02*
X109410000Y-44740000D01*
X111570000Y-44220961D02*
G75*
G03*
X111569837Y-42138870I-1080000J1040961D01*
G01*
X109410163Y-42138870D02*
G75*
G03*
X109410000Y-44220961I1079837J-1041130D01*
G01*
X109411392Y-41507665D02*
G75*
G03*
X109254484Y-44740000I1078608J-1672335D01*
G01*
X111725516Y-44740000D02*
G75*
G03*
X111568608Y-41507665I-1235516J1560000D01*
G01*
%TO.C,74hc244*%
X189355000Y-81100000D02*
X163715000Y-81100000D01*
X163775000Y-87350000D02*
X163775000Y-88600000D01*
X189295000Y-88600000D02*
X189295000Y-84100000D01*
X163775000Y-84100000D02*
X163775000Y-85350000D01*
X163715000Y-91600000D02*
X189355000Y-91600000D01*
X163715000Y-81100000D02*
X163715000Y-91600000D01*
X189295000Y-84100000D02*
X163775000Y-84100000D01*
X163775000Y-88600000D02*
X189295000Y-88600000D01*
X189355000Y-91600000D02*
X189355000Y-81100000D01*
X163775000Y-87350000D02*
G75*
G03*
X163775000Y-85350000I0J1000000D01*
G01*
%TO.C,C*%
X139485000Y-101970000D02*
X139550000Y-101970000D01*
X139550000Y-101970000D02*
X139550000Y-98730000D01*
X137310000Y-98730000D02*
X137375000Y-98730000D01*
X139485000Y-98730000D02*
X139550000Y-98730000D01*
X137310000Y-101970000D02*
X137375000Y-101970000D01*
X137310000Y-101970000D02*
X137310000Y-98730000D01*
%TO.C,1k*%
X173125000Y-64770000D02*
X173895000Y-64770000D01*
X173895000Y-63400000D02*
X173895000Y-66140000D01*
X180435000Y-66140000D02*
X180435000Y-63400000D01*
X181205000Y-64770000D02*
X180435000Y-64770000D01*
X173895000Y-66140000D02*
X180435000Y-66140000D01*
X180435000Y-63400000D02*
X173895000Y-63400000D01*
%TO.C,REF\u002A\u002A*%
X185130000Y-40674000D02*
X185130000Y-40830000D01*
X185130000Y-42990000D02*
X185130000Y-43146000D01*
X185649039Y-42990000D02*
G75*
G03*
X187731130Y-42989837I1040961J1080000D01*
G01*
X187731130Y-40830163D02*
G75*
G03*
X185649039Y-40830000I-1041130J-1079837D01*
G01*
X188362335Y-40831392D02*
G75*
G03*
X185130000Y-40674484I-1672335J-1078608D01*
G01*
X185130000Y-43145516D02*
G75*
G03*
X188362335Y-42988608I1560000J1235516D01*
G01*
%TO.C,1k*%
X142010000Y-71755000D02*
X142780000Y-71755000D01*
X142780000Y-73125000D02*
X149320000Y-73125000D01*
X149320000Y-73125000D02*
X149320000Y-70385000D01*
X142780000Y-70385000D02*
X142780000Y-73125000D01*
X149320000Y-70385000D02*
X142780000Y-70385000D01*
X150090000Y-71755000D02*
X149320000Y-71755000D01*
X102870000Y-56745000D02*
X102870000Y-55975000D01*
X101500000Y-49435000D02*
X101500000Y-55975000D01*
X102870000Y-48665000D02*
X102870000Y-49435000D01*
X101500000Y-55975000D02*
X104240000Y-55975000D01*
X104240000Y-49435000D02*
X101500000Y-49435000D01*
X104240000Y-55975000D02*
X104240000Y-49435000D01*
%TO.C,REF\u002A\u002A*%
X149670000Y-44740000D02*
X149826000Y-44740000D01*
X147354000Y-44740000D02*
X147510000Y-44740000D01*
X147510163Y-42138870D02*
G75*
G03*
X147510000Y-44220961I1079837J-1041130D01*
G01*
X149825516Y-44740000D02*
G75*
G03*
X149668608Y-41507665I-1235516J1560000D01*
G01*
X149670000Y-44220961D02*
G75*
G03*
X149669837Y-42138870I-1080000J1040961D01*
G01*
X147511392Y-41507665D02*
G75*
G03*
X147354484Y-44740000I1078608J-1672335D01*
G01*
X151164000Y-44740000D02*
X151320000Y-44740000D01*
X153480000Y-44740000D02*
X153636000Y-44740000D01*
X151320163Y-42138870D02*
G75*
G03*
X151320000Y-44220961I1079837J-1041130D01*
G01*
X153480000Y-44220961D02*
G75*
G03*
X153479837Y-42138870I-1080000J1040961D01*
G01*
X153635516Y-44740000D02*
G75*
G03*
X153478608Y-41507665I-1235516J1560000D01*
G01*
X151321392Y-41507665D02*
G75*
G03*
X151164484Y-44740000I1078608J-1672335D01*
G01*
X161000000Y-62264000D02*
X161000000Y-62420000D01*
X161000000Y-64580000D02*
X161000000Y-64736000D01*
X164232335Y-62421392D02*
G75*
G03*
X161000000Y-62264484I-1672335J-1078608D01*
G01*
X161519039Y-64580000D02*
G75*
G03*
X163601130Y-64579837I1040961J1080000D01*
G01*
X163601130Y-62420163D02*
G75*
G03*
X161519039Y-62420000I-1041130J-1079837D01*
G01*
X161000000Y-64735516D02*
G75*
G03*
X164232335Y-64578608I1560000J1235516D01*
G01*
%TO.C,74hc244*%
X118230000Y-95080000D02*
X92590000Y-95080000D01*
X92650000Y-102580000D02*
X118170000Y-102580000D01*
X92650000Y-98080000D02*
X92650000Y-99330000D01*
X118230000Y-105580000D02*
X118230000Y-95080000D01*
X92650000Y-101330000D02*
X92650000Y-102580000D01*
X118170000Y-102580000D02*
X118170000Y-98080000D01*
X92590000Y-105580000D02*
X118230000Y-105580000D01*
X118170000Y-98080000D02*
X92650000Y-98080000D01*
X92590000Y-95080000D02*
X92590000Y-105580000D01*
X92650000Y-101330000D02*
G75*
G03*
X92650000Y-99330000I0J1000000D01*
G01*
%TO.C,REF\u002A\u002A*%
X119190000Y-44740000D02*
X119346000Y-44740000D01*
X116874000Y-44740000D02*
X117030000Y-44740000D01*
X119190000Y-44220961D02*
G75*
G03*
X119189837Y-42138870I-1080000J1040961D01*
G01*
X117031392Y-41507665D02*
G75*
G03*
X116874484Y-44740000I1078608J-1672335D01*
G01*
X119345516Y-44740000D02*
G75*
G03*
X119188608Y-41507665I-1235516J1560000D01*
G01*
X117030163Y-42138870D02*
G75*
G03*
X117030000Y-44220961I1079837J-1041130D01*
G01*
X100140000Y-44740000D02*
X100296000Y-44740000D01*
X97824000Y-44740000D02*
X97980000Y-44740000D01*
X97981392Y-41507665D02*
G75*
G03*
X97824484Y-44740000I1078608J-1672335D01*
G01*
X100295516Y-44740000D02*
G75*
G03*
X100138608Y-41507665I-1235516J1560000D01*
G01*
X97980163Y-42138870D02*
G75*
G03*
X97980000Y-44220961I1079837J-1041130D01*
G01*
X100140000Y-44220961D02*
G75*
G03*
X100139837Y-42138870I-1080000J1040961D01*
G01*
X95190000Y-116840000D02*
X95190000Y-115510000D01*
X97790000Y-118170000D02*
X135950000Y-118170000D01*
X97790000Y-118170000D02*
X97790000Y-115510000D01*
X135950000Y-118170000D02*
X135950000Y-115510000D01*
X95190000Y-115510000D02*
X96520000Y-115510000D01*
X97790000Y-115510000D02*
X135950000Y-115510000D01*
%TO.C,74hc244*%
X142360000Y-81110000D02*
X116720000Y-81110000D01*
X116780000Y-88610000D02*
X142300000Y-88610000D01*
X142300000Y-84110000D02*
X116780000Y-84110000D01*
X116780000Y-84110000D02*
X116780000Y-85360000D01*
X116720000Y-91610000D02*
X142360000Y-91610000D01*
X116720000Y-81110000D02*
X116720000Y-91610000D01*
X142360000Y-91610000D02*
X142360000Y-81110000D01*
X142300000Y-88610000D02*
X142300000Y-84110000D01*
X116780000Y-87360000D02*
X116780000Y-88610000D01*
X116780000Y-87360000D02*
G75*
G03*
X116780000Y-85360000I0J1000000D01*
G01*
%TO.C,1k*%
X149320000Y-74195000D02*
X142780000Y-74195000D01*
X142780000Y-74195000D02*
X142780000Y-76935000D01*
X150090000Y-75565000D02*
X149320000Y-75565000D01*
X149320000Y-76935000D02*
X149320000Y-74195000D01*
X142780000Y-76935000D02*
X149320000Y-76935000D01*
X142010000Y-75565000D02*
X142780000Y-75565000D01*
X173895000Y-59590000D02*
X173895000Y-62330000D01*
X181205000Y-60960000D02*
X180435000Y-60960000D01*
X180435000Y-59590000D02*
X173895000Y-59590000D01*
X180435000Y-62330000D02*
X180435000Y-59590000D01*
X173125000Y-60960000D02*
X173895000Y-60960000D01*
X173895000Y-62330000D02*
X180435000Y-62330000D01*
%TO.C,C*%
X93610000Y-93765000D02*
X93610000Y-93830000D01*
X96850000Y-91590000D02*
X96850000Y-91655000D01*
X93610000Y-93830000D02*
X96850000Y-93830000D01*
X96850000Y-93765000D02*
X96850000Y-93830000D01*
X93610000Y-91590000D02*
X93610000Y-91655000D01*
X93610000Y-91590000D02*
X96850000Y-91590000D01*
%TO.C,1k*%
X111860000Y-49435000D02*
X109120000Y-49435000D01*
X110490000Y-48665000D02*
X110490000Y-49435000D01*
X110490000Y-56745000D02*
X110490000Y-55975000D01*
X111860000Y-55975000D02*
X111860000Y-49435000D01*
X109120000Y-49435000D02*
X109120000Y-55975000D01*
X109120000Y-55975000D02*
X111860000Y-55975000D01*
X142010000Y-67945000D02*
X142780000Y-67945000D01*
X150090000Y-67945000D02*
X149320000Y-67945000D01*
X149320000Y-66575000D02*
X142780000Y-66575000D01*
X142780000Y-66575000D02*
X142780000Y-69315000D01*
X142780000Y-69315000D02*
X149320000Y-69315000D01*
X149320000Y-69315000D02*
X149320000Y-66575000D01*
%TO.C,REF\u002A\u002A*%
X185130000Y-59724000D02*
X185130000Y-59880000D01*
X185130000Y-62040000D02*
X185130000Y-62196000D01*
X187731130Y-59880163D02*
G75*
G03*
X185649039Y-59880000I-1041130J-1079837D01*
G01*
X185649039Y-62040000D02*
G75*
G03*
X187731130Y-62039837I1040961J1080000D01*
G01*
X185130000Y-62195516D02*
G75*
G03*
X188362335Y-62038608I1560000J1235516D01*
G01*
X188362335Y-59881392D02*
G75*
G03*
X185130000Y-59724484I-1672335J-1078608D01*
G01*
%TO.C,1k*%
X154940000Y-89130000D02*
X154940000Y-88360000D01*
X156310000Y-88360000D02*
X156310000Y-81820000D01*
X156310000Y-81820000D02*
X153570000Y-81820000D01*
X153570000Y-88360000D02*
X156310000Y-88360000D01*
X154940000Y-81050000D02*
X154940000Y-81820000D01*
X153570000Y-81820000D02*
X153570000Y-88360000D01*
%TO.C,REF\u002A\u002A*%
X132114000Y-44740000D02*
X132270000Y-44740000D01*
X134430000Y-44740000D02*
X134586000Y-44740000D01*
X132270163Y-42138870D02*
G75*
G03*
X132270000Y-44220961I1079837J-1041130D01*
G01*
X132271392Y-41507665D02*
G75*
G03*
X132114484Y-44740000I1078608J-1672335D01*
G01*
X134585516Y-44740000D02*
G75*
G03*
X134428608Y-41507665I-1235516J1560000D01*
G01*
X134430000Y-44220961D02*
G75*
G03*
X134429837Y-42138870I-1080000J1040961D01*
G01*
X185130000Y-50610000D02*
X185130000Y-50766000D01*
X185130000Y-48294000D02*
X185130000Y-48450000D01*
X185130000Y-50765516D02*
G75*
G03*
X188362335Y-50608608I1560000J1235516D01*
G01*
X185649039Y-50610000D02*
G75*
G03*
X187731130Y-50609837I1040961J1080000D01*
G01*
X188362335Y-48451392D02*
G75*
G03*
X185130000Y-48294484I-1672335J-1078608D01*
G01*
X187731130Y-48450163D02*
G75*
G03*
X185649039Y-48450000I-1041130J-1079837D01*
G01*
X185130000Y-63534000D02*
X185130000Y-63690000D01*
X185130000Y-65850000D02*
X185130000Y-66006000D01*
X185649039Y-65850000D02*
G75*
G03*
X187731130Y-65849837I1040961J1080000D01*
G01*
X187731130Y-63690163D02*
G75*
G03*
X185649039Y-63690000I-1041130J-1079837D01*
G01*
X185130000Y-66005516D02*
G75*
G03*
X188362335Y-65848608I1560000J1235516D01*
G01*
X188362335Y-63691392D02*
G75*
G03*
X185130000Y-63534484I-1672335J-1078608D01*
G01*
X185130000Y-46800000D02*
X185130000Y-46956000D01*
X185130000Y-44484000D02*
X185130000Y-44640000D01*
X188362335Y-44641392D02*
G75*
G03*
X185130000Y-44484484I-1672335J-1078608D01*
G01*
X185130000Y-46955516D02*
G75*
G03*
X188362335Y-46798608I1560000J1235516D01*
G01*
X185649039Y-46800000D02*
G75*
G03*
X187731130Y-46799837I1040961J1080000D01*
G01*
X187731130Y-44640163D02*
G75*
G03*
X185649039Y-44640000I-1041130J-1079837D01*
G01*
%TO.C,1k*%
X173895000Y-40540000D02*
X173895000Y-43280000D01*
X180435000Y-43280000D02*
X180435000Y-40540000D01*
X173895000Y-43280000D02*
X180435000Y-43280000D01*
X173125000Y-41910000D02*
X173895000Y-41910000D01*
X180435000Y-40540000D02*
X173895000Y-40540000D01*
X181205000Y-41910000D02*
X180435000Y-41910000D01*
X118110000Y-48665000D02*
X118110000Y-49435000D01*
X116740000Y-55975000D02*
X119480000Y-55975000D01*
X118110000Y-56745000D02*
X118110000Y-55975000D01*
X116740000Y-49435000D02*
X116740000Y-55975000D01*
X119480000Y-49435000D02*
X116740000Y-49435000D01*
X119480000Y-55975000D02*
X119480000Y-49435000D01*
%TO.C,REF\u002A\u002A*%
X135830000Y-118170000D02*
X135830000Y-115570000D01*
X161350000Y-118170000D02*
X161350000Y-112970000D01*
X138430000Y-112970000D02*
X161350000Y-112970000D01*
X138430000Y-115570000D02*
X138430000Y-112970000D01*
X135830000Y-112970000D02*
X137160000Y-112970000D01*
X135830000Y-118170000D02*
X161350000Y-118170000D01*
X135830000Y-115570000D02*
X138430000Y-115570000D01*
X135830000Y-114300000D02*
X135830000Y-112970000D01*
X161000000Y-58230000D02*
X161000000Y-58386000D01*
X161000000Y-55914000D02*
X161000000Y-56070000D01*
X161519039Y-58230000D02*
G75*
G03*
X163601130Y-58229837I1040961J1080000D01*
G01*
X163601130Y-56070163D02*
G75*
G03*
X161519039Y-56070000I-1041130J-1079837D01*
G01*
X161000000Y-58385516D02*
G75*
G03*
X164232335Y-58228608I1560000J1235516D01*
G01*
X164232335Y-56071392D02*
G75*
G03*
X161000000Y-55914484I-1672335J-1078608D01*
G01*
X126810000Y-44740000D02*
X126966000Y-44740000D01*
X124494000Y-44740000D02*
X124650000Y-44740000D01*
X126965516Y-44740000D02*
G75*
G03*
X126808608Y-41507665I-1235516J1560000D01*
G01*
X124651392Y-41507665D02*
G75*
G03*
X124494484Y-44740000I1078608J-1672335D01*
G01*
X124650163Y-42138870D02*
G75*
G03*
X124650000Y-44220961I1079837J-1041130D01*
G01*
X126810000Y-44220961D02*
G75*
G03*
X126809837Y-42138870I-1080000J1040961D01*
G01*
%TO.C,1k*%
X124360000Y-55975000D02*
X127100000Y-55975000D01*
X125730000Y-56745000D02*
X125730000Y-55975000D01*
X125730000Y-48665000D02*
X125730000Y-49435000D01*
X124360000Y-49435000D02*
X124360000Y-55975000D01*
X127100000Y-55975000D02*
X127100000Y-49435000D01*
X127100000Y-49435000D02*
X124360000Y-49435000D01*
X173895000Y-54710000D02*
X180435000Y-54710000D01*
X173895000Y-51970000D02*
X173895000Y-54710000D01*
X180435000Y-54710000D02*
X180435000Y-51970000D01*
X181205000Y-53340000D02*
X180435000Y-53340000D01*
X180435000Y-51970000D02*
X173895000Y-51970000D01*
X173125000Y-53340000D02*
X173895000Y-53340000D01*
X149760000Y-88360000D02*
X152500000Y-88360000D01*
X152500000Y-81820000D02*
X149760000Y-81820000D01*
X152500000Y-88360000D02*
X152500000Y-81820000D01*
X149760000Y-81820000D02*
X149760000Y-88360000D01*
X151130000Y-81050000D02*
X151130000Y-81820000D01*
X151130000Y-89130000D02*
X151130000Y-88360000D01*
X138530000Y-55975000D02*
X138530000Y-49435000D01*
X138530000Y-49435000D02*
X135790000Y-49435000D01*
X135790000Y-55975000D02*
X138530000Y-55975000D01*
X137160000Y-56745000D02*
X137160000Y-55975000D01*
X135790000Y-49435000D02*
X135790000Y-55975000D01*
X137160000Y-48665000D02*
X137160000Y-49435000D01*
X163930000Y-43720000D02*
X161190000Y-43720000D01*
X163930000Y-50260000D02*
X163930000Y-43720000D01*
X161190000Y-43720000D02*
X161190000Y-50260000D01*
X162560000Y-51030000D02*
X162560000Y-50260000D01*
X161190000Y-50260000D02*
X163930000Y-50260000D01*
X162560000Y-42950000D02*
X162560000Y-43720000D01*
X158750000Y-89130000D02*
X158750000Y-88360000D01*
X160120000Y-81820000D02*
X157380000Y-81820000D01*
X157380000Y-88360000D02*
X160120000Y-88360000D01*
X160120000Y-88360000D02*
X160120000Y-81820000D01*
X158750000Y-81050000D02*
X158750000Y-81820000D01*
X157380000Y-81820000D02*
X157380000Y-88360000D01*
X173125000Y-57150000D02*
X173895000Y-57150000D01*
X173895000Y-55780000D02*
X173895000Y-58520000D01*
X180435000Y-58520000D02*
X180435000Y-55780000D01*
X173895000Y-58520000D02*
X180435000Y-58520000D01*
X181205000Y-57150000D02*
X180435000Y-57150000D01*
X180435000Y-55780000D02*
X173895000Y-55780000D01*
%TO.C,REF\u002A\u002A*%
X185130000Y-52104000D02*
X185130000Y-52260000D01*
X185130000Y-54420000D02*
X185130000Y-54576000D01*
X185130000Y-54575516D02*
G75*
G03*
X188362335Y-54418608I1560000J1235516D01*
G01*
X185649039Y-54420000D02*
G75*
G03*
X187731130Y-54419837I1040961J1080000D01*
G01*
X188362335Y-52261392D02*
G75*
G03*
X185130000Y-52104484I-1672335J-1078608D01*
G01*
X187731130Y-52260163D02*
G75*
G03*
X185649039Y-52260000I-1041130J-1079837D01*
G01*
X143544000Y-44740000D02*
X143700000Y-44740000D01*
X145860000Y-44740000D02*
X146016000Y-44740000D01*
X145860000Y-44220961D02*
G75*
G03*
X145859837Y-42138870I-1080000J1040961D01*
G01*
X146015516Y-44740000D02*
G75*
G03*
X145858608Y-41507665I-1235516J1560000D01*
G01*
X143700163Y-42138870D02*
G75*
G03*
X143700000Y-44220961I1079837J-1041130D01*
G01*
X143701392Y-41507665D02*
G75*
G03*
X143544484Y-44740000I1078608J-1672335D01*
G01*
X158405000Y-58386000D02*
X158405000Y-58230000D01*
X158405000Y-56070000D02*
X158405000Y-55914000D01*
X155803870Y-58229837D02*
G75*
G03*
X157885961Y-58230000I1041130J1079837D01*
G01*
X155172665Y-58228608D02*
G75*
G03*
X158405000Y-58385516I1672335J1078608D01*
G01*
X157885961Y-56070000D02*
G75*
G03*
X155803870Y-56070163I-1040961J-1080000D01*
G01*
X158405000Y-55914484D02*
G75*
G03*
X155172665Y-56071392I-1560000J-1235516D01*
G01*
X138240000Y-44740000D02*
X138396000Y-44740000D01*
X135924000Y-44740000D02*
X136080000Y-44740000D01*
X138240000Y-44220961D02*
G75*
G03*
X138239837Y-42138870I-1080000J1040961D01*
G01*
X136080163Y-42138870D02*
G75*
G03*
X136080000Y-44220961I1079837J-1041130D01*
G01*
X136081392Y-41507665D02*
G75*
G03*
X135924484Y-44740000I1078608J-1672335D01*
G01*
X138395516Y-44740000D02*
G75*
G03*
X138238608Y-41507665I-1235516J1560000D01*
G01*
%TO.C,1k*%
X123290000Y-55975000D02*
X123290000Y-49435000D01*
X120550000Y-55975000D02*
X123290000Y-55975000D01*
X121920000Y-48665000D02*
X121920000Y-49435000D01*
X123290000Y-49435000D02*
X120550000Y-49435000D01*
X121920000Y-56745000D02*
X121920000Y-55975000D01*
X120550000Y-49435000D02*
X120550000Y-55975000D01*
%TO.C,REF\u002A\u002A*%
X113064000Y-44740000D02*
X113220000Y-44740000D01*
X115380000Y-44740000D02*
X115536000Y-44740000D01*
X115380000Y-44220961D02*
G75*
G03*
X115379837Y-42138870I-1080000J1040961D01*
G01*
X115535516Y-44740000D02*
G75*
G03*
X115378608Y-41507665I-1235516J1560000D01*
G01*
X113220163Y-42138870D02*
G75*
G03*
X113220000Y-44220961I1079837J-1041130D01*
G01*
X113221392Y-41507665D02*
G75*
G03*
X113064484Y-44740000I1078608J-1672335D01*
G01*
X158405000Y-75120000D02*
X158405000Y-74964000D01*
X158405000Y-77436000D02*
X158405000Y-77280000D01*
X158405000Y-74964484D02*
G75*
G03*
X155172665Y-75121392I-1560000J-1235516D01*
G01*
X155803870Y-77279837D02*
G75*
G03*
X157885961Y-77280000I1041130J1079837D01*
G01*
X155172665Y-77278608D02*
G75*
G03*
X158405000Y-77435516I1672335J1078608D01*
G01*
X157885961Y-75120000D02*
G75*
G03*
X155803870Y-75120163I-1040961J-1080000D01*
G01*
X161000000Y-70930000D02*
X161000000Y-71086000D01*
X161000000Y-68614000D02*
X161000000Y-68770000D01*
X161000000Y-71085516D02*
G75*
G03*
X164232335Y-70928608I1560000J1235516D01*
G01*
X163601130Y-68770163D02*
G75*
G03*
X161519039Y-68770000I-1041130J-1079837D01*
G01*
X164232335Y-68771392D02*
G75*
G03*
X161000000Y-68614484I-1672335J-1078608D01*
G01*
X161519039Y-70930000D02*
G75*
G03*
X163601130Y-70929837I1040961J1080000D01*
G01*
%TO.C,1k*%
X96620000Y-49435000D02*
X93880000Y-49435000D01*
X93880000Y-49435000D02*
X93880000Y-55975000D01*
X96620000Y-55975000D02*
X96620000Y-49435000D01*
X95250000Y-48665000D02*
X95250000Y-49435000D01*
X93880000Y-55975000D02*
X96620000Y-55975000D01*
X95250000Y-56745000D02*
X95250000Y-55975000D01*
X129540000Y-48665000D02*
X129540000Y-49435000D01*
X128170000Y-49435000D02*
X128170000Y-55975000D01*
X129540000Y-56745000D02*
X129540000Y-55975000D01*
X128170000Y-55975000D02*
X130910000Y-55975000D01*
X130910000Y-49435000D02*
X128170000Y-49435000D01*
X130910000Y-55975000D02*
X130910000Y-49435000D01*
X99060000Y-56745000D02*
X99060000Y-55975000D01*
X100430000Y-55975000D02*
X100430000Y-49435000D01*
X100430000Y-49435000D02*
X97690000Y-49435000D01*
X99060000Y-48665000D02*
X99060000Y-49435000D01*
X97690000Y-55975000D02*
X100430000Y-55975000D01*
X97690000Y-49435000D02*
X97690000Y-55975000D01*
%TO.C,REF\u002A\u002A*%
X94014000Y-44740000D02*
X94170000Y-44740000D01*
X96330000Y-44740000D02*
X96486000Y-44740000D01*
X94171392Y-41507665D02*
G75*
G03*
X94014484Y-44740000I1078608J-1672335D01*
G01*
X94170163Y-42138870D02*
G75*
G03*
X94170000Y-44220961I1079837J-1041130D01*
G01*
X96485516Y-44740000D02*
G75*
G03*
X96328608Y-41507665I-1235516J1560000D01*
G01*
X96330000Y-44220961D02*
G75*
G03*
X96329837Y-42138870I-1080000J1040961D01*
G01*
X158405000Y-71086000D02*
X158405000Y-70930000D01*
X158405000Y-68770000D02*
X158405000Y-68614000D01*
X158405000Y-68614484D02*
G75*
G03*
X155172665Y-68771392I-1560000J-1235516D01*
G01*
X157885961Y-68770000D02*
G75*
G03*
X155803870Y-68770163I-1040961J-1080000D01*
G01*
X155172665Y-70928608D02*
G75*
G03*
X158405000Y-71085516I1672335J1078608D01*
G01*
X155803870Y-70929837D02*
G75*
G03*
X157885961Y-70930000I1041130J1079837D01*
G01*
%TO.C,1k*%
X151030000Y-55975000D02*
X153770000Y-55975000D01*
X152400000Y-56745000D02*
X152400000Y-55975000D01*
X153770000Y-55975000D02*
X153770000Y-49435000D01*
X151030000Y-49435000D02*
X151030000Y-55975000D01*
X152400000Y-48665000D02*
X152400000Y-49435000D01*
X153770000Y-49435000D02*
X151030000Y-49435000D01*
X134720000Y-55975000D02*
X134720000Y-49435000D01*
X133350000Y-56745000D02*
X133350000Y-55975000D01*
X131980000Y-49435000D02*
X131980000Y-55975000D01*
X134720000Y-49435000D02*
X131980000Y-49435000D01*
X133350000Y-48665000D02*
X133350000Y-49435000D01*
X131980000Y-55975000D02*
X134720000Y-55975000D01*
X147220000Y-55975000D02*
X149960000Y-55975000D01*
X148590000Y-56745000D02*
X148590000Y-55975000D01*
X147220000Y-49435000D02*
X147220000Y-55975000D01*
X149960000Y-49435000D02*
X147220000Y-49435000D01*
X149960000Y-55975000D02*
X149960000Y-49435000D01*
X148590000Y-48665000D02*
X148590000Y-49435000D01*
X173125000Y-45720000D02*
X173895000Y-45720000D01*
X181205000Y-45720000D02*
X180435000Y-45720000D01*
X173895000Y-44350000D02*
X173895000Y-47090000D01*
X173895000Y-47090000D02*
X180435000Y-47090000D01*
X180435000Y-47090000D02*
X180435000Y-44350000D01*
X180435000Y-44350000D02*
X173895000Y-44350000D01*
%TO.C,C*%
X160805000Y-85460000D02*
X160805000Y-82220000D01*
X160805000Y-85460000D02*
X160870000Y-85460000D01*
X162980000Y-82220000D02*
X163045000Y-82220000D01*
X162980000Y-85460000D02*
X163045000Y-85460000D01*
X163045000Y-85460000D02*
X163045000Y-82220000D01*
X160805000Y-82220000D02*
X160870000Y-82220000D01*
%TO.C,REF\u002A\u002A*%
X163830000Y-118170000D02*
X186750000Y-118170000D01*
X161230000Y-115510000D02*
X162560000Y-115510000D01*
X161230000Y-116840000D02*
X161230000Y-115510000D01*
X163830000Y-118170000D02*
X163830000Y-115510000D01*
X186750000Y-118170000D02*
X186750000Y-115510000D01*
X163830000Y-115510000D02*
X186750000Y-115510000D01*
%TO.C,C*%
X113180000Y-88000000D02*
X113245000Y-88000000D01*
X115355000Y-84760000D02*
X115420000Y-84760000D01*
X113180000Y-88000000D02*
X113180000Y-84760000D01*
X113180000Y-84760000D02*
X113245000Y-84760000D01*
X115355000Y-88000000D02*
X115420000Y-88000000D01*
X115420000Y-88000000D02*
X115420000Y-84760000D01*
%TO.C,1k*%
X142780000Y-62765000D02*
X142780000Y-65505000D01*
X149320000Y-62765000D02*
X142780000Y-62765000D01*
X150090000Y-64135000D02*
X149320000Y-64135000D01*
X149320000Y-65505000D02*
X149320000Y-62765000D01*
X142010000Y-64135000D02*
X142780000Y-64135000D01*
X142780000Y-65505000D02*
X149320000Y-65505000D01*
X144780000Y-56745000D02*
X144780000Y-55975000D01*
X143410000Y-49435000D02*
X143410000Y-55975000D01*
X144780000Y-48665000D02*
X144780000Y-49435000D01*
X143410000Y-55975000D02*
X146150000Y-55975000D01*
X146150000Y-49435000D02*
X143410000Y-49435000D01*
X146150000Y-55975000D02*
X146150000Y-49435000D01*
%TO.C,REF\u002A\u002A*%
X185130000Y-69660000D02*
X185130000Y-69816000D01*
X185130000Y-67344000D02*
X185130000Y-67500000D01*
X188362335Y-67501392D02*
G75*
G03*
X185130000Y-67344484I-1672335J-1078608D01*
G01*
X185649039Y-69660000D02*
G75*
G03*
X187731130Y-69659837I1040961J1080000D01*
G01*
X185130000Y-69815516D02*
G75*
G03*
X188362335Y-69658608I1560000J1235516D01*
G01*
X187731130Y-67500163D02*
G75*
G03*
X185649039Y-67500000I-1041130J-1079837D01*
G01*
%TO.C,1k*%
X140970000Y-48665000D02*
X140970000Y-49435000D01*
X139600000Y-55975000D02*
X142340000Y-55975000D01*
X142340000Y-49435000D02*
X139600000Y-49435000D01*
X140970000Y-56745000D02*
X140970000Y-55975000D01*
X142340000Y-55975000D02*
X142340000Y-49435000D01*
X139600000Y-49435000D02*
X139600000Y-55975000D01*
%TO.C,REF\u002A\u002A*%
X158405000Y-62420000D02*
X158405000Y-62264000D01*
X158405000Y-64736000D02*
X158405000Y-64580000D01*
X157885961Y-62420000D02*
G75*
G03*
X155803870Y-62420163I-1040961J-1080000D01*
G01*
X155803870Y-64579837D02*
G75*
G03*
X157885961Y-64580000I1041130J1079837D01*
G01*
X155172665Y-64578608D02*
G75*
G03*
X158405000Y-64735516I1672335J1078608D01*
G01*
X158405000Y-62264484D02*
G75*
G03*
X155172665Y-62421392I-1560000J-1235516D01*
G01*
X123000000Y-44740000D02*
X123156000Y-44740000D01*
X120684000Y-44740000D02*
X120840000Y-44740000D01*
X120841392Y-41507665D02*
G75*
G03*
X120684484Y-44740000I1078608J-1672335D01*
G01*
X123155516Y-44740000D02*
G75*
G03*
X122998608Y-41507665I-1235516J1560000D01*
G01*
X120840163Y-42138870D02*
G75*
G03*
X120840000Y-44220961I1079837J-1041130D01*
G01*
X123000000Y-44220961D02*
G75*
G03*
X122999837Y-42138870I-1080000J1040961D01*
G01*
%TO.C,74hc244*%
X140855000Y-105570000D02*
X166495000Y-105570000D01*
X166495000Y-95070000D02*
X140855000Y-95070000D01*
X166435000Y-98070000D02*
X140915000Y-98070000D01*
X166495000Y-105570000D02*
X166495000Y-95070000D01*
X140915000Y-98070000D02*
X140915000Y-99320000D01*
X140855000Y-95070000D02*
X140855000Y-105570000D01*
X166435000Y-102570000D02*
X166435000Y-98070000D01*
X140915000Y-102570000D02*
X166435000Y-102570000D01*
X140915000Y-101320000D02*
X140915000Y-102570000D01*
X140915000Y-101320000D02*
G75*
G03*
X140915000Y-99320000I0J1000000D01*
G01*
%TO.C,1k*%
X181205000Y-68580000D02*
X180435000Y-68580000D01*
X173125000Y-68580000D02*
X173895000Y-68580000D01*
X180435000Y-69950000D02*
X180435000Y-67210000D01*
X180435000Y-67210000D02*
X173895000Y-67210000D01*
X173895000Y-67210000D02*
X173895000Y-69950000D01*
X173895000Y-69950000D02*
X180435000Y-69950000D01*
%TO.C,REF\u002A\u002A*%
X107760000Y-44740000D02*
X107916000Y-44740000D01*
X105444000Y-44740000D02*
X105600000Y-44740000D01*
X107915516Y-44740000D02*
G75*
G03*
X107758608Y-41507665I-1235516J1560000D01*
G01*
X107760000Y-44220961D02*
G75*
G03*
X107759837Y-42138870I-1080000J1040961D01*
G01*
X105600163Y-42138870D02*
G75*
G03*
X105600000Y-44220961I1079837J-1041130D01*
G01*
X105601392Y-41507665D02*
G75*
G03*
X105444484Y-44740000I1078608J-1672335D01*
G01*
%TD*%
M02*
