M48
; DRILL file {KiCad 6.0.11+dfsg-1} date gio 18 set 2025, 15:26:05
; FORMAT={-:-/ absolute / inch / decimal}
; #@! TF.CreationDate,2025-09-18T15:26:05+02:00
; #@! TF.GenerationSoftware,Kicad,Pcbnew,6.0.11+dfsg-1
; #@! TF.FileFunction,Plated,1,2,PTH
FMAT,2
INCH
; #@! TA.AperFunction,Plated,PTH,ViaDrill
T1C0.0157
; #@! TA.AperFunction,Plated,PTH,ComponentDrill
T2C0.0315
; #@! TA.AperFunction,Plated,PTH,ComponentDrill
T3C0.0354
; #@! TA.AperFunction,Plated,PTH,ComponentDrill
T4C0.0394
%
G90
G05
T1
X6.45Y-4.35
X6.65Y-4.3
X6.7Y-4.15
X6.7Y-4.45
X6.8Y-4.1
X6.8Y-4.35
X6.85Y-4.1
X6.85Y-4.4
X6.9Y-4.1
X6.9Y-4.5
X6.95Y-4.1
X6.95Y-4.45
X7.1Y-2.9
X7.1Y-3.0
X7.1Y-3.0
X7.25Y-2.9
X7.3Y-3.0
T2
X3.7Y-3.65
X3.7Y-3.8
X3.7Y-4.1
X3.75Y-1.875
X3.75Y-2.275
X3.7984Y-3.65
X3.8Y-3.8
X3.8Y-4.1
X3.9Y-1.875
X3.9Y-2.275
X3.9Y-3.8
X3.9Y-4.1
X4.0Y-3.8
X4.0Y-4.1
X4.05Y-1.875
X4.05Y-2.275
X4.1Y-3.8
X4.1Y-4.1
X4.2Y-1.875
X4.2Y-2.275
X4.2Y-3.8
X4.2Y-4.1
X4.3Y-3.8
X4.3Y-4.1
X4.35Y-1.875
X4.35Y-2.275
X4.4Y-3.8
X4.4Y-4.1
X4.5Y-1.875
X4.5Y-2.275
X4.5Y-3.3516
X4.5Y-3.45
X4.5Y-3.8
X4.5Y-4.1
X4.6Y-3.8
X4.6Y-4.1
X4.65Y-1.875
X4.65Y-2.275
X4.65Y-3.25
X4.65Y-3.55
X4.75Y-3.25
X4.75Y-3.55
X4.8Y-1.875
X4.8Y-2.275
X4.85Y-3.25
X4.85Y-3.55
X4.95Y-1.875
X4.95Y-2.275
X4.95Y-3.25
X4.95Y-3.55
X5.05Y-3.25
X5.05Y-3.55
X5.1Y-1.875
X5.1Y-2.275
X5.15Y-3.25
X5.15Y-3.55
X5.25Y-1.875
X5.25Y-2.275
X5.25Y-3.25
X5.25Y-3.55
X5.35Y-3.25
X5.35Y-3.55
X5.4Y-1.875
X5.4Y-2.275
X5.45Y-3.25
X5.45Y-3.55
X5.45Y-3.9016
X5.45Y-4.0
X5.55Y-1.875
X5.55Y-2.275
X5.55Y-2.525
X5.55Y-2.675
X5.55Y-2.825
X5.55Y-2.975
X5.55Y-3.25
X5.55Y-3.55
X5.6002Y-3.7996
X5.6002Y-4.0996
X5.7Y-1.875
X5.7Y-2.275
X5.7002Y-3.7996
X5.7002Y-4.0996
X5.8002Y-3.7996
X5.8002Y-4.0996
X5.85Y-1.875
X5.85Y-2.275
X5.9002Y-3.7996
X5.9002Y-4.0996
X5.95Y-2.525
X5.95Y-2.675
X5.95Y-2.825
X5.95Y-2.975
X5.95Y-3.15
X5.95Y-3.55
X6.0Y-1.875
X6.0Y-2.275
X6.0002Y-3.7996
X6.0002Y-4.0996
X6.1Y-3.15
X6.1Y-3.55
X6.1002Y-3.7996
X6.1002Y-4.0996
X6.2002Y-3.7996
X6.2002Y-4.0996
X6.25Y-3.15
X6.25Y-3.55
X6.3002Y-3.7996
X6.3002Y-4.0996
X6.375Y-3.2516
X6.375Y-3.35
X6.4Y-1.65
X6.4Y-2.05
X6.4002Y-3.7996
X6.4002Y-4.0996
X6.5002Y-3.2496
X6.5002Y-3.5496
X6.5002Y-3.7996
X6.5002Y-4.0996
X6.6002Y-3.2496
X6.6002Y-3.5496
X6.7002Y-3.2496
X6.7002Y-3.5496
X6.775Y-1.65
X6.775Y-1.8
X6.775Y-1.95
X6.775Y-2.1
X6.775Y-2.25
X6.775Y-2.4
X6.775Y-2.55
X6.775Y-2.7
X6.8002Y-3.2496
X6.8002Y-3.5496
X6.9002Y-3.2496
X6.9002Y-3.5496
X7.0002Y-3.2496
X7.0002Y-3.5496
X7.1002Y-3.2496
X7.1002Y-3.5496
X7.175Y-1.65
X7.175Y-1.8
X7.175Y-1.95
X7.175Y-2.1
X7.175Y-2.25
X7.175Y-2.4
X7.175Y-2.55
X7.175Y-2.7
X7.2002Y-3.2496
X7.2002Y-3.5496
X7.3002Y-3.2496
X7.3002Y-3.5496
X7.4002Y-3.2496
X7.4002Y-3.5496
T3
X3.75Y-1.65
X3.75Y-1.75
X3.9Y-1.65
X3.9Y-1.75
X4.05Y-1.65
X4.05Y-1.75
X4.2Y-1.65
X4.2Y-1.75
X4.35Y-1.65
X4.35Y-1.75
X4.5Y-1.65
X4.5Y-1.75
X4.65Y-1.65
X4.65Y-1.75
X4.8Y-1.65
X4.8Y-1.75
X4.95Y-1.65
X4.95Y-1.75
X5.1Y-1.65
X5.1Y-1.75
X5.25Y-1.65
X5.25Y-1.75
X5.4Y-1.65
X5.4Y-1.75
X5.55Y-1.65
X5.55Y-1.75
X5.7Y-1.65
X5.7Y-1.75
X5.85Y-1.65
X5.85Y-1.75
X6.0Y-1.65
X6.0Y-1.75
X6.125Y-2.25
X6.125Y-2.5
X6.125Y-2.75
X6.125Y-3.0
X6.225Y-2.25
X6.225Y-2.5
X6.225Y-2.75
X6.225Y-3.0
X6.35Y-2.25
X6.35Y-2.5
X6.35Y-2.75
X6.35Y-3.0
X6.45Y-2.25
X6.45Y-2.5
X6.45Y-2.75
X6.45Y-3.0
X7.3Y-1.65
X7.3Y-1.8
X7.3Y-1.95
X7.3Y-2.1
X7.3Y-2.25
X7.3Y-2.4
X7.3Y-2.55
X7.3Y-2.7
X7.4Y-1.65
X7.4Y-1.8
X7.4Y-1.95
X7.4Y-2.1
X7.4Y-2.25
X7.4Y-2.4
X7.4Y-2.55
X7.4Y-2.7
T4
X3.8Y-4.6
X3.9Y-4.6
X4.0Y-4.6
X4.1Y-4.6
X4.2Y-4.6
X4.3Y-4.6
X4.4Y-4.6
X4.5Y-4.6
X4.6Y-4.6
X4.7Y-4.6
X4.8Y-4.6
X4.9Y-4.6
X5.0Y-4.6
X5.1Y-4.6
X5.2Y-4.6
X5.3Y-4.6
X5.4Y-4.5
X5.4Y-4.6
X5.5Y-4.5
X5.5Y-4.6
X5.6Y-4.5
X5.6Y-4.6
X5.7Y-4.5
X5.7Y-4.6
X5.8Y-4.5
X5.8Y-4.6
X5.9Y-4.5
X5.9Y-4.6
X6.0Y-4.5
X6.0Y-4.6
X6.1Y-4.5
X6.1Y-4.6
X6.2Y-4.5
X6.2Y-4.6
X6.3Y-4.5
X6.3Y-4.6
X6.4Y-4.6
X6.5Y-4.6
X6.6Y-4.6
X6.7Y-4.6
X6.8Y-4.6
X6.9Y-4.6
X7.0Y-4.6
X7.1Y-4.6
X7.2Y-4.6
X7.3Y-4.6
T0
M30
