M48
; DRILL file {KiCad 6.0.11+dfsg-1} date gio 30 ott 2025, 18:07:16
; FORMAT={-:-/ absolute / inch / decimal}
; #@! TF.CreationDate,2025-10-30T18:07:16+01:00
; #@! TF.GenerationSoftware,Kicad,Pcbnew,6.0.11+dfsg-1
; #@! TF.FileFunction,Plated,1,2,PTH
FMAT,2
INCH
; #@! TA.AperFunction,Plated,PTH,ComponentDrill
T1C0.0394
%
G90
G05
T1
X3.9992Y-2.124
X3.9992Y-2.4
X3.9992Y-2.7
X3.9992Y-3.0
X3.9992Y-3.3
X3.9992Y-3.6
X3.9992Y-3.9
X3.9992Y-4.2
X3.9992Y-4.5
X3.9992Y-4.8
X4.0992Y-2.124
X4.0992Y-2.4
X4.0992Y-2.7
X4.0992Y-3.0
X4.0992Y-3.3
X4.0992Y-3.6
X4.0992Y-3.9
X4.0992Y-4.2
X4.0992Y-4.5
X4.0992Y-4.8
X4.3Y-2.124
X4.3Y-2.4
X4.3Y-2.7
X4.3Y-3.0
X4.3Y-3.3
X4.3Y-3.6
X4.3Y-3.9
X4.3Y-4.2
X4.3Y-4.5
X4.3Y-4.8
X4.3512Y-5.399
X4.4Y-2.124
X4.4Y-2.4
X4.4Y-2.7
X4.4Y-3.0
X4.4Y-3.3
X4.4Y-3.6
X4.4Y-3.9
X4.4Y-4.2
X4.4Y-4.5
X4.4Y-4.8
X4.4512Y-5.399
X4.5512Y-5.399
X4.5992Y-2.124
X4.5992Y-2.4
X4.5992Y-2.7
X4.5992Y-3.0
X4.5992Y-3.3
X4.5992Y-3.6
X4.5992Y-3.9
X4.5992Y-4.2
X4.5992Y-4.5
X4.5992Y-4.8
X4.6512Y-5.399
X4.6992Y-2.124
X4.6992Y-2.4
X4.6992Y-2.7
X4.6992Y-3.0
X4.6992Y-3.3
X4.6992Y-3.6
X4.6992Y-3.9
X4.6992Y-4.2
X4.6992Y-4.5
X4.6992Y-4.8
X4.7512Y-5.399
X4.8512Y-5.399
X4.9Y-2.124
X4.9Y-2.4
X4.9Y-2.7
X4.9Y-3.0
X4.9Y-3.3
X4.9Y-3.6
X4.9Y-3.9
X4.9Y-4.2
X4.9Y-4.5
X4.9Y-4.8
X4.9512Y-5.399
X5.0Y-2.124
X5.0Y-2.4
X5.0Y-2.7
X5.0Y-3.0
X5.0Y-3.3
X5.0Y-3.6
X5.0Y-3.9
X5.0Y-4.2
X5.0Y-4.5
X5.0Y-4.8
X5.0512Y-5.399
X5.1512Y-5.399
X5.1992Y-2.124
X5.1992Y-2.4
X5.1992Y-2.7
X5.1992Y-3.0
X5.1992Y-3.3
X5.1992Y-3.6
X5.1992Y-3.9
X5.1992Y-4.2
X5.1992Y-4.5
X5.1992Y-4.8
X5.2512Y-5.399
X5.2992Y-2.124
X5.2992Y-2.4
X5.2992Y-2.7
X5.2992Y-3.0
X5.2992Y-3.3
X5.2992Y-3.6
X5.2992Y-3.9
X5.2992Y-4.2
X5.2992Y-4.5
X5.2992Y-4.8
X5.5Y-2.124
X5.5Y-2.4
X5.5Y-2.7
X5.5Y-3.0
X5.5Y-3.3
X5.5Y-3.6
X5.5Y-3.9
X5.5Y-4.2
X5.5Y-4.5
X5.5Y-4.8
X5.6Y-2.124
X5.6Y-2.4
X5.6Y-2.7
X5.6Y-3.0
X5.6Y-3.3
X5.6Y-3.6
X5.6Y-3.9
X5.6Y-4.2
X5.6Y-4.5
X5.6Y-4.8
X5.7012Y-5.399
X5.8Y-2.124
X5.8Y-2.4
X5.8Y-2.7
X5.8Y-3.0
X5.8Y-3.3
X5.8Y-3.6
X5.8Y-3.9
X5.8Y-4.2
X5.8Y-4.5
X5.8Y-4.8
X5.8012Y-5.399
X5.9Y-2.124
X5.9Y-2.4
X5.9Y-2.7
X5.9Y-3.0
X5.9Y-3.3
X5.9Y-3.6
X5.9Y-3.9
X5.9Y-4.2
X5.9Y-4.5
X5.9Y-4.8
X5.9012Y-5.399
X6.0012Y-5.399
X6.0992Y-2.124
X6.0992Y-2.4
X6.0992Y-2.7
X6.0992Y-3.0
X6.0992Y-3.3
X6.0992Y-3.6
X6.0992Y-3.9
X6.0992Y-4.2
X6.0992Y-4.5
X6.0992Y-4.8
X6.1012Y-5.399
X6.1992Y-2.124
X6.1992Y-2.4
X6.1992Y-2.7
X6.1992Y-3.0
X6.1992Y-3.3
X6.1992Y-3.6
X6.1992Y-3.9
X6.1992Y-4.2
X6.1992Y-4.5
X6.1992Y-4.8
X6.2012Y-5.399
X6.3012Y-5.399
X6.3992Y-2.124
X6.3992Y-2.4
X6.3992Y-2.7
X6.3992Y-3.0
X6.3992Y-3.3
X6.3992Y-3.6
X6.3992Y-3.9
X6.3992Y-4.2
X6.3992Y-4.5
X6.3992Y-4.8
X6.4012Y-5.399
X6.4992Y-2.124
X6.4992Y-2.4
X6.4992Y-2.7
X6.4992Y-3.0
X6.4992Y-3.3
X6.4992Y-3.6
X6.4992Y-3.9
X6.4992Y-4.2
X6.4992Y-4.5
X6.4992Y-4.8
X6.5012Y-5.399
X6.6012Y-5.399
X6.6992Y-2.124
X6.6992Y-2.4
X6.6992Y-2.7
X6.6992Y-3.0
X6.6992Y-3.3
X6.6992Y-3.6
X6.6992Y-3.9
X6.6992Y-4.2
X6.6992Y-4.5
X6.6992Y-4.8
X6.7992Y-2.124
X6.7992Y-2.4
X6.7992Y-2.7
X6.7992Y-3.0
X6.7992Y-3.3
X6.7992Y-3.6
X6.7992Y-3.9
X6.7992Y-4.2
X6.7992Y-4.5
X6.7992Y-4.8
T0
M30
