%TF.GenerationSoftware,KiCad,Pcbnew,6.0.11+dfsg-1*%
%TF.CreationDate,2025-10-30T18:07:19+01:00*%
%TF.ProjectId,matrice,6d617472-6963-4652-9e6b-696361645f70,rev?*%
%TF.SameCoordinates,Original*%
%TF.FileFunction,Legend,Top*%
%TF.FilePolarity,Positive*%
%FSLAX46Y46*%
G04 Gerber Fmt 4.6, Leading zero omitted, Abs format (unit mm)*
G04 Created by KiCad (PCBNEW 6.0.11+dfsg-1) date 2025-10-30 18:07:19*
%MOMM*%
%LPD*%
G01*
G04 APERTURE LIST*
%ADD10C,0.120000*%
G04 APERTURE END LIST*
D10*
%TO.C,REF\u002A\u002A*%
X138370000Y-60960000D02*
X138370000Y-59630000D01*
X138370000Y-59630000D02*
X139700000Y-59630000D01*
X143570000Y-62290000D02*
X143570000Y-59630000D01*
X140970000Y-62290000D02*
X140970000Y-59630000D01*
X140970000Y-62290000D02*
X143570000Y-62290000D01*
X140970000Y-59630000D02*
X143570000Y-59630000D01*
X161210000Y-53950000D02*
X161210000Y-52620000D01*
X161210000Y-52620000D02*
X162540000Y-52620000D01*
X166410000Y-55280000D02*
X166410000Y-52620000D01*
X163810000Y-55280000D02*
X163810000Y-52620000D01*
X163810000Y-55280000D02*
X166410000Y-55280000D01*
X163810000Y-52620000D02*
X166410000Y-52620000D01*
X107890000Y-68580000D02*
X107890000Y-67250000D01*
X107890000Y-67250000D02*
X109220000Y-67250000D01*
X113090000Y-69910000D02*
X113090000Y-67250000D01*
X110490000Y-69910000D02*
X110490000Y-67250000D01*
X110490000Y-69910000D02*
X113090000Y-69910000D01*
X110490000Y-67250000D02*
X113090000Y-67250000D01*
X145990000Y-60960000D02*
X145990000Y-59630000D01*
X145990000Y-59630000D02*
X147320000Y-59630000D01*
X151190000Y-62290000D02*
X151190000Y-59630000D01*
X148590000Y-62290000D02*
X148590000Y-59630000D01*
X148590000Y-62290000D02*
X151190000Y-62290000D01*
X148590000Y-59630000D02*
X151190000Y-59630000D01*
X100250000Y-99060000D02*
X100250000Y-97730000D01*
X100250000Y-97730000D02*
X101580000Y-97730000D01*
X105450000Y-100390000D02*
X105450000Y-97730000D01*
X102850000Y-100390000D02*
X102850000Y-97730000D01*
X102850000Y-100390000D02*
X105450000Y-100390000D01*
X102850000Y-97730000D02*
X105450000Y-97730000D01*
X138370000Y-53950000D02*
X138370000Y-52620000D01*
X138370000Y-52620000D02*
X139700000Y-52620000D01*
X143570000Y-55280000D02*
X143570000Y-52620000D01*
X140970000Y-55280000D02*
X140970000Y-52620000D01*
X140970000Y-55280000D02*
X143570000Y-55280000D01*
X140970000Y-52620000D02*
X143570000Y-52620000D01*
X168830000Y-99060000D02*
X168830000Y-97730000D01*
X168830000Y-97730000D02*
X170160000Y-97730000D01*
X174030000Y-100390000D02*
X174030000Y-97730000D01*
X171430000Y-100390000D02*
X171430000Y-97730000D01*
X171430000Y-100390000D02*
X174030000Y-100390000D01*
X171430000Y-97730000D02*
X174030000Y-97730000D01*
X168830000Y-60960000D02*
X168830000Y-59630000D01*
X168830000Y-59630000D02*
X170160000Y-59630000D01*
X174030000Y-62290000D02*
X174030000Y-59630000D01*
X171430000Y-62290000D02*
X171430000Y-59630000D01*
X171430000Y-62290000D02*
X174030000Y-62290000D01*
X171430000Y-59630000D02*
X174030000Y-59630000D01*
X123130000Y-68580000D02*
X123130000Y-67250000D01*
X123130000Y-67250000D02*
X124460000Y-67250000D01*
X128330000Y-69910000D02*
X128330000Y-67250000D01*
X125730000Y-69910000D02*
X125730000Y-67250000D01*
X125730000Y-69910000D02*
X128330000Y-69910000D01*
X125730000Y-67250000D02*
X128330000Y-67250000D01*
X138370000Y-68580000D02*
X138370000Y-67250000D01*
X138370000Y-67250000D02*
X139700000Y-67250000D01*
X143570000Y-69910000D02*
X143570000Y-67250000D01*
X140970000Y-69910000D02*
X140970000Y-67250000D01*
X140970000Y-69910000D02*
X143570000Y-69910000D01*
X140970000Y-67250000D02*
X143570000Y-67250000D01*
X107890000Y-83820000D02*
X107890000Y-82490000D01*
X107890000Y-82490000D02*
X109220000Y-82490000D01*
X113090000Y-85150000D02*
X113090000Y-82490000D01*
X110490000Y-85150000D02*
X110490000Y-82490000D01*
X110490000Y-85150000D02*
X113090000Y-85150000D01*
X110490000Y-82490000D02*
X113090000Y-82490000D01*
X153590000Y-60960000D02*
X153590000Y-59630000D01*
X153590000Y-59630000D02*
X154920000Y-59630000D01*
X158790000Y-62290000D02*
X158790000Y-59630000D01*
X156190000Y-62290000D02*
X156190000Y-59630000D01*
X156190000Y-62290000D02*
X158790000Y-62290000D01*
X156190000Y-59630000D02*
X158790000Y-59630000D01*
X107890000Y-99060000D02*
X107890000Y-97730000D01*
X107890000Y-97730000D02*
X109220000Y-97730000D01*
X113090000Y-100390000D02*
X113090000Y-97730000D01*
X110490000Y-100390000D02*
X110490000Y-97730000D01*
X110490000Y-100390000D02*
X113090000Y-100390000D01*
X110490000Y-97730000D02*
X113090000Y-97730000D01*
X145990000Y-76200000D02*
X145990000Y-74870000D01*
X145990000Y-74870000D02*
X147320000Y-74870000D01*
X151190000Y-77530000D02*
X151190000Y-74870000D01*
X148590000Y-77530000D02*
X148590000Y-74870000D01*
X148590000Y-77530000D02*
X151190000Y-77530000D01*
X148590000Y-74870000D02*
X151190000Y-74870000D01*
X107890000Y-91440000D02*
X107890000Y-90110000D01*
X107890000Y-90110000D02*
X109220000Y-90110000D01*
X113090000Y-92770000D02*
X113090000Y-90110000D01*
X110490000Y-92770000D02*
X110490000Y-90110000D01*
X110490000Y-92770000D02*
X113090000Y-92770000D01*
X110490000Y-90110000D02*
X113090000Y-90110000D01*
X138370000Y-91440000D02*
X138370000Y-90110000D01*
X138370000Y-90110000D02*
X139700000Y-90110000D01*
X143570000Y-92770000D02*
X143570000Y-90110000D01*
X140970000Y-92770000D02*
X140970000Y-90110000D01*
X140970000Y-92770000D02*
X143570000Y-92770000D01*
X140970000Y-90110000D02*
X143570000Y-90110000D01*
X107890000Y-114300000D02*
X107890000Y-112970000D01*
X107890000Y-112970000D02*
X109220000Y-112970000D01*
X113090000Y-115630000D02*
X113090000Y-112970000D01*
X110490000Y-115630000D02*
X110490000Y-112970000D01*
X110490000Y-115630000D02*
X113090000Y-115630000D01*
X110490000Y-112970000D02*
X113090000Y-112970000D01*
X153590000Y-114300000D02*
X153590000Y-112970000D01*
X153590000Y-112970000D02*
X154920000Y-112970000D01*
X158790000Y-115630000D02*
X158790000Y-112970000D01*
X156190000Y-115630000D02*
X156190000Y-112970000D01*
X156190000Y-115630000D02*
X158790000Y-115630000D01*
X156190000Y-112970000D02*
X158790000Y-112970000D01*
X100250000Y-53950000D02*
X100250000Y-52620000D01*
X100250000Y-52620000D02*
X101580000Y-52620000D01*
X105450000Y-55280000D02*
X105450000Y-52620000D01*
X102850000Y-55280000D02*
X102850000Y-52620000D01*
X102850000Y-55280000D02*
X105450000Y-55280000D01*
X102850000Y-52620000D02*
X105450000Y-52620000D01*
X115490000Y-68580000D02*
X115490000Y-67250000D01*
X115490000Y-67250000D02*
X116820000Y-67250000D01*
X120690000Y-69910000D02*
X120690000Y-67250000D01*
X118090000Y-69910000D02*
X118090000Y-67250000D01*
X118090000Y-69910000D02*
X120690000Y-69910000D01*
X118090000Y-67250000D02*
X120690000Y-67250000D01*
X168830000Y-76200000D02*
X168830000Y-74870000D01*
X168830000Y-74870000D02*
X170160000Y-74870000D01*
X174030000Y-77530000D02*
X174030000Y-74870000D01*
X171430000Y-77530000D02*
X171430000Y-74870000D01*
X171430000Y-77530000D02*
X174030000Y-77530000D01*
X171430000Y-74870000D02*
X174030000Y-74870000D01*
X115490000Y-76200000D02*
X115490000Y-74870000D01*
X115490000Y-74870000D02*
X116820000Y-74870000D01*
X120690000Y-77530000D02*
X120690000Y-74870000D01*
X118090000Y-77530000D02*
X118090000Y-74870000D01*
X118090000Y-77530000D02*
X120690000Y-77530000D01*
X118090000Y-74870000D02*
X120690000Y-74870000D01*
X115490000Y-121920000D02*
X115490000Y-120590000D01*
X115490000Y-120590000D02*
X116820000Y-120590000D01*
X120690000Y-123250000D02*
X120690000Y-120590000D01*
X118090000Y-123250000D02*
X118090000Y-120590000D01*
X118090000Y-123250000D02*
X120690000Y-123250000D01*
X118090000Y-120590000D02*
X120690000Y-120590000D01*
X107890000Y-106680000D02*
X107890000Y-105350000D01*
X107890000Y-105350000D02*
X109220000Y-105350000D01*
X113090000Y-108010000D02*
X113090000Y-105350000D01*
X110490000Y-108010000D02*
X110490000Y-105350000D01*
X110490000Y-108010000D02*
X113090000Y-108010000D01*
X110490000Y-105350000D02*
X113090000Y-105350000D01*
X130730000Y-121920000D02*
X130730000Y-120590000D01*
X130730000Y-120590000D02*
X132060000Y-120590000D01*
X135930000Y-123250000D02*
X135930000Y-120590000D01*
X133330000Y-123250000D02*
X133330000Y-120590000D01*
X133330000Y-123250000D02*
X135930000Y-123250000D01*
X133330000Y-120590000D02*
X135930000Y-120590000D01*
X145990000Y-114300000D02*
X145990000Y-112970000D01*
X145990000Y-112970000D02*
X147320000Y-112970000D01*
X151190000Y-115630000D02*
X151190000Y-112970000D01*
X148590000Y-115630000D02*
X148590000Y-112970000D01*
X148590000Y-115630000D02*
X151190000Y-115630000D01*
X148590000Y-112970000D02*
X151190000Y-112970000D01*
X153590000Y-121920000D02*
X153590000Y-120590000D01*
X153590000Y-120590000D02*
X154920000Y-120590000D01*
X158790000Y-123250000D02*
X158790000Y-120590000D01*
X156190000Y-123250000D02*
X156190000Y-120590000D01*
X156190000Y-123250000D02*
X158790000Y-123250000D01*
X156190000Y-120590000D02*
X158790000Y-120590000D01*
X138370000Y-99060000D02*
X138370000Y-97730000D01*
X138370000Y-97730000D02*
X139700000Y-97730000D01*
X143570000Y-100390000D02*
X143570000Y-97730000D01*
X140970000Y-100390000D02*
X140970000Y-97730000D01*
X140970000Y-100390000D02*
X143570000Y-100390000D01*
X140970000Y-97730000D02*
X143570000Y-97730000D01*
X153590000Y-53950000D02*
X153590000Y-52620000D01*
X153590000Y-52620000D02*
X154920000Y-52620000D01*
X158790000Y-55280000D02*
X158790000Y-52620000D01*
X156190000Y-55280000D02*
X156190000Y-52620000D01*
X156190000Y-55280000D02*
X158790000Y-55280000D01*
X156190000Y-52620000D02*
X158790000Y-52620000D01*
X145990000Y-83820000D02*
X145990000Y-82490000D01*
X145990000Y-82490000D02*
X147320000Y-82490000D01*
X151190000Y-85150000D02*
X151190000Y-82490000D01*
X148590000Y-85150000D02*
X148590000Y-82490000D01*
X148590000Y-85150000D02*
X151190000Y-85150000D01*
X148590000Y-82490000D02*
X151190000Y-82490000D01*
X168830000Y-114300000D02*
X168830000Y-112970000D01*
X168830000Y-112970000D02*
X170160000Y-112970000D01*
X174030000Y-115630000D02*
X174030000Y-112970000D01*
X171430000Y-115630000D02*
X171430000Y-112970000D01*
X171430000Y-115630000D02*
X174030000Y-115630000D01*
X171430000Y-112970000D02*
X174030000Y-112970000D01*
X138370000Y-83820000D02*
X138370000Y-82490000D01*
X138370000Y-82490000D02*
X139700000Y-82490000D01*
X143570000Y-85150000D02*
X143570000Y-82490000D01*
X140970000Y-85150000D02*
X140970000Y-82490000D01*
X140970000Y-85150000D02*
X143570000Y-85150000D01*
X140970000Y-82490000D02*
X143570000Y-82490000D01*
X130730000Y-68580000D02*
X130730000Y-67250000D01*
X130730000Y-67250000D02*
X132060000Y-67250000D01*
X135930000Y-69910000D02*
X135930000Y-67250000D01*
X133330000Y-69910000D02*
X133330000Y-67250000D01*
X133330000Y-69910000D02*
X135930000Y-69910000D01*
X133330000Y-67250000D02*
X135930000Y-67250000D01*
X145990000Y-121920000D02*
X145990000Y-120590000D01*
X145990000Y-120590000D02*
X147320000Y-120590000D01*
X151190000Y-123250000D02*
X151190000Y-120590000D01*
X148590000Y-123250000D02*
X148590000Y-120590000D01*
X148590000Y-123250000D02*
X151190000Y-123250000D01*
X148590000Y-120590000D02*
X151190000Y-120590000D01*
X100250000Y-83820000D02*
X100250000Y-82490000D01*
X100250000Y-82490000D02*
X101580000Y-82490000D01*
X105450000Y-85150000D02*
X105450000Y-82490000D01*
X102850000Y-85150000D02*
X102850000Y-82490000D01*
X102850000Y-85150000D02*
X105450000Y-85150000D01*
X102850000Y-82490000D02*
X105450000Y-82490000D01*
X145990000Y-53950000D02*
X145990000Y-52620000D01*
X145990000Y-52620000D02*
X147320000Y-52620000D01*
X151190000Y-55280000D02*
X151190000Y-52620000D01*
X148590000Y-55280000D02*
X148590000Y-52620000D01*
X148590000Y-55280000D02*
X151190000Y-55280000D01*
X148590000Y-52620000D02*
X151190000Y-52620000D01*
X168830000Y-106680000D02*
X168830000Y-105350000D01*
X168830000Y-105350000D02*
X170160000Y-105350000D01*
X174030000Y-108010000D02*
X174030000Y-105350000D01*
X171430000Y-108010000D02*
X171430000Y-105350000D01*
X171430000Y-108010000D02*
X174030000Y-108010000D01*
X171430000Y-105350000D02*
X174030000Y-105350000D01*
X168830000Y-68580000D02*
X168830000Y-67250000D01*
X168830000Y-67250000D02*
X170160000Y-67250000D01*
X174030000Y-69910000D02*
X174030000Y-67250000D01*
X171430000Y-69910000D02*
X171430000Y-67250000D01*
X171430000Y-69910000D02*
X174030000Y-69910000D01*
X171430000Y-67250000D02*
X174030000Y-67250000D01*
X130730000Y-91440000D02*
X130730000Y-90110000D01*
X130730000Y-90110000D02*
X132060000Y-90110000D01*
X135930000Y-92770000D02*
X135930000Y-90110000D01*
X133330000Y-92770000D02*
X133330000Y-90110000D01*
X133330000Y-92770000D02*
X135930000Y-92770000D01*
X133330000Y-90110000D02*
X135930000Y-90110000D01*
X138370000Y-106680000D02*
X138370000Y-105350000D01*
X138370000Y-105350000D02*
X139700000Y-105350000D01*
X143570000Y-108010000D02*
X143570000Y-105350000D01*
X140970000Y-108010000D02*
X140970000Y-105350000D01*
X140970000Y-108010000D02*
X143570000Y-108010000D01*
X140970000Y-105350000D02*
X143570000Y-105350000D01*
X123130000Y-121920000D02*
X123130000Y-120590000D01*
X123130000Y-120590000D02*
X124460000Y-120590000D01*
X128330000Y-123250000D02*
X128330000Y-120590000D01*
X125730000Y-123250000D02*
X125730000Y-120590000D01*
X125730000Y-123250000D02*
X128330000Y-123250000D01*
X125730000Y-120590000D02*
X128330000Y-120590000D01*
X161210000Y-60960000D02*
X161210000Y-59630000D01*
X161210000Y-59630000D02*
X162540000Y-59630000D01*
X166410000Y-62290000D02*
X166410000Y-59630000D01*
X163810000Y-62290000D02*
X163810000Y-59630000D01*
X163810000Y-62290000D02*
X166410000Y-62290000D01*
X163810000Y-59630000D02*
X166410000Y-59630000D01*
X161210000Y-76200000D02*
X161210000Y-74870000D01*
X161210000Y-74870000D02*
X162540000Y-74870000D01*
X166410000Y-77530000D02*
X166410000Y-74870000D01*
X163810000Y-77530000D02*
X163810000Y-74870000D01*
X163810000Y-77530000D02*
X166410000Y-77530000D01*
X163810000Y-74870000D02*
X166410000Y-74870000D01*
X168830000Y-91440000D02*
X168830000Y-90110000D01*
X168830000Y-90110000D02*
X170160000Y-90110000D01*
X174030000Y-92770000D02*
X174030000Y-90110000D01*
X171430000Y-92770000D02*
X171430000Y-90110000D01*
X171430000Y-92770000D02*
X174030000Y-92770000D01*
X171430000Y-90110000D02*
X174030000Y-90110000D01*
X107890000Y-121920000D02*
X107890000Y-120590000D01*
X107890000Y-120590000D02*
X109220000Y-120590000D01*
X113090000Y-123250000D02*
X113090000Y-120590000D01*
X110490000Y-123250000D02*
X110490000Y-120590000D01*
X110490000Y-123250000D02*
X113090000Y-123250000D01*
X110490000Y-120590000D02*
X113090000Y-120590000D01*
X153590000Y-83820000D02*
X153590000Y-82490000D01*
X153590000Y-82490000D02*
X154920000Y-82490000D01*
X158790000Y-85150000D02*
X158790000Y-82490000D01*
X156190000Y-85150000D02*
X156190000Y-82490000D01*
X156190000Y-85150000D02*
X158790000Y-85150000D01*
X156190000Y-82490000D02*
X158790000Y-82490000D01*
X168830000Y-83820000D02*
X168830000Y-82490000D01*
X168830000Y-82490000D02*
X170160000Y-82490000D01*
X174030000Y-85150000D02*
X174030000Y-82490000D01*
X171430000Y-85150000D02*
X171430000Y-82490000D01*
X171430000Y-85150000D02*
X174030000Y-85150000D01*
X171430000Y-82490000D02*
X174030000Y-82490000D01*
X161210000Y-91440000D02*
X161210000Y-90110000D01*
X161210000Y-90110000D02*
X162540000Y-90110000D01*
X166410000Y-92770000D02*
X166410000Y-90110000D01*
X163810000Y-92770000D02*
X163810000Y-90110000D01*
X163810000Y-92770000D02*
X166410000Y-92770000D01*
X163810000Y-90110000D02*
X166410000Y-90110000D01*
X130730000Y-53950000D02*
X130730000Y-52620000D01*
X130730000Y-52620000D02*
X132060000Y-52620000D01*
X135930000Y-55280000D02*
X135930000Y-52620000D01*
X133330000Y-55280000D02*
X133330000Y-52620000D01*
X133330000Y-55280000D02*
X135930000Y-55280000D01*
X133330000Y-52620000D02*
X135930000Y-52620000D01*
X115490000Y-91440000D02*
X115490000Y-90110000D01*
X115490000Y-90110000D02*
X116820000Y-90110000D01*
X120690000Y-92770000D02*
X120690000Y-90110000D01*
X118090000Y-92770000D02*
X118090000Y-90110000D01*
X118090000Y-92770000D02*
X120690000Y-92770000D01*
X118090000Y-90110000D02*
X120690000Y-90110000D01*
X123130000Y-83820000D02*
X123130000Y-82490000D01*
X123130000Y-82490000D02*
X124460000Y-82490000D01*
X128330000Y-85150000D02*
X128330000Y-82490000D01*
X125730000Y-85150000D02*
X125730000Y-82490000D01*
X125730000Y-85150000D02*
X128330000Y-85150000D01*
X125730000Y-82490000D02*
X128330000Y-82490000D01*
X100250000Y-114300000D02*
X100250000Y-112970000D01*
X100250000Y-112970000D02*
X101580000Y-112970000D01*
X105450000Y-115630000D02*
X105450000Y-112970000D01*
X102850000Y-115630000D02*
X102850000Y-112970000D01*
X102850000Y-115630000D02*
X105450000Y-115630000D01*
X102850000Y-112970000D02*
X105450000Y-112970000D01*
X107890000Y-60960000D02*
X107890000Y-59630000D01*
X107890000Y-59630000D02*
X109220000Y-59630000D01*
X113090000Y-62290000D02*
X113090000Y-59630000D01*
X110490000Y-62290000D02*
X110490000Y-59630000D01*
X110490000Y-62290000D02*
X113090000Y-62290000D01*
X110490000Y-59630000D02*
X113090000Y-59630000D01*
X153590000Y-106680000D02*
X153590000Y-105350000D01*
X153590000Y-105350000D02*
X154920000Y-105350000D01*
X158790000Y-108010000D02*
X158790000Y-105350000D01*
X156190000Y-108010000D02*
X156190000Y-105350000D01*
X156190000Y-108010000D02*
X158790000Y-108010000D01*
X156190000Y-105350000D02*
X158790000Y-105350000D01*
X145990000Y-91440000D02*
X145990000Y-90110000D01*
X145990000Y-90110000D02*
X147320000Y-90110000D01*
X151190000Y-92770000D02*
X151190000Y-90110000D01*
X148590000Y-92770000D02*
X148590000Y-90110000D01*
X148590000Y-92770000D02*
X151190000Y-92770000D01*
X148590000Y-90110000D02*
X151190000Y-90110000D01*
X146080000Y-138465000D02*
X169000000Y-138465000D01*
X143480000Y-135805000D02*
X144810000Y-135805000D01*
X143480000Y-137135000D02*
X143480000Y-135805000D01*
X146080000Y-138465000D02*
X146080000Y-135805000D01*
X169000000Y-138465000D02*
X169000000Y-135805000D01*
X146080000Y-135805000D02*
X169000000Y-135805000D01*
X145990000Y-68580000D02*
X145990000Y-67250000D01*
X145990000Y-67250000D02*
X147320000Y-67250000D01*
X151190000Y-69910000D02*
X151190000Y-67250000D01*
X148590000Y-69910000D02*
X148590000Y-67250000D01*
X148590000Y-69910000D02*
X151190000Y-69910000D01*
X148590000Y-67250000D02*
X151190000Y-67250000D01*
X100250000Y-68580000D02*
X100250000Y-67250000D01*
X100250000Y-67250000D02*
X101580000Y-67250000D01*
X105450000Y-69910000D02*
X105450000Y-67250000D01*
X102850000Y-69910000D02*
X102850000Y-67250000D01*
X102850000Y-69910000D02*
X105450000Y-69910000D01*
X102850000Y-67250000D02*
X105450000Y-67250000D01*
X145990000Y-99060000D02*
X145990000Y-97730000D01*
X145990000Y-97730000D02*
X147320000Y-97730000D01*
X151190000Y-100390000D02*
X151190000Y-97730000D01*
X148590000Y-100390000D02*
X148590000Y-97730000D01*
X148590000Y-100390000D02*
X151190000Y-100390000D01*
X148590000Y-97730000D02*
X151190000Y-97730000D01*
X123130000Y-53950000D02*
X123130000Y-52620000D01*
X123130000Y-52620000D02*
X124460000Y-52620000D01*
X128330000Y-55280000D02*
X128330000Y-52620000D01*
X125730000Y-55280000D02*
X125730000Y-52620000D01*
X125730000Y-55280000D02*
X128330000Y-55280000D01*
X125730000Y-52620000D02*
X128330000Y-52620000D01*
X153590000Y-76200000D02*
X153590000Y-74870000D01*
X153590000Y-74870000D02*
X154920000Y-74870000D01*
X158790000Y-77530000D02*
X158790000Y-74870000D01*
X156190000Y-77530000D02*
X156190000Y-74870000D01*
X156190000Y-77530000D02*
X158790000Y-77530000D01*
X156190000Y-74870000D02*
X158790000Y-74870000D01*
X123130000Y-106680000D02*
X123130000Y-105350000D01*
X123130000Y-105350000D02*
X124460000Y-105350000D01*
X128330000Y-108010000D02*
X128330000Y-105350000D01*
X125730000Y-108010000D02*
X125730000Y-105350000D01*
X125730000Y-108010000D02*
X128330000Y-108010000D01*
X125730000Y-105350000D02*
X128330000Y-105350000D01*
X153590000Y-91440000D02*
X153590000Y-90110000D01*
X153590000Y-90110000D02*
X154920000Y-90110000D01*
X158790000Y-92770000D02*
X158790000Y-90110000D01*
X156190000Y-92770000D02*
X156190000Y-90110000D01*
X156190000Y-92770000D02*
X158790000Y-92770000D01*
X156190000Y-90110000D02*
X158790000Y-90110000D01*
X161210000Y-121920000D02*
X161210000Y-120590000D01*
X161210000Y-120590000D02*
X162540000Y-120590000D01*
X166410000Y-123250000D02*
X166410000Y-120590000D01*
X163810000Y-123250000D02*
X163810000Y-120590000D01*
X163810000Y-123250000D02*
X166410000Y-123250000D01*
X163810000Y-120590000D02*
X166410000Y-120590000D01*
X115490000Y-60960000D02*
X115490000Y-59630000D01*
X115490000Y-59630000D02*
X116820000Y-59630000D01*
X120690000Y-62290000D02*
X120690000Y-59630000D01*
X118090000Y-62290000D02*
X118090000Y-59630000D01*
X118090000Y-62290000D02*
X120690000Y-62290000D01*
X118090000Y-59630000D02*
X120690000Y-59630000D01*
X123130000Y-91440000D02*
X123130000Y-90110000D01*
X123130000Y-90110000D02*
X124460000Y-90110000D01*
X128330000Y-92770000D02*
X128330000Y-90110000D01*
X125730000Y-92770000D02*
X125730000Y-90110000D01*
X125730000Y-92770000D02*
X128330000Y-92770000D01*
X125730000Y-90110000D02*
X128330000Y-90110000D01*
X161210000Y-99060000D02*
X161210000Y-97730000D01*
X161210000Y-97730000D02*
X162540000Y-97730000D01*
X166410000Y-100390000D02*
X166410000Y-97730000D01*
X163810000Y-100390000D02*
X163810000Y-97730000D01*
X163810000Y-100390000D02*
X166410000Y-100390000D01*
X163810000Y-97730000D02*
X166410000Y-97730000D01*
X123130000Y-60960000D02*
X123130000Y-59630000D01*
X123130000Y-59630000D02*
X124460000Y-59630000D01*
X128330000Y-62290000D02*
X128330000Y-59630000D01*
X125730000Y-62290000D02*
X125730000Y-59630000D01*
X125730000Y-62290000D02*
X128330000Y-62290000D01*
X125730000Y-59630000D02*
X128330000Y-59630000D01*
X161210000Y-114300000D02*
X161210000Y-112970000D01*
X161210000Y-112970000D02*
X162540000Y-112970000D01*
X166410000Y-115630000D02*
X166410000Y-112970000D01*
X163810000Y-115630000D02*
X163810000Y-112970000D01*
X163810000Y-115630000D02*
X166410000Y-115630000D01*
X163810000Y-112970000D02*
X166410000Y-112970000D01*
X130730000Y-106680000D02*
X130730000Y-105350000D01*
X130730000Y-105350000D02*
X132060000Y-105350000D01*
X135930000Y-108010000D02*
X135930000Y-105350000D01*
X133330000Y-108010000D02*
X133330000Y-105350000D01*
X133330000Y-108010000D02*
X135930000Y-108010000D01*
X133330000Y-105350000D02*
X135930000Y-105350000D01*
X168830000Y-53950000D02*
X168830000Y-52620000D01*
X168830000Y-52620000D02*
X170160000Y-52620000D01*
X174030000Y-55280000D02*
X174030000Y-52620000D01*
X171430000Y-55280000D02*
X171430000Y-52620000D01*
X171430000Y-55280000D02*
X174030000Y-55280000D01*
X171430000Y-52620000D02*
X174030000Y-52620000D01*
X100250000Y-106680000D02*
X100250000Y-105350000D01*
X100250000Y-105350000D02*
X101580000Y-105350000D01*
X105450000Y-108010000D02*
X105450000Y-105350000D01*
X102850000Y-108010000D02*
X102850000Y-105350000D01*
X102850000Y-108010000D02*
X105450000Y-108010000D01*
X102850000Y-105350000D02*
X105450000Y-105350000D01*
X130730000Y-83820000D02*
X130730000Y-82490000D01*
X130730000Y-82490000D02*
X132060000Y-82490000D01*
X135930000Y-85150000D02*
X135930000Y-82490000D01*
X133330000Y-85150000D02*
X133330000Y-82490000D01*
X133330000Y-85150000D02*
X135930000Y-85150000D01*
X133330000Y-82490000D02*
X135930000Y-82490000D01*
X130730000Y-60960000D02*
X130730000Y-59630000D01*
X130730000Y-59630000D02*
X132060000Y-59630000D01*
X135930000Y-62290000D02*
X135930000Y-59630000D01*
X133330000Y-62290000D02*
X133330000Y-59630000D01*
X133330000Y-62290000D02*
X135930000Y-62290000D01*
X133330000Y-59630000D02*
X135930000Y-59630000D01*
X115490000Y-106680000D02*
X115490000Y-105350000D01*
X115490000Y-105350000D02*
X116820000Y-105350000D01*
X120690000Y-108010000D02*
X120690000Y-105350000D01*
X118090000Y-108010000D02*
X118090000Y-105350000D01*
X118090000Y-108010000D02*
X120690000Y-108010000D01*
X118090000Y-105350000D02*
X120690000Y-105350000D01*
X168830000Y-121920000D02*
X168830000Y-120590000D01*
X168830000Y-120590000D02*
X170160000Y-120590000D01*
X174030000Y-123250000D02*
X174030000Y-120590000D01*
X171430000Y-123250000D02*
X171430000Y-120590000D01*
X171430000Y-123250000D02*
X174030000Y-123250000D01*
X171430000Y-120590000D02*
X174030000Y-120590000D01*
X100250000Y-91440000D02*
X100250000Y-90110000D01*
X100250000Y-90110000D02*
X101580000Y-90110000D01*
X105450000Y-92770000D02*
X105450000Y-90110000D01*
X102850000Y-92770000D02*
X102850000Y-90110000D01*
X102850000Y-92770000D02*
X105450000Y-92770000D01*
X102850000Y-90110000D02*
X105450000Y-90110000D01*
X115490000Y-114300000D02*
X115490000Y-112970000D01*
X115490000Y-112970000D02*
X116820000Y-112970000D01*
X120690000Y-115630000D02*
X120690000Y-112970000D01*
X118090000Y-115630000D02*
X118090000Y-112970000D01*
X118090000Y-115630000D02*
X120690000Y-115630000D01*
X118090000Y-112970000D02*
X120690000Y-112970000D01*
X138370000Y-114300000D02*
X138370000Y-112970000D01*
X138370000Y-112970000D02*
X139700000Y-112970000D01*
X143570000Y-115630000D02*
X143570000Y-112970000D01*
X140970000Y-115630000D02*
X140970000Y-112970000D01*
X140970000Y-115630000D02*
X143570000Y-115630000D01*
X140970000Y-112970000D02*
X143570000Y-112970000D01*
X161210000Y-106680000D02*
X161210000Y-105350000D01*
X161210000Y-105350000D02*
X162540000Y-105350000D01*
X166410000Y-108010000D02*
X166410000Y-105350000D01*
X163810000Y-108010000D02*
X163810000Y-105350000D01*
X163810000Y-108010000D02*
X166410000Y-108010000D01*
X163810000Y-105350000D02*
X166410000Y-105350000D01*
X123130000Y-99060000D02*
X123130000Y-97730000D01*
X123130000Y-97730000D02*
X124460000Y-97730000D01*
X128330000Y-100390000D02*
X128330000Y-97730000D01*
X125730000Y-100390000D02*
X125730000Y-97730000D01*
X125730000Y-100390000D02*
X128330000Y-100390000D01*
X125730000Y-97730000D02*
X128330000Y-97730000D01*
X100250000Y-121920000D02*
X100250000Y-120590000D01*
X100250000Y-120590000D02*
X101580000Y-120590000D01*
X105450000Y-123250000D02*
X105450000Y-120590000D01*
X102850000Y-123250000D02*
X102850000Y-120590000D01*
X102850000Y-123250000D02*
X105450000Y-123250000D01*
X102850000Y-120590000D02*
X105450000Y-120590000D01*
X130730000Y-99060000D02*
X130730000Y-97730000D01*
X130730000Y-97730000D02*
X132060000Y-97730000D01*
X135930000Y-100390000D02*
X135930000Y-97730000D01*
X133330000Y-100390000D02*
X133330000Y-97730000D01*
X133330000Y-100390000D02*
X135930000Y-100390000D01*
X133330000Y-97730000D02*
X135930000Y-97730000D01*
X130730000Y-114300000D02*
X130730000Y-112970000D01*
X130730000Y-112970000D02*
X132060000Y-112970000D01*
X135930000Y-115630000D02*
X135930000Y-112970000D01*
X133330000Y-115630000D02*
X133330000Y-112970000D01*
X133330000Y-115630000D02*
X135930000Y-115630000D01*
X133330000Y-112970000D02*
X135930000Y-112970000D01*
X107890000Y-76200000D02*
X107890000Y-74870000D01*
X107890000Y-74870000D02*
X109220000Y-74870000D01*
X113090000Y-77530000D02*
X113090000Y-74870000D01*
X110490000Y-77530000D02*
X110490000Y-74870000D01*
X110490000Y-77530000D02*
X113090000Y-77530000D01*
X110490000Y-74870000D02*
X113090000Y-74870000D01*
X138370000Y-121920000D02*
X138370000Y-120590000D01*
X138370000Y-120590000D02*
X139700000Y-120590000D01*
X143570000Y-123250000D02*
X143570000Y-120590000D01*
X140970000Y-123250000D02*
X140970000Y-120590000D01*
X140970000Y-123250000D02*
X143570000Y-123250000D01*
X140970000Y-120590000D02*
X143570000Y-120590000D01*
X161210000Y-68580000D02*
X161210000Y-67250000D01*
X161210000Y-67250000D02*
X162540000Y-67250000D01*
X166410000Y-69910000D02*
X166410000Y-67250000D01*
X163810000Y-69910000D02*
X163810000Y-67250000D01*
X163810000Y-69910000D02*
X166410000Y-69910000D01*
X163810000Y-67250000D02*
X166410000Y-67250000D01*
X100250000Y-60960000D02*
X100250000Y-59630000D01*
X100250000Y-59630000D02*
X101580000Y-59630000D01*
X105450000Y-62290000D02*
X105450000Y-59630000D01*
X102850000Y-62290000D02*
X102850000Y-59630000D01*
X102850000Y-62290000D02*
X105450000Y-62290000D01*
X102850000Y-59630000D02*
X105450000Y-59630000D01*
X161210000Y-83820000D02*
X161210000Y-82490000D01*
X161210000Y-82490000D02*
X162540000Y-82490000D01*
X166410000Y-85150000D02*
X166410000Y-82490000D01*
X163810000Y-85150000D02*
X163810000Y-82490000D01*
X163810000Y-85150000D02*
X166410000Y-85150000D01*
X163810000Y-82490000D02*
X166410000Y-82490000D01*
X145990000Y-106680000D02*
X145990000Y-105350000D01*
X145990000Y-105350000D02*
X147320000Y-105350000D01*
X151190000Y-108010000D02*
X151190000Y-105350000D01*
X148590000Y-108010000D02*
X148590000Y-105350000D01*
X148590000Y-108010000D02*
X151190000Y-108010000D01*
X148590000Y-105350000D02*
X151190000Y-105350000D01*
X111790000Y-138465000D02*
X134710000Y-138465000D01*
X109190000Y-135805000D02*
X110520000Y-135805000D01*
X109190000Y-137135000D02*
X109190000Y-135805000D01*
X111790000Y-138465000D02*
X111790000Y-135805000D01*
X134710000Y-138465000D02*
X134710000Y-135805000D01*
X111790000Y-135805000D02*
X134710000Y-135805000D01*
X115490000Y-99060000D02*
X115490000Y-97730000D01*
X115490000Y-97730000D02*
X116820000Y-97730000D01*
X120690000Y-100390000D02*
X120690000Y-97730000D01*
X118090000Y-100390000D02*
X118090000Y-97730000D01*
X118090000Y-100390000D02*
X120690000Y-100390000D01*
X118090000Y-97730000D02*
X120690000Y-97730000D01*
X100250000Y-76200000D02*
X100250000Y-74870000D01*
X100250000Y-74870000D02*
X101580000Y-74870000D01*
X105450000Y-77530000D02*
X105450000Y-74870000D01*
X102850000Y-77530000D02*
X102850000Y-74870000D01*
X102850000Y-77530000D02*
X105450000Y-77530000D01*
X102850000Y-74870000D02*
X105450000Y-74870000D01*
X107890000Y-53950000D02*
X107890000Y-52620000D01*
X107890000Y-52620000D02*
X109220000Y-52620000D01*
X113090000Y-55280000D02*
X113090000Y-52620000D01*
X110490000Y-55280000D02*
X110490000Y-52620000D01*
X110490000Y-55280000D02*
X113090000Y-55280000D01*
X110490000Y-52620000D02*
X113090000Y-52620000D01*
X153590000Y-68580000D02*
X153590000Y-67250000D01*
X153590000Y-67250000D02*
X154920000Y-67250000D01*
X158790000Y-69910000D02*
X158790000Y-67250000D01*
X156190000Y-69910000D02*
X156190000Y-67250000D01*
X156190000Y-69910000D02*
X158790000Y-69910000D01*
X156190000Y-67250000D02*
X158790000Y-67250000D01*
X115490000Y-53950000D02*
X115490000Y-52620000D01*
X115490000Y-52620000D02*
X116820000Y-52620000D01*
X120690000Y-55280000D02*
X120690000Y-52620000D01*
X118090000Y-55280000D02*
X118090000Y-52620000D01*
X118090000Y-55280000D02*
X120690000Y-55280000D01*
X118090000Y-52620000D02*
X120690000Y-52620000D01*
X138370000Y-76200000D02*
X138370000Y-74870000D01*
X138370000Y-74870000D02*
X139700000Y-74870000D01*
X143570000Y-77530000D02*
X143570000Y-74870000D01*
X140970000Y-77530000D02*
X140970000Y-74870000D01*
X140970000Y-77530000D02*
X143570000Y-77530000D01*
X140970000Y-74870000D02*
X143570000Y-74870000D01*
X123130000Y-76200000D02*
X123130000Y-74870000D01*
X123130000Y-74870000D02*
X124460000Y-74870000D01*
X128330000Y-77530000D02*
X128330000Y-74870000D01*
X125730000Y-77530000D02*
X125730000Y-74870000D01*
X125730000Y-77530000D02*
X128330000Y-77530000D01*
X125730000Y-74870000D02*
X128330000Y-74870000D01*
X115490000Y-83820000D02*
X115490000Y-82490000D01*
X115490000Y-82490000D02*
X116820000Y-82490000D01*
X120690000Y-85150000D02*
X120690000Y-82490000D01*
X118090000Y-85150000D02*
X118090000Y-82490000D01*
X118090000Y-85150000D02*
X120690000Y-85150000D01*
X118090000Y-82490000D02*
X120690000Y-82490000D01*
X123130000Y-114300000D02*
X123130000Y-112970000D01*
X123130000Y-112970000D02*
X124460000Y-112970000D01*
X128330000Y-115630000D02*
X128330000Y-112970000D01*
X125730000Y-115630000D02*
X125730000Y-112970000D01*
X125730000Y-115630000D02*
X128330000Y-115630000D01*
X125730000Y-112970000D02*
X128330000Y-112970000D01*
X130730000Y-76200000D02*
X130730000Y-74870000D01*
X130730000Y-74870000D02*
X132060000Y-74870000D01*
X135930000Y-77530000D02*
X135930000Y-74870000D01*
X133330000Y-77530000D02*
X133330000Y-74870000D01*
X133330000Y-77530000D02*
X135930000Y-77530000D01*
X133330000Y-74870000D02*
X135930000Y-74870000D01*
X153590000Y-99060000D02*
X153590000Y-97730000D01*
X153590000Y-97730000D02*
X154920000Y-97730000D01*
X158790000Y-100390000D02*
X158790000Y-97730000D01*
X156190000Y-100390000D02*
X156190000Y-97730000D01*
X156190000Y-100390000D02*
X158790000Y-100390000D01*
X156190000Y-97730000D02*
X158790000Y-97730000D01*
%TD*%
M02*
