%TF.GenerationSoftware,KiCad,Pcbnew,6.0.11+dfsg-1*%
%TF.CreationDate,2025-10-30T18:07:19+01:00*%
%TF.ProjectId,matrice,6d617472-6963-4652-9e6b-696361645f70,rev?*%
%TF.SameCoordinates,Original*%
%TF.FileFunction,Copper,L2,Bot*%
%TF.FilePolarity,Positive*%
%FSLAX46Y46*%
G04 Gerber Fmt 4.6, Leading zero omitted, Abs format (unit mm)*
G04 Created by KiCad (PCBNEW 6.0.11+dfsg-1) date 2025-10-30 18:07:19*
%MOMM*%
%LPD*%
G01*
G04 APERTURE LIST*
%TA.AperFunction,ComponentPad*%
%ADD10R,1.700000X1.700000*%
%TD*%
%TA.AperFunction,ComponentPad*%
%ADD11O,1.700000X1.700000*%
%TD*%
%TA.AperFunction,Conductor*%
%ADD12C,0.800000*%
%TD*%
G04 APERTURE END LIST*
D10*
%TO.P,REF\u002A\u002A,1*%
%TO.N,N/C*%
X139700000Y-60960000D03*
D11*
%TO.P,REF\u002A\u002A,2*%
X142240000Y-60960000D03*
%TD*%
D10*
%TO.P,REF\u002A\u002A,1*%
%TO.N,N/C*%
X162540000Y-53950000D03*
D11*
%TO.P,REF\u002A\u002A,2*%
X165080000Y-53950000D03*
%TD*%
D10*
%TO.P,REF\u002A\u002A,1*%
%TO.N,N/C*%
X109220000Y-68580000D03*
D11*
%TO.P,REF\u002A\u002A,2*%
X111760000Y-68580000D03*
%TD*%
D10*
%TO.P,REF\u002A\u002A,1*%
%TO.N,N/C*%
X147320000Y-60960000D03*
D11*
%TO.P,REF\u002A\u002A,2*%
X149860000Y-60960000D03*
%TD*%
D10*
%TO.P,REF\u002A\u002A,1*%
%TO.N,N/C*%
X101580000Y-99060000D03*
D11*
%TO.P,REF\u002A\u002A,2*%
X104120000Y-99060000D03*
%TD*%
D10*
%TO.P,REF\u002A\u002A,1*%
%TO.N,N/C*%
X139700000Y-53950000D03*
D11*
%TO.P,REF\u002A\u002A,2*%
X142240000Y-53950000D03*
%TD*%
D10*
%TO.P,REF\u002A\u002A,1*%
%TO.N,N/C*%
X170160000Y-99060000D03*
D11*
%TO.P,REF\u002A\u002A,2*%
X172700000Y-99060000D03*
%TD*%
D10*
%TO.P,REF\u002A\u002A,1*%
%TO.N,N/C*%
X170160000Y-60960000D03*
D11*
%TO.P,REF\u002A\u002A,2*%
X172700000Y-60960000D03*
%TD*%
D10*
%TO.P,REF\u002A\u002A,1*%
%TO.N,N/C*%
X124460000Y-68580000D03*
D11*
%TO.P,REF\u002A\u002A,2*%
X127000000Y-68580000D03*
%TD*%
D10*
%TO.P,REF\u002A\u002A,1*%
%TO.N,N/C*%
X139700000Y-68580000D03*
D11*
%TO.P,REF\u002A\u002A,2*%
X142240000Y-68580000D03*
%TD*%
D10*
%TO.P,REF\u002A\u002A,1*%
%TO.N,N/C*%
X109220000Y-83820000D03*
D11*
%TO.P,REF\u002A\u002A,2*%
X111760000Y-83820000D03*
%TD*%
D10*
%TO.P,REF\u002A\u002A,1*%
%TO.N,N/C*%
X154920000Y-60960000D03*
D11*
%TO.P,REF\u002A\u002A,2*%
X157460000Y-60960000D03*
%TD*%
D10*
%TO.P,REF\u002A\u002A,1*%
%TO.N,N/C*%
X109220000Y-99060000D03*
D11*
%TO.P,REF\u002A\u002A,2*%
X111760000Y-99060000D03*
%TD*%
D10*
%TO.P,REF\u002A\u002A,1*%
%TO.N,N/C*%
X147320000Y-76200000D03*
D11*
%TO.P,REF\u002A\u002A,2*%
X149860000Y-76200000D03*
%TD*%
D10*
%TO.P,REF\u002A\u002A,1*%
%TO.N,N/C*%
X109220000Y-91440000D03*
D11*
%TO.P,REF\u002A\u002A,2*%
X111760000Y-91440000D03*
%TD*%
D10*
%TO.P,REF\u002A\u002A,1*%
%TO.N,N/C*%
X139700000Y-91440000D03*
D11*
%TO.P,REF\u002A\u002A,2*%
X142240000Y-91440000D03*
%TD*%
D10*
%TO.P,REF\u002A\u002A,1*%
%TO.N,N/C*%
X109220000Y-114300000D03*
D11*
%TO.P,REF\u002A\u002A,2*%
X111760000Y-114300000D03*
%TD*%
D10*
%TO.P,REF\u002A\u002A,1*%
%TO.N,N/C*%
X154920000Y-114300000D03*
D11*
%TO.P,REF\u002A\u002A,2*%
X157460000Y-114300000D03*
%TD*%
D10*
%TO.P,REF\u002A\u002A,1*%
%TO.N,N/C*%
X101580000Y-53950000D03*
D11*
%TO.P,REF\u002A\u002A,2*%
X104120000Y-53950000D03*
%TD*%
D10*
%TO.P,REF\u002A\u002A,1*%
%TO.N,N/C*%
X116820000Y-68580000D03*
D11*
%TO.P,REF\u002A\u002A,2*%
X119360000Y-68580000D03*
%TD*%
D10*
%TO.P,REF\u002A\u002A,1*%
%TO.N,N/C*%
X170160000Y-76200000D03*
D11*
%TO.P,REF\u002A\u002A,2*%
X172700000Y-76200000D03*
%TD*%
D10*
%TO.P,REF\u002A\u002A,1*%
%TO.N,N/C*%
X116820000Y-76200000D03*
D11*
%TO.P,REF\u002A\u002A,2*%
X119360000Y-76200000D03*
%TD*%
D10*
%TO.P,REF\u002A\u002A,1*%
%TO.N,N/C*%
X116820000Y-121920000D03*
D11*
%TO.P,REF\u002A\u002A,2*%
X119360000Y-121920000D03*
%TD*%
D10*
%TO.P,REF\u002A\u002A,1*%
%TO.N,N/C*%
X109220000Y-106680000D03*
D11*
%TO.P,REF\u002A\u002A,2*%
X111760000Y-106680000D03*
%TD*%
D10*
%TO.P,REF\u002A\u002A,1*%
%TO.N,N/C*%
X132060000Y-121920000D03*
D11*
%TO.P,REF\u002A\u002A,2*%
X134600000Y-121920000D03*
%TD*%
D10*
%TO.P,REF\u002A\u002A,1*%
%TO.N,N/C*%
X147320000Y-114300000D03*
D11*
%TO.P,REF\u002A\u002A,2*%
X149860000Y-114300000D03*
%TD*%
D10*
%TO.P,REF\u002A\u002A,1*%
%TO.N,N/C*%
X154920000Y-121920000D03*
D11*
%TO.P,REF\u002A\u002A,2*%
X157460000Y-121920000D03*
%TD*%
D10*
%TO.P,REF\u002A\u002A,1*%
%TO.N,N/C*%
X139700000Y-99060000D03*
D11*
%TO.P,REF\u002A\u002A,2*%
X142240000Y-99060000D03*
%TD*%
D10*
%TO.P,REF\u002A\u002A,1*%
%TO.N,N/C*%
X154920000Y-53950000D03*
D11*
%TO.P,REF\u002A\u002A,2*%
X157460000Y-53950000D03*
%TD*%
D10*
%TO.P,REF\u002A\u002A,1*%
%TO.N,N/C*%
X147320000Y-83820000D03*
D11*
%TO.P,REF\u002A\u002A,2*%
X149860000Y-83820000D03*
%TD*%
D10*
%TO.P,REF\u002A\u002A,1*%
%TO.N,N/C*%
X170160000Y-114300000D03*
D11*
%TO.P,REF\u002A\u002A,2*%
X172700000Y-114300000D03*
%TD*%
D10*
%TO.P,REF\u002A\u002A,1*%
%TO.N,N/C*%
X139700000Y-83820000D03*
D11*
%TO.P,REF\u002A\u002A,2*%
X142240000Y-83820000D03*
%TD*%
D10*
%TO.P,REF\u002A\u002A,1*%
%TO.N,N/C*%
X132060000Y-68580000D03*
D11*
%TO.P,REF\u002A\u002A,2*%
X134600000Y-68580000D03*
%TD*%
D10*
%TO.P,REF\u002A\u002A,1*%
%TO.N,N/C*%
X147320000Y-121920000D03*
D11*
%TO.P,REF\u002A\u002A,2*%
X149860000Y-121920000D03*
%TD*%
D10*
%TO.P,REF\u002A\u002A,1*%
%TO.N,N/C*%
X101580000Y-83820000D03*
D11*
%TO.P,REF\u002A\u002A,2*%
X104120000Y-83820000D03*
%TD*%
D10*
%TO.P,REF\u002A\u002A,1*%
%TO.N,N/C*%
X147320000Y-53950000D03*
D11*
%TO.P,REF\u002A\u002A,2*%
X149860000Y-53950000D03*
%TD*%
D10*
%TO.P,REF\u002A\u002A,1*%
%TO.N,N/C*%
X170160000Y-106680000D03*
D11*
%TO.P,REF\u002A\u002A,2*%
X172700000Y-106680000D03*
%TD*%
D10*
%TO.P,REF\u002A\u002A,1*%
%TO.N,N/C*%
X170160000Y-68580000D03*
D11*
%TO.P,REF\u002A\u002A,2*%
X172700000Y-68580000D03*
%TD*%
D10*
%TO.P,REF\u002A\u002A,1*%
%TO.N,N/C*%
X132060000Y-91440000D03*
D11*
%TO.P,REF\u002A\u002A,2*%
X134600000Y-91440000D03*
%TD*%
D10*
%TO.P,REF\u002A\u002A,1*%
%TO.N,N/C*%
X139700000Y-106680000D03*
D11*
%TO.P,REF\u002A\u002A,2*%
X142240000Y-106680000D03*
%TD*%
D10*
%TO.P,REF\u002A\u002A,1*%
%TO.N,N/C*%
X124460000Y-121920000D03*
D11*
%TO.P,REF\u002A\u002A,2*%
X127000000Y-121920000D03*
%TD*%
D10*
%TO.P,REF\u002A\u002A,1*%
%TO.N,N/C*%
X162540000Y-60960000D03*
D11*
%TO.P,REF\u002A\u002A,2*%
X165080000Y-60960000D03*
%TD*%
D10*
%TO.P,REF\u002A\u002A,1*%
%TO.N,N/C*%
X162540000Y-76200000D03*
D11*
%TO.P,REF\u002A\u002A,2*%
X165080000Y-76200000D03*
%TD*%
D10*
%TO.P,REF\u002A\u002A,1*%
%TO.N,N/C*%
X170160000Y-91440000D03*
D11*
%TO.P,REF\u002A\u002A,2*%
X172700000Y-91440000D03*
%TD*%
D10*
%TO.P,REF\u002A\u002A,1*%
%TO.N,N/C*%
X109220000Y-121920000D03*
D11*
%TO.P,REF\u002A\u002A,2*%
X111760000Y-121920000D03*
%TD*%
D10*
%TO.P,REF\u002A\u002A,1*%
%TO.N,N/C*%
X154920000Y-83820000D03*
D11*
%TO.P,REF\u002A\u002A,2*%
X157460000Y-83820000D03*
%TD*%
D10*
%TO.P,REF\u002A\u002A,1*%
%TO.N,N/C*%
X170160000Y-83820000D03*
D11*
%TO.P,REF\u002A\u002A,2*%
X172700000Y-83820000D03*
%TD*%
D10*
%TO.P,REF\u002A\u002A,1*%
%TO.N,N/C*%
X162540000Y-91440000D03*
D11*
%TO.P,REF\u002A\u002A,2*%
X165080000Y-91440000D03*
%TD*%
D10*
%TO.P,REF\u002A\u002A,1*%
%TO.N,N/C*%
X132060000Y-53950000D03*
D11*
%TO.P,REF\u002A\u002A,2*%
X134600000Y-53950000D03*
%TD*%
D10*
%TO.P,REF\u002A\u002A,1*%
%TO.N,N/C*%
X116820000Y-91440000D03*
D11*
%TO.P,REF\u002A\u002A,2*%
X119360000Y-91440000D03*
%TD*%
D10*
%TO.P,REF\u002A\u002A,1*%
%TO.N,N/C*%
X124460000Y-83820000D03*
D11*
%TO.P,REF\u002A\u002A,2*%
X127000000Y-83820000D03*
%TD*%
D10*
%TO.P,REF\u002A\u002A,1*%
%TO.N,N/C*%
X101580000Y-114300000D03*
D11*
%TO.P,REF\u002A\u002A,2*%
X104120000Y-114300000D03*
%TD*%
D10*
%TO.P,REF\u002A\u002A,1*%
%TO.N,N/C*%
X109220000Y-60960000D03*
D11*
%TO.P,REF\u002A\u002A,2*%
X111760000Y-60960000D03*
%TD*%
D10*
%TO.P,REF\u002A\u002A,1*%
%TO.N,N/C*%
X154920000Y-106680000D03*
D11*
%TO.P,REF\u002A\u002A,2*%
X157460000Y-106680000D03*
%TD*%
D10*
%TO.P,REF\u002A\u002A,1*%
%TO.N,N/C*%
X147320000Y-91440000D03*
D11*
%TO.P,REF\u002A\u002A,2*%
X149860000Y-91440000D03*
%TD*%
D10*
%TO.P,REF\u002A\u002A,1*%
%TO.N,N/C*%
X144810000Y-137135000D03*
D11*
%TO.P,REF\u002A\u002A,2*%
X147350000Y-137135000D03*
%TO.P,REF\u002A\u002A,3*%
X149890000Y-137135000D03*
%TO.P,REF\u002A\u002A,4*%
X152430000Y-137135000D03*
%TO.P,REF\u002A\u002A,5*%
X154970000Y-137135000D03*
%TO.P,REF\u002A\u002A,6*%
X157510000Y-137135000D03*
%TO.P,REF\u002A\u002A,7*%
X160050000Y-137135000D03*
%TO.P,REF\u002A\u002A,8*%
X162590000Y-137135000D03*
%TO.P,REF\u002A\u002A,9*%
X165130000Y-137135000D03*
%TO.P,REF\u002A\u002A,10*%
X167670000Y-137135000D03*
%TD*%
D10*
%TO.P,REF\u002A\u002A,1*%
%TO.N,N/C*%
X147320000Y-68580000D03*
D11*
%TO.P,REF\u002A\u002A,2*%
X149860000Y-68580000D03*
%TD*%
D10*
%TO.P,REF\u002A\u002A,1*%
%TO.N,N/C*%
X101580000Y-68580000D03*
D11*
%TO.P,REF\u002A\u002A,2*%
X104120000Y-68580000D03*
%TD*%
D10*
%TO.P,REF\u002A\u002A,1*%
%TO.N,N/C*%
X147320000Y-99060000D03*
D11*
%TO.P,REF\u002A\u002A,2*%
X149860000Y-99060000D03*
%TD*%
D10*
%TO.P,REF\u002A\u002A,1*%
%TO.N,N/C*%
X124460000Y-53950000D03*
D11*
%TO.P,REF\u002A\u002A,2*%
X127000000Y-53950000D03*
%TD*%
D10*
%TO.P,REF\u002A\u002A,1*%
%TO.N,N/C*%
X154920000Y-76200000D03*
D11*
%TO.P,REF\u002A\u002A,2*%
X157460000Y-76200000D03*
%TD*%
D10*
%TO.P,REF\u002A\u002A,1*%
%TO.N,N/C*%
X124460000Y-106680000D03*
D11*
%TO.P,REF\u002A\u002A,2*%
X127000000Y-106680000D03*
%TD*%
D10*
%TO.P,REF\u002A\u002A,1*%
%TO.N,N/C*%
X154920000Y-91440000D03*
D11*
%TO.P,REF\u002A\u002A,2*%
X157460000Y-91440000D03*
%TD*%
D10*
%TO.P,REF\u002A\u002A,1*%
%TO.N,N/C*%
X162540000Y-121920000D03*
D11*
%TO.P,REF\u002A\u002A,2*%
X165080000Y-121920000D03*
%TD*%
D10*
%TO.P,REF\u002A\u002A,1*%
%TO.N,N/C*%
X116820000Y-60960000D03*
D11*
%TO.P,REF\u002A\u002A,2*%
X119360000Y-60960000D03*
%TD*%
D10*
%TO.P,REF\u002A\u002A,1*%
%TO.N,N/C*%
X124460000Y-91440000D03*
D11*
%TO.P,REF\u002A\u002A,2*%
X127000000Y-91440000D03*
%TD*%
D10*
%TO.P,REF\u002A\u002A,1*%
%TO.N,N/C*%
X162540000Y-99060000D03*
D11*
%TO.P,REF\u002A\u002A,2*%
X165080000Y-99060000D03*
%TD*%
D10*
%TO.P,REF\u002A\u002A,1*%
%TO.N,N/C*%
X124460000Y-60960000D03*
D11*
%TO.P,REF\u002A\u002A,2*%
X127000000Y-60960000D03*
%TD*%
D10*
%TO.P,REF\u002A\u002A,1*%
%TO.N,N/C*%
X162540000Y-114300000D03*
D11*
%TO.P,REF\u002A\u002A,2*%
X165080000Y-114300000D03*
%TD*%
D10*
%TO.P,REF\u002A\u002A,1*%
%TO.N,N/C*%
X132060000Y-106680000D03*
D11*
%TO.P,REF\u002A\u002A,2*%
X134600000Y-106680000D03*
%TD*%
D10*
%TO.P,REF\u002A\u002A,1*%
%TO.N,N/C*%
X170160000Y-53950000D03*
D11*
%TO.P,REF\u002A\u002A,2*%
X172700000Y-53950000D03*
%TD*%
D10*
%TO.P,REF\u002A\u002A,1*%
%TO.N,N/C*%
X101580000Y-106680000D03*
D11*
%TO.P,REF\u002A\u002A,2*%
X104120000Y-106680000D03*
%TD*%
D10*
%TO.P,REF\u002A\u002A,1*%
%TO.N,N/C*%
X132060000Y-83820000D03*
D11*
%TO.P,REF\u002A\u002A,2*%
X134600000Y-83820000D03*
%TD*%
D10*
%TO.P,REF\u002A\u002A,1*%
%TO.N,N/C*%
X132060000Y-60960000D03*
D11*
%TO.P,REF\u002A\u002A,2*%
X134600000Y-60960000D03*
%TD*%
D10*
%TO.P,REF\u002A\u002A,1*%
%TO.N,N/C*%
X116820000Y-106680000D03*
D11*
%TO.P,REF\u002A\u002A,2*%
X119360000Y-106680000D03*
%TD*%
D10*
%TO.P,REF\u002A\u002A,1*%
%TO.N,N/C*%
X170160000Y-121920000D03*
D11*
%TO.P,REF\u002A\u002A,2*%
X172700000Y-121920000D03*
%TD*%
D10*
%TO.P,REF\u002A\u002A,1*%
%TO.N,N/C*%
X101580000Y-91440000D03*
D11*
%TO.P,REF\u002A\u002A,2*%
X104120000Y-91440000D03*
%TD*%
D10*
%TO.P,REF\u002A\u002A,1*%
%TO.N,N/C*%
X116820000Y-114300000D03*
D11*
%TO.P,REF\u002A\u002A,2*%
X119360000Y-114300000D03*
%TD*%
D10*
%TO.P,REF\u002A\u002A,1*%
%TO.N,N/C*%
X139700000Y-114300000D03*
D11*
%TO.P,REF\u002A\u002A,2*%
X142240000Y-114300000D03*
%TD*%
D10*
%TO.P,REF\u002A\u002A,1*%
%TO.N,N/C*%
X162540000Y-106680000D03*
D11*
%TO.P,REF\u002A\u002A,2*%
X165080000Y-106680000D03*
%TD*%
D10*
%TO.P,REF\u002A\u002A,1*%
%TO.N,N/C*%
X124460000Y-99060000D03*
D11*
%TO.P,REF\u002A\u002A,2*%
X127000000Y-99060000D03*
%TD*%
D10*
%TO.P,REF\u002A\u002A,1*%
%TO.N,N/C*%
X101580000Y-121920000D03*
D11*
%TO.P,REF\u002A\u002A,2*%
X104120000Y-121920000D03*
%TD*%
D10*
%TO.P,REF\u002A\u002A,1*%
%TO.N,N/C*%
X132060000Y-99060000D03*
D11*
%TO.P,REF\u002A\u002A,2*%
X134600000Y-99060000D03*
%TD*%
D10*
%TO.P,REF\u002A\u002A,1*%
%TO.N,N/C*%
X132060000Y-114300000D03*
D11*
%TO.P,REF\u002A\u002A,2*%
X134600000Y-114300000D03*
%TD*%
D10*
%TO.P,REF\u002A\u002A,1*%
%TO.N,N/C*%
X109220000Y-76200000D03*
D11*
%TO.P,REF\u002A\u002A,2*%
X111760000Y-76200000D03*
%TD*%
D10*
%TO.P,REF\u002A\u002A,1*%
%TO.N,N/C*%
X139700000Y-121920000D03*
D11*
%TO.P,REF\u002A\u002A,2*%
X142240000Y-121920000D03*
%TD*%
D10*
%TO.P,REF\u002A\u002A,1*%
%TO.N,N/C*%
X162540000Y-68580000D03*
D11*
%TO.P,REF\u002A\u002A,2*%
X165080000Y-68580000D03*
%TD*%
D10*
%TO.P,REF\u002A\u002A,1*%
%TO.N,N/C*%
X101580000Y-60960000D03*
D11*
%TO.P,REF\u002A\u002A,2*%
X104120000Y-60960000D03*
%TD*%
D10*
%TO.P,REF\u002A\u002A,1*%
%TO.N,N/C*%
X162540000Y-83820000D03*
D11*
%TO.P,REF\u002A\u002A,2*%
X165080000Y-83820000D03*
%TD*%
D10*
%TO.P,REF\u002A\u002A,1*%
%TO.N,N/C*%
X147320000Y-106680000D03*
D11*
%TO.P,REF\u002A\u002A,2*%
X149860000Y-106680000D03*
%TD*%
D10*
%TO.P,REF\u002A\u002A,1*%
%TO.N,N/C*%
X110520000Y-137135000D03*
D11*
%TO.P,REF\u002A\u002A,2*%
X113060000Y-137135000D03*
%TO.P,REF\u002A\u002A,3*%
X115600000Y-137135000D03*
%TO.P,REF\u002A\u002A,4*%
X118140000Y-137135000D03*
%TO.P,REF\u002A\u002A,5*%
X120680000Y-137135000D03*
%TO.P,REF\u002A\u002A,6*%
X123220000Y-137135000D03*
%TO.P,REF\u002A\u002A,7*%
X125760000Y-137135000D03*
%TO.P,REF\u002A\u002A,8*%
X128300000Y-137135000D03*
%TO.P,REF\u002A\u002A,9*%
X130840000Y-137135000D03*
%TO.P,REF\u002A\u002A,10*%
X133380000Y-137135000D03*
%TD*%
D10*
%TO.P,REF\u002A\u002A,1*%
%TO.N,N/C*%
X116820000Y-99060000D03*
D11*
%TO.P,REF\u002A\u002A,2*%
X119360000Y-99060000D03*
%TD*%
D10*
%TO.P,REF\u002A\u002A,1*%
%TO.N,N/C*%
X101580000Y-76200000D03*
D11*
%TO.P,REF\u002A\u002A,2*%
X104120000Y-76200000D03*
%TD*%
D10*
%TO.P,REF\u002A\u002A,1*%
%TO.N,N/C*%
X109220000Y-53950000D03*
D11*
%TO.P,REF\u002A\u002A,2*%
X111760000Y-53950000D03*
%TD*%
D10*
%TO.P,REF\u002A\u002A,1*%
%TO.N,N/C*%
X154920000Y-68580000D03*
D11*
%TO.P,REF\u002A\u002A,2*%
X157460000Y-68580000D03*
%TD*%
D10*
%TO.P,REF\u002A\u002A,1*%
%TO.N,N/C*%
X116820000Y-53950000D03*
D11*
%TO.P,REF\u002A\u002A,2*%
X119360000Y-53950000D03*
%TD*%
D10*
%TO.P,REF\u002A\u002A,1*%
%TO.N,N/C*%
X139700000Y-76200000D03*
D11*
%TO.P,REF\u002A\u002A,2*%
X142240000Y-76200000D03*
%TD*%
D10*
%TO.P,REF\u002A\u002A,1*%
%TO.N,N/C*%
X124460000Y-76200000D03*
D11*
%TO.P,REF\u002A\u002A,2*%
X127000000Y-76200000D03*
%TD*%
D10*
%TO.P,REF\u002A\u002A,1*%
%TO.N,N/C*%
X116820000Y-83820000D03*
D11*
%TO.P,REF\u002A\u002A,2*%
X119360000Y-83820000D03*
%TD*%
D10*
%TO.P,REF\u002A\u002A,1*%
%TO.N,N/C*%
X124460000Y-114300000D03*
D11*
%TO.P,REF\u002A\u002A,2*%
X127000000Y-114300000D03*
%TD*%
D10*
%TO.P,REF\u002A\u002A,1*%
%TO.N,N/C*%
X132060000Y-76200000D03*
D11*
%TO.P,REF\u002A\u002A,2*%
X134600000Y-76200000D03*
%TD*%
D10*
%TO.P,REF\u002A\u002A,1*%
%TO.N,N/C*%
X154920000Y-99060000D03*
D11*
%TO.P,REF\u002A\u002A,2*%
X157460000Y-99060000D03*
%TD*%
D12*
%TO.N,*%
X132080000Y-130810000D02*
X130840000Y-132050000D01*
X104120000Y-83820000D02*
X104120000Y-76200000D01*
X118140000Y-128240000D02*
X118140000Y-137135000D01*
X109220000Y-114300000D02*
X106680000Y-116840000D01*
X125730000Y-127000000D02*
X123220000Y-129510000D01*
X149860000Y-83820000D02*
X149860000Y-68580000D01*
X169570000Y-53950000D02*
X167640000Y-55880000D01*
X123220000Y-129510000D02*
X123220000Y-137135000D01*
X119360000Y-83820000D02*
X119360000Y-68580000D01*
X121920000Y-101600000D02*
X121920000Y-124460000D01*
X127000000Y-60960000D02*
X127000000Y-68580000D01*
X160020000Y-130810000D02*
X132080000Y-130810000D01*
X172700000Y-54184000D02*
X172466000Y-53950000D01*
X101580000Y-125710000D02*
X110520000Y-134650000D01*
X142240000Y-83820000D02*
X142240000Y-68580000D01*
X111760000Y-106680000D02*
X111760000Y-83820000D01*
X149860000Y-68580000D02*
X149860000Y-60960000D01*
X142240000Y-68580000D02*
X142240000Y-60960000D01*
X165080000Y-54184000D02*
X164846000Y-53950000D01*
X104120000Y-121920000D02*
X104120000Y-114300000D01*
X133350000Y-132080000D02*
X133380000Y-132110000D01*
X160020000Y-64770000D02*
X160020000Y-130810000D01*
X134600000Y-68580000D02*
X134600000Y-60960000D01*
X157460000Y-68580000D02*
X157460000Y-60960000D01*
X111760000Y-121920000D02*
X111760000Y-106680000D01*
X113060000Y-133380000D02*
X113060000Y-137135000D01*
X172700000Y-121920000D02*
X172700000Y-106680000D01*
X104120000Y-68580000D02*
X104120000Y-60960000D01*
X111760000Y-76200000D02*
X111760000Y-68580000D01*
X116820000Y-107970000D02*
X114300000Y-110490000D01*
X152400000Y-72390000D02*
X152400000Y-129540000D01*
X111760000Y-83820000D02*
X111760000Y-76200000D01*
X129540000Y-96520000D02*
X129540000Y-125730000D01*
X142240000Y-60960000D02*
X142240000Y-53950000D01*
X139700000Y-83820000D02*
X137160000Y-86360000D01*
X120680000Y-129510000D02*
X120680000Y-137135000D01*
X144780000Y-78740000D02*
X144780000Y-128270000D01*
X142240000Y-121920000D02*
X142240000Y-106680000D01*
X134600000Y-60960000D02*
X134600000Y-53950000D01*
X125760000Y-130840000D02*
X125760000Y-137135000D01*
X127000000Y-121920000D02*
X127000000Y-106680000D01*
X132060000Y-91440000D02*
X132060000Y-94000000D01*
X144780000Y-128270000D02*
X128330000Y-128270000D01*
X134600000Y-83820000D02*
X134600000Y-68580000D01*
X157460000Y-60960000D02*
X157460000Y-53950000D01*
X106680000Y-127000000D02*
X113060000Y-133380000D01*
X127000000Y-83820000D02*
X127000000Y-68580000D01*
X165080000Y-68580000D02*
X165080000Y-60960000D01*
X172700000Y-68580000D02*
X172700000Y-60960000D01*
X172700000Y-106680000D02*
X172700000Y-68580000D01*
X167640000Y-132080000D02*
X133350000Y-132080000D01*
X119360000Y-121920000D02*
X119360000Y-106680000D01*
X149860000Y-60960000D02*
X149860000Y-53950000D01*
X134600000Y-106680000D02*
X134600000Y-83820000D01*
X165080000Y-106680000D02*
X165080000Y-68580000D01*
X104120000Y-54184000D02*
X103886000Y-53950000D01*
X104120000Y-99060000D02*
X104120000Y-91440000D01*
X162540000Y-60960000D02*
X162540000Y-62250000D01*
X165080000Y-60960000D02*
X165080000Y-54184000D01*
X127000000Y-60960000D02*
X127000000Y-53950000D01*
X128300000Y-132050000D02*
X128300000Y-137135000D01*
X142240000Y-106680000D02*
X142240000Y-83820000D01*
X124460000Y-99060000D02*
X121920000Y-101600000D01*
X149860000Y-106680000D02*
X149860000Y-83820000D01*
X167640000Y-55880000D02*
X167640000Y-132080000D01*
X165080000Y-121920000D02*
X165080000Y-106680000D01*
X157460000Y-121920000D02*
X157460000Y-106680000D01*
X119360000Y-60960000D02*
X119360000Y-53950000D01*
X170160000Y-53950000D02*
X169570000Y-53950000D01*
X154920000Y-69870000D02*
X152400000Y-72390000D01*
X130810000Y-129540000D02*
X128300000Y-132050000D01*
X106680000Y-116840000D02*
X106680000Y-127000000D01*
X114300000Y-130810000D02*
X115600000Y-132110000D01*
X104120000Y-60960000D02*
X104120000Y-54184000D01*
X111760000Y-60960000D02*
X111760000Y-53950000D01*
X130840000Y-132050000D02*
X130840000Y-137135000D01*
X121920000Y-124460000D02*
X118140000Y-128240000D01*
X154920000Y-68580000D02*
X154920000Y-69870000D01*
X104120000Y-91440000D02*
X104120000Y-83820000D01*
X124460000Y-125730000D02*
X120680000Y-129510000D01*
X137160000Y-127000000D02*
X125730000Y-127000000D01*
X104120000Y-106680000D02*
X104120000Y-99060000D01*
X119360000Y-106680000D02*
X119360000Y-83820000D01*
X134600000Y-121920000D02*
X134600000Y-106680000D01*
X133380000Y-132110000D02*
X133380000Y-137135000D01*
X129540000Y-125730000D02*
X124460000Y-125730000D01*
X111760000Y-60960000D02*
X111760000Y-68580000D01*
X101580000Y-121920000D02*
X101580000Y-125710000D01*
X137160000Y-86360000D02*
X137160000Y-127000000D01*
X162540000Y-62250000D02*
X160020000Y-64770000D01*
X172700000Y-60960000D02*
X172700000Y-54184000D01*
X149860000Y-121920000D02*
X149860000Y-106680000D01*
X110520000Y-134650000D02*
X110520000Y-137135000D01*
X152400000Y-129540000D02*
X130810000Y-129540000D01*
X114300000Y-110490000D02*
X114300000Y-130810000D01*
X104120000Y-114300000D02*
X104120000Y-106680000D01*
X132060000Y-94000000D02*
X129540000Y-96520000D01*
X119360000Y-60960000D02*
X119360000Y-68580000D01*
X127000000Y-106680000D02*
X127000000Y-83820000D01*
X157460000Y-106680000D02*
X157460000Y-68580000D01*
X147320000Y-76200000D02*
X144780000Y-78740000D01*
X115600000Y-132110000D02*
X115600000Y-137135000D01*
X128330000Y-128270000D02*
X125760000Y-130840000D01*
X116820000Y-106680000D02*
X116820000Y-107970000D01*
X104120000Y-76200000D02*
X104120000Y-68580000D01*
%TD*%
M02*
