%TF.GenerationSoftware,KiCad,Pcbnew,6.0.11+dfsg-1*%
%TF.CreationDate,2025-10-30T18:07:19+01:00*%
%TF.ProjectId,matrice,6d617472-6963-4652-9e6b-696361645f70,rev?*%
%TF.SameCoordinates,Original*%
%TF.FileFunction,Soldermask,Top*%
%TF.FilePolarity,Negative*%
%FSLAX46Y46*%
G04 Gerber Fmt 4.6, Leading zero omitted, Abs format (unit mm)*
G04 Created by KiCad (PCBNEW 6.0.11+dfsg-1) date 2025-10-30 18:07:19*
%MOMM*%
%LPD*%
G01*
G04 APERTURE LIST*
%ADD10R,1.700000X1.700000*%
%ADD11O,1.700000X1.700000*%
%ADD12C,3.200000*%
G04 APERTURE END LIST*
D10*
%TO.C,REF\u002A\u002A*%
X139700000Y-60960000D03*
D11*
X142240000Y-60960000D03*
%TD*%
D10*
%TO.C,REF\u002A\u002A*%
X162540000Y-53950000D03*
D11*
X165080000Y-53950000D03*
%TD*%
D10*
%TO.C,REF\u002A\u002A*%
X109220000Y-68580000D03*
D11*
X111760000Y-68580000D03*
%TD*%
D10*
%TO.C,REF\u002A\u002A*%
X147320000Y-60960000D03*
D11*
X149860000Y-60960000D03*
%TD*%
D10*
%TO.C,REF\u002A\u002A*%
X101580000Y-99060000D03*
D11*
X104120000Y-99060000D03*
%TD*%
D10*
%TO.C,REF\u002A\u002A*%
X139700000Y-53950000D03*
D11*
X142240000Y-53950000D03*
%TD*%
D10*
%TO.C,REF\u002A\u002A*%
X170160000Y-99060000D03*
D11*
X172700000Y-99060000D03*
%TD*%
D10*
%TO.C,REF\u002A\u002A*%
X170160000Y-60960000D03*
D11*
X172700000Y-60960000D03*
%TD*%
D10*
%TO.C,REF\u002A\u002A*%
X124460000Y-68580000D03*
D11*
X127000000Y-68580000D03*
%TD*%
D10*
%TO.C,REF\u002A\u002A*%
X139700000Y-68580000D03*
D11*
X142240000Y-68580000D03*
%TD*%
D10*
%TO.C,REF\u002A\u002A*%
X109220000Y-83820000D03*
D11*
X111760000Y-83820000D03*
%TD*%
D10*
%TO.C,REF\u002A\u002A*%
X154920000Y-60960000D03*
D11*
X157460000Y-60960000D03*
%TD*%
D10*
%TO.C,REF\u002A\u002A*%
X109220000Y-99060000D03*
D11*
X111760000Y-99060000D03*
%TD*%
D10*
%TO.C,REF\u002A\u002A*%
X147320000Y-76200000D03*
D11*
X149860000Y-76200000D03*
%TD*%
D10*
%TO.C,REF\u002A\u002A*%
X109220000Y-91440000D03*
D11*
X111760000Y-91440000D03*
%TD*%
D10*
%TO.C,REF\u002A\u002A*%
X139700000Y-91440000D03*
D11*
X142240000Y-91440000D03*
%TD*%
D10*
%TO.C,REF\u002A\u002A*%
X109220000Y-114300000D03*
D11*
X111760000Y-114300000D03*
%TD*%
D10*
%TO.C,REF\u002A\u002A*%
X154920000Y-114300000D03*
D11*
X157460000Y-114300000D03*
%TD*%
D10*
%TO.C,REF\u002A\u002A*%
X101580000Y-53950000D03*
D11*
X104120000Y-53950000D03*
%TD*%
D10*
%TO.C,REF\u002A\u002A*%
X116820000Y-68580000D03*
D11*
X119360000Y-68580000D03*
%TD*%
D10*
%TO.C,REF\u002A\u002A*%
X170160000Y-76200000D03*
D11*
X172700000Y-76200000D03*
%TD*%
D10*
%TO.C,REF\u002A\u002A*%
X116820000Y-76200000D03*
D11*
X119360000Y-76200000D03*
%TD*%
D10*
%TO.C,REF\u002A\u002A*%
X116820000Y-121920000D03*
D11*
X119360000Y-121920000D03*
%TD*%
D10*
%TO.C,REF\u002A\u002A*%
X109220000Y-106680000D03*
D11*
X111760000Y-106680000D03*
%TD*%
D10*
%TO.C,REF\u002A\u002A*%
X132060000Y-121920000D03*
D11*
X134600000Y-121920000D03*
%TD*%
D12*
%TO.C,REF\u002A\u002A*%
X96520000Y-49530000D03*
%TD*%
D10*
%TO.C,REF\u002A\u002A*%
X147320000Y-114300000D03*
D11*
X149860000Y-114300000D03*
%TD*%
D10*
%TO.C,REF\u002A\u002A*%
X154920000Y-121920000D03*
D11*
X157460000Y-121920000D03*
%TD*%
D10*
%TO.C,REF\u002A\u002A*%
X139700000Y-99060000D03*
D11*
X142240000Y-99060000D03*
%TD*%
D10*
%TO.C,REF\u002A\u002A*%
X154920000Y-53950000D03*
D11*
X157460000Y-53950000D03*
%TD*%
D10*
%TO.C,REF\u002A\u002A*%
X147320000Y-83820000D03*
D11*
X149860000Y-83820000D03*
%TD*%
D10*
%TO.C,REF\u002A\u002A*%
X170160000Y-114300000D03*
D11*
X172700000Y-114300000D03*
%TD*%
D10*
%TO.C,REF\u002A\u002A*%
X139700000Y-83820000D03*
D11*
X142240000Y-83820000D03*
%TD*%
D10*
%TO.C,REF\u002A\u002A*%
X132060000Y-68580000D03*
D11*
X134600000Y-68580000D03*
%TD*%
D10*
%TO.C,REF\u002A\u002A*%
X147320000Y-121920000D03*
D11*
X149860000Y-121920000D03*
%TD*%
D10*
%TO.C,REF\u002A\u002A*%
X101580000Y-83820000D03*
D11*
X104120000Y-83820000D03*
%TD*%
D10*
%TO.C,REF\u002A\u002A*%
X147320000Y-53950000D03*
D11*
X149860000Y-53950000D03*
%TD*%
D12*
%TO.C,REF\u002A\u002A*%
X96520000Y-136525000D03*
%TD*%
D10*
%TO.C,REF\u002A\u002A*%
X170160000Y-106680000D03*
D11*
X172700000Y-106680000D03*
%TD*%
D10*
%TO.C,REF\u002A\u002A*%
X170160000Y-68580000D03*
D11*
X172700000Y-68580000D03*
%TD*%
D10*
%TO.C,REF\u002A\u002A*%
X132060000Y-91440000D03*
D11*
X134600000Y-91440000D03*
%TD*%
D10*
%TO.C,REF\u002A\u002A*%
X139700000Y-106680000D03*
D11*
X142240000Y-106680000D03*
%TD*%
D10*
%TO.C,REF\u002A\u002A*%
X124460000Y-121920000D03*
D11*
X127000000Y-121920000D03*
%TD*%
D10*
%TO.C,REF\u002A\u002A*%
X162540000Y-60960000D03*
D11*
X165080000Y-60960000D03*
%TD*%
D10*
%TO.C,REF\u002A\u002A*%
X162540000Y-76200000D03*
D11*
X165080000Y-76200000D03*
%TD*%
D10*
%TO.C,REF\u002A\u002A*%
X170160000Y-91440000D03*
D11*
X172700000Y-91440000D03*
%TD*%
D10*
%TO.C,REF\u002A\u002A*%
X109220000Y-121920000D03*
D11*
X111760000Y-121920000D03*
%TD*%
D10*
%TO.C,REF\u002A\u002A*%
X154920000Y-83820000D03*
D11*
X157460000Y-83820000D03*
%TD*%
D10*
%TO.C,REF\u002A\u002A*%
X170160000Y-83820000D03*
D11*
X172700000Y-83820000D03*
%TD*%
D10*
%TO.C,REF\u002A\u002A*%
X162540000Y-91440000D03*
D11*
X165080000Y-91440000D03*
%TD*%
D10*
%TO.C,REF\u002A\u002A*%
X132060000Y-53950000D03*
D11*
X134600000Y-53950000D03*
%TD*%
D10*
%TO.C,REF\u002A\u002A*%
X116820000Y-91440000D03*
D11*
X119360000Y-91440000D03*
%TD*%
D10*
%TO.C,REF\u002A\u002A*%
X124460000Y-83820000D03*
D11*
X127000000Y-83820000D03*
%TD*%
D10*
%TO.C,REF\u002A\u002A*%
X101580000Y-114300000D03*
D11*
X104120000Y-114300000D03*
%TD*%
D10*
%TO.C,REF\u002A\u002A*%
X109220000Y-60960000D03*
D11*
X111760000Y-60960000D03*
%TD*%
D10*
%TO.C,REF\u002A\u002A*%
X154920000Y-106680000D03*
D11*
X157460000Y-106680000D03*
%TD*%
D10*
%TO.C,REF\u002A\u002A*%
X147320000Y-91440000D03*
D11*
X149860000Y-91440000D03*
%TD*%
D10*
%TO.C,REF\u002A\u002A*%
X144810000Y-137135000D03*
D11*
X147350000Y-137135000D03*
X149890000Y-137135000D03*
X152430000Y-137135000D03*
X154970000Y-137135000D03*
X157510000Y-137135000D03*
X160050000Y-137135000D03*
X162590000Y-137135000D03*
X165130000Y-137135000D03*
X167670000Y-137135000D03*
%TD*%
D10*
%TO.C,REF\u002A\u002A*%
X147320000Y-68580000D03*
D11*
X149860000Y-68580000D03*
%TD*%
D10*
%TO.C,REF\u002A\u002A*%
X101580000Y-68580000D03*
D11*
X104120000Y-68580000D03*
%TD*%
D10*
%TO.C,REF\u002A\u002A*%
X147320000Y-99060000D03*
D11*
X149860000Y-99060000D03*
%TD*%
D10*
%TO.C,REF\u002A\u002A*%
X124460000Y-53950000D03*
D11*
X127000000Y-53950000D03*
%TD*%
D10*
%TO.C,REF\u002A\u002A*%
X154920000Y-76200000D03*
D11*
X157460000Y-76200000D03*
%TD*%
D10*
%TO.C,REF\u002A\u002A*%
X124460000Y-106680000D03*
D11*
X127000000Y-106680000D03*
%TD*%
D10*
%TO.C,REF\u002A\u002A*%
X154920000Y-91440000D03*
D11*
X157460000Y-91440000D03*
%TD*%
D10*
%TO.C,REF\u002A\u002A*%
X162540000Y-121920000D03*
D11*
X165080000Y-121920000D03*
%TD*%
D10*
%TO.C,REF\u002A\u002A*%
X116820000Y-60960000D03*
D11*
X119360000Y-60960000D03*
%TD*%
D10*
%TO.C,REF\u002A\u002A*%
X124460000Y-91440000D03*
D11*
X127000000Y-91440000D03*
%TD*%
D10*
%TO.C,REF\u002A\u002A*%
X162540000Y-99060000D03*
D11*
X165080000Y-99060000D03*
%TD*%
D10*
%TO.C,REF\u002A\u002A*%
X124460000Y-60960000D03*
D11*
X127000000Y-60960000D03*
%TD*%
D10*
%TO.C,REF\u002A\u002A*%
X162540000Y-114300000D03*
D11*
X165080000Y-114300000D03*
%TD*%
D10*
%TO.C,REF\u002A\u002A*%
X132060000Y-106680000D03*
D11*
X134600000Y-106680000D03*
%TD*%
D10*
%TO.C,REF\u002A\u002A*%
X170160000Y-53950000D03*
D11*
X172700000Y-53950000D03*
%TD*%
D10*
%TO.C,REF\u002A\u002A*%
X101580000Y-106680000D03*
D11*
X104120000Y-106680000D03*
%TD*%
D10*
%TO.C,REF\u002A\u002A*%
X132060000Y-83820000D03*
D11*
X134600000Y-83820000D03*
%TD*%
D10*
%TO.C,REF\u002A\u002A*%
X132060000Y-60960000D03*
D11*
X134600000Y-60960000D03*
%TD*%
D10*
%TO.C,REF\u002A\u002A*%
X116820000Y-106680000D03*
D11*
X119360000Y-106680000D03*
%TD*%
D10*
%TO.C,REF\u002A\u002A*%
X170160000Y-121920000D03*
D11*
X172700000Y-121920000D03*
%TD*%
D10*
%TO.C,REF\u002A\u002A*%
X101580000Y-91440000D03*
D11*
X104120000Y-91440000D03*
%TD*%
D10*
%TO.C,REF\u002A\u002A*%
X116820000Y-114300000D03*
D11*
X119360000Y-114300000D03*
%TD*%
D10*
%TO.C,REF\u002A\u002A*%
X139700000Y-114300000D03*
D11*
X142240000Y-114300000D03*
%TD*%
D10*
%TO.C,REF\u002A\u002A*%
X162540000Y-106680000D03*
D11*
X165080000Y-106680000D03*
%TD*%
D10*
%TO.C,REF\u002A\u002A*%
X124460000Y-99060000D03*
D11*
X127000000Y-99060000D03*
%TD*%
D10*
%TO.C,REF\u002A\u002A*%
X101580000Y-121920000D03*
D11*
X104120000Y-121920000D03*
%TD*%
D10*
%TO.C,REF\u002A\u002A*%
X132060000Y-99060000D03*
D11*
X134600000Y-99060000D03*
%TD*%
D10*
%TO.C,REF\u002A\u002A*%
X132060000Y-114300000D03*
D11*
X134600000Y-114300000D03*
%TD*%
D10*
%TO.C,REF\u002A\u002A*%
X109220000Y-76200000D03*
D11*
X111760000Y-76200000D03*
%TD*%
D10*
%TO.C,REF\u002A\u002A*%
X139700000Y-121920000D03*
D11*
X142240000Y-121920000D03*
%TD*%
D10*
%TO.C,REF\u002A\u002A*%
X162540000Y-68580000D03*
D11*
X165080000Y-68580000D03*
%TD*%
D10*
%TO.C,REF\u002A\u002A*%
X101580000Y-60960000D03*
D11*
X104120000Y-60960000D03*
%TD*%
D10*
%TO.C,REF\u002A\u002A*%
X162540000Y-83820000D03*
D11*
X165080000Y-83820000D03*
%TD*%
D12*
%TO.C,REF\u002A\u002A*%
X177800000Y-49530000D03*
%TD*%
D10*
%TO.C,REF\u002A\u002A*%
X147320000Y-106680000D03*
D11*
X149860000Y-106680000D03*
%TD*%
D10*
%TO.C,REF\u002A\u002A*%
X110520000Y-137135000D03*
D11*
X113060000Y-137135000D03*
X115600000Y-137135000D03*
X118140000Y-137135000D03*
X120680000Y-137135000D03*
X123220000Y-137135000D03*
X125760000Y-137135000D03*
X128300000Y-137135000D03*
X130840000Y-137135000D03*
X133380000Y-137135000D03*
%TD*%
D10*
%TO.C,REF\u002A\u002A*%
X116820000Y-99060000D03*
D11*
X119360000Y-99060000D03*
%TD*%
D10*
%TO.C,REF\u002A\u002A*%
X101580000Y-76200000D03*
D11*
X104120000Y-76200000D03*
%TD*%
D10*
%TO.C,REF\u002A\u002A*%
X109220000Y-53950000D03*
D11*
X111760000Y-53950000D03*
%TD*%
D10*
%TO.C,REF\u002A\u002A*%
X154920000Y-68580000D03*
D11*
X157460000Y-68580000D03*
%TD*%
D10*
%TO.C,REF\u002A\u002A*%
X116820000Y-53950000D03*
D11*
X119360000Y-53950000D03*
%TD*%
D10*
%TO.C,REF\u002A\u002A*%
X139700000Y-76200000D03*
D11*
X142240000Y-76200000D03*
%TD*%
D10*
%TO.C,REF\u002A\u002A*%
X124460000Y-76200000D03*
D11*
X127000000Y-76200000D03*
%TD*%
D12*
%TO.C,REF\u002A\u002A*%
X177800000Y-136525000D03*
%TD*%
D10*
%TO.C,REF\u002A\u002A*%
X116820000Y-83820000D03*
D11*
X119360000Y-83820000D03*
%TD*%
D10*
%TO.C,REF\u002A\u002A*%
X124460000Y-114300000D03*
D11*
X127000000Y-114300000D03*
%TD*%
D10*
%TO.C,REF\u002A\u002A*%
X132060000Y-76200000D03*
D11*
X134600000Y-76200000D03*
%TD*%
D10*
%TO.C,REF\u002A\u002A*%
X154920000Y-99060000D03*
D11*
X157460000Y-99060000D03*
%TD*%
M02*
