%TF.GenerationSoftware,KiCad,Pcbnew,6.0.11+dfsg-1*%
%TF.CreationDate,2025-12-28T18:44:21+01:00*%
%TF.ProjectId,memoria1,6d656d6f-7269-4613-912e-6b696361645f,rev?*%
%TF.SameCoordinates,Original*%
%TF.FileFunction,Copper,L1,Top*%
%TF.FilePolarity,Positive*%
%FSLAX46Y46*%
G04 Gerber Fmt 4.6, Leading zero omitted, Abs format (unit mm)*
G04 Created by KiCad (PCBNEW 6.0.11+dfsg-1) date 2025-12-28 18:44:21*
%MOMM*%
%LPD*%
G01*
G04 APERTURE LIST*
%TA.AperFunction,ComponentPad*%
%ADD10R,1.600000X2.400000*%
%TD*%
%TA.AperFunction,ComponentPad*%
%ADD11O,1.600000X2.400000*%
%TD*%
%TA.AperFunction,ComponentPad*%
%ADD12R,2.400000X1.600000*%
%TD*%
%TA.AperFunction,ComponentPad*%
%ADD13O,2.400000X1.600000*%
%TD*%
%TA.AperFunction,ComponentPad*%
%ADD14C,1.600000*%
%TD*%
%TA.AperFunction,ComponentPad*%
%ADD15R,1.700000X1.700000*%
%TD*%
%TA.AperFunction,ComponentPad*%
%ADD16O,1.700000X1.700000*%
%TD*%
%TA.AperFunction,ComponentPad*%
%ADD17O,1.600000X1.600000*%
%TD*%
%TA.AperFunction,ViaPad*%
%ADD18C,0.800000*%
%TD*%
%TA.AperFunction,Conductor*%
%ADD19C,0.500000*%
%TD*%
%TA.AperFunction,Conductor*%
%ADD20C,1.000000*%
%TD*%
G04 APERTURE END LIST*
D10*
%TO.P,74HC32,1*%
%TO.N,N/C*%
X94610000Y-112385000D03*
D11*
%TO.P,74HC32,2*%
X97150000Y-112385000D03*
%TO.P,74HC32,3*%
X99690000Y-112385000D03*
%TO.P,74HC32,4*%
X102230000Y-112385000D03*
%TO.P,74HC32,5*%
X104770000Y-112385000D03*
%TO.P,74HC32,6*%
X107310000Y-112385000D03*
%TO.P,74HC32,7*%
X109850000Y-112385000D03*
%TO.P,74HC32,8*%
X109850000Y-104765000D03*
%TO.P,74HC32,9*%
X107310000Y-104765000D03*
%TO.P,74HC32,10*%
X104770000Y-104765000D03*
%TO.P,74HC32,11*%
X102230000Y-104765000D03*
%TO.P,74HC32,12*%
X99690000Y-104765000D03*
%TO.P,74HC32,13*%
X97150000Y-104765000D03*
%TO.P,74HC32,14*%
X94610000Y-104765000D03*
%TD*%
D12*
%TO.P,KM62256,1*%
%TO.N,N/C*%
X177780000Y-87620000D03*
D13*
%TO.P,KM62256,2*%
X177780000Y-85080000D03*
%TO.P,KM62256,3*%
X177780000Y-82540000D03*
%TO.P,KM62256,4*%
X177780000Y-80000000D03*
%TO.P,KM62256,5*%
X177780000Y-77460000D03*
%TO.P,KM62256,6*%
X177780000Y-74920000D03*
%TO.P,KM62256,7*%
X177780000Y-72380000D03*
%TO.P,KM62256,8*%
X177780000Y-69840000D03*
%TO.P,KM62256,9*%
X177780000Y-67300000D03*
%TO.P,KM62256,10*%
X177780000Y-64760000D03*
%TO.P,KM62256,11*%
X177780000Y-62220000D03*
%TO.P,KM62256,12*%
X177780000Y-59680000D03*
%TO.P,KM62256,13*%
X177780000Y-57140000D03*
%TO.P,KM62256,14*%
X177780000Y-54600000D03*
%TO.P,KM62256,15*%
X162540000Y-54600000D03*
%TO.P,KM62256,16*%
X162540000Y-57140000D03*
%TO.P,KM62256,17*%
X162540000Y-59680000D03*
%TO.P,KM62256,18*%
X162540000Y-62220000D03*
%TO.P,KM62256,19*%
X162540000Y-64760000D03*
%TO.P,KM62256,20*%
X162540000Y-67300000D03*
%TO.P,KM62256,21*%
X162540000Y-69840000D03*
%TO.P,KM62256,22*%
X162540000Y-72380000D03*
%TO.P,KM62256,23*%
X162540000Y-74920000D03*
%TO.P,KM62256,24*%
X162540000Y-77460000D03*
%TO.P,KM62256,25*%
X162540000Y-80000000D03*
%TO.P,KM62256,26*%
X162540000Y-82540000D03*
%TO.P,KM62256,27*%
X162540000Y-85080000D03*
%TO.P,KM62256,28*%
X162540000Y-87620000D03*
%TD*%
D12*
%TO.P,AT28C64,1*%
%TO.N,N/C*%
X114915000Y-87620000D03*
D13*
%TO.P,AT28C64,2*%
X114915000Y-85080000D03*
%TO.P,AT28C64,3*%
X114915000Y-82540000D03*
%TO.P,AT28C64,4*%
X114915000Y-80000000D03*
%TO.P,AT28C64,5*%
X114915000Y-77460000D03*
%TO.P,AT28C64,6*%
X114915000Y-74920000D03*
%TO.P,AT28C64,7*%
X114915000Y-72380000D03*
%TO.P,AT28C64,8*%
X114915000Y-69840000D03*
%TO.P,AT28C64,9*%
X114915000Y-67300000D03*
%TO.P,AT28C64,10*%
X114915000Y-64760000D03*
%TO.P,AT28C64,11*%
X114915000Y-62220000D03*
%TO.P,AT28C64,12*%
X114915000Y-59680000D03*
%TO.P,AT28C64,13*%
X114915000Y-57140000D03*
%TO.P,AT28C64,14*%
X114915000Y-54600000D03*
%TO.P,AT28C64,15*%
X99675000Y-54600000D03*
%TO.P,AT28C64,16*%
X99675000Y-57140000D03*
%TO.P,AT28C64,17*%
X99675000Y-59680000D03*
%TO.P,AT28C64,18*%
X99675000Y-62220000D03*
%TO.P,AT28C64,19*%
X99675000Y-64760000D03*
%TO.P,AT28C64,20*%
X99675000Y-67300000D03*
%TO.P,AT28C64,21*%
X99675000Y-69840000D03*
%TO.P,AT28C64,22*%
X99675000Y-72380000D03*
%TO.P,AT28C64,23*%
X99675000Y-74920000D03*
%TO.P,AT28C64,24*%
X99675000Y-77460000D03*
%TO.P,AT28C64,25*%
X99675000Y-80000000D03*
%TO.P,AT28C64,26*%
X99675000Y-82540000D03*
%TO.P,AT28C64,27*%
X99675000Y-85080000D03*
%TO.P,AT28C64,28*%
X99675000Y-87620000D03*
%TD*%
D14*
%TO.P,REF\u002A\u002A,1*%
%TO.N,N/C*%
X162580000Y-93345000D03*
%TO.P,REF\u002A\u002A,2*%
X165080000Y-93345000D03*
%TD*%
D15*
%TO.P,REF\u002A\u002A,1*%
%TO.N,N/C*%
X90170000Y-130810000D03*
D16*
%TO.P,REF\u002A\u002A,2*%
X92710000Y-130810000D03*
%TO.P,REF\u002A\u002A,3*%
X95250000Y-130810000D03*
%TO.P,REF\u002A\u002A,4*%
X97790000Y-130810000D03*
%TO.P,REF\u002A\u002A,5*%
X100330000Y-130810000D03*
%TO.P,REF\u002A\u002A,6*%
X102870000Y-130810000D03*
%TO.P,REF\u002A\u002A,7*%
X105410000Y-130810000D03*
%TO.P,REF\u002A\u002A,8*%
X107950000Y-130810000D03*
%TO.P,REF\u002A\u002A,9*%
X110490000Y-130810000D03*
%TO.P,REF\u002A\u002A,10*%
X113030000Y-130810000D03*
%TO.P,REF\u002A\u002A,11*%
X115570000Y-130810000D03*
%TO.P,REF\u002A\u002A,12*%
X118110000Y-130810000D03*
%TO.P,REF\u002A\u002A,13*%
X120650000Y-130810000D03*
%TO.P,REF\u002A\u002A,14*%
X123190000Y-130810000D03*
%TO.P,REF\u002A\u002A,15*%
X125730000Y-130810000D03*
%TO.P,REF\u002A\u002A,16*%
X128270000Y-130810000D03*
%TO.P,REF\u002A\u002A,17*%
X130810000Y-130810000D03*
%TO.P,REF\u002A\u002A,18*%
X133350000Y-130810000D03*
%TO.P,REF\u002A\u002A,19*%
X135890000Y-130810000D03*
%TO.P,REF\u002A\u002A,20*%
X138430000Y-130810000D03*
%TO.P,REF\u002A\u002A,21*%
X140970000Y-130810000D03*
%TO.P,REF\u002A\u002A,22*%
X143510000Y-130810000D03*
%TO.P,REF\u002A\u002A,23*%
X146050000Y-130810000D03*
%TO.P,REF\u002A\u002A,24*%
X148590000Y-130810000D03*
%TO.P,REF\u002A\u002A,25*%
X151130000Y-130810000D03*
%TO.P,REF\u002A\u002A,26*%
X153670000Y-130810000D03*
%TO.P,REF\u002A\u002A,27*%
X156210000Y-130810000D03*
%TO.P,REF\u002A\u002A,28*%
X158750000Y-130810000D03*
%TO.P,REF\u002A\u002A,29*%
X161290000Y-130810000D03*
%TO.P,REF\u002A\u002A,30*%
X163830000Y-130810000D03*
%TO.P,REF\u002A\u002A,31*%
X166370000Y-130810000D03*
%TO.P,REF\u002A\u002A,32*%
X168910000Y-130810000D03*
%TO.P,REF\u002A\u002A,33*%
X171450000Y-130810000D03*
%TO.P,REF\u002A\u002A,34*%
X173990000Y-130810000D03*
%TO.P,REF\u002A\u002A,35*%
X176530000Y-130810000D03*
%TO.P,REF\u002A\u002A,36*%
X179070000Y-130810000D03*
%TD*%
D14*
%TO.P,REF\u002A\u002A,1*%
%TO.N,N/C*%
X99568000Y-92456000D03*
%TO.P,REF\u002A\u002A,2*%
X104568000Y-92456000D03*
%TD*%
D15*
%TO.P,REF\u002A\u002A,1*%
%TO.N,N/C*%
X94717000Y-88885000D03*
D16*
%TO.P,REF\u002A\u002A,2*%
X94717000Y-86345000D03*
%TO.P,REF\u002A\u002A,3*%
X94717000Y-83805000D03*
%TD*%
D12*
%TO.P,KM62256,1*%
%TO.N,N/C*%
X149205000Y-87620000D03*
D13*
%TO.P,KM62256,2*%
X149205000Y-85080000D03*
%TO.P,KM62256,3*%
X149205000Y-82540000D03*
%TO.P,KM62256,4*%
X149205000Y-80000000D03*
%TO.P,KM62256,5*%
X149205000Y-77460000D03*
%TO.P,KM62256,6*%
X149205000Y-74920000D03*
%TO.P,KM62256,7*%
X149205000Y-72380000D03*
%TO.P,KM62256,8*%
X149205000Y-69840000D03*
%TO.P,KM62256,9*%
X149205000Y-67300000D03*
%TO.P,KM62256,10*%
X149205000Y-64760000D03*
%TO.P,KM62256,11*%
X149205000Y-62220000D03*
%TO.P,KM62256,12*%
X149205000Y-59680000D03*
%TO.P,KM62256,13*%
X149205000Y-57140000D03*
%TO.P,KM62256,14*%
X149205000Y-54600000D03*
%TO.P,KM62256,15*%
X133965000Y-54600000D03*
%TO.P,KM62256,16*%
X133965000Y-57140000D03*
%TO.P,KM62256,17*%
X133965000Y-59680000D03*
%TO.P,KM62256,18*%
X133965000Y-62220000D03*
%TO.P,KM62256,19*%
X133965000Y-64760000D03*
%TO.P,KM62256,20*%
X133965000Y-67300000D03*
%TO.P,KM62256,21*%
X133965000Y-69840000D03*
%TO.P,KM62256,22*%
X133965000Y-72380000D03*
%TO.P,KM62256,23*%
X133965000Y-74920000D03*
%TO.P,KM62256,24*%
X133965000Y-77460000D03*
%TO.P,KM62256,25*%
X133965000Y-80000000D03*
%TO.P,KM62256,26*%
X133965000Y-82540000D03*
%TO.P,KM62256,27*%
X133965000Y-85080000D03*
%TO.P,KM62256,28*%
X133965000Y-87620000D03*
%TD*%
D10*
%TO.P,74HC32,1*%
%TO.N,N/C*%
X163190000Y-111750000D03*
D11*
%TO.P,74HC32,2*%
X165730000Y-111750000D03*
%TO.P,74HC32,3*%
X168270000Y-111750000D03*
%TO.P,74HC32,4*%
X170810000Y-111750000D03*
%TO.P,74HC32,5*%
X173350000Y-111750000D03*
%TO.P,74HC32,6*%
X175890000Y-111750000D03*
%TO.P,74HC32,7*%
X178430000Y-111750000D03*
%TO.P,74HC32,8*%
X178430000Y-104130000D03*
%TO.P,74HC32,9*%
X175890000Y-104130000D03*
%TO.P,74HC32,10*%
X173350000Y-104130000D03*
%TO.P,74HC32,11*%
X170810000Y-104130000D03*
%TO.P,74HC32,12*%
X168270000Y-104130000D03*
%TO.P,74HC32,13*%
X165730000Y-104130000D03*
%TO.P,74HC32,14*%
X163190000Y-104130000D03*
%TD*%
D14*
%TO.P,REF\u002A\u002A,1*%
%TO.N,N/C*%
X113538000Y-112776000D03*
%TO.P,REF\u002A\u002A,2*%
X113538000Y-110276000D03*
%TD*%
%TO.P,REF\u002A\u002A,1*%
%TO.N,N/C*%
X134005000Y-93345000D03*
%TO.P,REF\u002A\u002A,2*%
X136505000Y-93345000D03*
%TD*%
%TO.P,REF\u002A\u002A,1*%
%TO.N,N/C*%
X175915000Y-115570000D03*
%TO.P,REF\u002A\u002A,2*%
X178415000Y-115570000D03*
%TD*%
D10*
%TO.P,74HC00,1*%
%TO.N,N/C*%
X134615000Y-111750000D03*
D11*
%TO.P,74HC00,2*%
X137155000Y-111750000D03*
%TO.P,74HC00,3*%
X139695000Y-111750000D03*
%TO.P,74HC00,4*%
X142235000Y-111750000D03*
%TO.P,74HC00,5*%
X144775000Y-111750000D03*
%TO.P,74HC00,6*%
X147315000Y-111750000D03*
%TO.P,74HC00,7*%
X149855000Y-111750000D03*
%TO.P,74HC00,8*%
X149855000Y-104130000D03*
%TO.P,74HC00,9*%
X147315000Y-104130000D03*
%TO.P,74HC00,10*%
X144775000Y-104130000D03*
%TO.P,74HC00,11*%
X142235000Y-104130000D03*
%TO.P,74HC00,12*%
X139695000Y-104130000D03*
%TO.P,74HC00,13*%
X137155000Y-104130000D03*
%TO.P,74HC00,14*%
X134615000Y-104130000D03*
%TD*%
D15*
%TO.P,REF\u002A\u002A,1*%
%TO.N,N/C*%
X94717000Y-60945000D03*
D16*
%TO.P,REF\u002A\u002A,2*%
X94717000Y-58405000D03*
%TO.P,REF\u002A\u002A,3*%
X94717000Y-55865000D03*
%TD*%
D14*
%TO.P,10k,1*%
%TO.N,N/C*%
X89916000Y-68580000D03*
D17*
%TO.P,10k,2*%
X89916000Y-58420000D03*
%TD*%
D14*
%TO.P,REF\u002A\u002A,1*%
%TO.N,N/C*%
X147320000Y-115570000D03*
%TO.P,REF\u002A\u002A,2*%
X149820000Y-115570000D03*
%TD*%
D18*
%TO.N,*%
X90779600Y-79806800D03*
X141224000Y-106934000D03*
X138430000Y-106934000D03*
X132080000Y-105918000D03*
X103124000Y-107950000D03*
X106426000Y-107950000D03*
X173482000Y-107950000D03*
X99212400Y-126847600D03*
X95758000Y-79756000D03*
X98298000Y-107696000D03*
X93218000Y-79756000D03*
X129438400Y-125679200D03*
X160274000Y-67310000D03*
X103987600Y-125730000D03*
%TD*%
D19*
%TO.N,*%
X123825000Y-68580000D02*
X125095000Y-69850000D01*
X123815000Y-69840000D02*
X125095000Y-71120000D01*
X141605000Y-63500000D02*
X142885000Y-62220000D01*
D20*
X162580000Y-93345000D02*
X152019000Y-93345000D01*
D19*
X142885000Y-57140000D02*
X149205000Y-57140000D01*
X125095000Y-86360000D02*
X141605000Y-86360000D01*
X123825000Y-60960000D02*
X125085000Y-62220000D01*
X133995000Y-54600000D02*
X136525000Y-52070000D01*
X89662000Y-116586000D02*
X90170000Y-117094000D01*
D20*
X150876000Y-109474000D02*
X165354000Y-109474000D01*
D19*
X141615000Y-85080000D02*
X142875000Y-83820000D01*
X154940000Y-60960000D02*
X156200000Y-62220000D01*
D20*
X149855000Y-110495000D02*
X150876000Y-109474000D01*
D19*
X142885000Y-59680000D02*
X149205000Y-59680000D01*
X142885000Y-72380000D02*
X149205000Y-72380000D01*
X99675000Y-72380000D02*
X100975000Y-72380000D01*
X156210000Y-76200000D02*
X172720000Y-76200000D01*
X174000000Y-69840000D02*
X177780000Y-69840000D01*
X100975000Y-77460000D02*
X102235000Y-76200000D01*
X154930000Y-72380000D02*
X156210000Y-73660000D01*
X100975000Y-69840000D02*
X102235000Y-68580000D01*
X113538000Y-112502000D02*
X113538000Y-112776000D01*
X142235000Y-104130000D02*
X142235000Y-105659000D01*
X125095000Y-82550000D02*
X125105000Y-82540000D01*
X99675000Y-54600000D02*
X99675000Y-52725000D01*
X141605000Y-81280000D02*
X142885000Y-80000000D01*
X154930000Y-69840000D02*
X156210000Y-71120000D01*
X141605000Y-58420000D02*
X142885000Y-57140000D01*
X156210000Y-74930000D02*
X156220000Y-74920000D01*
X125095000Y-66040000D02*
X141605000Y-66040000D01*
X123815000Y-80000000D02*
X125095000Y-81280000D01*
X149205000Y-62220000D02*
X154930000Y-62220000D01*
X177780000Y-89809000D02*
X176199800Y-91389200D01*
X141605000Y-86360000D02*
X142885000Y-85080000D01*
X133955000Y-57150000D02*
X133965000Y-57140000D01*
X99675000Y-64760000D02*
X100975000Y-64760000D01*
X154940000Y-76200000D02*
X156210000Y-77470000D01*
D20*
X152019000Y-93345000D02*
X147315000Y-98049000D01*
D19*
X145288000Y-128016000D02*
X144780000Y-128524000D01*
X149205000Y-64760000D02*
X154930000Y-64760000D01*
X97155000Y-78359000D02*
X95758000Y-79756000D01*
X141605000Y-74930000D02*
X142875000Y-73660000D01*
X102235000Y-78740000D02*
X123825000Y-78740000D01*
X99675000Y-69840000D02*
X100975000Y-69840000D01*
X152857200Y-91389200D02*
X149205000Y-87737000D01*
X123815000Y-82540000D02*
X125095000Y-83820000D01*
X172720000Y-63500000D02*
X173990000Y-62230000D01*
X97155000Y-59055000D02*
X97155000Y-78359000D01*
X123815000Y-77460000D02*
X125095000Y-78740000D01*
X174625000Y-62230000D02*
X174635000Y-62220000D01*
X99212400Y-126847600D02*
X101600000Y-124460000D01*
D20*
X147315000Y-98049000D02*
X147315000Y-104130000D01*
D19*
X110744000Y-106680000D02*
X107569000Y-106680000D01*
X114915000Y-62220000D02*
X123815000Y-62220000D01*
X142875000Y-83820000D02*
X154940000Y-83820000D01*
X154940000Y-73660000D02*
X156210000Y-74930000D01*
X170810000Y-111750000D02*
X170810000Y-126624000D01*
X172720000Y-78740000D02*
X174000000Y-77460000D01*
X114915000Y-74920000D02*
X123815000Y-74920000D01*
X92710000Y-94843600D02*
X92710000Y-87630000D01*
X125095000Y-74930000D02*
X125105000Y-74920000D01*
X102235000Y-68580000D02*
X123825000Y-68580000D01*
X149205000Y-87737000D02*
X149205000Y-87620000D01*
X172720000Y-76200000D02*
X174000000Y-74920000D01*
D20*
X130810000Y-130810000D02*
X130810000Y-121285000D01*
D19*
X123825000Y-78740000D02*
X125085000Y-80000000D01*
X156200000Y-59680000D02*
X162540000Y-59680000D01*
X133965000Y-53955000D02*
X133965000Y-54600000D01*
X92252800Y-81280000D02*
X123825000Y-81280000D01*
X173990000Y-62230000D02*
X174625000Y-62230000D01*
X156083000Y-67310000D02*
X160274000Y-67310000D01*
X102235000Y-60960000D02*
X123825000Y-60960000D01*
X97150000Y-108844000D02*
X98298000Y-107696000D01*
X162540000Y-53955000D02*
X162540000Y-54600000D01*
X156220000Y-69840000D02*
X162540000Y-69840000D01*
X149855000Y-111750000D02*
X149855000Y-110485000D01*
X141595000Y-77460000D02*
X141605000Y-77470000D01*
X149855000Y-102367000D02*
X149855000Y-104130000D01*
X144780000Y-132334000D02*
X144526000Y-132588000D01*
X125095000Y-60960000D02*
X141605000Y-60960000D01*
X142875000Y-60960000D02*
X154940000Y-60960000D01*
X100975000Y-64760000D02*
X102235000Y-63500000D01*
X141605000Y-78740000D02*
X142885000Y-77460000D01*
X154940000Y-71120000D02*
X156210000Y-72390000D01*
X149205000Y-69840000D02*
X154930000Y-69840000D01*
X123825000Y-76200000D02*
X125085000Y-77460000D01*
D20*
X99715000Y-92309000D02*
X99715000Y-87660000D01*
X122301000Y-110236000D02*
X113578000Y-110236000D01*
D19*
X156220000Y-77460000D02*
X162540000Y-77460000D01*
X174000000Y-74920000D02*
X177780000Y-74920000D01*
X141605000Y-76200000D02*
X142885000Y-74920000D01*
X170810000Y-108580000D02*
X170810000Y-111750000D01*
X174000000Y-80000000D02*
X177780000Y-80000000D01*
X99715000Y-87660000D02*
X99675000Y-87620000D01*
X172720000Y-60960000D02*
X174000000Y-59680000D01*
X90170000Y-131572000D02*
X90170000Y-130810000D01*
X172720000Y-81280000D02*
X174000000Y-80000000D01*
X174635000Y-62220000D02*
X177780000Y-62220000D01*
X172720000Y-66040000D02*
X174000000Y-64760000D01*
X133965000Y-85080000D02*
X141615000Y-85080000D01*
D20*
X146050000Y-101600000D02*
X147315000Y-102865000D01*
D19*
X95982000Y-85080000D02*
X94717000Y-86345000D01*
X103124000Y-107950000D02*
X101346000Y-107950000D01*
X141605000Y-72390000D02*
X142875000Y-71120000D01*
D20*
X109850000Y-112385000D02*
X113655000Y-112385000D01*
D19*
X125095000Y-58420000D02*
X141605000Y-58420000D01*
X148346000Y-87620000D02*
X140081000Y-95885000D01*
X173350000Y-108082000D02*
X173482000Y-107950000D01*
X141224000Y-106934000D02*
X173990000Y-106934000D01*
X90779600Y-79806800D02*
X89662000Y-80924400D01*
X156220000Y-74920000D02*
X162540000Y-74920000D01*
D20*
X181356000Y-90932000D02*
X181356000Y-110744000D01*
D19*
X174000000Y-77460000D02*
X177780000Y-77460000D01*
X165100000Y-105918000D02*
X165730000Y-105288000D01*
D20*
X137155000Y-102875000D02*
X138430000Y-101600000D01*
X165730000Y-109850000D02*
X165730000Y-111750000D01*
D19*
X170810000Y-126624000D02*
X169418000Y-128016000D01*
X146050000Y-130810000D02*
X146050000Y-132334000D01*
X154930000Y-67300000D02*
X156210000Y-68580000D01*
X99675000Y-85080000D02*
X95982000Y-85080000D01*
X144526000Y-132588000D02*
X91186000Y-132588000D01*
X154930000Y-59680000D02*
X156210000Y-60960000D01*
X156200000Y-85080000D02*
X162540000Y-85080000D01*
X156210000Y-68580000D02*
X172720000Y-68580000D01*
D20*
X94610000Y-104765000D02*
X94610000Y-88992000D01*
X148844000Y-109474000D02*
X135890000Y-109474000D01*
D19*
X141605000Y-59690000D02*
X142875000Y-58420000D01*
X91963000Y-60945000D02*
X94717000Y-60945000D01*
X139695000Y-107183000D02*
X140462000Y-107950000D01*
X123825000Y-83820000D02*
X125095000Y-85090000D01*
X93218000Y-77978000D02*
X89916000Y-74676000D01*
X99675000Y-59680000D02*
X100975000Y-59680000D01*
X99675000Y-52725000D02*
X100330000Y-52070000D01*
X175890000Y-111750000D02*
X175890000Y-104130000D01*
X140081000Y-98679000D02*
X138938000Y-99822000D01*
X142875000Y-63500000D02*
X154940000Y-63500000D01*
X154930000Y-74920000D02*
X156210000Y-76200000D01*
X125095000Y-83820000D02*
X141605000Y-83820000D01*
X174000000Y-72380000D02*
X177780000Y-72380000D01*
X125085000Y-77460000D02*
X133965000Y-77460000D01*
X142875000Y-55880000D02*
X154940000Y-55880000D01*
X93218000Y-79756000D02*
X93218000Y-77978000D01*
X92710000Y-87630000D02*
X95758000Y-87630000D01*
X174000000Y-64760000D02*
X177780000Y-64760000D01*
X137155000Y-104130000D02*
X137155000Y-102875000D01*
X90170000Y-117094000D02*
X93472000Y-117094000D01*
X138430000Y-106934000D02*
X111760000Y-106934000D01*
X142885000Y-80000000D02*
X149205000Y-80000000D01*
X156210000Y-58420000D02*
X172720000Y-58420000D01*
X125095000Y-63500000D02*
X141605000Y-63500000D01*
D20*
X178943000Y-93345000D02*
X181356000Y-90932000D01*
D19*
X149205000Y-72380000D02*
X154930000Y-72380000D01*
D20*
X97800000Y-87620000D02*
X99675000Y-87620000D01*
D19*
X141605000Y-73660000D02*
X142885000Y-72380000D01*
X172720000Y-71120000D02*
X174000000Y-69840000D01*
X125105000Y-74920000D02*
X133965000Y-74920000D01*
X156210000Y-73660000D02*
X172720000Y-73660000D01*
X89916000Y-58928000D02*
X89916000Y-58420000D01*
D20*
X134615000Y-104130000D02*
X137155000Y-104130000D01*
D19*
X154940000Y-63500000D02*
X156200000Y-64760000D01*
X89916000Y-74676000D02*
X89916000Y-68580000D01*
X125095000Y-68580000D02*
X141605000Y-68580000D01*
X173990000Y-106934000D02*
X175890000Y-105034000D01*
X133965000Y-62220000D02*
X141615000Y-62220000D01*
X146050000Y-132334000D02*
X146151600Y-132435600D01*
X107442000Y-104897000D02*
X107310000Y-104765000D01*
X174000000Y-85080000D02*
X177780000Y-85080000D01*
X154930000Y-64760000D02*
X156210000Y-66040000D01*
X142235000Y-105659000D02*
X142494000Y-105918000D01*
X142875000Y-81280000D02*
X154940000Y-81280000D01*
D20*
X181356000Y-56642000D02*
X179314000Y-54600000D01*
D19*
X133965000Y-57140000D02*
X133975000Y-57150000D01*
X146151600Y-132435600D02*
X177800000Y-132435600D01*
X156210000Y-81280000D02*
X172720000Y-81280000D01*
X154940000Y-58420000D02*
X156200000Y-59680000D01*
X141605000Y-82550000D02*
X142875000Y-81280000D01*
X94717000Y-58405000D02*
X96505000Y-58405000D01*
X142885000Y-74920000D02*
X149205000Y-74920000D01*
X123825000Y-55880000D02*
X125095000Y-57150000D01*
X154930000Y-82540000D02*
X156210000Y-83820000D01*
X101600000Y-124460000D02*
X101600000Y-116840000D01*
D20*
X165354000Y-109474000D02*
X165730000Y-109850000D01*
D19*
X125095000Y-76200000D02*
X141605000Y-76200000D01*
X123825000Y-81280000D02*
X125095000Y-82550000D01*
X177800000Y-132435600D02*
X177800000Y-125476000D01*
X125095000Y-81280000D02*
X141605000Y-81280000D01*
X104770000Y-112385000D02*
X104770000Y-107320000D01*
X141595000Y-59680000D02*
X141605000Y-59690000D01*
X114915000Y-85080000D02*
X123815000Y-85080000D01*
X100330000Y-52070000D02*
X132080000Y-52070000D01*
X156210000Y-63500000D02*
X172720000Y-63500000D01*
D20*
X180350000Y-111750000D02*
X178430000Y-111750000D01*
D19*
X165730000Y-105288000D02*
X165730000Y-104130000D01*
X154940000Y-68580000D02*
X156210000Y-69850000D01*
X141468000Y-67300000D02*
X142728000Y-66040000D01*
X141595000Y-82540000D02*
X141605000Y-82550000D01*
X125105000Y-85080000D02*
X133965000Y-85080000D01*
X172720000Y-58420000D02*
X174000000Y-57140000D01*
X174000000Y-82540000D02*
X177780000Y-82540000D01*
X140081000Y-95885000D02*
X140081000Y-98679000D01*
X123815000Y-74920000D02*
X125095000Y-76200000D01*
X149820000Y-111785000D02*
X149855000Y-111750000D01*
X114915000Y-67300000D02*
X123815000Y-67300000D01*
X177800000Y-125476000D02*
X173350000Y-121026000D01*
D20*
X181356000Y-110744000D02*
X180350000Y-111750000D01*
D19*
X101600000Y-116840000D02*
X99568000Y-114808000D01*
X102235000Y-63500000D02*
X123825000Y-63500000D01*
D20*
X178415000Y-115570000D02*
X178415000Y-111765000D01*
D19*
X114915000Y-57140000D02*
X123815000Y-57140000D01*
X156210000Y-86360000D02*
X172720000Y-86360000D01*
X114915000Y-69840000D02*
X123815000Y-69840000D01*
X99675000Y-80000000D02*
X100975000Y-80000000D01*
X125085000Y-62220000D02*
X133965000Y-62220000D01*
X154930000Y-80000000D02*
X156210000Y-81280000D01*
D20*
X110744000Y-108712000D02*
X109850000Y-109606000D01*
D19*
X102230000Y-112385000D02*
X104770000Y-112385000D01*
X156210000Y-69850000D02*
X156220000Y-69840000D01*
D20*
X138430000Y-101600000D02*
X146050000Y-101600000D01*
D19*
X144780000Y-128524000D02*
X144780000Y-132334000D01*
X133965000Y-80000000D02*
X141615000Y-80000000D01*
X90932000Y-96621600D02*
X92710000Y-94843600D01*
X123815000Y-67300000D02*
X125095000Y-68580000D01*
X104038400Y-125679200D02*
X103987600Y-125730000D01*
X129438400Y-125679200D02*
X104038400Y-125679200D01*
X114915000Y-72380000D02*
X123815000Y-72380000D01*
X154813000Y-66040000D02*
X156083000Y-67310000D01*
X142875000Y-68580000D02*
X154940000Y-68580000D01*
X154930000Y-57140000D02*
X156210000Y-58420000D01*
X133965000Y-74920000D02*
X141595000Y-74920000D01*
X133965000Y-54600000D02*
X133995000Y-54600000D01*
X99675000Y-74920000D02*
X100975000Y-74920000D01*
X125095000Y-72390000D02*
X125105000Y-72380000D01*
D20*
X94717000Y-88885000D02*
X96535000Y-88885000D01*
D19*
X156210000Y-71120000D02*
X172720000Y-71120000D01*
X99675000Y-57140000D02*
X100975000Y-57140000D01*
D20*
X130810000Y-121285000D02*
X121900000Y-112375000D01*
D19*
X154930000Y-77460000D02*
X156210000Y-78740000D01*
X156200000Y-57140000D02*
X162540000Y-57140000D01*
X97150000Y-112385000D02*
X97150000Y-108844000D01*
X123815000Y-57140000D02*
X125095000Y-58420000D01*
X100975000Y-62220000D02*
X102235000Y-60960000D01*
X90932000Y-115824000D02*
X90932000Y-96621600D01*
X149855000Y-111750000D02*
X149855000Y-110495000D01*
X149205000Y-80000000D02*
X154930000Y-80000000D01*
X102235000Y-58420000D02*
X123825000Y-58420000D01*
X172720000Y-86360000D02*
X174000000Y-85080000D01*
X123815000Y-85080000D02*
X125095000Y-86360000D01*
X125095000Y-78740000D02*
X141605000Y-78740000D01*
X133965000Y-77460000D02*
X141595000Y-77460000D01*
X100975000Y-57140000D02*
X102235000Y-55880000D01*
X123825000Y-71120000D02*
X125095000Y-72390000D01*
X123815000Y-64760000D02*
X125095000Y-66040000D01*
D20*
X99568000Y-92456000D02*
X99715000Y-92309000D01*
D19*
X102235000Y-55880000D02*
X123825000Y-55880000D01*
X174000000Y-59680000D02*
X177780000Y-59680000D01*
D20*
X134005000Y-93345000D02*
X110871000Y-93345000D01*
D19*
X100975000Y-72380000D02*
X102235000Y-71120000D01*
X102235000Y-73660000D02*
X123825000Y-73660000D01*
X99568000Y-114808000D02*
X92964000Y-114808000D01*
X150876000Y-101346000D02*
X149855000Y-102367000D01*
X141605000Y-64770000D02*
X142875000Y-63500000D01*
X154940000Y-83820000D02*
X156200000Y-85080000D01*
X133975000Y-64770000D02*
X141605000Y-64770000D01*
X123825000Y-58420000D02*
X125085000Y-59680000D01*
X156210000Y-78740000D02*
X172720000Y-78740000D01*
D20*
X113939000Y-112375000D02*
X113538000Y-112776000D01*
D19*
X142494000Y-105918000D02*
X165100000Y-105918000D01*
X169418000Y-128016000D02*
X145288000Y-128016000D01*
X114915000Y-80000000D02*
X123815000Y-80000000D01*
X141595000Y-69840000D02*
X141605000Y-69850000D01*
X149205000Y-82540000D02*
X154930000Y-82540000D01*
X173350000Y-102484000D02*
X172212000Y-101346000D01*
X133975000Y-57150000D02*
X141605000Y-57150000D01*
X89931000Y-58405000D02*
X94717000Y-58405000D01*
X90779600Y-79806800D02*
X92252800Y-81280000D01*
X174000000Y-57140000D02*
X177780000Y-57140000D01*
X142885000Y-62220000D02*
X149205000Y-62220000D01*
X114915000Y-59680000D02*
X123815000Y-59680000D01*
X142885000Y-67300000D02*
X149205000Y-67300000D01*
X156210000Y-72390000D02*
X156220000Y-72380000D01*
X140462000Y-107950000D02*
X170180000Y-107950000D01*
D20*
X109850000Y-109606000D02*
X109850000Y-112385000D01*
D19*
X111506000Y-105918000D02*
X110744000Y-106680000D01*
X89916000Y-68580000D02*
X89916000Y-62992000D01*
X142885000Y-85080000D02*
X149205000Y-85080000D01*
X107310000Y-106421000D02*
X107310000Y-104765000D01*
X125095000Y-69850000D02*
X125105000Y-69840000D01*
X89916000Y-58420000D02*
X89931000Y-58405000D01*
X105410000Y-106680000D02*
X107442000Y-106680000D01*
D20*
X179314000Y-54600000D02*
X177780000Y-54600000D01*
X135128000Y-108712000D02*
X110744000Y-108712000D01*
D19*
X141595000Y-72380000D02*
X141605000Y-72390000D01*
X142885000Y-69840000D02*
X149205000Y-69840000D01*
X172720000Y-68580000D02*
X174000000Y-67300000D01*
X156220000Y-80000000D02*
X162540000Y-80000000D01*
X142875000Y-78740000D02*
X154960000Y-78740000D01*
X154930000Y-62220000D02*
X156210000Y-63500000D01*
X125095000Y-71120000D02*
X141605000Y-71120000D01*
X149205000Y-67300000D02*
X154930000Y-67300000D01*
X149205000Y-57140000D02*
X154930000Y-57140000D01*
X100975000Y-80000000D02*
X102235000Y-78740000D01*
X125105000Y-69840000D02*
X133965000Y-69840000D01*
X96505000Y-58405000D02*
X97155000Y-59055000D01*
X174000000Y-67300000D02*
X177780000Y-67300000D01*
D20*
X113578000Y-110236000D02*
X113538000Y-110276000D01*
D19*
X96520000Y-83820000D02*
X96505000Y-83805000D01*
X141615000Y-62220000D02*
X142875000Y-60960000D01*
X96520000Y-83820000D02*
X123825000Y-83820000D01*
X133965000Y-82540000D02*
X141595000Y-82540000D01*
X142885000Y-82540000D02*
X149205000Y-82540000D01*
X132080000Y-52070000D02*
X133965000Y-53955000D01*
X139695000Y-104130000D02*
X139695000Y-107183000D01*
D20*
X94610000Y-88992000D02*
X94717000Y-88885000D01*
D19*
X132080000Y-105918000D02*
X111506000Y-105918000D01*
X133965000Y-59680000D02*
X141595000Y-59680000D01*
X138938000Y-99822000D02*
X97536000Y-99822000D01*
X142875000Y-76200000D02*
X154940000Y-76200000D01*
X141605000Y-69850000D02*
X142875000Y-68580000D01*
X176199800Y-91389200D02*
X152857200Y-91389200D01*
X111760000Y-106934000D02*
X111252000Y-107442000D01*
D20*
X149820000Y-115570000D02*
X149820000Y-111785000D01*
D19*
X114915000Y-82540000D02*
X123815000Y-82540000D01*
X97150000Y-100208000D02*
X97150000Y-104765000D01*
X125085000Y-59680000D02*
X133965000Y-59680000D01*
X133965000Y-67300000D02*
X141468000Y-67300000D01*
X172720000Y-83820000D02*
X174000000Y-82540000D01*
X156220000Y-72380000D02*
X162540000Y-72380000D01*
X92456000Y-109474000D02*
X94234000Y-109474000D01*
X114915000Y-77460000D02*
X123815000Y-77460000D01*
X141605000Y-83820000D02*
X142885000Y-82540000D01*
X100975000Y-59680000D02*
X102235000Y-58420000D01*
X173350000Y-121026000D02*
X173350000Y-111750000D01*
X133965000Y-72380000D02*
X141595000Y-72380000D01*
X93472000Y-117094000D02*
X95250000Y-118872000D01*
X170180000Y-107950000D02*
X170810000Y-108580000D01*
D20*
X96535000Y-88885000D02*
X97800000Y-87620000D01*
X110871000Y-93345000D02*
X105186000Y-87660000D01*
X105186000Y-87660000D02*
X99715000Y-87660000D01*
D19*
X89916000Y-62992000D02*
X91963000Y-60945000D01*
X101346000Y-107950000D02*
X99690000Y-106294000D01*
X107569000Y-106680000D02*
X107310000Y-106421000D01*
X149205000Y-87620000D02*
X148346000Y-87620000D01*
X125095000Y-85090000D02*
X125105000Y-85080000D01*
X99675000Y-77460000D02*
X100975000Y-77460000D01*
X154930000Y-85080000D02*
X156210000Y-86360000D01*
X156210000Y-60960000D02*
X172720000Y-60960000D01*
X125095000Y-73660000D02*
X141605000Y-73660000D01*
X94234000Y-109474000D02*
X97150000Y-106558000D01*
X156200000Y-62220000D02*
X162540000Y-62220000D01*
X91186000Y-132588000D02*
X90170000Y-131572000D01*
X142728000Y-66040000D02*
X154813000Y-66040000D01*
X156210000Y-82550000D02*
X156220000Y-82540000D01*
X149205000Y-85080000D02*
X154930000Y-85080000D01*
X125095000Y-57150000D02*
X133955000Y-57150000D01*
X97790000Y-118110000D02*
X95504000Y-115824000D01*
X125085000Y-80000000D02*
X133965000Y-80000000D01*
X160655000Y-52070000D02*
X162540000Y-53955000D01*
X123815000Y-62220000D02*
X125095000Y-63500000D01*
X142885000Y-64760000D02*
X149205000Y-64760000D01*
X173350000Y-104130000D02*
X173350000Y-102484000D01*
X113635000Y-86360000D02*
X114915000Y-85080000D01*
X141605000Y-68580000D02*
X142885000Y-67300000D01*
X142885000Y-77460000D02*
X149205000Y-77460000D01*
X136525000Y-52070000D02*
X160655000Y-52070000D01*
X142875000Y-73660000D02*
X154940000Y-73660000D01*
X113655000Y-112385000D02*
X113538000Y-112502000D01*
X156210000Y-77470000D02*
X156220000Y-77460000D01*
X97790000Y-130810000D02*
X97790000Y-118110000D01*
X123825000Y-63500000D02*
X125085000Y-64760000D01*
X141605000Y-66040000D02*
X142885000Y-64760000D01*
X133965000Y-59680000D02*
X133975000Y-59690000D01*
X156210000Y-66040000D02*
X172720000Y-66040000D01*
X102235000Y-71120000D02*
X123825000Y-71120000D01*
X149205000Y-74920000D02*
X154930000Y-74920000D01*
X175890000Y-105034000D02*
X175890000Y-104130000D01*
X99675000Y-62220000D02*
X100975000Y-62220000D01*
X111252000Y-107442000D02*
X106934000Y-107442000D01*
X107442000Y-106680000D02*
X107442000Y-104897000D01*
X89662000Y-80924400D02*
X89662000Y-116586000D01*
X156210000Y-83820000D02*
X172720000Y-83820000D01*
X125105000Y-72380000D02*
X133965000Y-72380000D01*
X156220000Y-82540000D02*
X162540000Y-82540000D01*
X149205000Y-59680000D02*
X154930000Y-59680000D01*
X104770000Y-107320000D02*
X105410000Y-106680000D01*
X154940000Y-81280000D02*
X156210000Y-82550000D01*
D20*
X121900000Y-112375000D02*
X113939000Y-112375000D01*
D19*
X123825000Y-73660000D02*
X125095000Y-74930000D01*
X154960000Y-78740000D02*
X156220000Y-80000000D01*
X142875000Y-71120000D02*
X154940000Y-71120000D01*
X173350000Y-111750000D02*
X173350000Y-108082000D01*
D20*
X165080000Y-93345000D02*
X178943000Y-93345000D01*
D19*
X97028000Y-86360000D02*
X113635000Y-86360000D01*
X141605000Y-77470000D02*
X142875000Y-76200000D01*
X106934000Y-107442000D02*
X106426000Y-107950000D01*
X123815000Y-72380000D02*
X125095000Y-73660000D01*
X92456000Y-114300000D02*
X92456000Y-109474000D01*
X177780000Y-87620000D02*
X177780000Y-89809000D01*
X141605000Y-71120000D02*
X142885000Y-69840000D01*
D20*
X133350000Y-130810000D02*
X133350000Y-121285000D01*
X133350000Y-121285000D02*
X122301000Y-110236000D01*
D19*
X172720000Y-73660000D02*
X174000000Y-72380000D01*
X133965000Y-69840000D02*
X141595000Y-69840000D01*
X114915000Y-64760000D02*
X123815000Y-64760000D01*
D20*
X149855000Y-110485000D02*
X148844000Y-109474000D01*
D19*
X178415000Y-111765000D02*
X178430000Y-111750000D01*
X95250000Y-118872000D02*
X95250000Y-130810000D01*
X125085000Y-64760000D02*
X133965000Y-64760000D01*
X96505000Y-83805000D02*
X94717000Y-83805000D01*
X97150000Y-106558000D02*
X97150000Y-104765000D01*
X172212000Y-101346000D02*
X150876000Y-101346000D01*
D20*
X135890000Y-109474000D02*
X135128000Y-108712000D01*
D19*
X133965000Y-64760000D02*
X133975000Y-64770000D01*
X99690000Y-106294000D02*
X99690000Y-104765000D01*
X102235000Y-76200000D02*
X123825000Y-76200000D01*
X92964000Y-114808000D02*
X92456000Y-114300000D01*
X154940000Y-55880000D02*
X156200000Y-57140000D01*
X141595000Y-74920000D02*
X141605000Y-74930000D01*
X141605000Y-57150000D02*
X142875000Y-55880000D01*
X149205000Y-77460000D02*
X154930000Y-77460000D01*
X97536000Y-99822000D02*
X97150000Y-100208000D01*
X123815000Y-59680000D02*
X125095000Y-60960000D01*
X141605000Y-60960000D02*
X142885000Y-59680000D01*
X99690000Y-112385000D02*
X102230000Y-112385000D01*
X100975000Y-74920000D02*
X102235000Y-73660000D01*
D20*
X181356000Y-90932000D02*
X181356000Y-56642000D01*
D19*
X156200000Y-64760000D02*
X162540000Y-64760000D01*
X142875000Y-58420000D02*
X154940000Y-58420000D01*
X125105000Y-82540000D02*
X133965000Y-82540000D01*
X147315000Y-102865000D02*
X147315000Y-104130000D01*
X95504000Y-115824000D02*
X90932000Y-115824000D01*
X95758000Y-87630000D02*
X97028000Y-86360000D01*
X141615000Y-80000000D02*
X142875000Y-78740000D01*
%TD*%
M02*
