M48
; DRILL file {KiCad 6.0.11+dfsg-1} date dom 28 dic 2025, 18:44:25
; FORMAT={-:-/ absolute / inch / decimal}
; #@! TF.CreationDate,2025-12-28T18:44:25+01:00
; #@! TF.GenerationSoftware,Kicad,Pcbnew,6.0.11+dfsg-1
; #@! TF.FileFunction,Plated,1,2,PTH
FMAT,2
INCH
; #@! TA.AperFunction,Plated,PTH,ViaDrill
T1C0.0157
; #@! TA.AperFunction,Plated,PTH,ComponentDrill
T2C0.0315
; #@! TA.AperFunction,Plated,PTH,ComponentDrill
T3C0.0394
%
G90
G05
T1
X3.574Y-3.142
X3.67Y-3.14
X3.77Y-3.14
X3.87Y-4.24
X3.906Y-4.994
X4.06Y-4.25
X4.094Y-4.95
X4.19Y-4.25
X5.096Y-4.948
X5.2Y-4.17
X5.45Y-4.21
X5.56Y-4.21
X6.31Y-2.65
X6.83Y-4.25
T2
X3.54Y-2.3
X3.54Y-2.7
X3.7248Y-4.1246
X3.7248Y-4.4246
X3.8248Y-4.1246
X3.8248Y-4.4246
X3.92Y-3.64
X3.9242Y-2.1496
X3.9242Y-2.2496
X3.9242Y-2.3496
X3.9242Y-2.4496
X3.9242Y-2.5496
X3.9242Y-2.6496
X3.9242Y-2.7496
X3.9242Y-2.8496
X3.9242Y-2.9496
X3.9242Y-3.0496
X3.9242Y-3.1496
X3.9242Y-3.2496
X3.9242Y-3.3496
X3.9242Y-3.4496
X3.9248Y-4.1246
X3.9248Y-4.4246
X4.0248Y-4.1246
X4.0248Y-4.4246
X4.1169Y-3.64
X4.1248Y-4.1246
X4.1248Y-4.4246
X4.2248Y-4.1246
X4.2248Y-4.4246
X4.3248Y-4.1246
X4.3248Y-4.4246
X4.47Y-4.3416
X4.47Y-4.44
X4.5242Y-2.1496
X4.5242Y-2.2496
X4.5242Y-2.3496
X4.5242Y-2.4496
X4.5242Y-2.5496
X4.5242Y-2.6496
X4.5242Y-2.7496
X4.5242Y-2.8496
X4.5242Y-2.9496
X4.5242Y-3.0496
X4.5242Y-3.1496
X4.5242Y-3.2496
X4.5242Y-3.3496
X4.5242Y-3.4496
X5.2742Y-2.1496
X5.2742Y-2.2496
X5.2742Y-2.3496
X5.2742Y-2.4496
X5.2742Y-2.5496
X5.2742Y-2.6496
X5.2742Y-2.7496
X5.2742Y-2.8496
X5.2742Y-2.9496
X5.2742Y-3.0496
X5.2742Y-3.1496
X5.2742Y-3.2496
X5.2742Y-3.3496
X5.2742Y-3.4496
X5.2758Y-3.675
X5.2998Y-4.0996
X5.2998Y-4.3996
X5.3742Y-3.675
X5.3998Y-4.0996
X5.3998Y-4.3996
X5.4998Y-4.0996
X5.4998Y-4.3996
X5.5998Y-4.0996
X5.5998Y-4.3996
X5.6998Y-4.0996
X5.6998Y-4.3996
X5.7998Y-4.0996
X5.7998Y-4.3996
X5.8Y-4.55
X5.8742Y-2.1496
X5.8742Y-2.2496
X5.8742Y-2.3496
X5.8742Y-2.4496
X5.8742Y-2.5496
X5.8742Y-2.6496
X5.8742Y-2.7496
X5.8742Y-2.8496
X5.8742Y-2.9496
X5.8742Y-3.0496
X5.8742Y-3.1496
X5.8742Y-3.2496
X5.8742Y-3.3496
X5.8742Y-3.4496
X5.8984Y-4.55
X5.8998Y-4.0996
X5.8998Y-4.3996
X6.3992Y-2.1496
X6.3992Y-2.2496
X6.3992Y-2.3496
X6.3992Y-2.4496
X6.3992Y-2.5496
X6.3992Y-2.6496
X6.3992Y-2.7496
X6.3992Y-2.8496
X6.3992Y-2.9496
X6.3992Y-3.0496
X6.3992Y-3.1496
X6.3992Y-3.2496
X6.3992Y-3.3496
X6.3992Y-3.4496
X6.4008Y-3.675
X6.4248Y-4.0996
X6.4248Y-4.3996
X6.4992Y-3.675
X6.5248Y-4.0996
X6.5248Y-4.3996
X6.6248Y-4.0996
X6.6248Y-4.3996
X6.7248Y-4.0996
X6.7248Y-4.3996
X6.8248Y-4.0996
X6.8248Y-4.3996
X6.9248Y-4.0996
X6.9248Y-4.3996
X6.9258Y-4.55
X6.9992Y-2.1496
X6.9992Y-2.2496
X6.9992Y-2.3496
X6.9992Y-2.4496
X6.9992Y-2.5496
X6.9992Y-2.6496
X6.9992Y-2.7496
X6.9992Y-2.8496
X6.9992Y-2.9496
X6.9992Y-3.0496
X6.9992Y-3.1496
X6.9992Y-3.2496
X6.9992Y-3.3496
X6.9992Y-3.4496
X7.0242Y-4.55
X7.0248Y-4.0996
X7.0248Y-4.3996
T3
X3.55Y-5.15
X3.65Y-5.15
X3.729Y-2.1994
X3.729Y-2.2994
X3.729Y-2.3994
X3.729Y-3.2994
X3.729Y-3.3994
X3.729Y-3.4994
X3.75Y-5.15
X3.85Y-5.15
X3.95Y-5.15
X4.05Y-5.15
X4.15Y-5.15
X4.25Y-5.15
X4.35Y-5.15
X4.45Y-5.15
X4.55Y-5.15
X4.65Y-5.15
X4.75Y-5.15
X4.85Y-5.15
X4.95Y-5.15
X5.05Y-5.15
X5.15Y-5.15
X5.25Y-5.15
X5.35Y-5.15
X5.45Y-5.15
X5.55Y-5.15
X5.65Y-5.15
X5.75Y-5.15
X5.85Y-5.15
X5.95Y-5.15
X6.05Y-5.15
X6.15Y-5.15
X6.25Y-5.15
X6.35Y-5.15
X6.45Y-5.15
X6.55Y-5.15
X6.65Y-5.15
X6.75Y-5.15
X6.85Y-5.15
X6.95Y-5.15
X7.05Y-5.15
T0
M30
