%TF.GenerationSoftware,KiCad,Pcbnew,6.0.11+dfsg-1*%
%TF.CreationDate,2025-10-31T09:44:41+01:00*%
%TF.ProjectId,basematrice,62617365-6d61-4747-9269-63652e6b6963,rev?*%
%TF.SameCoordinates,Original*%
%TF.FileFunction,Legend,Top*%
%TF.FilePolarity,Positive*%
%FSLAX46Y46*%
G04 Gerber Fmt 4.6, Leading zero omitted, Abs format (unit mm)*
G04 Created by KiCad (PCBNEW 6.0.11+dfsg-1) date 2025-10-31 09:44:41*
%MOMM*%
%LPD*%
G01*
G04 APERTURE LIST*
%ADD10C,0.150000*%
%ADD11C,0.120000*%
G04 APERTURE END LIST*
D10*
%TO.C,74hc32*%
X94272380Y-99812857D02*
X94272380Y-99146190D01*
X95272380Y-99574761D01*
X94605714Y-98336666D02*
X95272380Y-98336666D01*
X94224761Y-98574761D02*
X94939047Y-98812857D01*
X94939047Y-98193809D01*
X95272380Y-97812857D02*
X94272380Y-97812857D01*
X95272380Y-97384285D02*
X94748571Y-97384285D01*
X94653333Y-97431904D01*
X94605714Y-97527142D01*
X94605714Y-97670000D01*
X94653333Y-97765238D01*
X94700952Y-97812857D01*
X95224761Y-96479523D02*
X95272380Y-96574761D01*
X95272380Y-96765238D01*
X95224761Y-96860476D01*
X95177142Y-96908095D01*
X95081904Y-96955714D01*
X94796190Y-96955714D01*
X94700952Y-96908095D01*
X94653333Y-96860476D01*
X94605714Y-96765238D01*
X94605714Y-96574761D01*
X94653333Y-96479523D01*
X94272380Y-96146190D02*
X94272380Y-95527142D01*
X94653333Y-95860476D01*
X94653333Y-95717619D01*
X94700952Y-95622380D01*
X94748571Y-95574761D01*
X94843809Y-95527142D01*
X95081904Y-95527142D01*
X95177142Y-95574761D01*
X95224761Y-95622380D01*
X95272380Y-95717619D01*
X95272380Y-96003333D01*
X95224761Y-96098571D01*
X95177142Y-96146190D01*
X94367619Y-95146190D02*
X94320000Y-95098571D01*
X94272380Y-95003333D01*
X94272380Y-94765238D01*
X94320000Y-94670000D01*
X94367619Y-94622380D01*
X94462857Y-94574761D01*
X94558095Y-94574761D01*
X94700952Y-94622380D01*
X95272380Y-95193809D01*
X95272380Y-94574761D01*
%TO.C,10k*%
X165552380Y-118705238D02*
X165552380Y-119276666D01*
X165552380Y-118990952D02*
X164552380Y-118990952D01*
X164695238Y-119086190D01*
X164790476Y-119181428D01*
X164838095Y-119276666D01*
X164552380Y-118086190D02*
X164552380Y-117990952D01*
X164600000Y-117895714D01*
X164647619Y-117848095D01*
X164742857Y-117800476D01*
X164933333Y-117752857D01*
X165171428Y-117752857D01*
X165361904Y-117800476D01*
X165457142Y-117848095D01*
X165504761Y-117895714D01*
X165552380Y-117990952D01*
X165552380Y-118086190D01*
X165504761Y-118181428D01*
X165457142Y-118229047D01*
X165361904Y-118276666D01*
X165171428Y-118324285D01*
X164933333Y-118324285D01*
X164742857Y-118276666D01*
X164647619Y-118229047D01*
X164600000Y-118181428D01*
X164552380Y-118086190D01*
X165552380Y-117324285D02*
X164552380Y-117324285D01*
X165171428Y-117229047D02*
X165552380Y-116943333D01*
X164885714Y-116943333D02*
X165266666Y-117324285D01*
%TO.C,1k*%
X153868380Y-78351047D02*
X153868380Y-78922476D01*
X153868380Y-78636761D02*
X152868380Y-78636761D01*
X153011238Y-78732000D01*
X153106476Y-78827238D01*
X153154095Y-78922476D01*
X153868380Y-77922476D02*
X152868380Y-77922476D01*
X153487428Y-77827238D02*
X153868380Y-77541523D01*
X153201714Y-77541523D02*
X153582666Y-77922476D01*
%TO.C,10k*%
X155392380Y-118705238D02*
X155392380Y-119276666D01*
X155392380Y-118990952D02*
X154392380Y-118990952D01*
X154535238Y-119086190D01*
X154630476Y-119181428D01*
X154678095Y-119276666D01*
X154392380Y-118086190D02*
X154392380Y-117990952D01*
X154440000Y-117895714D01*
X154487619Y-117848095D01*
X154582857Y-117800476D01*
X154773333Y-117752857D01*
X155011428Y-117752857D01*
X155201904Y-117800476D01*
X155297142Y-117848095D01*
X155344761Y-117895714D01*
X155392380Y-117990952D01*
X155392380Y-118086190D01*
X155344761Y-118181428D01*
X155297142Y-118229047D01*
X155201904Y-118276666D01*
X155011428Y-118324285D01*
X154773333Y-118324285D01*
X154582857Y-118276666D01*
X154487619Y-118229047D01*
X154440000Y-118181428D01*
X154392380Y-118086190D01*
X155392380Y-117324285D02*
X154392380Y-117324285D01*
X155011428Y-117229047D02*
X155392380Y-116943333D01*
X154725714Y-116943333D02*
X155106666Y-117324285D01*
X168092380Y-118705238D02*
X168092380Y-119276666D01*
X168092380Y-118990952D02*
X167092380Y-118990952D01*
X167235238Y-119086190D01*
X167330476Y-119181428D01*
X167378095Y-119276666D01*
X167092380Y-118086190D02*
X167092380Y-117990952D01*
X167140000Y-117895714D01*
X167187619Y-117848095D01*
X167282857Y-117800476D01*
X167473333Y-117752857D01*
X167711428Y-117752857D01*
X167901904Y-117800476D01*
X167997142Y-117848095D01*
X168044761Y-117895714D01*
X168092380Y-117990952D01*
X168092380Y-118086190D01*
X168044761Y-118181428D01*
X167997142Y-118229047D01*
X167901904Y-118276666D01*
X167711428Y-118324285D01*
X167473333Y-118324285D01*
X167282857Y-118276666D01*
X167187619Y-118229047D01*
X167140000Y-118181428D01*
X167092380Y-118086190D01*
X168092380Y-117324285D02*
X167092380Y-117324285D01*
X167711428Y-117229047D02*
X168092380Y-116943333D01*
X167425714Y-116943333D02*
X167806666Y-117324285D01*
%TO.C,74hc245*%
X149522380Y-100274047D02*
X149522380Y-99607380D01*
X150522380Y-100035952D01*
X149855714Y-98797857D02*
X150522380Y-98797857D01*
X149474761Y-99035952D02*
X150189047Y-99274047D01*
X150189047Y-98655000D01*
X150522380Y-98274047D02*
X149522380Y-98274047D01*
X150522380Y-97845476D02*
X149998571Y-97845476D01*
X149903333Y-97893095D01*
X149855714Y-97988333D01*
X149855714Y-98131190D01*
X149903333Y-98226428D01*
X149950952Y-98274047D01*
X150474761Y-96940714D02*
X150522380Y-97035952D01*
X150522380Y-97226428D01*
X150474761Y-97321666D01*
X150427142Y-97369285D01*
X150331904Y-97416904D01*
X150046190Y-97416904D01*
X149950952Y-97369285D01*
X149903333Y-97321666D01*
X149855714Y-97226428D01*
X149855714Y-97035952D01*
X149903333Y-96940714D01*
X149617619Y-96559761D02*
X149570000Y-96512142D01*
X149522380Y-96416904D01*
X149522380Y-96178809D01*
X149570000Y-96083571D01*
X149617619Y-96035952D01*
X149712857Y-95988333D01*
X149808095Y-95988333D01*
X149950952Y-96035952D01*
X150522380Y-96607380D01*
X150522380Y-95988333D01*
X149855714Y-95131190D02*
X150522380Y-95131190D01*
X149474761Y-95369285D02*
X150189047Y-95607380D01*
X150189047Y-94988333D01*
X149522380Y-94131190D02*
X149522380Y-94607380D01*
X149998571Y-94655000D01*
X149950952Y-94607380D01*
X149903333Y-94512142D01*
X149903333Y-94274047D01*
X149950952Y-94178809D01*
X149998571Y-94131190D01*
X150093809Y-94083571D01*
X150331904Y-94083571D01*
X150427142Y-94131190D01*
X150474761Y-94178809D01*
X150522380Y-94274047D01*
X150522380Y-94512142D01*
X150474761Y-94607380D01*
X150427142Y-94655000D01*
%TO.C,10k*%
X163012380Y-118705238D02*
X163012380Y-119276666D01*
X163012380Y-118990952D02*
X162012380Y-118990952D01*
X162155238Y-119086190D01*
X162250476Y-119181428D01*
X162298095Y-119276666D01*
X162012380Y-118086190D02*
X162012380Y-117990952D01*
X162060000Y-117895714D01*
X162107619Y-117848095D01*
X162202857Y-117800476D01*
X162393333Y-117752857D01*
X162631428Y-117752857D01*
X162821904Y-117800476D01*
X162917142Y-117848095D01*
X162964761Y-117895714D01*
X163012380Y-117990952D01*
X163012380Y-118086190D01*
X162964761Y-118181428D01*
X162917142Y-118229047D01*
X162821904Y-118276666D01*
X162631428Y-118324285D01*
X162393333Y-118324285D01*
X162202857Y-118276666D01*
X162107619Y-118229047D01*
X162060000Y-118181428D01*
X162012380Y-118086190D01*
X163012380Y-117324285D02*
X162012380Y-117324285D01*
X162631428Y-117229047D02*
X163012380Y-116943333D01*
X162345714Y-116943333D02*
X162726666Y-117324285D01*
%TO.C,74hc42*%
X123502380Y-99812857D02*
X123502380Y-99146190D01*
X124502380Y-99574761D01*
X123835714Y-98336666D02*
X124502380Y-98336666D01*
X123454761Y-98574761D02*
X124169047Y-98812857D01*
X124169047Y-98193809D01*
X124502380Y-97812857D02*
X123502380Y-97812857D01*
X124502380Y-97384285D02*
X123978571Y-97384285D01*
X123883333Y-97431904D01*
X123835714Y-97527142D01*
X123835714Y-97670000D01*
X123883333Y-97765238D01*
X123930952Y-97812857D01*
X124454761Y-96479523D02*
X124502380Y-96574761D01*
X124502380Y-96765238D01*
X124454761Y-96860476D01*
X124407142Y-96908095D01*
X124311904Y-96955714D01*
X124026190Y-96955714D01*
X123930952Y-96908095D01*
X123883333Y-96860476D01*
X123835714Y-96765238D01*
X123835714Y-96574761D01*
X123883333Y-96479523D01*
X123835714Y-95622380D02*
X124502380Y-95622380D01*
X123454761Y-95860476D02*
X124169047Y-96098571D01*
X124169047Y-95479523D01*
X123597619Y-95146190D02*
X123550000Y-95098571D01*
X123502380Y-95003333D01*
X123502380Y-94765238D01*
X123550000Y-94670000D01*
X123597619Y-94622380D01*
X123692857Y-94574761D01*
X123788095Y-94574761D01*
X123930952Y-94622380D01*
X124502380Y-95193809D01*
X124502380Y-94574761D01*
%TO.C,10k*%
X160472380Y-118705238D02*
X160472380Y-119276666D01*
X160472380Y-118990952D02*
X159472380Y-118990952D01*
X159615238Y-119086190D01*
X159710476Y-119181428D01*
X159758095Y-119276666D01*
X159472380Y-118086190D02*
X159472380Y-117990952D01*
X159520000Y-117895714D01*
X159567619Y-117848095D01*
X159662857Y-117800476D01*
X159853333Y-117752857D01*
X160091428Y-117752857D01*
X160281904Y-117800476D01*
X160377142Y-117848095D01*
X160424761Y-117895714D01*
X160472380Y-117990952D01*
X160472380Y-118086190D01*
X160424761Y-118181428D01*
X160377142Y-118229047D01*
X160281904Y-118276666D01*
X160091428Y-118324285D01*
X159853333Y-118324285D01*
X159662857Y-118276666D01*
X159567619Y-118229047D01*
X159520000Y-118181428D01*
X159472380Y-118086190D01*
X160472380Y-117324285D02*
X159472380Y-117324285D01*
X160091428Y-117229047D02*
X160472380Y-116943333D01*
X159805714Y-116943333D02*
X160186666Y-117324285D01*
X157932380Y-118705238D02*
X157932380Y-119276666D01*
X157932380Y-118990952D02*
X156932380Y-118990952D01*
X157075238Y-119086190D01*
X157170476Y-119181428D01*
X157218095Y-119276666D01*
X156932380Y-118086190D02*
X156932380Y-117990952D01*
X156980000Y-117895714D01*
X157027619Y-117848095D01*
X157122857Y-117800476D01*
X157313333Y-117752857D01*
X157551428Y-117752857D01*
X157741904Y-117800476D01*
X157837142Y-117848095D01*
X157884761Y-117895714D01*
X157932380Y-117990952D01*
X157932380Y-118086190D01*
X157884761Y-118181428D01*
X157837142Y-118229047D01*
X157741904Y-118276666D01*
X157551428Y-118324285D01*
X157313333Y-118324285D01*
X157122857Y-118276666D01*
X157027619Y-118229047D01*
X156980000Y-118181428D01*
X156932380Y-118086190D01*
X157932380Y-117324285D02*
X156932380Y-117324285D01*
X157551428Y-117229047D02*
X157932380Y-116943333D01*
X157265714Y-116943333D02*
X157646666Y-117324285D01*
X173172380Y-118705238D02*
X173172380Y-119276666D01*
X173172380Y-118990952D02*
X172172380Y-118990952D01*
X172315238Y-119086190D01*
X172410476Y-119181428D01*
X172458095Y-119276666D01*
X172172380Y-118086190D02*
X172172380Y-117990952D01*
X172220000Y-117895714D01*
X172267619Y-117848095D01*
X172362857Y-117800476D01*
X172553333Y-117752857D01*
X172791428Y-117752857D01*
X172981904Y-117800476D01*
X173077142Y-117848095D01*
X173124761Y-117895714D01*
X173172380Y-117990952D01*
X173172380Y-118086190D01*
X173124761Y-118181428D01*
X173077142Y-118229047D01*
X172981904Y-118276666D01*
X172791428Y-118324285D01*
X172553333Y-118324285D01*
X172362857Y-118276666D01*
X172267619Y-118229047D01*
X172220000Y-118181428D01*
X172172380Y-118086190D01*
X173172380Y-117324285D02*
X172172380Y-117324285D01*
X172791428Y-117229047D02*
X173172380Y-116943333D01*
X172505714Y-116943333D02*
X172886666Y-117324285D01*
X170632380Y-118705238D02*
X170632380Y-119276666D01*
X170632380Y-118990952D02*
X169632380Y-118990952D01*
X169775238Y-119086190D01*
X169870476Y-119181428D01*
X169918095Y-119276666D01*
X169632380Y-118086190D02*
X169632380Y-117990952D01*
X169680000Y-117895714D01*
X169727619Y-117848095D01*
X169822857Y-117800476D01*
X170013333Y-117752857D01*
X170251428Y-117752857D01*
X170441904Y-117800476D01*
X170537142Y-117848095D01*
X170584761Y-117895714D01*
X170632380Y-117990952D01*
X170632380Y-118086190D01*
X170584761Y-118181428D01*
X170537142Y-118229047D01*
X170441904Y-118276666D01*
X170251428Y-118324285D01*
X170013333Y-118324285D01*
X169822857Y-118276666D01*
X169727619Y-118229047D01*
X169680000Y-118181428D01*
X169632380Y-118086190D01*
X170632380Y-117324285D02*
X169632380Y-117324285D01*
X170251428Y-117229047D02*
X170632380Y-116943333D01*
X169965714Y-116943333D02*
X170346666Y-117324285D01*
D11*
%TO.C,74hc32*%
X95820000Y-98170000D02*
X95820000Y-99420000D01*
X95820000Y-94920000D02*
X95820000Y-96170000D01*
X113720000Y-99420000D02*
X113720000Y-94920000D01*
X95820000Y-99420000D02*
X113720000Y-99420000D01*
X113720000Y-94920000D02*
X95820000Y-94920000D01*
X95820000Y-98170000D02*
G75*
G03*
X95820000Y-96170000I0J1000000D01*
G01*
%TO.C,REF\u002A\u002A*%
X95220000Y-134600000D02*
X95220000Y-133270000D01*
X97820000Y-135930000D02*
X135980000Y-135930000D01*
X97820000Y-135930000D02*
X97820000Y-133270000D01*
X135980000Y-135930000D02*
X135980000Y-133270000D01*
X95220000Y-133270000D02*
X96550000Y-133270000D01*
X97820000Y-133270000D02*
X135980000Y-133270000D01*
%TO.C,10k*%
X165100000Y-122150000D02*
X165100000Y-121380000D01*
X166470000Y-121380000D02*
X166470000Y-114840000D01*
X166470000Y-114840000D02*
X163730000Y-114840000D01*
X163730000Y-114840000D02*
X163730000Y-121380000D01*
X163730000Y-121380000D02*
X166470000Y-121380000D01*
X165100000Y-114070000D02*
X165100000Y-114840000D01*
%TO.C,1k*%
X153416000Y-74192000D02*
X153416000Y-74962000D01*
X152046000Y-74962000D02*
X152046000Y-81502000D01*
X152046000Y-81502000D02*
X154786000Y-81502000D01*
X154786000Y-81502000D02*
X154786000Y-74962000D01*
X154786000Y-74962000D02*
X152046000Y-74962000D01*
X153416000Y-82272000D02*
X153416000Y-81502000D01*
%TO.C,REF\u002A\u002A*%
X137250000Y-66075000D02*
X137250000Y-63415000D01*
X111730000Y-64745000D02*
X111730000Y-63415000D01*
X111730000Y-63415000D02*
X113060000Y-63415000D01*
X114330000Y-66075000D02*
X137250000Y-66075000D01*
X114330000Y-63415000D02*
X137250000Y-63415000D01*
X114330000Y-66075000D02*
X114330000Y-63415000D01*
%TO.C,10k*%
X154940000Y-122150000D02*
X154940000Y-121380000D01*
X156310000Y-121380000D02*
X156310000Y-114840000D01*
X156310000Y-114840000D02*
X153570000Y-114840000D01*
X153570000Y-114840000D02*
X153570000Y-121380000D01*
X153570000Y-121380000D02*
X156310000Y-121380000D01*
X154940000Y-114070000D02*
X154940000Y-114840000D01*
X167640000Y-122150000D02*
X167640000Y-121380000D01*
X169010000Y-121380000D02*
X169010000Y-114840000D01*
X169010000Y-114840000D02*
X166270000Y-114840000D01*
X166270000Y-114840000D02*
X166270000Y-121380000D01*
X166270000Y-121380000D02*
X169010000Y-121380000D01*
X167640000Y-114070000D02*
X167640000Y-114840000D01*
%TO.C,74hc245*%
X176650000Y-102405000D02*
X176650000Y-91905000D01*
X176590000Y-94905000D02*
X151070000Y-94905000D01*
X176590000Y-99405000D02*
X176590000Y-94905000D01*
X151070000Y-98155000D02*
X151070000Y-99405000D01*
X151070000Y-99405000D02*
X176590000Y-99405000D01*
X151070000Y-94905000D02*
X151070000Y-96155000D01*
X151010000Y-91905000D02*
X151010000Y-102405000D01*
X176650000Y-91905000D02*
X151010000Y-91905000D01*
X151010000Y-102405000D02*
X176650000Y-102405000D01*
X151070000Y-98155000D02*
G75*
G03*
X151070000Y-96155000I0J1000000D01*
G01*
%TO.C,10k*%
X162560000Y-122150000D02*
X162560000Y-121380000D01*
X163930000Y-121380000D02*
X163930000Y-114840000D01*
X163930000Y-114840000D02*
X161190000Y-114840000D01*
X161190000Y-114840000D02*
X161190000Y-121380000D01*
X161190000Y-121380000D02*
X163930000Y-121380000D01*
X162560000Y-114070000D02*
X162560000Y-114840000D01*
%TO.C,REF\u002A\u002A*%
X163860000Y-135930000D02*
X186780000Y-135930000D01*
X161260000Y-133270000D02*
X162590000Y-133270000D01*
X161260000Y-134600000D02*
X161260000Y-133270000D01*
X163860000Y-135930000D02*
X163860000Y-133270000D01*
X186780000Y-135930000D02*
X186780000Y-133270000D01*
X163860000Y-133270000D02*
X186780000Y-133270000D01*
%TO.C,74hc42*%
X125050000Y-98170000D02*
X125050000Y-99420000D01*
X125050000Y-94920000D02*
X125050000Y-96170000D01*
X125050000Y-99420000D02*
X145490000Y-99420000D01*
X145490000Y-94920000D02*
X125050000Y-94920000D01*
X145490000Y-99420000D02*
X145490000Y-94920000D01*
X125050000Y-98170000D02*
G75*
G03*
X125050000Y-96170000I0J1000000D01*
G01*
%TO.C,10k*%
X160020000Y-122150000D02*
X160020000Y-121380000D01*
X161390000Y-121380000D02*
X161390000Y-114840000D01*
X161390000Y-114840000D02*
X158650000Y-114840000D01*
X158650000Y-114840000D02*
X158650000Y-121380000D01*
X158650000Y-121380000D02*
X161390000Y-121380000D01*
X160020000Y-114070000D02*
X160020000Y-114840000D01*
X157480000Y-122150000D02*
X157480000Y-121380000D01*
X158850000Y-121380000D02*
X158850000Y-114840000D01*
X158850000Y-114840000D02*
X156110000Y-114840000D01*
X156110000Y-114840000D02*
X156110000Y-121380000D01*
X156110000Y-121380000D02*
X158850000Y-121380000D01*
X157480000Y-114070000D02*
X157480000Y-114840000D01*
X172720000Y-122150000D02*
X172720000Y-121380000D01*
X174090000Y-121380000D02*
X174090000Y-114840000D01*
X174090000Y-114840000D02*
X171350000Y-114840000D01*
X171350000Y-114840000D02*
X171350000Y-121380000D01*
X171350000Y-121380000D02*
X174090000Y-121380000D01*
X172720000Y-114070000D02*
X172720000Y-114840000D01*
X170180000Y-122150000D02*
X170180000Y-121380000D01*
X171550000Y-121380000D02*
X171550000Y-114840000D01*
X171550000Y-114840000D02*
X168810000Y-114840000D01*
X168810000Y-114840000D02*
X168810000Y-121380000D01*
X168810000Y-121380000D02*
X171550000Y-121380000D01*
X170180000Y-114070000D02*
X170180000Y-114840000D01*
%TO.C,REF\u002A\u002A*%
X148620000Y-66075000D02*
X171540000Y-66075000D01*
X146020000Y-63415000D02*
X147350000Y-63415000D01*
X146020000Y-64745000D02*
X146020000Y-63415000D01*
X148620000Y-66075000D02*
X148620000Y-63415000D01*
X171540000Y-66075000D02*
X171540000Y-63415000D01*
X148620000Y-63415000D02*
X171540000Y-63415000D01*
X135860000Y-135930000D02*
X135860000Y-133330000D01*
X161380000Y-135930000D02*
X161380000Y-130730000D01*
X138460000Y-130730000D02*
X161380000Y-130730000D01*
X138460000Y-133330000D02*
X138460000Y-130730000D01*
X135860000Y-130730000D02*
X137190000Y-130730000D01*
X135860000Y-135930000D02*
X161380000Y-135930000D01*
X135860000Y-133330000D02*
X138460000Y-133330000D01*
X135860000Y-132060000D02*
X135860000Y-130730000D01*
%TD*%
M02*
