M48
; DRILL file {KiCad 6.0.11+dfsg-1} date ven 31 ott 2025, 09:44:44
; FORMAT={-:-/ absolute / inch / decimal}
; #@! TF.CreationDate,2025-10-31T09:44:44+01:00
; #@! TF.GenerationSoftware,Kicad,Pcbnew,6.0.11+dfsg-1
; #@! TF.FileFunction,Plated,1,2,PTH
FMAT,2
INCH
; #@! TA.AperFunction,Plated,PTH,ViaDrill
T1C0.0157
; #@! TA.AperFunction,Plated,PTH,ComponentDrill
T2C0.0315
; #@! TA.AperFunction,Plated,PTH,ComponentDrill
T3C0.0394
%
G90
G05
T1
X4.08Y-3.36
X4.575Y-4.075
X4.575Y-4.275
X4.7Y-3.3
X4.7Y-3.5
X4.75Y-3.3
X4.75Y-3.5
X4.8Y-3.3
X4.8Y-3.5
X5.4Y-2.7
X5.45Y-2.75
X5.5Y-2.8
X5.5012Y-4.7212
X5.8Y-3.3
X5.8Y-3.5
X5.85Y-3.3
X5.85Y-3.5
X5.9Y-3.3
X5.9Y-3.5
X5.96Y-3.36
T2
X3.8248Y-3.6756
X3.8248Y-3.9756
X3.9248Y-3.6756
X3.9248Y-3.9756
X4.0248Y-3.6756
X4.0248Y-3.9756
X4.1248Y-3.6756
X4.1248Y-3.9756
X4.2248Y-3.6756
X4.2248Y-3.9756
X4.3248Y-3.6756
X4.3248Y-3.9756
X4.4248Y-3.6756
X4.4248Y-3.9756
X4.9756Y-3.6756
X4.9756Y-3.9756
X5.0756Y-3.6756
X5.0756Y-3.9756
X5.1756Y-3.6756
X5.1756Y-3.9756
X5.2756Y-3.6756
X5.2756Y-3.9756
X5.3756Y-3.6756
X5.3756Y-3.9756
X5.4756Y-3.6756
X5.4756Y-3.9756
X5.5756Y-3.6756
X5.5756Y-3.9756
X5.6756Y-3.6756
X5.6756Y-3.9756
X6.0Y-3.675
X6.0Y-3.975
X6.04Y-2.88
X6.04Y-3.28
X6.1Y-3.675
X6.1Y-3.975
X6.1Y-4.45
X6.1Y-4.85
X6.2Y-3.675
X6.2Y-3.975
X6.2Y-4.45
X6.2Y-4.85
X6.3Y-3.675
X6.3Y-3.975
X6.3Y-4.45
X6.3Y-4.85
X6.4Y-3.675
X6.4Y-3.975
X6.4Y-4.45
X6.4Y-4.85
X6.5Y-3.675
X6.5Y-3.975
X6.5Y-4.45
X6.5Y-4.85
X6.6Y-3.675
X6.6Y-3.975
X6.6Y-4.45
X6.6Y-4.85
X6.7Y-3.675
X6.7Y-3.975
X6.7Y-4.45
X6.7Y-4.85
X6.8Y-3.675
X6.8Y-3.975
X6.8Y-4.45
X6.8Y-4.85
X6.9Y-3.675
X6.9Y-3.975
T3
X3.8012Y-5.2992
X3.9012Y-5.2992
X4.0012Y-5.2992
X4.1012Y-5.2992
X4.2012Y-5.2992
X4.3012Y-5.2992
X4.4012Y-5.2992
X4.4512Y-2.549
X4.5012Y-5.2992
X4.5512Y-2.549
X4.6012Y-5.2992
X4.6512Y-2.549
X4.7012Y-5.2992
X4.7512Y-2.549
X4.8012Y-5.2992
X4.8512Y-2.549
X4.9012Y-5.2992
X4.9512Y-2.549
X5.0012Y-5.2992
X5.0512Y-2.549
X5.1012Y-5.2992
X5.1512Y-2.549
X5.2012Y-5.2992
X5.2512Y-2.549
X5.3012Y-5.2992
X5.3512Y-2.549
X5.4012Y-5.1992
X5.4012Y-5.2992
X5.5012Y-5.1992
X5.5012Y-5.2992
X5.6012Y-5.1992
X5.6012Y-5.2992
X5.7012Y-5.1992
X5.7012Y-5.2992
X5.8012Y-2.549
X5.8012Y-5.1992
X5.8012Y-5.2992
X5.9012Y-2.549
X5.9012Y-5.1992
X5.9012Y-5.2992
X6.0012Y-2.549
X6.0012Y-5.1992
X6.0012Y-5.2992
X6.1012Y-2.549
X6.1012Y-5.1992
X6.1012Y-5.2992
X6.2012Y-2.549
X6.2012Y-5.1992
X6.2012Y-5.2992
X6.3012Y-2.549
X6.3012Y-5.1992
X6.3012Y-5.2992
X6.4012Y-2.549
X6.4012Y-5.2992
X6.5012Y-2.549
X6.5012Y-5.2992
X6.6012Y-2.549
X6.6012Y-5.2992
X6.7012Y-2.549
X6.7012Y-5.2992
X6.8012Y-5.2992
X6.9012Y-5.2992
X7.0012Y-5.2992
X7.1012Y-5.2992
X7.2012Y-5.2992
X7.3012Y-5.2992
T0
M30
