%TF.GenerationSoftware,KiCad,Pcbnew,6.0.11+dfsg-1*%
%TF.CreationDate,2025-10-31T09:44:41+01:00*%
%TF.ProjectId,basematrice,62617365-6d61-4747-9269-63652e6b6963,rev?*%
%TF.SameCoordinates,Original*%
%TF.FileFunction,Copper,L1,Top*%
%TF.FilePolarity,Positive*%
%FSLAX46Y46*%
G04 Gerber Fmt 4.6, Leading zero omitted, Abs format (unit mm)*
G04 Created by KiCad (PCBNEW 6.0.11+dfsg-1) date 2025-10-31 09:44:41*
%MOMM*%
%LPD*%
G01*
G04 APERTURE LIST*
%TA.AperFunction,ComponentPad*%
%ADD10R,1.600000X2.400000*%
%TD*%
%TA.AperFunction,ComponentPad*%
%ADD11O,1.600000X2.400000*%
%TD*%
%TA.AperFunction,ComponentPad*%
%ADD12R,1.700000X1.700000*%
%TD*%
%TA.AperFunction,ComponentPad*%
%ADD13O,1.700000X1.700000*%
%TD*%
%TA.AperFunction,ComponentPad*%
%ADD14C,1.600000*%
%TD*%
%TA.AperFunction,ComponentPad*%
%ADD15O,1.600000X1.600000*%
%TD*%
%TA.AperFunction,ViaPad*%
%ADD16C,0.800000*%
%TD*%
%TA.AperFunction,ViaPad*%
%ADD17C,1.000000*%
%TD*%
%TA.AperFunction,Conductor*%
%ADD18C,0.500000*%
%TD*%
%TA.AperFunction,Conductor*%
%ADD19C,1.000000*%
%TD*%
G04 APERTURE END LIST*
D10*
%TO.P,74hc32,1*%
%TO.N,N/C*%
X97150000Y-100980000D03*
D11*
%TO.P,74hc32,2*%
X99690000Y-100980000D03*
%TO.P,74hc32,3*%
X102230000Y-100980000D03*
%TO.P,74hc32,4*%
X104770000Y-100980000D03*
%TO.P,74hc32,5*%
X107310000Y-100980000D03*
%TO.P,74hc32,6*%
X109850000Y-100980000D03*
%TO.P,74hc32,7*%
X112390000Y-100980000D03*
%TO.P,74hc32,8*%
X112390000Y-93360000D03*
%TO.P,74hc32,9*%
X109850000Y-93360000D03*
%TO.P,74hc32,10*%
X107310000Y-93360000D03*
%TO.P,74hc32,11*%
X104770000Y-93360000D03*
%TO.P,74hc32,12*%
X102230000Y-93360000D03*
%TO.P,74hc32,13*%
X99690000Y-93360000D03*
%TO.P,74hc32,14*%
X97150000Y-93360000D03*
%TD*%
D12*
%TO.P,REF\u002A\u002A,1*%
%TO.N,N/C*%
X96550000Y-134600000D03*
D13*
%TO.P,REF\u002A\u002A,2*%
X99090000Y-134600000D03*
%TO.P,REF\u002A\u002A,3*%
X101630000Y-134600000D03*
%TO.P,REF\u002A\u002A,4*%
X104170000Y-134600000D03*
%TO.P,REF\u002A\u002A,5*%
X106710000Y-134600000D03*
%TO.P,REF\u002A\u002A,6*%
X109250000Y-134600000D03*
%TO.P,REF\u002A\u002A,7*%
X111790000Y-134600000D03*
%TO.P,REF\u002A\u002A,8*%
X114330000Y-134600000D03*
%TO.P,REF\u002A\u002A,9*%
X116870000Y-134600000D03*
%TO.P,REF\u002A\u002A,10*%
X119410000Y-134600000D03*
%TO.P,REF\u002A\u002A,11*%
X121950000Y-134600000D03*
%TO.P,REF\u002A\u002A,12*%
X124490000Y-134600000D03*
%TO.P,REF\u002A\u002A,13*%
X127030000Y-134600000D03*
%TO.P,REF\u002A\u002A,14*%
X129570000Y-134600000D03*
%TO.P,REF\u002A\u002A,15*%
X132110000Y-134600000D03*
%TO.P,REF\u002A\u002A,16*%
X134650000Y-134600000D03*
%TD*%
D14*
%TO.P,10k,1*%
%TO.N,N/C*%
X165100000Y-123190000D03*
D15*
%TO.P,10k,2*%
X165100000Y-113030000D03*
%TD*%
D14*
%TO.P,1k,1*%
%TO.N,N/C*%
X153416000Y-73152000D03*
D15*
%TO.P,1k,2*%
X153416000Y-83312000D03*
%TD*%
D12*
%TO.P,REF\u002A\u002A,1*%
%TO.N,N/C*%
X113060000Y-64745000D03*
D13*
%TO.P,REF\u002A\u002A,2*%
X115600000Y-64745000D03*
%TO.P,REF\u002A\u002A,3*%
X118140000Y-64745000D03*
%TO.P,REF\u002A\u002A,4*%
X120680000Y-64745000D03*
%TO.P,REF\u002A\u002A,5*%
X123220000Y-64745000D03*
%TO.P,REF\u002A\u002A,6*%
X125760000Y-64745000D03*
%TO.P,REF\u002A\u002A,7*%
X128300000Y-64745000D03*
%TO.P,REF\u002A\u002A,8*%
X130840000Y-64745000D03*
%TO.P,REF\u002A\u002A,9*%
X133380000Y-64745000D03*
%TO.P,REF\u002A\u002A,10*%
X135920000Y-64745000D03*
%TD*%
D14*
%TO.P,10k,1*%
%TO.N,N/C*%
X154940000Y-123190000D03*
D15*
%TO.P,10k,2*%
X154940000Y-113030000D03*
%TD*%
D14*
%TO.P,10k,1*%
%TO.N,N/C*%
X167640000Y-123190000D03*
D15*
%TO.P,10k,2*%
X167640000Y-113030000D03*
%TD*%
D10*
%TO.P,74hc245,1*%
%TO.N,N/C*%
X152400000Y-100965000D03*
D11*
%TO.P,74hc245,2*%
X154940000Y-100965000D03*
%TO.P,74hc245,3*%
X157480000Y-100965000D03*
%TO.P,74hc245,4*%
X160020000Y-100965000D03*
%TO.P,74hc245,5*%
X162560000Y-100965000D03*
%TO.P,74hc245,6*%
X165100000Y-100965000D03*
%TO.P,74hc245,7*%
X167640000Y-100965000D03*
%TO.P,74hc245,8*%
X170180000Y-100965000D03*
%TO.P,74hc245,9*%
X172720000Y-100965000D03*
%TO.P,74hc245,10*%
X175260000Y-100965000D03*
%TO.P,74hc245,11*%
X175260000Y-93345000D03*
%TO.P,74hc245,12*%
X172720000Y-93345000D03*
%TO.P,74hc245,13*%
X170180000Y-93345000D03*
%TO.P,74hc245,14*%
X167640000Y-93345000D03*
%TO.P,74hc245,15*%
X165100000Y-93345000D03*
%TO.P,74hc245,16*%
X162560000Y-93345000D03*
%TO.P,74hc245,17*%
X160020000Y-93345000D03*
%TO.P,74hc245,18*%
X157480000Y-93345000D03*
%TO.P,74hc245,19*%
X154940000Y-93345000D03*
%TO.P,74hc245,20*%
X152400000Y-93345000D03*
%TD*%
D14*
%TO.P,10k,1*%
%TO.N,N/C*%
X162560000Y-123190000D03*
D15*
%TO.P,10k,2*%
X162560000Y-113030000D03*
%TD*%
D12*
%TO.P,REF\u002A\u002A,1*%
%TO.N,N/C*%
X162590000Y-134600000D03*
D13*
%TO.P,REF\u002A\u002A,2*%
X165130000Y-134600000D03*
%TO.P,REF\u002A\u002A,3*%
X167670000Y-134600000D03*
%TO.P,REF\u002A\u002A,4*%
X170210000Y-134600000D03*
%TO.P,REF\u002A\u002A,5*%
X172750000Y-134600000D03*
%TO.P,REF\u002A\u002A,6*%
X175290000Y-134600000D03*
%TO.P,REF\u002A\u002A,7*%
X177830000Y-134600000D03*
%TO.P,REF\u002A\u002A,8*%
X180370000Y-134600000D03*
%TO.P,REF\u002A\u002A,9*%
X182910000Y-134600000D03*
%TO.P,REF\u002A\u002A,10*%
X185450000Y-134600000D03*
%TD*%
D10*
%TO.P,74hc42,1*%
%TO.N,N/C*%
X126380000Y-100980000D03*
D11*
%TO.P,74hc42,2*%
X128920000Y-100980000D03*
%TO.P,74hc42,3*%
X131460000Y-100980000D03*
%TO.P,74hc42,4*%
X134000000Y-100980000D03*
%TO.P,74hc42,5*%
X136540000Y-100980000D03*
%TO.P,74hc42,6*%
X139080000Y-100980000D03*
%TO.P,74hc42,7*%
X141620000Y-100980000D03*
%TO.P,74hc42,8*%
X144160000Y-100980000D03*
%TO.P,74hc42,9*%
X144160000Y-93360000D03*
%TO.P,74hc42,10*%
X141620000Y-93360000D03*
%TO.P,74hc42,11*%
X139080000Y-93360000D03*
%TO.P,74hc42,12*%
X136540000Y-93360000D03*
%TO.P,74hc42,13*%
X134000000Y-93360000D03*
%TO.P,74hc42,14*%
X131460000Y-93360000D03*
%TO.P,74hc42,15*%
X128920000Y-93360000D03*
%TO.P,74hc42,16*%
X126380000Y-93360000D03*
%TD*%
D14*
%TO.P,10k,1*%
%TO.N,N/C*%
X160020000Y-123190000D03*
D15*
%TO.P,10k,2*%
X160020000Y-113030000D03*
%TD*%
D14*
%TO.P,10k,1*%
%TO.N,N/C*%
X157480000Y-123190000D03*
D15*
%TO.P,10k,2*%
X157480000Y-113030000D03*
%TD*%
D14*
%TO.P,10k,1*%
%TO.N,N/C*%
X172720000Y-123190000D03*
D15*
%TO.P,10k,2*%
X172720000Y-113030000D03*
%TD*%
D14*
%TO.P,10k,1*%
%TO.N,N/C*%
X170180000Y-123190000D03*
D15*
%TO.P,10k,2*%
X170180000Y-113030000D03*
%TD*%
D12*
%TO.P,REF\u002A\u002A,1*%
%TO.N,N/C*%
X147350000Y-64745000D03*
D13*
%TO.P,REF\u002A\u002A,2*%
X149890000Y-64745000D03*
%TO.P,REF\u002A\u002A,3*%
X152430000Y-64745000D03*
%TO.P,REF\u002A\u002A,4*%
X154970000Y-64745000D03*
%TO.P,REF\u002A\u002A,5*%
X157510000Y-64745000D03*
%TO.P,REF\u002A\u002A,6*%
X160050000Y-64745000D03*
%TO.P,REF\u002A\u002A,7*%
X162590000Y-64745000D03*
%TO.P,REF\u002A\u002A,8*%
X165130000Y-64745000D03*
%TO.P,REF\u002A\u002A,9*%
X167670000Y-64745000D03*
%TO.P,REF\u002A\u002A,10*%
X170210000Y-64745000D03*
%TD*%
D12*
%TO.P,REF\u002A\u002A,1*%
%TO.N,N/C*%
X137190000Y-132060000D03*
D13*
%TO.P,REF\u002A\u002A,2*%
X137190000Y-134600000D03*
%TO.P,REF\u002A\u002A,3*%
X139730000Y-132060000D03*
%TO.P,REF\u002A\u002A,4*%
X139730000Y-134600000D03*
%TO.P,REF\u002A\u002A,5*%
X142270000Y-132060000D03*
%TO.P,REF\u002A\u002A,6*%
X142270000Y-134600000D03*
%TO.P,REF\u002A\u002A,7*%
X144810000Y-132060000D03*
%TO.P,REF\u002A\u002A,8*%
X144810000Y-134600000D03*
%TO.P,REF\u002A\u002A,9*%
X147350000Y-132060000D03*
%TO.P,REF\u002A\u002A,10*%
X147350000Y-134600000D03*
%TO.P,REF\u002A\u002A,11*%
X149890000Y-132060000D03*
%TO.P,REF\u002A\u002A,12*%
X149890000Y-134600000D03*
%TO.P,REF\u002A\u002A,13*%
X152430000Y-132060000D03*
%TO.P,REF\u002A\u002A,14*%
X152430000Y-134600000D03*
%TO.P,REF\u002A\u002A,15*%
X154970000Y-132060000D03*
%TO.P,REF\u002A\u002A,16*%
X154970000Y-134600000D03*
%TO.P,REF\u002A\u002A,17*%
X157510000Y-132060000D03*
%TO.P,REF\u002A\u002A,18*%
X157510000Y-134600000D03*
%TO.P,REF\u002A\u002A,19*%
X160050000Y-132060000D03*
%TO.P,REF\u002A\u002A,20*%
X160050000Y-134600000D03*
%TD*%
D16*
%TO.N,*%
X116205000Y-103505000D03*
X119380000Y-88900000D03*
X121920000Y-83820000D03*
X138430000Y-69850000D03*
X148590000Y-88900000D03*
X121920000Y-88900000D03*
X116205000Y-108585000D03*
X148590000Y-83820000D03*
X103632000Y-85344000D03*
X147320000Y-88900000D03*
X120650000Y-88900000D03*
X149860000Y-88900000D03*
X137160000Y-68580000D03*
X149860000Y-83820000D03*
X151384000Y-85344000D03*
X120650000Y-83820000D03*
X147320000Y-83820000D03*
X139700000Y-71120000D03*
X119380000Y-83820000D03*
D17*
X139730000Y-119918000D03*
%TD*%
D18*
%TO.N,*%
X172720000Y-113030000D02*
X172720000Y-110744000D01*
X170210000Y-66010000D02*
X170210000Y-64745000D01*
X172720000Y-110744000D02*
X189230000Y-110744000D01*
X189230000Y-110744000D02*
X189230000Y-80010000D01*
X189230000Y-80010000D02*
X187960000Y-78740000D01*
X187960000Y-78740000D02*
X170180000Y-78740000D01*
X170180000Y-78740000D02*
X170180000Y-66040000D01*
X170180000Y-66040000D02*
X170210000Y-66010000D01*
X102230000Y-86746000D02*
X102230000Y-93360000D01*
X186690000Y-82550000D02*
X186690000Y-108712000D01*
X166370000Y-82550000D02*
X165608000Y-81788000D01*
X159004000Y-82296000D02*
X159004000Y-74676000D01*
X149860000Y-88900000D02*
X149860000Y-83820000D01*
X136540000Y-95870000D02*
X136540000Y-93360000D01*
X130586000Y-90424000D02*
X131460000Y-91298000D01*
X104140000Y-97155000D02*
X132080000Y-97155000D01*
X160050000Y-68455500D02*
X164084000Y-72489500D01*
X168656000Y-79756000D02*
X168656000Y-70104000D01*
X167640000Y-81280000D02*
X185420000Y-81280000D01*
X185420000Y-81280000D02*
X186690000Y-82550000D01*
X154940000Y-113030000D02*
X154940000Y-103632000D01*
D19*
X139730000Y-119918000D02*
X139730000Y-123414000D01*
D18*
X134000000Y-95235000D02*
X134000000Y-93360000D01*
X179070000Y-87630000D02*
X164338000Y-87630000D01*
X147320000Y-88900000D02*
X147320000Y-83820000D01*
X119380000Y-88900000D02*
X119380000Y-83820000D01*
X93345000Y-97155000D02*
X94615000Y-95885000D01*
X159004000Y-74676000D02*
X152430000Y-68102000D01*
X165608000Y-71628000D02*
X162590000Y-68610000D01*
X182880000Y-83820000D02*
X184150000Y-85090000D01*
X132110000Y-124490000D02*
X124460000Y-116840000D01*
X168656000Y-70104000D02*
X167640000Y-69088000D01*
X162590000Y-68610000D02*
X162590000Y-64745000D01*
X181610000Y-86360000D02*
X165100000Y-86360000D01*
X165608000Y-83820000D02*
X182880000Y-83820000D01*
X186690000Y-80010000D02*
X168910000Y-80010000D01*
X165130000Y-64745000D02*
X165130000Y-69118000D01*
D19*
X139730000Y-116870000D02*
X139730000Y-123414000D01*
D18*
X131460000Y-91298000D02*
X131460000Y-93360000D01*
X162560000Y-73660000D02*
X157480000Y-68580000D01*
X146050000Y-96520000D02*
X146050000Y-80010000D01*
X165608000Y-81788000D02*
X165608000Y-71628000D01*
X128920000Y-93360000D02*
X128920000Y-91455000D01*
X187960000Y-81280000D02*
X186690000Y-80010000D01*
D19*
X150495000Y-93345000D02*
X148590000Y-95250000D01*
D18*
X93345000Y-114935000D02*
X93345000Y-97155000D01*
X167640000Y-69088000D02*
X167640000Y-64775000D01*
X182880000Y-105664000D02*
X182880000Y-86360000D01*
X109850000Y-98430000D02*
X109855000Y-98425000D01*
D19*
X139760000Y-116840000D02*
X139730000Y-116870000D01*
D18*
X151384000Y-85344000D02*
X154940000Y-85344000D01*
X157510000Y-134600000D02*
X158750000Y-133360000D01*
X157480000Y-113030000D02*
X157480000Y-104648000D01*
X170180000Y-109728000D02*
X187960000Y-109728000D01*
X162560000Y-106680000D02*
X162560000Y-113030000D01*
X187960000Y-109728000D02*
X187960000Y-81280000D01*
X182880000Y-86360000D02*
X181610000Y-85090000D01*
X160020000Y-105664000D02*
X182880000Y-105664000D01*
X109855000Y-98425000D02*
X133985000Y-98425000D01*
X160020000Y-113030000D02*
X160020000Y-105664000D01*
X157480000Y-68580000D02*
X157480000Y-64775000D01*
X170180000Y-113030000D02*
X170180000Y-109728000D01*
X167132000Y-71120000D02*
X167132000Y-80772000D01*
X139080000Y-89550000D02*
X135890000Y-86360000D01*
X164084000Y-82296000D02*
X165608000Y-83820000D01*
X165100000Y-113030000D02*
X165100000Y-107696000D01*
X109850000Y-100980000D02*
X109850000Y-98430000D01*
D19*
X148590000Y-95250000D02*
X148590000Y-104140000D01*
X152400000Y-93345000D02*
X150495000Y-93345000D01*
D18*
X146050000Y-80010000D02*
X139700000Y-73660000D01*
X141620000Y-93360000D02*
X141620000Y-78120000D01*
X160050000Y-64745000D02*
X160050000Y-68455500D01*
X138430000Y-73660000D02*
X138430000Y-69850000D01*
X154940000Y-85344000D02*
X154940000Y-93345000D01*
X141620000Y-100980000D02*
X141620000Y-98410000D01*
X102230000Y-99065000D02*
X104140000Y-97155000D01*
X132110000Y-134600000D02*
X132110000Y-124490000D01*
X139080000Y-93360000D02*
X139080000Y-89550000D01*
X104770000Y-92080000D02*
X106426000Y-90424000D01*
X104770000Y-93360000D02*
X104770000Y-92080000D01*
X152430000Y-68102000D02*
X152430000Y-64745000D01*
X165100000Y-86360000D02*
X160528000Y-81788000D01*
X133985000Y-98425000D02*
X136540000Y-95870000D01*
X148590000Y-88900000D02*
X148590000Y-83820000D01*
D19*
X139730000Y-123414000D02*
X139730000Y-132060000D01*
D18*
X185420000Y-83820000D02*
X184150000Y-82550000D01*
X164338000Y-87630000D02*
X159004000Y-82296000D01*
X132080000Y-97155000D02*
X134000000Y-95235000D01*
X144160000Y-93360000D02*
X144160000Y-79390000D01*
X149860000Y-96520000D02*
X154940000Y-96520000D01*
X141620000Y-98410000D02*
X143510000Y-96520000D01*
X154940000Y-103632000D02*
X180340000Y-103632000D01*
X103632000Y-85344000D02*
X102230000Y-86746000D01*
X160528000Y-74168000D02*
X154970000Y-68610000D01*
X165100000Y-107696000D02*
X185420000Y-107696000D01*
X99690000Y-95880000D02*
X99690000Y-93360000D01*
X141620000Y-78120000D02*
X137160000Y-73660000D01*
D19*
X148590000Y-104140000D02*
X139730000Y-113000000D01*
D18*
X180340000Y-103632000D02*
X180340000Y-88900000D01*
D19*
X139730000Y-132060000D02*
X139730000Y-134600000D01*
D18*
X95250000Y-116840000D02*
X93345000Y-114935000D01*
X113665000Y-91440000D02*
X112390000Y-92715000D01*
X128905000Y-91440000D02*
X113665000Y-91440000D01*
X137160000Y-73660000D02*
X137160000Y-68580000D01*
X185420000Y-107696000D02*
X185420000Y-83820000D01*
X120650000Y-88900000D02*
X120650000Y-83820000D01*
X164084000Y-72489500D02*
X164084000Y-82296000D01*
X168910000Y-80010000D02*
X168656000Y-79756000D01*
X165130000Y-69118000D02*
X167132000Y-71120000D01*
X128920000Y-91455000D02*
X128905000Y-91440000D01*
X184150000Y-85090000D02*
X184150000Y-106680000D01*
X158750000Y-133360000D02*
X158750000Y-129540000D01*
X167132000Y-80772000D02*
X167640000Y-81280000D01*
X94615000Y-95885000D02*
X99695000Y-95885000D01*
X154940000Y-96520000D02*
X154940000Y-93345000D01*
X186690000Y-108712000D02*
X167640000Y-108712000D01*
X165354000Y-85090000D02*
X162560000Y-82296000D01*
X167640000Y-64775000D02*
X167670000Y-64745000D01*
X157480000Y-104648000D02*
X181610000Y-104648000D01*
X106426000Y-90424000D02*
X130586000Y-90424000D01*
X181610000Y-85090000D02*
X165354000Y-85090000D01*
X116205000Y-108585000D02*
X116205000Y-103505000D01*
X180340000Y-88900000D02*
X179070000Y-87630000D01*
X149860000Y-129540000D02*
X149860000Y-96520000D01*
D19*
X139730000Y-113000000D02*
X139730000Y-116870000D01*
D18*
X160528000Y-81788000D02*
X160528000Y-74168000D01*
X184150000Y-82550000D02*
X166370000Y-82550000D01*
X121920000Y-83820000D02*
X121920000Y-88900000D01*
X99695000Y-95885000D02*
X99690000Y-95880000D01*
X102230000Y-100980000D02*
X102230000Y-99065000D01*
X162560000Y-82296000D02*
X162560000Y-73660000D01*
X181610000Y-104648000D02*
X181610000Y-86360000D01*
X124460000Y-116840000D02*
X95250000Y-116840000D01*
X112390000Y-92715000D02*
X112390000Y-93360000D01*
X135890000Y-64775000D02*
X135920000Y-64745000D01*
X135890000Y-86360000D02*
X135890000Y-64775000D01*
X139700000Y-73660000D02*
X139700000Y-71120000D01*
X144160000Y-79390000D02*
X138430000Y-73660000D01*
X167640000Y-108712000D02*
X167640000Y-113030000D01*
X143510000Y-96520000D02*
X146050000Y-96520000D01*
X157480000Y-64775000D02*
X157510000Y-64745000D01*
X154970000Y-68610000D02*
X154970000Y-64745000D01*
X184150000Y-106680000D02*
X162560000Y-106680000D01*
X158750000Y-129540000D02*
X149860000Y-129540000D01*
%TD*%
M02*
