%TF.GenerationSoftware,KiCad,Pcbnew,6.0.11+dfsg-1*%
%TF.CreationDate,2025-10-31T09:44:41+01:00*%
%TF.ProjectId,basematrice,62617365-6d61-4747-9269-63652e6b6963,rev?*%
%TF.SameCoordinates,Original*%
%TF.FileFunction,Soldermask,Bot*%
%TF.FilePolarity,Negative*%
%FSLAX46Y46*%
G04 Gerber Fmt 4.6, Leading zero omitted, Abs format (unit mm)*
G04 Created by KiCad (PCBNEW 6.0.11+dfsg-1) date 2025-10-31 09:44:41*
%MOMM*%
%LPD*%
G01*
G04 APERTURE LIST*
%ADD10R,1.600000X2.400000*%
%ADD11O,1.600000X2.400000*%
%ADD12R,1.700000X1.700000*%
%ADD13O,1.700000X1.700000*%
%ADD14C,1.600000*%
%ADD15O,1.600000X1.600000*%
G04 APERTURE END LIST*
D10*
%TO.C,74hc32*%
X97150000Y-100980000D03*
D11*
X99690000Y-100980000D03*
X102230000Y-100980000D03*
X104770000Y-100980000D03*
X107310000Y-100980000D03*
X109850000Y-100980000D03*
X112390000Y-100980000D03*
X112390000Y-93360000D03*
X109850000Y-93360000D03*
X107310000Y-93360000D03*
X104770000Y-93360000D03*
X102230000Y-93360000D03*
X99690000Y-93360000D03*
X97150000Y-93360000D03*
%TD*%
D12*
%TO.C,REF\u002A\u002A*%
X96550000Y-134600000D03*
D13*
X99090000Y-134600000D03*
X101630000Y-134600000D03*
X104170000Y-134600000D03*
X106710000Y-134600000D03*
X109250000Y-134600000D03*
X111790000Y-134600000D03*
X114330000Y-134600000D03*
X116870000Y-134600000D03*
X119410000Y-134600000D03*
X121950000Y-134600000D03*
X124490000Y-134600000D03*
X127030000Y-134600000D03*
X129570000Y-134600000D03*
X132110000Y-134600000D03*
X134650000Y-134600000D03*
%TD*%
D14*
%TO.C,10k*%
X165100000Y-123190000D03*
D15*
X165100000Y-113030000D03*
%TD*%
D14*
%TO.C,1k*%
X153416000Y-73152000D03*
D15*
X153416000Y-83312000D03*
%TD*%
D12*
%TO.C,REF\u002A\u002A*%
X113060000Y-64745000D03*
D13*
X115600000Y-64745000D03*
X118140000Y-64745000D03*
X120680000Y-64745000D03*
X123220000Y-64745000D03*
X125760000Y-64745000D03*
X128300000Y-64745000D03*
X130840000Y-64745000D03*
X133380000Y-64745000D03*
X135920000Y-64745000D03*
%TD*%
D14*
%TO.C,10k*%
X154940000Y-123190000D03*
D15*
X154940000Y-113030000D03*
%TD*%
D14*
%TO.C,10k*%
X167640000Y-123190000D03*
D15*
X167640000Y-113030000D03*
%TD*%
D10*
%TO.C,74hc245*%
X152400000Y-100965000D03*
D11*
X154940000Y-100965000D03*
X157480000Y-100965000D03*
X160020000Y-100965000D03*
X162560000Y-100965000D03*
X165100000Y-100965000D03*
X167640000Y-100965000D03*
X170180000Y-100965000D03*
X172720000Y-100965000D03*
X175260000Y-100965000D03*
X175260000Y-93345000D03*
X172720000Y-93345000D03*
X170180000Y-93345000D03*
X167640000Y-93345000D03*
X165100000Y-93345000D03*
X162560000Y-93345000D03*
X160020000Y-93345000D03*
X157480000Y-93345000D03*
X154940000Y-93345000D03*
X152400000Y-93345000D03*
%TD*%
D14*
%TO.C,10k*%
X162560000Y-123190000D03*
D15*
X162560000Y-113030000D03*
%TD*%
D12*
%TO.C,REF\u002A\u002A*%
X162590000Y-134600000D03*
D13*
X165130000Y-134600000D03*
X167670000Y-134600000D03*
X170210000Y-134600000D03*
X172750000Y-134600000D03*
X175290000Y-134600000D03*
X177830000Y-134600000D03*
X180370000Y-134600000D03*
X182910000Y-134600000D03*
X185450000Y-134600000D03*
%TD*%
D10*
%TO.C,74hc42*%
X126380000Y-100980000D03*
D11*
X128920000Y-100980000D03*
X131460000Y-100980000D03*
X134000000Y-100980000D03*
X136540000Y-100980000D03*
X139080000Y-100980000D03*
X141620000Y-100980000D03*
X144160000Y-100980000D03*
X144160000Y-93360000D03*
X141620000Y-93360000D03*
X139080000Y-93360000D03*
X136540000Y-93360000D03*
X134000000Y-93360000D03*
X131460000Y-93360000D03*
X128920000Y-93360000D03*
X126380000Y-93360000D03*
%TD*%
D14*
%TO.C,10k*%
X160020000Y-123190000D03*
D15*
X160020000Y-113030000D03*
%TD*%
D14*
%TO.C,10k*%
X157480000Y-123190000D03*
D15*
X157480000Y-113030000D03*
%TD*%
D14*
%TO.C,10k*%
X172720000Y-123190000D03*
D15*
X172720000Y-113030000D03*
%TD*%
D14*
%TO.C,10k*%
X170180000Y-123190000D03*
D15*
X170180000Y-113030000D03*
%TD*%
D12*
%TO.C,REF\u002A\u002A*%
X147350000Y-64745000D03*
D13*
X149890000Y-64745000D03*
X152430000Y-64745000D03*
X154970000Y-64745000D03*
X157510000Y-64745000D03*
X160050000Y-64745000D03*
X162590000Y-64745000D03*
X165130000Y-64745000D03*
X167670000Y-64745000D03*
X170210000Y-64745000D03*
%TD*%
D12*
%TO.C,REF\u002A\u002A*%
X137190000Y-132060000D03*
D13*
X137190000Y-134600000D03*
X139730000Y-132060000D03*
X139730000Y-134600000D03*
X142270000Y-132060000D03*
X142270000Y-134600000D03*
X144810000Y-132060000D03*
X144810000Y-134600000D03*
X147350000Y-132060000D03*
X147350000Y-134600000D03*
X149890000Y-132060000D03*
X149890000Y-134600000D03*
X152430000Y-132060000D03*
X152430000Y-134600000D03*
X154970000Y-132060000D03*
X154970000Y-134600000D03*
X157510000Y-132060000D03*
X157510000Y-134600000D03*
X160050000Y-132060000D03*
X160050000Y-134600000D03*
%TD*%
M02*
