%TF.GenerationSoftware,KiCad,Pcbnew,6.0.11+dfsg-1*%
%TF.CreationDate,2026-01-02T12:46:00+01:00*%
%TF.ProjectId,6750seriale,36373530-7365-4726-9961-6c652e6b6963,rev?*%
%TF.SameCoordinates,Original*%
%TF.FileFunction,Copper,L1,Top*%
%TF.FilePolarity,Positive*%
%FSLAX46Y46*%
G04 Gerber Fmt 4.6, Leading zero omitted, Abs format (unit mm)*
G04 Created by KiCad (PCBNEW 6.0.11+dfsg-1) date 2026-01-02 12:46:00*
%MOMM*%
%LPD*%
G01*
G04 APERTURE LIST*
%TA.AperFunction,ComponentPad*%
%ADD10R,1.700000X1.700000*%
%TD*%
%TA.AperFunction,ComponentPad*%
%ADD11O,1.700000X1.700000*%
%TD*%
%TA.AperFunction,ComponentPad*%
%ADD12R,1.800000X1.800000*%
%TD*%
%TA.AperFunction,ComponentPad*%
%ADD13O,1.800000X1.800000*%
%TD*%
%TA.AperFunction,ComponentPad*%
%ADD14C,1.600000*%
%TD*%
%TA.AperFunction,ComponentPad*%
%ADD15O,1.600000X1.600000*%
%TD*%
%TA.AperFunction,ComponentPad*%
%ADD16C,1.500000*%
%TD*%
%TA.AperFunction,ComponentPad*%
%ADD17R,1.600000X2.400000*%
%TD*%
%TA.AperFunction,ComponentPad*%
%ADD18O,1.600000X2.400000*%
%TD*%
%TA.AperFunction,ComponentPad*%
%ADD19R,1.600000X1.600000*%
%TD*%
%TA.AperFunction,ComponentPad*%
%ADD20R,2.400000X1.600000*%
%TD*%
%TA.AperFunction,ComponentPad*%
%ADD21O,2.400000X1.600000*%
%TD*%
%TA.AperFunction,ViaPad*%
%ADD22C,0.800000*%
%TD*%
%TA.AperFunction,Conductor*%
%ADD23C,0.500000*%
%TD*%
%TA.AperFunction,Conductor*%
%ADD24C,1.000000*%
%TD*%
G04 APERTURE END LIST*
D10*
%TO.P,RESET,1*%
%TO.N,N/C*%
X127000000Y-116840000D03*
D11*
%TO.P,RESET,2*%
X129540000Y-116840000D03*
%TD*%
D10*
%TO.P,VCC,1*%
%TO.N,N/C*%
X127000000Y-71120000D03*
D11*
%TO.P,VCC,2*%
X129540000Y-71120000D03*
%TD*%
D12*
%TO.P,4148,1*%
%TO.N,N/C*%
X120650000Y-106680000D03*
D13*
%TO.P,4148,2*%
X120650000Y-116840000D03*
%TD*%
D14*
%TO.P,1k,1*%
%TO.N,N/C*%
X99060000Y-92710000D03*
D15*
%TO.P,1k,2*%
X88900000Y-92710000D03*
%TD*%
D14*
%TO.P,22pF,1*%
%TO.N,N/C*%
X88900000Y-99060000D03*
%TO.P,22pF,2*%
X91400000Y-99060000D03*
%TD*%
D10*
%TO.P,REF\u002A\u002A,1*%
%TO.N,N/C*%
X90170000Y-130810000D03*
D11*
%TO.P,REF\u002A\u002A,2*%
X92710000Y-130810000D03*
%TO.P,REF\u002A\u002A,3*%
X95250000Y-130810000D03*
%TO.P,REF\u002A\u002A,4*%
X97790000Y-130810000D03*
%TO.P,REF\u002A\u002A,5*%
X100330000Y-130810000D03*
%TO.P,REF\u002A\u002A,6*%
X102870000Y-130810000D03*
%TO.P,REF\u002A\u002A,7*%
X105410000Y-130810000D03*
%TO.P,REF\u002A\u002A,8*%
X107950000Y-130810000D03*
%TO.P,REF\u002A\u002A,9*%
X110490000Y-130810000D03*
%TO.P,REF\u002A\u002A,10*%
X113030000Y-130810000D03*
%TO.P,REF\u002A\u002A,11*%
X115570000Y-130810000D03*
%TO.P,REF\u002A\u002A,12*%
X118110000Y-130810000D03*
%TO.P,REF\u002A\u002A,13*%
X120650000Y-130810000D03*
%TO.P,REF\u002A\u002A,14*%
X123190000Y-130810000D03*
%TO.P,REF\u002A\u002A,15*%
X125730000Y-130810000D03*
%TO.P,REF\u002A\u002A,16*%
X128270000Y-130810000D03*
%TO.P,REF\u002A\u002A,17*%
X130810000Y-130810000D03*
%TO.P,REF\u002A\u002A,18*%
X133350000Y-130810000D03*
%TO.P,REF\u002A\u002A,19*%
X135890000Y-130810000D03*
%TO.P,REF\u002A\u002A,20*%
X138430000Y-130810000D03*
%TO.P,REF\u002A\u002A,21*%
X140970000Y-130810000D03*
%TO.P,REF\u002A\u002A,22*%
X143510000Y-130810000D03*
%TO.P,REF\u002A\u002A,23*%
X146050000Y-130810000D03*
%TO.P,REF\u002A\u002A,24*%
X148590000Y-130810000D03*
%TO.P,REF\u002A\u002A,25*%
X151130000Y-130810000D03*
%TO.P,REF\u002A\u002A,26*%
X153670000Y-130810000D03*
%TO.P,REF\u002A\u002A,27*%
X156210000Y-130810000D03*
%TO.P,REF\u002A\u002A,28*%
X158750000Y-130810000D03*
%TO.P,REF\u002A\u002A,29*%
X161290000Y-130810000D03*
%TO.P,REF\u002A\u002A,30*%
X163830000Y-130810000D03*
%TO.P,REF\u002A\u002A,31*%
X166370000Y-130810000D03*
%TO.P,REF\u002A\u002A,32*%
X168910000Y-130810000D03*
%TO.P,REF\u002A\u002A,33*%
X171450000Y-130810000D03*
%TO.P,REF\u002A\u002A,34*%
X173990000Y-130810000D03*
%TO.P,REF\u002A\u002A,35*%
X176530000Y-130810000D03*
%TO.P,REF\u002A\u002A,36*%
X179070000Y-130810000D03*
%TD*%
D14*
%TO.P,100nF,1*%
%TO.N,N/C*%
X134620000Y-80010000D03*
%TO.P,100nF,2*%
X139620000Y-80010000D03*
%TD*%
%TO.P,REF\u002A\u002A,1*%
%TO.N,N/C*%
X102910000Y-107950000D03*
%TO.P,REF\u002A\u002A,2*%
X107910000Y-107950000D03*
%TD*%
%TO.P,100k,1*%
%TO.N,N/C*%
X133350000Y-86360000D03*
D15*
%TO.P,100k,2*%
X123190000Y-86360000D03*
%TD*%
D16*
%TO.P,73728,1*%
%TO.N,N/C*%
X91440000Y-106680000D03*
%TO.P,73728,2*%
X96340000Y-106680000D03*
%TD*%
D17*
%TO.P,MC68B50,1*%
%TO.N,N/C*%
X143505000Y-95230000D03*
D18*
%TO.P,MC68B50,2*%
X146045000Y-95230000D03*
%TO.P,MC68B50,3*%
X148585000Y-95230000D03*
%TO.P,MC68B50,4*%
X151125000Y-95230000D03*
%TO.P,MC68B50,5*%
X153665000Y-95230000D03*
%TO.P,MC68B50,6*%
X156205000Y-95230000D03*
%TO.P,MC68B50,7*%
X158745000Y-95230000D03*
%TO.P,MC68B50,8*%
X161285000Y-95230000D03*
%TO.P,MC68B50,9*%
X163825000Y-95230000D03*
%TO.P,MC68B50,10*%
X166365000Y-95230000D03*
%TO.P,MC68B50,11*%
X168905000Y-95230000D03*
%TO.P,MC68B50,12*%
X171445000Y-95230000D03*
%TO.P,MC68B50,13*%
X171445000Y-79990000D03*
%TO.P,MC68B50,14*%
X168905000Y-79990000D03*
%TO.P,MC68B50,15*%
X166365000Y-79990000D03*
%TO.P,MC68B50,16*%
X163825000Y-79990000D03*
%TO.P,MC68B50,17*%
X161285000Y-79990000D03*
%TO.P,MC68B50,18*%
X158745000Y-79990000D03*
%TO.P,MC68B50,19*%
X156205000Y-79990000D03*
%TO.P,MC68B50,20*%
X153665000Y-79990000D03*
%TO.P,MC68B50,21*%
X151125000Y-79990000D03*
%TO.P,MC68B50,22*%
X148585000Y-79990000D03*
%TO.P,MC68B50,23*%
X146045000Y-79990000D03*
%TO.P,MC68B50,24*%
X143505000Y-79990000D03*
%TD*%
D10*
%TO.P,REF\u002A\u002A,1*%
%TO.N,N/C*%
X144780000Y-71120000D03*
D11*
%TO.P,REF\u002A\u002A,2*%
X147320000Y-71120000D03*
%TO.P,REF\u002A\u002A,3*%
X149860000Y-71120000D03*
%TO.P,REF\u002A\u002A,4*%
X152400000Y-71120000D03*
%TO.P,REF\u002A\u002A,5*%
X154940000Y-71120000D03*
%TO.P,REF\u002A\u002A,6*%
X157480000Y-71120000D03*
%TD*%
D14*
%TO.P,22pF,1*%
%TO.N,N/C*%
X96520000Y-99060000D03*
%TO.P,22pF,2*%
X99020000Y-99060000D03*
%TD*%
D10*
%TO.P,REF\u002A\u002A,1*%
%TO.N,N/C*%
X124475000Y-92690000D03*
D11*
%TO.P,REF\u002A\u002A,2*%
X124475000Y-95230000D03*
%TO.P,REF\u002A\u002A,3*%
X127015000Y-92690000D03*
%TO.P,REF\u002A\u002A,4*%
X127015000Y-95230000D03*
%TO.P,REF\u002A\u002A,5*%
X129555000Y-92690000D03*
%TO.P,REF\u002A\u002A,6*%
X129555000Y-95230000D03*
%TD*%
D19*
%TO.P,REF\u002A\u002A,1*%
%TO.N,N/C*%
X116650888Y-83820000D03*
D14*
%TO.P,REF\u002A\u002A,2*%
X119150888Y-83820000D03*
%TD*%
D20*
%TO.P,74HC00,1*%
%TO.N,N/C*%
X111750000Y-102875000D03*
D21*
%TO.P,74HC00,2*%
X111750000Y-100335000D03*
%TO.P,74HC00,3*%
X111750000Y-97795000D03*
%TO.P,74HC00,4*%
X111750000Y-95255000D03*
%TO.P,74HC00,5*%
X111750000Y-92715000D03*
%TO.P,74HC00,6*%
X111750000Y-90175000D03*
%TO.P,74HC00,7*%
X111750000Y-87635000D03*
%TO.P,74HC00,8*%
X104130000Y-87635000D03*
%TO.P,74HC00,9*%
X104130000Y-90175000D03*
%TO.P,74HC00,10*%
X104130000Y-92715000D03*
%TO.P,74HC00,11*%
X104130000Y-95255000D03*
%TO.P,74HC00,12*%
X104130000Y-97795000D03*
%TO.P,74HC00,13*%
X104130000Y-100335000D03*
%TO.P,74HC00,14*%
X104130000Y-102875000D03*
%TD*%
D14*
%TO.P,1M,1*%
%TO.N,N/C*%
X99060000Y-88900000D03*
D15*
%TO.P,1M,2*%
X88900000Y-88900000D03*
%TD*%
D22*
%TO.N,*%
X161290000Y-120650000D03*
X163825000Y-111765000D03*
X143510000Y-113030000D03*
X149860000Y-74930000D03*
%TD*%
D23*
%TO.N,*%
X120650000Y-116840000D02*
X127000000Y-116840000D01*
D24*
X123190000Y-71120000D02*
X127000000Y-71120000D01*
D23*
X152400000Y-88900000D02*
X151140000Y-87640000D01*
X104130000Y-100335000D02*
X102865000Y-100335000D01*
X99060000Y-93980000D02*
X99060000Y-92710000D01*
X138430000Y-118110000D02*
X137160000Y-116840000D01*
X91400000Y-94020000D02*
X91400000Y-99060000D01*
X156210000Y-88900000D02*
X156205000Y-88905000D01*
X157480000Y-88900000D02*
X156210000Y-87630000D01*
X153670000Y-124460000D02*
X153670000Y-114300000D01*
D24*
X133350000Y-127000000D02*
X129540000Y-123190000D01*
X104130000Y-90175000D02*
X106675000Y-90175000D01*
X116713000Y-77597000D02*
X123190000Y-71120000D01*
D23*
X167640000Y-88265000D02*
X166380000Y-87005000D01*
X168910000Y-119380000D02*
X162560000Y-113030000D01*
X107950000Y-93980000D02*
X119380000Y-93980000D01*
X106685000Y-92715000D02*
X107950000Y-93980000D01*
X156210000Y-129540000D02*
X152400000Y-125730000D01*
X153670000Y-129540000D02*
X148590000Y-124460000D01*
D24*
X133350000Y-71120000D02*
X135890000Y-68580000D01*
D23*
X173990000Y-119380000D02*
X167640000Y-113030000D01*
D24*
X135890000Y-68580000D02*
X152400000Y-68580000D01*
D23*
X138430000Y-130810000D02*
X138430000Y-118110000D01*
X165100000Y-113030000D02*
X165100000Y-88900000D01*
X148590000Y-124460000D02*
X147320000Y-124460000D01*
X140970000Y-130810000D02*
X140970000Y-102870000D01*
D24*
X109225000Y-92715000D02*
X109220000Y-92710000D01*
D23*
X165100000Y-88900000D02*
X163830000Y-87630000D01*
X94996000Y-103124000D02*
X96520000Y-101600000D01*
D24*
X143505000Y-95230000D02*
X143505000Y-79990000D01*
X104140000Y-105410000D02*
X106680000Y-105410000D01*
X109225000Y-87635000D02*
X111750000Y-87635000D01*
X134620000Y-77470000D02*
X138430000Y-73660000D01*
D23*
X149860000Y-88900000D02*
X148590000Y-87630000D01*
D24*
X134620000Y-80010000D02*
X134620000Y-77470000D01*
D23*
X161290000Y-130810000D02*
X161290000Y-129540000D01*
X151140000Y-87640000D02*
X151140000Y-80000000D01*
X90170000Y-92710000D02*
X91440000Y-93980000D01*
X148585000Y-97795000D02*
X147320000Y-99060000D01*
X143510000Y-120650000D02*
X143510000Y-113030000D01*
X120670000Y-92690000D02*
X124475000Y-92690000D01*
D24*
X174010000Y-95230000D02*
X171445000Y-95230000D01*
D23*
X148600000Y-87620000D02*
X148600000Y-80000000D01*
D24*
X139620000Y-81360000D02*
X139620000Y-80010000D01*
D23*
X147320000Y-99060000D02*
X139700000Y-99060000D01*
X156210000Y-87630000D02*
X156210000Y-83820000D01*
X153670000Y-87630000D02*
X153680000Y-87620000D01*
X161290000Y-87630000D02*
X161300000Y-87620000D01*
X91440000Y-93980000D02*
X91400000Y-94020000D01*
X170180000Y-90170000D02*
X170180000Y-113030000D01*
D24*
X109220000Y-92710000D02*
X109220000Y-87640000D01*
D23*
X100335000Y-95255000D02*
X99060000Y-93980000D01*
X156210000Y-130810000D02*
X156210000Y-129540000D01*
X147320000Y-124460000D02*
X143510000Y-120650000D01*
X156205000Y-88905000D02*
X156205000Y-95230000D01*
X158750000Y-87630000D02*
X158750000Y-79990000D01*
X119380000Y-83820000D02*
X121920000Y-83820000D01*
X166380000Y-80000000D02*
X166370000Y-79990000D01*
D24*
X132080000Y-88900000D02*
X133350000Y-87630000D01*
X129540000Y-71120000D02*
X133350000Y-71120000D01*
D23*
X163825000Y-111765000D02*
X163825000Y-95230000D01*
X163830000Y-86360000D02*
X163840000Y-86350000D01*
X96340000Y-106680000D02*
X94996000Y-105336000D01*
X158750000Y-130810000D02*
X158750000Y-129540000D01*
X161300000Y-80000000D02*
X161290000Y-79990000D01*
X168910000Y-130810000D02*
X168910000Y-119380000D01*
X96520000Y-99060000D02*
X96520000Y-90170000D01*
D24*
X116840000Y-88900000D02*
X132080000Y-88900000D01*
D23*
X153680000Y-87620000D02*
X153680000Y-80000000D01*
X94996000Y-105336000D02*
X94996000Y-103124000D01*
X150368000Y-132588000D02*
X148590000Y-130810000D01*
X152400000Y-113030000D02*
X152400000Y-88900000D01*
X163830000Y-130810000D02*
X163830000Y-129540000D01*
X170180000Y-113030000D02*
X177800000Y-120650000D01*
X171445000Y-88905000D02*
X170180000Y-90170000D01*
X99060000Y-104140000D02*
X99060000Y-106680000D01*
X152400000Y-125730000D02*
X152400000Y-115570000D01*
X119380000Y-93980000D02*
X120670000Y-92690000D01*
X177800000Y-132588000D02*
X150368000Y-132588000D01*
D24*
X127000000Y-125730000D02*
X130810000Y-129540000D01*
D23*
X104130000Y-95255000D02*
X100335000Y-95255000D01*
X96520000Y-90170000D02*
X90170000Y-90170000D01*
D24*
X116840000Y-83820000D02*
X116713000Y-83693000D01*
X176530000Y-77470000D02*
X176530000Y-92710000D01*
D23*
X161300000Y-87620000D02*
X161300000Y-80000000D01*
X167640000Y-113030000D02*
X167640000Y-88265000D01*
X91440000Y-99100000D02*
X91400000Y-99060000D01*
D24*
X111750000Y-92715000D02*
X109225000Y-92715000D01*
X127000000Y-80010000D02*
X127000000Y-71120000D01*
D23*
X91440000Y-106680000D02*
X91440000Y-99100000D01*
X123190000Y-85090000D02*
X123190000Y-86360000D01*
D24*
X134620000Y-80010000D02*
X127000000Y-80010000D01*
X104130000Y-105400000D02*
X104140000Y-105410000D01*
X111750000Y-87635000D02*
X115575000Y-87635000D01*
D23*
X120650000Y-97790000D02*
X120650000Y-106680000D01*
X149860000Y-113030000D02*
X149860000Y-88900000D01*
D24*
X116713000Y-83693000D02*
X116713000Y-77597000D01*
X172720000Y-73660000D02*
X176530000Y-77470000D01*
D23*
X96520000Y-101600000D02*
X96520000Y-99060000D01*
X153670000Y-130810000D02*
X153670000Y-129540000D01*
X133330000Y-95230000D02*
X129555000Y-95230000D01*
X156220000Y-80000000D02*
X156210000Y-79990000D01*
D24*
X106680000Y-105410000D02*
X107910000Y-106640000D01*
X133350000Y-87630000D02*
X133350000Y-86360000D01*
X138430000Y-73660000D02*
X172720000Y-73660000D01*
D23*
X160020000Y-88900000D02*
X158750000Y-87630000D01*
X90170000Y-90170000D02*
X88900000Y-88900000D01*
D24*
X107910000Y-119340000D02*
X107910000Y-107950000D01*
D23*
X156220000Y-83810000D02*
X156220000Y-80000000D01*
D24*
X176530000Y-92710000D02*
X174010000Y-95230000D01*
D23*
X166380000Y-87005000D02*
X166380000Y-80000000D01*
X160020000Y-123190000D02*
X160020000Y-88900000D01*
X118115000Y-95255000D02*
X120650000Y-97790000D01*
X163830000Y-129540000D02*
X157480000Y-123190000D01*
D24*
X106675000Y-90175000D02*
X109215000Y-87635000D01*
X139620000Y-80010000D02*
X139640000Y-79990000D01*
X133350000Y-86360000D02*
X134620000Y-86360000D01*
D23*
X154940000Y-76200000D02*
X154940000Y-87630000D01*
X149860000Y-74930000D02*
X153670000Y-74930000D01*
X166370000Y-129540000D02*
X160020000Y-123190000D01*
X171450000Y-130810000D02*
X171450000Y-119380000D01*
X166370000Y-130810000D02*
X166370000Y-129540000D01*
D24*
X107910000Y-106640000D02*
X107910000Y-107950000D01*
X102910000Y-107950000D02*
X102910000Y-119420000D01*
X115575000Y-87635000D02*
X116840000Y-88900000D01*
D23*
X148590000Y-87630000D02*
X148600000Y-87620000D01*
D24*
X111760000Y-123190000D02*
X107910000Y-119340000D01*
D23*
X133330000Y-92690000D02*
X129555000Y-92690000D01*
D24*
X104130000Y-102875000D02*
X104130000Y-105400000D01*
D23*
X163830000Y-87630000D02*
X163830000Y-86360000D01*
X163840000Y-80000000D02*
X163830000Y-79990000D01*
X102865000Y-100335000D02*
X99060000Y-104140000D01*
X177800000Y-120650000D02*
X177800000Y-132588000D01*
D24*
X134620000Y-86360000D02*
X139620000Y-81360000D01*
X133350000Y-130810000D02*
X133350000Y-127000000D01*
D23*
X137160000Y-116840000D02*
X129540000Y-116840000D01*
X157480000Y-123190000D02*
X157480000Y-88900000D01*
X161290000Y-120650000D02*
X161285000Y-120645000D01*
D24*
X129540000Y-123190000D02*
X111760000Y-123190000D01*
D23*
X161285000Y-120645000D02*
X161285000Y-95230000D01*
X156210000Y-83820000D02*
X156220000Y-83810000D01*
D24*
X102910000Y-119420000D02*
X109220000Y-125730000D01*
D23*
X104130000Y-97795000D02*
X104130000Y-95255000D01*
X99060000Y-106680000D02*
X96340000Y-106680000D01*
X162560000Y-88900000D02*
X161290000Y-87630000D01*
D24*
X139640000Y-79990000D02*
X143505000Y-79990000D01*
D23*
X148585000Y-95230000D02*
X148585000Y-97795000D01*
D24*
X109220000Y-87640000D02*
X109225000Y-87635000D01*
X143505000Y-79990000D02*
X146045000Y-79990000D01*
D23*
X163840000Y-86350000D02*
X163840000Y-80000000D01*
D24*
X109215000Y-87635000D02*
X109225000Y-87635000D01*
D23*
X121920000Y-83820000D02*
X123190000Y-85090000D01*
X140970000Y-102870000D02*
X133330000Y-95230000D01*
X161290000Y-129540000D02*
X154940000Y-123190000D01*
X153680000Y-80000000D02*
X153670000Y-79990000D01*
X154940000Y-88900000D02*
X153670000Y-87630000D01*
D24*
X152400000Y-68580000D02*
X152400000Y-71120000D01*
D23*
X171450000Y-119380000D02*
X165100000Y-113030000D01*
D24*
X130810000Y-129540000D02*
X130810000Y-130810000D01*
D23*
X154940000Y-123190000D02*
X154940000Y-88900000D01*
X153670000Y-74930000D02*
X154940000Y-76200000D01*
X162560000Y-113030000D02*
X162560000Y-88900000D01*
X153670000Y-114300000D02*
X152400000Y-113030000D01*
X111750000Y-95255000D02*
X118115000Y-95255000D01*
X139700000Y-99060000D02*
X133330000Y-92690000D01*
X154940000Y-87630000D02*
X156210000Y-88900000D01*
X152400000Y-115570000D02*
X149860000Y-113030000D01*
X148600000Y-80000000D02*
X148590000Y-79990000D01*
X171445000Y-79990000D02*
X171445000Y-88905000D01*
X151140000Y-80000000D02*
X151130000Y-79990000D01*
X88900000Y-92710000D02*
X90170000Y-92710000D01*
X173990000Y-130810000D02*
X173990000Y-119380000D01*
D24*
X109220000Y-125730000D02*
X127000000Y-125730000D01*
D23*
X158750000Y-129540000D02*
X153670000Y-124460000D01*
X104130000Y-92715000D02*
X106685000Y-92715000D01*
X99060000Y-92710000D02*
X99060000Y-88900000D01*
%TD*%
M02*
