%TF.GenerationSoftware,KiCad,Pcbnew,6.0.11+dfsg-1*%
%TF.CreationDate,2026-01-02T12:46:01+01:00*%
%TF.ProjectId,6750seriale,36373530-7365-4726-9961-6c652e6b6963,rev?*%
%TF.SameCoordinates,Original*%
%TF.FileFunction,Copper,L2,Bot*%
%TF.FilePolarity,Positive*%
%FSLAX46Y46*%
G04 Gerber Fmt 4.6, Leading zero omitted, Abs format (unit mm)*
G04 Created by KiCad (PCBNEW 6.0.11+dfsg-1) date 2026-01-02 12:46:01*
%MOMM*%
%LPD*%
G01*
G04 APERTURE LIST*
%TA.AperFunction,ComponentPad*%
%ADD10R,1.700000X1.700000*%
%TD*%
%TA.AperFunction,ComponentPad*%
%ADD11O,1.700000X1.700000*%
%TD*%
%TA.AperFunction,ComponentPad*%
%ADD12R,1.800000X1.800000*%
%TD*%
%TA.AperFunction,ComponentPad*%
%ADD13O,1.800000X1.800000*%
%TD*%
%TA.AperFunction,ComponentPad*%
%ADD14C,1.600000*%
%TD*%
%TA.AperFunction,ComponentPad*%
%ADD15O,1.600000X1.600000*%
%TD*%
%TA.AperFunction,ComponentPad*%
%ADD16C,1.500000*%
%TD*%
%TA.AperFunction,ComponentPad*%
%ADD17R,1.600000X2.400000*%
%TD*%
%TA.AperFunction,ComponentPad*%
%ADD18O,1.600000X2.400000*%
%TD*%
%TA.AperFunction,ComponentPad*%
%ADD19R,1.600000X1.600000*%
%TD*%
%TA.AperFunction,ComponentPad*%
%ADD20R,2.400000X1.600000*%
%TD*%
%TA.AperFunction,ComponentPad*%
%ADD21O,2.400000X1.600000*%
%TD*%
%TA.AperFunction,ViaPad*%
%ADD22C,0.800000*%
%TD*%
%TA.AperFunction,Conductor*%
%ADD23C,0.500000*%
%TD*%
%TA.AperFunction,Conductor*%
%ADD24C,1.000000*%
%TD*%
G04 APERTURE END LIST*
D10*
%TO.P,RESET,1*%
%TO.N,N/C*%
X127000000Y-116840000D03*
D11*
%TO.P,RESET,2*%
X129540000Y-116840000D03*
%TD*%
D10*
%TO.P,VCC,1*%
%TO.N,N/C*%
X127000000Y-71120000D03*
D11*
%TO.P,VCC,2*%
X129540000Y-71120000D03*
%TD*%
D12*
%TO.P,4148,1*%
%TO.N,N/C*%
X120650000Y-106680000D03*
D13*
%TO.P,4148,2*%
X120650000Y-116840000D03*
%TD*%
D14*
%TO.P,1k,1*%
%TO.N,N/C*%
X99060000Y-92710000D03*
D15*
%TO.P,1k,2*%
X88900000Y-92710000D03*
%TD*%
D14*
%TO.P,22pF,1*%
%TO.N,N/C*%
X88900000Y-99060000D03*
%TO.P,22pF,2*%
X91400000Y-99060000D03*
%TD*%
D10*
%TO.P,REF\u002A\u002A,1*%
%TO.N,N/C*%
X90170000Y-130810000D03*
D11*
%TO.P,REF\u002A\u002A,2*%
X92710000Y-130810000D03*
%TO.P,REF\u002A\u002A,3*%
X95250000Y-130810000D03*
%TO.P,REF\u002A\u002A,4*%
X97790000Y-130810000D03*
%TO.P,REF\u002A\u002A,5*%
X100330000Y-130810000D03*
%TO.P,REF\u002A\u002A,6*%
X102870000Y-130810000D03*
%TO.P,REF\u002A\u002A,7*%
X105410000Y-130810000D03*
%TO.P,REF\u002A\u002A,8*%
X107950000Y-130810000D03*
%TO.P,REF\u002A\u002A,9*%
X110490000Y-130810000D03*
%TO.P,REF\u002A\u002A,10*%
X113030000Y-130810000D03*
%TO.P,REF\u002A\u002A,11*%
X115570000Y-130810000D03*
%TO.P,REF\u002A\u002A,12*%
X118110000Y-130810000D03*
%TO.P,REF\u002A\u002A,13*%
X120650000Y-130810000D03*
%TO.P,REF\u002A\u002A,14*%
X123190000Y-130810000D03*
%TO.P,REF\u002A\u002A,15*%
X125730000Y-130810000D03*
%TO.P,REF\u002A\u002A,16*%
X128270000Y-130810000D03*
%TO.P,REF\u002A\u002A,17*%
X130810000Y-130810000D03*
%TO.P,REF\u002A\u002A,18*%
X133350000Y-130810000D03*
%TO.P,REF\u002A\u002A,19*%
X135890000Y-130810000D03*
%TO.P,REF\u002A\u002A,20*%
X138430000Y-130810000D03*
%TO.P,REF\u002A\u002A,21*%
X140970000Y-130810000D03*
%TO.P,REF\u002A\u002A,22*%
X143510000Y-130810000D03*
%TO.P,REF\u002A\u002A,23*%
X146050000Y-130810000D03*
%TO.P,REF\u002A\u002A,24*%
X148590000Y-130810000D03*
%TO.P,REF\u002A\u002A,25*%
X151130000Y-130810000D03*
%TO.P,REF\u002A\u002A,26*%
X153670000Y-130810000D03*
%TO.P,REF\u002A\u002A,27*%
X156210000Y-130810000D03*
%TO.P,REF\u002A\u002A,28*%
X158750000Y-130810000D03*
%TO.P,REF\u002A\u002A,29*%
X161290000Y-130810000D03*
%TO.P,REF\u002A\u002A,30*%
X163830000Y-130810000D03*
%TO.P,REF\u002A\u002A,31*%
X166370000Y-130810000D03*
%TO.P,REF\u002A\u002A,32*%
X168910000Y-130810000D03*
%TO.P,REF\u002A\u002A,33*%
X171450000Y-130810000D03*
%TO.P,REF\u002A\u002A,34*%
X173990000Y-130810000D03*
%TO.P,REF\u002A\u002A,35*%
X176530000Y-130810000D03*
%TO.P,REF\u002A\u002A,36*%
X179070000Y-130810000D03*
%TD*%
D14*
%TO.P,100nF,1*%
%TO.N,N/C*%
X134620000Y-80010000D03*
%TO.P,100nF,2*%
X139620000Y-80010000D03*
%TD*%
%TO.P,REF\u002A\u002A,1*%
%TO.N,N/C*%
X102910000Y-107950000D03*
%TO.P,REF\u002A\u002A,2*%
X107910000Y-107950000D03*
%TD*%
%TO.P,100k,1*%
%TO.N,N/C*%
X133350000Y-86360000D03*
D15*
%TO.P,100k,2*%
X123190000Y-86360000D03*
%TD*%
D16*
%TO.P,73728,1*%
%TO.N,N/C*%
X91440000Y-106680000D03*
%TO.P,73728,2*%
X96340000Y-106680000D03*
%TD*%
D17*
%TO.P,MC68B50,1*%
%TO.N,N/C*%
X143505000Y-95230000D03*
D18*
%TO.P,MC68B50,2*%
X146045000Y-95230000D03*
%TO.P,MC68B50,3*%
X148585000Y-95230000D03*
%TO.P,MC68B50,4*%
X151125000Y-95230000D03*
%TO.P,MC68B50,5*%
X153665000Y-95230000D03*
%TO.P,MC68B50,6*%
X156205000Y-95230000D03*
%TO.P,MC68B50,7*%
X158745000Y-95230000D03*
%TO.P,MC68B50,8*%
X161285000Y-95230000D03*
%TO.P,MC68B50,9*%
X163825000Y-95230000D03*
%TO.P,MC68B50,10*%
X166365000Y-95230000D03*
%TO.P,MC68B50,11*%
X168905000Y-95230000D03*
%TO.P,MC68B50,12*%
X171445000Y-95230000D03*
%TO.P,MC68B50,13*%
X171445000Y-79990000D03*
%TO.P,MC68B50,14*%
X168905000Y-79990000D03*
%TO.P,MC68B50,15*%
X166365000Y-79990000D03*
%TO.P,MC68B50,16*%
X163825000Y-79990000D03*
%TO.P,MC68B50,17*%
X161285000Y-79990000D03*
%TO.P,MC68B50,18*%
X158745000Y-79990000D03*
%TO.P,MC68B50,19*%
X156205000Y-79990000D03*
%TO.P,MC68B50,20*%
X153665000Y-79990000D03*
%TO.P,MC68B50,21*%
X151125000Y-79990000D03*
%TO.P,MC68B50,22*%
X148585000Y-79990000D03*
%TO.P,MC68B50,23*%
X146045000Y-79990000D03*
%TO.P,MC68B50,24*%
X143505000Y-79990000D03*
%TD*%
D10*
%TO.P,REF\u002A\u002A,1*%
%TO.N,N/C*%
X144780000Y-71120000D03*
D11*
%TO.P,REF\u002A\u002A,2*%
X147320000Y-71120000D03*
%TO.P,REF\u002A\u002A,3*%
X149860000Y-71120000D03*
%TO.P,REF\u002A\u002A,4*%
X152400000Y-71120000D03*
%TO.P,REF\u002A\u002A,5*%
X154940000Y-71120000D03*
%TO.P,REF\u002A\u002A,6*%
X157480000Y-71120000D03*
%TD*%
D14*
%TO.P,22pF,1*%
%TO.N,N/C*%
X96520000Y-99060000D03*
%TO.P,22pF,2*%
X99020000Y-99060000D03*
%TD*%
D10*
%TO.P,REF\u002A\u002A,1*%
%TO.N,N/C*%
X124475000Y-92690000D03*
D11*
%TO.P,REF\u002A\u002A,2*%
X124475000Y-95230000D03*
%TO.P,REF\u002A\u002A,3*%
X127015000Y-92690000D03*
%TO.P,REF\u002A\u002A,4*%
X127015000Y-95230000D03*
%TO.P,REF\u002A\u002A,5*%
X129555000Y-92690000D03*
%TO.P,REF\u002A\u002A,6*%
X129555000Y-95230000D03*
%TD*%
D19*
%TO.P,REF\u002A\u002A,1*%
%TO.N,N/C*%
X116650888Y-83820000D03*
D14*
%TO.P,REF\u002A\u002A,2*%
X119150888Y-83820000D03*
%TD*%
D20*
%TO.P,74HC00,1*%
%TO.N,N/C*%
X111750000Y-102875000D03*
D21*
%TO.P,74HC00,2*%
X111750000Y-100335000D03*
%TO.P,74HC00,3*%
X111750000Y-97795000D03*
%TO.P,74HC00,4*%
X111750000Y-95255000D03*
%TO.P,74HC00,5*%
X111750000Y-92715000D03*
%TO.P,74HC00,6*%
X111750000Y-90175000D03*
%TO.P,74HC00,7*%
X111750000Y-87635000D03*
%TO.P,74HC00,8*%
X104130000Y-87635000D03*
%TO.P,74HC00,9*%
X104130000Y-90175000D03*
%TO.P,74HC00,10*%
X104130000Y-92715000D03*
%TO.P,74HC00,11*%
X104130000Y-95255000D03*
%TO.P,74HC00,12*%
X104130000Y-97795000D03*
%TO.P,74HC00,13*%
X104130000Y-100335000D03*
%TO.P,74HC00,14*%
X104130000Y-102875000D03*
%TD*%
D14*
%TO.P,1M,1*%
%TO.N,N/C*%
X99060000Y-88900000D03*
D15*
%TO.P,1M,2*%
X88900000Y-88900000D03*
%TD*%
D22*
%TO.N,*%
X161290000Y-120650000D03*
X163825000Y-111765000D03*
X143510000Y-113030000D03*
X149860000Y-74930000D03*
%TD*%
D23*
%TO.N,*%
X143510000Y-106680000D02*
X139705000Y-102875000D01*
X158745000Y-92715000D02*
X158745000Y-95230000D01*
D24*
X143505000Y-77475000D02*
X143505000Y-79990000D01*
D23*
X140970000Y-88900000D02*
X134620000Y-95250000D01*
X145288000Y-132588000D02*
X175260000Y-132588000D01*
D24*
X101600000Y-99060000D02*
X101600000Y-90170000D01*
X107950000Y-101600000D02*
X107950000Y-83820000D01*
D23*
X134620000Y-95250000D02*
X134620000Y-99060000D01*
X113030000Y-123190000D02*
X113030000Y-130810000D01*
X111760000Y-121920000D02*
X148590000Y-121920000D01*
X110490000Y-130810000D02*
X110490000Y-123190000D01*
X179070000Y-90170000D02*
X179070000Y-72390000D01*
X158750000Y-92710000D02*
X158745000Y-92715000D01*
D24*
X88900000Y-101600000D02*
X99020000Y-101600000D01*
X101600000Y-90170000D02*
X101605000Y-90175000D01*
D23*
X175260000Y-93980000D02*
X173990000Y-92710000D01*
D24*
X124475000Y-95230000D02*
X124475000Y-92690000D01*
D23*
X128270000Y-124460000D02*
X154940000Y-124460000D01*
X166365000Y-104145000D02*
X166365000Y-95230000D01*
D24*
X153670000Y-77470000D02*
X143510000Y-77470000D01*
D23*
X175260000Y-132588000D02*
X175260000Y-93980000D01*
X156205000Y-95230000D02*
X156205000Y-92715000D01*
D24*
X106675000Y-102875000D02*
X107950000Y-101600000D01*
X99020000Y-101600000D02*
X99020000Y-99060000D01*
D23*
X156205000Y-92715000D02*
X157480000Y-91440000D01*
X176530000Y-91440000D02*
X176530000Y-130810000D01*
X119126000Y-96774000D02*
X119126000Y-84074000D01*
X161290000Y-121920000D02*
X161290000Y-120650000D01*
X133345000Y-100335000D02*
X111750000Y-100335000D01*
X168910000Y-87630000D02*
X167640000Y-88900000D01*
D24*
X101640000Y-106680000D02*
X101600000Y-106680000D01*
X154940000Y-71120000D02*
X154940000Y-76200000D01*
D23*
X135890000Y-130810000D02*
X135890000Y-127000000D01*
D24*
X154940000Y-76200000D02*
X153670000Y-77470000D01*
D23*
X153670000Y-123190000D02*
X113030000Y-123190000D01*
D24*
X101600000Y-106680000D02*
X101600000Y-99060000D01*
D23*
X110490000Y-123190000D02*
X111760000Y-121920000D01*
D24*
X107950000Y-83820000D02*
X116880000Y-83820000D01*
D23*
X157480000Y-125730000D02*
X161290000Y-121920000D01*
X148585000Y-95230000D02*
X151125000Y-95230000D01*
X163825000Y-113035000D02*
X153670000Y-123190000D01*
X154940000Y-124460000D02*
X168905000Y-110495000D01*
X179070000Y-72390000D02*
X173990000Y-67310000D01*
X146045000Y-92715000D02*
X148590000Y-90170000D01*
X168905000Y-110495000D02*
X168905000Y-95230000D01*
X128270000Y-130810000D02*
X128270000Y-124460000D01*
D24*
X143510000Y-77470000D02*
X143505000Y-77475000D01*
D23*
X149860000Y-67310000D02*
X149860000Y-71120000D01*
X143510000Y-130810000D02*
X145288000Y-132588000D01*
X147320000Y-72390000D02*
X147320000Y-71120000D01*
X143510000Y-113030000D02*
X143510000Y-106680000D01*
X135890000Y-127000000D02*
X137160000Y-125730000D01*
D24*
X101605000Y-90175000D02*
X104130000Y-90175000D01*
D23*
X167640000Y-88900000D02*
X140970000Y-88900000D01*
X168905000Y-87625000D02*
X168910000Y-87630000D01*
X111750000Y-97795000D02*
X118105000Y-97795000D01*
X146045000Y-95230000D02*
X146045000Y-92715000D01*
D24*
X127015000Y-92690000D02*
X129555000Y-92690000D01*
X102910000Y-107950000D02*
X101640000Y-106680000D01*
X88900000Y-99060000D02*
X88900000Y-101600000D01*
X127015000Y-95230000D02*
X129555000Y-95230000D01*
D23*
X137160000Y-125730000D02*
X157480000Y-125730000D01*
X173990000Y-92710000D02*
X158750000Y-92710000D01*
X139705000Y-102875000D02*
X111750000Y-102875000D01*
X118105000Y-97795000D02*
X119126000Y-96774000D01*
X149860000Y-74930000D02*
X147320000Y-72390000D01*
X148590000Y-121920000D02*
X166365000Y-104145000D01*
X134620000Y-99060000D02*
X133345000Y-100335000D01*
X163825000Y-111765000D02*
X163825000Y-113035000D01*
D24*
X104130000Y-102875000D02*
X106675000Y-102875000D01*
D23*
X148590000Y-90170000D02*
X179070000Y-90170000D01*
D24*
X101600000Y-99060000D02*
X99020000Y-99060000D01*
D23*
X168905000Y-79990000D02*
X168905000Y-87625000D01*
X173990000Y-67310000D02*
X149860000Y-67310000D01*
X179070000Y-130810000D02*
X179070000Y-82550000D01*
X157480000Y-91440000D02*
X176530000Y-91440000D01*
%TD*%
M02*
