%TF.GenerationSoftware,KiCad,Pcbnew,6.0.11+dfsg-1*%
%TF.CreationDate,2026-01-02T12:46:01+01:00*%
%TF.ProjectId,6750seriale,36373530-7365-4726-9961-6c652e6b6963,rev?*%
%TF.SameCoordinates,Original*%
%TF.FileFunction,Legend,Top*%
%TF.FilePolarity,Positive*%
%FSLAX46Y46*%
G04 Gerber Fmt 4.6, Leading zero omitted, Abs format (unit mm)*
G04 Created by KiCad (PCBNEW 6.0.11+dfsg-1) date 2026-01-02 12:46:01*
%MOMM*%
%LPD*%
G01*
G04 APERTURE LIST*
%ADD10C,0.300000*%
%ADD11C,0.250000*%
%ADD12C,0.150000*%
%ADD13C,0.120000*%
G04 APERTURE END LIST*
D10*
X132532857Y-95785714D02*
X132461428Y-95857142D01*
X132247142Y-95928571D01*
X132104285Y-95928571D01*
X131890000Y-95857142D01*
X131747142Y-95714285D01*
X131675714Y-95571428D01*
X131604285Y-95285714D01*
X131604285Y-95071428D01*
X131675714Y-94785714D01*
X131747142Y-94642857D01*
X131890000Y-94500000D01*
X132104285Y-94428571D01*
X132247142Y-94428571D01*
X132461428Y-94500000D01*
X132532857Y-94571428D01*
X133175714Y-95928571D02*
X133175714Y-94428571D01*
X134032857Y-95928571D02*
X133390000Y-95071428D01*
X134032857Y-94428571D02*
X133175714Y-95285714D01*
X134675714Y-95357142D02*
X135818571Y-95357142D01*
X136390000Y-94428571D02*
X137390000Y-94428571D01*
X136390000Y-95928571D01*
X137390000Y-95928571D01*
X138175714Y-95071428D02*
X138032857Y-95000000D01*
X137961428Y-94928571D01*
X137890000Y-94785714D01*
X137890000Y-94714285D01*
X137961428Y-94571428D01*
X138032857Y-94500000D01*
X138175714Y-94428571D01*
X138461428Y-94428571D01*
X138604285Y-94500000D01*
X138675714Y-94571428D01*
X138747142Y-94714285D01*
X138747142Y-94785714D01*
X138675714Y-94928571D01*
X138604285Y-95000000D01*
X138461428Y-95071428D01*
X138175714Y-95071428D01*
X138032857Y-95142857D01*
X137961428Y-95214285D01*
X137890000Y-95357142D01*
X137890000Y-95642857D01*
X137961428Y-95785714D01*
X138032857Y-95857142D01*
X138175714Y-95928571D01*
X138461428Y-95928571D01*
X138604285Y-95857142D01*
X138675714Y-95785714D01*
X138747142Y-95642857D01*
X138747142Y-95357142D01*
X138675714Y-95214285D01*
X138604285Y-95142857D01*
X138461428Y-95071428D01*
X139675714Y-94428571D02*
X139818571Y-94428571D01*
X139961428Y-94500000D01*
X140032857Y-94571428D01*
X140104285Y-94714285D01*
X140175714Y-95000000D01*
X140175714Y-95357142D01*
X140104285Y-95642857D01*
X140032857Y-95785714D01*
X139961428Y-95857142D01*
X139818571Y-95928571D01*
X139675714Y-95928571D01*
X139532857Y-95857142D01*
X139461428Y-95785714D01*
X139390000Y-95642857D01*
X139318571Y-95357142D01*
X139318571Y-95000000D01*
X139390000Y-94714285D01*
X139461428Y-94571428D01*
X139532857Y-94500000D01*
X139675714Y-94428571D01*
D11*
X151578571Y-67373333D02*
X153078571Y-67040000D01*
X151578571Y-66706666D01*
X152935714Y-65801904D02*
X153007142Y-65849523D01*
X153078571Y-65992380D01*
X153078571Y-66087619D01*
X153007142Y-66230476D01*
X152864285Y-66325714D01*
X152721428Y-66373333D01*
X152435714Y-66420952D01*
X152221428Y-66420952D01*
X151935714Y-66373333D01*
X151792857Y-66325714D01*
X151650000Y-66230476D01*
X151578571Y-66087619D01*
X151578571Y-65992380D01*
X151650000Y-65849523D01*
X151721428Y-65801904D01*
X152935714Y-64801904D02*
X153007142Y-64849523D01*
X153078571Y-64992380D01*
X153078571Y-65087619D01*
X153007142Y-65230476D01*
X152864285Y-65325714D01*
X152721428Y-65373333D01*
X152435714Y-65420952D01*
X152221428Y-65420952D01*
X151935714Y-65373333D01*
X151792857Y-65325714D01*
X151650000Y-65230476D01*
X151578571Y-65087619D01*
X151578571Y-64992380D01*
X151650000Y-64849523D01*
X151721428Y-64801904D01*
D10*
X132532857Y-93245714D02*
X132461428Y-93317142D01*
X132247142Y-93388571D01*
X132104285Y-93388571D01*
X131890000Y-93317142D01*
X131747142Y-93174285D01*
X131675714Y-93031428D01*
X131604285Y-92745714D01*
X131604285Y-92531428D01*
X131675714Y-92245714D01*
X131747142Y-92102857D01*
X131890000Y-91960000D01*
X132104285Y-91888571D01*
X132247142Y-91888571D01*
X132461428Y-91960000D01*
X132532857Y-92031428D01*
X133175714Y-93388571D02*
X133175714Y-91888571D01*
X134032857Y-93388571D02*
X133390000Y-92531428D01*
X134032857Y-91888571D02*
X133175714Y-92745714D01*
X134675714Y-92817142D02*
X135818571Y-92817142D01*
X136461428Y-93317142D02*
X136675714Y-93388571D01*
X137032857Y-93388571D01*
X137175714Y-93317142D01*
X137247142Y-93245714D01*
X137318571Y-93102857D01*
X137318571Y-92960000D01*
X137247142Y-92817142D01*
X137175714Y-92745714D01*
X137032857Y-92674285D01*
X136747142Y-92602857D01*
X136604285Y-92531428D01*
X136532857Y-92460000D01*
X136461428Y-92317142D01*
X136461428Y-92174285D01*
X136532857Y-92031428D01*
X136604285Y-91960000D01*
X136747142Y-91888571D01*
X137104285Y-91888571D01*
X137318571Y-91960000D01*
X137961428Y-92602857D02*
X138461428Y-92602857D01*
X138675714Y-93388571D02*
X137961428Y-93388571D01*
X137961428Y-91888571D01*
X138675714Y-91888571D01*
X140175714Y-93388571D02*
X139675714Y-92674285D01*
X139318571Y-93388571D02*
X139318571Y-91888571D01*
X139890000Y-91888571D01*
X140032857Y-91960000D01*
X140104285Y-92031428D01*
X140175714Y-92174285D01*
X140175714Y-92388571D01*
X140104285Y-92531428D01*
X140032857Y-92602857D01*
X139890000Y-92674285D01*
X139318571Y-92674285D01*
D11*
X154190000Y-66801904D02*
X154118571Y-66897142D01*
X154118571Y-67040000D01*
X154190000Y-67182857D01*
X154332857Y-67278095D01*
X154475714Y-67325714D01*
X154761428Y-67373333D01*
X154975714Y-67373333D01*
X155261428Y-67325714D01*
X155404285Y-67278095D01*
X155547142Y-67182857D01*
X155618571Y-67040000D01*
X155618571Y-66944761D01*
X155547142Y-66801904D01*
X155475714Y-66754285D01*
X154975714Y-66754285D01*
X154975714Y-66944761D01*
X155618571Y-66325714D02*
X154118571Y-66325714D01*
X155618571Y-65754285D01*
X154118571Y-65754285D01*
X155618571Y-65278095D02*
X154118571Y-65278095D01*
X154118571Y-65040000D01*
X154190000Y-64897142D01*
X154332857Y-64801904D01*
X154475714Y-64754285D01*
X154761428Y-64706666D01*
X154975714Y-64706666D01*
X155261428Y-64754285D01*
X155404285Y-64801904D01*
X155547142Y-64897142D01*
X155618571Y-65040000D01*
X155618571Y-65278095D01*
D10*
X88861428Y-69115714D02*
X88790000Y-69187142D01*
X88575714Y-69258571D01*
X88432857Y-69258571D01*
X88218571Y-69187142D01*
X88075714Y-69044285D01*
X88004285Y-68901428D01*
X87932857Y-68615714D01*
X87932857Y-68401428D01*
X88004285Y-68115714D01*
X88075714Y-67972857D01*
X88218571Y-67830000D01*
X88432857Y-67758571D01*
X88575714Y-67758571D01*
X88790000Y-67830000D01*
X88861428Y-67901428D01*
X90218571Y-69258571D02*
X89504285Y-69258571D01*
X89504285Y-67758571D01*
X91004285Y-67758571D02*
X91290000Y-67758571D01*
X91432857Y-67830000D01*
X91575714Y-67972857D01*
X91647142Y-68258571D01*
X91647142Y-68758571D01*
X91575714Y-69044285D01*
X91432857Y-69187142D01*
X91290000Y-69258571D01*
X91004285Y-69258571D01*
X90861428Y-69187142D01*
X90718571Y-69044285D01*
X90647142Y-68758571D01*
X90647142Y-68258571D01*
X90718571Y-67972857D01*
X90861428Y-67830000D01*
X91004285Y-67758571D01*
X93147142Y-69115714D02*
X93075714Y-69187142D01*
X92861428Y-69258571D01*
X92718571Y-69258571D01*
X92504285Y-69187142D01*
X92361428Y-69044285D01*
X92290000Y-68901428D01*
X92218571Y-68615714D01*
X92218571Y-68401428D01*
X92290000Y-68115714D01*
X92361428Y-67972857D01*
X92504285Y-67830000D01*
X92718571Y-67758571D01*
X92861428Y-67758571D01*
X93075714Y-67830000D01*
X93147142Y-67901428D01*
X93790000Y-69258571D02*
X93790000Y-67758571D01*
X94647142Y-69258571D02*
X94004285Y-68401428D01*
X94647142Y-67758571D02*
X93790000Y-68615714D01*
X96432857Y-68687142D02*
X97575714Y-68687142D01*
X97004285Y-69258571D02*
X97004285Y-68115714D01*
X99361428Y-69187142D02*
X99575714Y-69258571D01*
X99932857Y-69258571D01*
X100075714Y-69187142D01*
X100147142Y-69115714D01*
X100218571Y-68972857D01*
X100218571Y-68830000D01*
X100147142Y-68687142D01*
X100075714Y-68615714D01*
X99932857Y-68544285D01*
X99647142Y-68472857D01*
X99504285Y-68401428D01*
X99432857Y-68330000D01*
X99361428Y-68187142D01*
X99361428Y-68044285D01*
X99432857Y-67901428D01*
X99504285Y-67830000D01*
X99647142Y-67758571D01*
X100004285Y-67758571D01*
X100218571Y-67830000D01*
X100861428Y-68472857D02*
X101361428Y-68472857D01*
X101575714Y-69258571D02*
X100861428Y-69258571D01*
X100861428Y-67758571D01*
X101575714Y-67758571D01*
X103075714Y-69258571D02*
X102575714Y-68544285D01*
X102218571Y-69258571D02*
X102218571Y-67758571D01*
X102790000Y-67758571D01*
X102932857Y-67830000D01*
X103004285Y-67901428D01*
X103075714Y-68044285D01*
X103075714Y-68258571D01*
X103004285Y-68401428D01*
X102932857Y-68472857D01*
X102790000Y-68544285D01*
X102218571Y-68544285D01*
X103718571Y-69258571D02*
X103718571Y-67758571D01*
X104361428Y-68830000D02*
X105075714Y-68830000D01*
X104218571Y-69258571D02*
X104718571Y-67758571D01*
X105218571Y-69258571D01*
X106432857Y-69258571D02*
X105718571Y-69258571D01*
X105718571Y-67758571D01*
X106932857Y-68472857D02*
X107432857Y-68472857D01*
X107647142Y-69258571D02*
X106932857Y-69258571D01*
X106932857Y-67758571D01*
X107647142Y-67758571D01*
X121185714Y-97730000D02*
X121257142Y-97801428D01*
X121328571Y-98015714D01*
X121328571Y-98158571D01*
X121257142Y-98372857D01*
X121114285Y-98515714D01*
X120971428Y-98587142D01*
X120685714Y-98658571D01*
X120471428Y-98658571D01*
X120185714Y-98587142D01*
X120042857Y-98515714D01*
X119900000Y-98372857D01*
X119828571Y-98158571D01*
X119828571Y-98015714D01*
X119900000Y-97801428D01*
X119971428Y-97730000D01*
X121328571Y-97087142D02*
X119828571Y-97087142D01*
X121328571Y-96230000D02*
X120471428Y-96872857D01*
X119828571Y-96230000D02*
X120685714Y-97087142D01*
X120757142Y-95587142D02*
X120757142Y-94444285D01*
X119828571Y-93872857D02*
X121328571Y-92872857D01*
X119828571Y-92872857D02*
X121328571Y-93872857D01*
X119828571Y-92515714D02*
X119828571Y-91658571D01*
X121328571Y-92087142D02*
X119828571Y-92087142D01*
X120900000Y-91230000D02*
X120900000Y-90515714D01*
X121328571Y-91372857D02*
X119828571Y-90872857D01*
X121328571Y-90372857D01*
X121328571Y-89158571D02*
X121328571Y-89872857D01*
X119828571Y-89872857D01*
D11*
X150538571Y-66206666D02*
X149824285Y-66540000D01*
X150538571Y-66778095D02*
X149038571Y-66778095D01*
X149038571Y-66397142D01*
X149110000Y-66301904D01*
X149181428Y-66254285D01*
X149324285Y-66206666D01*
X149538571Y-66206666D01*
X149681428Y-66254285D01*
X149752857Y-66301904D01*
X149824285Y-66397142D01*
X149824285Y-66778095D01*
X149038571Y-65873333D02*
X150538571Y-65206666D01*
X149038571Y-65206666D02*
X150538571Y-65873333D01*
X146498571Y-66801904D02*
X146498571Y-66230476D01*
X147998571Y-66516190D02*
X146498571Y-66516190D01*
X146498571Y-65992380D02*
X147998571Y-65325714D01*
X146498571Y-65325714D02*
X147998571Y-65992380D01*
D12*
%TO.C,RESET*%
X126817619Y-113482380D02*
X126484285Y-113006190D01*
X126246190Y-113482380D02*
X126246190Y-112482380D01*
X126627142Y-112482380D01*
X126722380Y-112530000D01*
X126770000Y-112577619D01*
X126817619Y-112672857D01*
X126817619Y-112815714D01*
X126770000Y-112910952D01*
X126722380Y-112958571D01*
X126627142Y-113006190D01*
X126246190Y-113006190D01*
X127246190Y-112958571D02*
X127579523Y-112958571D01*
X127722380Y-113482380D02*
X127246190Y-113482380D01*
X127246190Y-112482380D01*
X127722380Y-112482380D01*
X128103333Y-113434761D02*
X128246190Y-113482380D01*
X128484285Y-113482380D01*
X128579523Y-113434761D01*
X128627142Y-113387142D01*
X128674761Y-113291904D01*
X128674761Y-113196666D01*
X128627142Y-113101428D01*
X128579523Y-113053809D01*
X128484285Y-113006190D01*
X128293809Y-112958571D01*
X128198571Y-112910952D01*
X128150952Y-112863333D01*
X128103333Y-112768095D01*
X128103333Y-112672857D01*
X128150952Y-112577619D01*
X128198571Y-112530000D01*
X128293809Y-112482380D01*
X128531904Y-112482380D01*
X128674761Y-112530000D01*
X129103333Y-112958571D02*
X129436666Y-112958571D01*
X129579523Y-113482380D02*
X129103333Y-113482380D01*
X129103333Y-112482380D01*
X129579523Y-112482380D01*
X129865238Y-112482380D02*
X130436666Y-112482380D01*
X130150952Y-113482380D02*
X130150952Y-112482380D01*
%TO.C,VCC*%
X125158666Y-67016380D02*
X125492000Y-68016380D01*
X125825333Y-67016380D01*
X126730095Y-67921142D02*
X126682476Y-67968761D01*
X126539619Y-68016380D01*
X126444380Y-68016380D01*
X126301523Y-67968761D01*
X126206285Y-67873523D01*
X126158666Y-67778285D01*
X126111047Y-67587809D01*
X126111047Y-67444952D01*
X126158666Y-67254476D01*
X126206285Y-67159238D01*
X126301523Y-67064000D01*
X126444380Y-67016380D01*
X126539619Y-67016380D01*
X126682476Y-67064000D01*
X126730095Y-67111619D01*
X127730095Y-67921142D02*
X127682476Y-67968761D01*
X127539619Y-68016380D01*
X127444380Y-68016380D01*
X127301523Y-67968761D01*
X127206285Y-67873523D01*
X127158666Y-67778285D01*
X127111047Y-67587809D01*
X127111047Y-67444952D01*
X127158666Y-67254476D01*
X127206285Y-67159238D01*
X127301523Y-67064000D01*
X127444380Y-67016380D01*
X127539619Y-67016380D01*
X127682476Y-67064000D01*
X127730095Y-67111619D01*
%TO.C,4148*%
X122905714Y-112998095D02*
X123572380Y-112998095D01*
X122524761Y-113236190D02*
X123239047Y-113474285D01*
X123239047Y-112855238D01*
X123572380Y-111950476D02*
X123572380Y-112521904D01*
X123572380Y-112236190D02*
X122572380Y-112236190D01*
X122715238Y-112331428D01*
X122810476Y-112426666D01*
X122858095Y-112521904D01*
X122905714Y-111093333D02*
X123572380Y-111093333D01*
X122524761Y-111331428D02*
X123239047Y-111569523D01*
X123239047Y-110950476D01*
X123000952Y-110426666D02*
X122953333Y-110521904D01*
X122905714Y-110569523D01*
X122810476Y-110617142D01*
X122762857Y-110617142D01*
X122667619Y-110569523D01*
X122620000Y-110521904D01*
X122572380Y-110426666D01*
X122572380Y-110236190D01*
X122620000Y-110140952D01*
X122667619Y-110093333D01*
X122762857Y-110045714D01*
X122810476Y-110045714D01*
X122905714Y-110093333D01*
X122953333Y-110140952D01*
X123000952Y-110236190D01*
X123000952Y-110426666D01*
X123048571Y-110521904D01*
X123096190Y-110569523D01*
X123191428Y-110617142D01*
X123381904Y-110617142D01*
X123477142Y-110569523D01*
X123524761Y-110521904D01*
X123572380Y-110426666D01*
X123572380Y-110236190D01*
X123524761Y-110140952D01*
X123477142Y-110093333D01*
X123381904Y-110045714D01*
X123191428Y-110045714D01*
X123096190Y-110093333D01*
X123048571Y-110140952D01*
X123000952Y-110236190D01*
%TO.C,1k*%
X93860952Y-93162380D02*
X93289523Y-93162380D01*
X93575238Y-93162380D02*
X93575238Y-92162380D01*
X93480000Y-92305238D01*
X93384761Y-92400476D01*
X93289523Y-92448095D01*
X94289523Y-93162380D02*
X94289523Y-92162380D01*
X94384761Y-92781428D02*
X94670476Y-93162380D01*
X94670476Y-92495714D02*
X94289523Y-92876666D01*
%TO.C,22pF*%
X88507142Y-96307619D02*
X88554761Y-96260000D01*
X88650000Y-96212380D01*
X88888095Y-96212380D01*
X88983333Y-96260000D01*
X89030952Y-96307619D01*
X89078571Y-96402857D01*
X89078571Y-96498095D01*
X89030952Y-96640952D01*
X88459523Y-97212380D01*
X89078571Y-97212380D01*
X89459523Y-96307619D02*
X89507142Y-96260000D01*
X89602380Y-96212380D01*
X89840476Y-96212380D01*
X89935714Y-96260000D01*
X89983333Y-96307619D01*
X90030952Y-96402857D01*
X90030952Y-96498095D01*
X89983333Y-96640952D01*
X89411904Y-97212380D01*
X90030952Y-97212380D01*
X90459523Y-96545714D02*
X90459523Y-97545714D01*
X90459523Y-96593333D02*
X90554761Y-96545714D01*
X90745238Y-96545714D01*
X90840476Y-96593333D01*
X90888095Y-96640952D01*
X90935714Y-96736190D01*
X90935714Y-97021904D01*
X90888095Y-97117142D01*
X90840476Y-97164761D01*
X90745238Y-97212380D01*
X90554761Y-97212380D01*
X90459523Y-97164761D01*
X91697619Y-96688571D02*
X91364285Y-96688571D01*
X91364285Y-97212380D02*
X91364285Y-96212380D01*
X91840476Y-96212380D01*
%TO.C,100nF*%
X135572380Y-77962380D02*
X135000952Y-77962380D01*
X135286666Y-77962380D02*
X135286666Y-76962380D01*
X135191428Y-77105238D01*
X135096190Y-77200476D01*
X135000952Y-77248095D01*
X136191428Y-76962380D02*
X136286666Y-76962380D01*
X136381904Y-77010000D01*
X136429523Y-77057619D01*
X136477142Y-77152857D01*
X136524761Y-77343333D01*
X136524761Y-77581428D01*
X136477142Y-77771904D01*
X136429523Y-77867142D01*
X136381904Y-77914761D01*
X136286666Y-77962380D01*
X136191428Y-77962380D01*
X136096190Y-77914761D01*
X136048571Y-77867142D01*
X136000952Y-77771904D01*
X135953333Y-77581428D01*
X135953333Y-77343333D01*
X136000952Y-77152857D01*
X136048571Y-77057619D01*
X136096190Y-77010000D01*
X136191428Y-76962380D01*
X137143809Y-76962380D02*
X137239047Y-76962380D01*
X137334285Y-77010000D01*
X137381904Y-77057619D01*
X137429523Y-77152857D01*
X137477142Y-77343333D01*
X137477142Y-77581428D01*
X137429523Y-77771904D01*
X137381904Y-77867142D01*
X137334285Y-77914761D01*
X137239047Y-77962380D01*
X137143809Y-77962380D01*
X137048571Y-77914761D01*
X137000952Y-77867142D01*
X136953333Y-77771904D01*
X136905714Y-77581428D01*
X136905714Y-77343333D01*
X136953333Y-77152857D01*
X137000952Y-77057619D01*
X137048571Y-77010000D01*
X137143809Y-76962380D01*
X137905714Y-77295714D02*
X137905714Y-77962380D01*
X137905714Y-77390952D02*
X137953333Y-77343333D01*
X138048571Y-77295714D01*
X138191428Y-77295714D01*
X138286666Y-77343333D01*
X138334285Y-77438571D01*
X138334285Y-77962380D01*
X139143809Y-77438571D02*
X138810476Y-77438571D01*
X138810476Y-77962380D02*
X138810476Y-76962380D01*
X139286666Y-76962380D01*
%TO.C,100k*%
X127198571Y-86812380D02*
X126627142Y-86812380D01*
X126912857Y-86812380D02*
X126912857Y-85812380D01*
X126817619Y-85955238D01*
X126722380Y-86050476D01*
X126627142Y-86098095D01*
X127817619Y-85812380D02*
X127912857Y-85812380D01*
X128008095Y-85860000D01*
X128055714Y-85907619D01*
X128103333Y-86002857D01*
X128150952Y-86193333D01*
X128150952Y-86431428D01*
X128103333Y-86621904D01*
X128055714Y-86717142D01*
X128008095Y-86764761D01*
X127912857Y-86812380D01*
X127817619Y-86812380D01*
X127722380Y-86764761D01*
X127674761Y-86717142D01*
X127627142Y-86621904D01*
X127579523Y-86431428D01*
X127579523Y-86193333D01*
X127627142Y-86002857D01*
X127674761Y-85907619D01*
X127722380Y-85860000D01*
X127817619Y-85812380D01*
X128770000Y-85812380D02*
X128865238Y-85812380D01*
X128960476Y-85860000D01*
X129008095Y-85907619D01*
X129055714Y-86002857D01*
X129103333Y-86193333D01*
X129103333Y-86431428D01*
X129055714Y-86621904D01*
X129008095Y-86717142D01*
X128960476Y-86764761D01*
X128865238Y-86812380D01*
X128770000Y-86812380D01*
X128674761Y-86764761D01*
X128627142Y-86717142D01*
X128579523Y-86621904D01*
X128531904Y-86431428D01*
X128531904Y-86193333D01*
X128579523Y-86002857D01*
X128627142Y-85907619D01*
X128674761Y-85860000D01*
X128770000Y-85812380D01*
X129531904Y-86812380D02*
X129531904Y-85812380D01*
X129627142Y-86431428D02*
X129912857Y-86812380D01*
X129912857Y-86145714D02*
X129531904Y-86526666D01*
%TO.C,73728*%
X91741904Y-109942380D02*
X92408571Y-109942380D01*
X91980000Y-110942380D01*
X92694285Y-109942380D02*
X93313333Y-109942380D01*
X92980000Y-110323333D01*
X93122857Y-110323333D01*
X93218095Y-110370952D01*
X93265714Y-110418571D01*
X93313333Y-110513809D01*
X93313333Y-110751904D01*
X93265714Y-110847142D01*
X93218095Y-110894761D01*
X93122857Y-110942380D01*
X92837142Y-110942380D01*
X92741904Y-110894761D01*
X92694285Y-110847142D01*
X93646666Y-109942380D02*
X94313333Y-109942380D01*
X93884761Y-110942380D01*
X94646666Y-110037619D02*
X94694285Y-109990000D01*
X94789523Y-109942380D01*
X95027619Y-109942380D01*
X95122857Y-109990000D01*
X95170476Y-110037619D01*
X95218095Y-110132857D01*
X95218095Y-110228095D01*
X95170476Y-110370952D01*
X94599047Y-110942380D01*
X95218095Y-110942380D01*
X95789523Y-110370952D02*
X95694285Y-110323333D01*
X95646666Y-110275714D01*
X95599047Y-110180476D01*
X95599047Y-110132857D01*
X95646666Y-110037619D01*
X95694285Y-109990000D01*
X95789523Y-109942380D01*
X95980000Y-109942380D01*
X96075238Y-109990000D01*
X96122857Y-110037619D01*
X96170476Y-110132857D01*
X96170476Y-110180476D01*
X96122857Y-110275714D01*
X96075238Y-110323333D01*
X95980000Y-110370952D01*
X95789523Y-110370952D01*
X95694285Y-110418571D01*
X95646666Y-110466190D01*
X95599047Y-110561428D01*
X95599047Y-110751904D01*
X95646666Y-110847142D01*
X95694285Y-110894761D01*
X95789523Y-110942380D01*
X95980000Y-110942380D01*
X96075238Y-110894761D01*
X96122857Y-110847142D01*
X96170476Y-110751904D01*
X96170476Y-110561428D01*
X96122857Y-110466190D01*
X96075238Y-110418571D01*
X95980000Y-110370952D01*
%TO.C,MC68B50*%
X141422380Y-90868095D02*
X140422380Y-90868095D01*
X141136666Y-90534761D01*
X140422380Y-90201428D01*
X141422380Y-90201428D01*
X141327142Y-89153809D02*
X141374761Y-89201428D01*
X141422380Y-89344285D01*
X141422380Y-89439523D01*
X141374761Y-89582380D01*
X141279523Y-89677619D01*
X141184285Y-89725238D01*
X140993809Y-89772857D01*
X140850952Y-89772857D01*
X140660476Y-89725238D01*
X140565238Y-89677619D01*
X140470000Y-89582380D01*
X140422380Y-89439523D01*
X140422380Y-89344285D01*
X140470000Y-89201428D01*
X140517619Y-89153809D01*
X140422380Y-88296666D02*
X140422380Y-88487142D01*
X140470000Y-88582380D01*
X140517619Y-88630000D01*
X140660476Y-88725238D01*
X140850952Y-88772857D01*
X141231904Y-88772857D01*
X141327142Y-88725238D01*
X141374761Y-88677619D01*
X141422380Y-88582380D01*
X141422380Y-88391904D01*
X141374761Y-88296666D01*
X141327142Y-88249047D01*
X141231904Y-88201428D01*
X140993809Y-88201428D01*
X140898571Y-88249047D01*
X140850952Y-88296666D01*
X140803333Y-88391904D01*
X140803333Y-88582380D01*
X140850952Y-88677619D01*
X140898571Y-88725238D01*
X140993809Y-88772857D01*
X140850952Y-87630000D02*
X140803333Y-87725238D01*
X140755714Y-87772857D01*
X140660476Y-87820476D01*
X140612857Y-87820476D01*
X140517619Y-87772857D01*
X140470000Y-87725238D01*
X140422380Y-87630000D01*
X140422380Y-87439523D01*
X140470000Y-87344285D01*
X140517619Y-87296666D01*
X140612857Y-87249047D01*
X140660476Y-87249047D01*
X140755714Y-87296666D01*
X140803333Y-87344285D01*
X140850952Y-87439523D01*
X140850952Y-87630000D01*
X140898571Y-87725238D01*
X140946190Y-87772857D01*
X141041428Y-87820476D01*
X141231904Y-87820476D01*
X141327142Y-87772857D01*
X141374761Y-87725238D01*
X141422380Y-87630000D01*
X141422380Y-87439523D01*
X141374761Y-87344285D01*
X141327142Y-87296666D01*
X141231904Y-87249047D01*
X141041428Y-87249047D01*
X140946190Y-87296666D01*
X140898571Y-87344285D01*
X140850952Y-87439523D01*
X140898571Y-86487142D02*
X140946190Y-86344285D01*
X140993809Y-86296666D01*
X141089047Y-86249047D01*
X141231904Y-86249047D01*
X141327142Y-86296666D01*
X141374761Y-86344285D01*
X141422380Y-86439523D01*
X141422380Y-86820476D01*
X140422380Y-86820476D01*
X140422380Y-86487142D01*
X140470000Y-86391904D01*
X140517619Y-86344285D01*
X140612857Y-86296666D01*
X140708095Y-86296666D01*
X140803333Y-86344285D01*
X140850952Y-86391904D01*
X140898571Y-86487142D01*
X140898571Y-86820476D01*
X140422380Y-85344285D02*
X140422380Y-85820476D01*
X140898571Y-85868095D01*
X140850952Y-85820476D01*
X140803333Y-85725238D01*
X140803333Y-85487142D01*
X140850952Y-85391904D01*
X140898571Y-85344285D01*
X140993809Y-85296666D01*
X141231904Y-85296666D01*
X141327142Y-85344285D01*
X141374761Y-85391904D01*
X141422380Y-85487142D01*
X141422380Y-85725238D01*
X141374761Y-85820476D01*
X141327142Y-85868095D01*
X140422380Y-84677619D02*
X140422380Y-84582380D01*
X140470000Y-84487142D01*
X140517619Y-84439523D01*
X140612857Y-84391904D01*
X140803333Y-84344285D01*
X141041428Y-84344285D01*
X141231904Y-84391904D01*
X141327142Y-84439523D01*
X141374761Y-84487142D01*
X141422380Y-84582380D01*
X141422380Y-84677619D01*
X141374761Y-84772857D01*
X141327142Y-84820476D01*
X141231904Y-84868095D01*
X141041428Y-84915714D01*
X140803333Y-84915714D01*
X140612857Y-84868095D01*
X140517619Y-84820476D01*
X140470000Y-84772857D01*
X140422380Y-84677619D01*
%TO.C,22pF*%
X96127142Y-96307619D02*
X96174761Y-96260000D01*
X96270000Y-96212380D01*
X96508095Y-96212380D01*
X96603333Y-96260000D01*
X96650952Y-96307619D01*
X96698571Y-96402857D01*
X96698571Y-96498095D01*
X96650952Y-96640952D01*
X96079523Y-97212380D01*
X96698571Y-97212380D01*
X97079523Y-96307619D02*
X97127142Y-96260000D01*
X97222380Y-96212380D01*
X97460476Y-96212380D01*
X97555714Y-96260000D01*
X97603333Y-96307619D01*
X97650952Y-96402857D01*
X97650952Y-96498095D01*
X97603333Y-96640952D01*
X97031904Y-97212380D01*
X97650952Y-97212380D01*
X98079523Y-96545714D02*
X98079523Y-97545714D01*
X98079523Y-96593333D02*
X98174761Y-96545714D01*
X98365238Y-96545714D01*
X98460476Y-96593333D01*
X98508095Y-96640952D01*
X98555714Y-96736190D01*
X98555714Y-97021904D01*
X98508095Y-97117142D01*
X98460476Y-97164761D01*
X98365238Y-97212380D01*
X98174761Y-97212380D01*
X98079523Y-97164761D01*
X99317619Y-96688571D02*
X98984285Y-96688571D01*
X98984285Y-97212380D02*
X98984285Y-96212380D01*
X99460476Y-96212380D01*
%TO.C,74HC00*%
X113752380Y-103623714D02*
X113752380Y-102957047D01*
X114752380Y-103385619D01*
X114085714Y-102147523D02*
X114752380Y-102147523D01*
X113704761Y-102385619D02*
X114419047Y-102623714D01*
X114419047Y-102004666D01*
X114752380Y-101623714D02*
X113752380Y-101623714D01*
X114228571Y-101623714D02*
X114228571Y-101052285D01*
X114752380Y-101052285D02*
X113752380Y-101052285D01*
X114657142Y-100004666D02*
X114704761Y-100052285D01*
X114752380Y-100195142D01*
X114752380Y-100290380D01*
X114704761Y-100433238D01*
X114609523Y-100528476D01*
X114514285Y-100576095D01*
X114323809Y-100623714D01*
X114180952Y-100623714D01*
X113990476Y-100576095D01*
X113895238Y-100528476D01*
X113800000Y-100433238D01*
X113752380Y-100290380D01*
X113752380Y-100195142D01*
X113800000Y-100052285D01*
X113847619Y-100004666D01*
X113752380Y-99385619D02*
X113752380Y-99290380D01*
X113800000Y-99195142D01*
X113847619Y-99147523D01*
X113942857Y-99099904D01*
X114133333Y-99052285D01*
X114371428Y-99052285D01*
X114561904Y-99099904D01*
X114657142Y-99147523D01*
X114704761Y-99195142D01*
X114752380Y-99290380D01*
X114752380Y-99385619D01*
X114704761Y-99480857D01*
X114657142Y-99528476D01*
X114561904Y-99576095D01*
X114371428Y-99623714D01*
X114133333Y-99623714D01*
X113942857Y-99576095D01*
X113847619Y-99528476D01*
X113800000Y-99480857D01*
X113752380Y-99385619D01*
X113752380Y-98433238D02*
X113752380Y-98338000D01*
X113800000Y-98242761D01*
X113847619Y-98195142D01*
X113942857Y-98147523D01*
X114133333Y-98099904D01*
X114371428Y-98099904D01*
X114561904Y-98147523D01*
X114657142Y-98195142D01*
X114704761Y-98242761D01*
X114752380Y-98338000D01*
X114752380Y-98433238D01*
X114704761Y-98528476D01*
X114657142Y-98576095D01*
X114561904Y-98623714D01*
X114371428Y-98671333D01*
X114133333Y-98671333D01*
X113942857Y-98623714D01*
X113847619Y-98576095D01*
X113800000Y-98528476D01*
X113752380Y-98433238D01*
%TO.C,1M*%
X93694285Y-89352380D02*
X93122857Y-89352380D01*
X93408571Y-89352380D02*
X93408571Y-88352380D01*
X93313333Y-88495238D01*
X93218095Y-88590476D01*
X93122857Y-88638095D01*
X94122857Y-89352380D02*
X94122857Y-88352380D01*
X94456190Y-89066666D01*
X94789523Y-88352380D01*
X94789523Y-89352380D01*
D13*
%TO.C,RESET*%
X130870000Y-118170000D02*
X130870000Y-115510000D01*
X125670000Y-118170000D02*
X125670000Y-116840000D01*
X128270000Y-115510000D02*
X130870000Y-115510000D01*
X128270000Y-118170000D02*
X130870000Y-118170000D01*
X128270000Y-118170000D02*
X128270000Y-115510000D01*
X127000000Y-118170000D02*
X125670000Y-118170000D01*
%TO.C,VCC*%
X130870000Y-72450000D02*
X130870000Y-69790000D01*
X125670000Y-72450000D02*
X125670000Y-71120000D01*
X128270000Y-72450000D02*
X130870000Y-72450000D01*
X127000000Y-72450000D02*
X125670000Y-72450000D01*
X128270000Y-72450000D02*
X128270000Y-69790000D01*
X128270000Y-69790000D02*
X130870000Y-69790000D01*
%TO.C,4148*%
X122120000Y-109940000D02*
X119180000Y-109940000D01*
X120650000Y-107820000D02*
X120650000Y-109040000D01*
X122120000Y-110060000D02*
X119180000Y-110060000D01*
X119180000Y-109040000D02*
X119180000Y-114480000D01*
X119180000Y-114480000D02*
X122120000Y-114480000D01*
X122120000Y-114480000D02*
X122120000Y-109040000D01*
X122120000Y-109820000D02*
X119180000Y-109820000D01*
X122120000Y-109040000D02*
X119180000Y-109040000D01*
X120650000Y-115700000D02*
X120650000Y-114480000D01*
%TO.C,1k*%
X89940000Y-92710000D02*
X90710000Y-92710000D01*
X98020000Y-92710000D02*
X97250000Y-92710000D01*
X90710000Y-91340000D02*
X90710000Y-94080000D01*
X97250000Y-91340000D02*
X90710000Y-91340000D01*
X97250000Y-94080000D02*
X97250000Y-91340000D01*
X90710000Y-94080000D02*
X97250000Y-94080000D01*
%TO.C,22pF*%
X88330000Y-100230000D02*
X91970000Y-100230000D01*
X88330000Y-97890000D02*
X88330000Y-98135000D01*
X88330000Y-99985000D02*
X88330000Y-100230000D01*
X91970000Y-99985000D02*
X91970000Y-100230000D01*
X91970000Y-97890000D02*
X91970000Y-98135000D01*
X88330000Y-97890000D02*
X91970000Y-97890000D01*
%TO.C,REF\u002A\u002A*%
X88840000Y-130810000D02*
X88840000Y-129480000D01*
X91440000Y-129480000D02*
X180400000Y-129480000D01*
X88840000Y-129480000D02*
X90170000Y-129480000D01*
X180400000Y-132140000D02*
X180400000Y-129480000D01*
X91440000Y-132140000D02*
X180400000Y-132140000D01*
X91440000Y-132140000D02*
X91440000Y-129480000D01*
%TO.C,100nF*%
X139590000Y-78640000D02*
X139590000Y-78955000D01*
X134650000Y-78640000D02*
X134650000Y-78955000D01*
X139590000Y-81065000D02*
X139590000Y-81380000D01*
X134650000Y-78640000D02*
X139590000Y-78640000D01*
X134650000Y-81380000D02*
X139590000Y-81380000D01*
X134650000Y-81065000D02*
X134650000Y-81380000D01*
%TO.C,REF\u002A\u002A*%
X102940000Y-109005000D02*
X102940000Y-109320000D01*
X102940000Y-106580000D02*
X107880000Y-106580000D01*
X102940000Y-106580000D02*
X102940000Y-106895000D01*
X102940000Y-109320000D02*
X107880000Y-109320000D01*
X107880000Y-109005000D02*
X107880000Y-109320000D01*
X107880000Y-106580000D02*
X107880000Y-106895000D01*
%TO.C,100k*%
X124230000Y-86360000D02*
X125000000Y-86360000D01*
X131540000Y-87730000D02*
X131540000Y-84990000D01*
X125000000Y-87730000D02*
X131540000Y-87730000D01*
X125000000Y-84990000D02*
X125000000Y-87730000D01*
X132310000Y-86360000D02*
X131540000Y-86360000D01*
X131540000Y-84990000D02*
X125000000Y-84990000D01*
%TO.C,73728*%
X90765000Y-104155000D02*
X97015000Y-104155000D01*
X90765000Y-109205000D02*
X97015000Y-109205000D01*
X90765000Y-104155000D02*
G75*
G03*
X90765000Y-109205000I0J-2525000D01*
G01*
X97015000Y-109205000D02*
G75*
G03*
X97015000Y-104155000I0J2525000D01*
G01*
%TO.C,MC68B50*%
X172775000Y-81550000D02*
X142175000Y-81550000D01*
X142175000Y-81550000D02*
X142175000Y-86610000D01*
X142175000Y-88610000D02*
X142175000Y-93670000D01*
X172775000Y-93670000D02*
X172775000Y-81550000D01*
X142175000Y-93670000D02*
X172775000Y-93670000D01*
X142175000Y-88610000D02*
G75*
G03*
X142175000Y-86610000I0J1000000D01*
G01*
%TO.C,REF\u002A\u002A*%
X146050000Y-72450000D02*
X146050000Y-69790000D01*
X143450000Y-69790000D02*
X144780000Y-69790000D01*
X146050000Y-69790000D02*
X158810000Y-69790000D01*
X158810000Y-72450000D02*
X158810000Y-69790000D01*
X146050000Y-72450000D02*
X158810000Y-72450000D01*
X143450000Y-71120000D02*
X143450000Y-69790000D01*
%TO.C,22pF*%
X95950000Y-97890000D02*
X95950000Y-98135000D01*
X95950000Y-99985000D02*
X95950000Y-100230000D01*
X95950000Y-97890000D02*
X99590000Y-97890000D01*
X99590000Y-99985000D02*
X99590000Y-100230000D01*
X95950000Y-100230000D02*
X99590000Y-100230000D01*
X99590000Y-97890000D02*
X99590000Y-98135000D01*
%TO.C,REF\u002A\u002A*%
X123145000Y-93960000D02*
X125745000Y-93960000D01*
X123145000Y-91360000D02*
X124475000Y-91360000D01*
X123145000Y-96560000D02*
X123145000Y-93960000D01*
X123145000Y-96560000D02*
X130885000Y-96560000D01*
X123145000Y-92690000D02*
X123145000Y-91360000D01*
X125745000Y-93960000D02*
X125745000Y-91360000D01*
X130885000Y-96560000D02*
X130885000Y-91360000D01*
X125745000Y-91360000D02*
X130885000Y-91360000D01*
X118380888Y-81284000D02*
X118380888Y-82780000D01*
X119021888Y-84860000D02*
X119021888Y-86149000D01*
X118180888Y-81255000D02*
X118180888Y-82780000D01*
X119261888Y-81620000D02*
X119261888Y-82780000D01*
X118100888Y-81247000D02*
X118100888Y-86393000D01*
X118260888Y-81264000D02*
X118260888Y-82780000D01*
X118540888Y-84860000D02*
X118540888Y-86321000D01*
X119901888Y-84860000D02*
X119901888Y-85473000D01*
X120101888Y-84860000D02*
X120101888Y-85203000D01*
X118781888Y-81392000D02*
X118781888Y-82780000D01*
X119421888Y-84860000D02*
X119421888Y-85915000D01*
X117900888Y-81240000D02*
X117900888Y-86400000D01*
X120061888Y-84860000D02*
X120061888Y-85263000D01*
X115346113Y-82095000D02*
X115346113Y-82595000D01*
X119981888Y-84860000D02*
X119981888Y-85374000D01*
X120261888Y-82722000D02*
X120261888Y-84918000D01*
X118621888Y-81340000D02*
X118621888Y-82780000D01*
X120221888Y-82642000D02*
X120221888Y-84998000D01*
X118861888Y-81422000D02*
X118861888Y-82780000D01*
X120341888Y-82905000D02*
X120341888Y-84735000D01*
X118460888Y-81300000D02*
X118460888Y-82780000D01*
X118861888Y-84860000D02*
X118861888Y-86218000D01*
X118661888Y-81352000D02*
X118661888Y-82780000D01*
X119821888Y-82077000D02*
X119821888Y-82780000D01*
X118300888Y-84860000D02*
X118300888Y-86370000D01*
X120061888Y-82377000D02*
X120061888Y-82780000D01*
X119741888Y-84860000D02*
X119741888Y-85646000D01*
X118180888Y-84860000D02*
X118180888Y-86385000D01*
X119381888Y-81698000D02*
X119381888Y-82780000D01*
X119541888Y-84860000D02*
X119541888Y-85824000D01*
X118781888Y-84860000D02*
X118781888Y-86248000D01*
X120421888Y-83143000D02*
X120421888Y-84497000D01*
X119141888Y-81552000D02*
X119141888Y-82780000D01*
X118941888Y-81455000D02*
X118941888Y-82780000D01*
X119701888Y-81956000D02*
X119701888Y-82780000D01*
X118020888Y-81242000D02*
X118020888Y-86398000D01*
X119341888Y-84860000D02*
X119341888Y-85969000D01*
X118500888Y-84860000D02*
X118500888Y-86331000D01*
X119021888Y-81491000D02*
X119021888Y-82780000D01*
X119981888Y-82266000D02*
X119981888Y-82780000D01*
X119501888Y-81785000D02*
X119501888Y-82780000D01*
X118540888Y-81319000D02*
X118540888Y-82780000D01*
X119341888Y-81671000D02*
X119341888Y-82780000D01*
X119061888Y-84860000D02*
X119061888Y-86130000D01*
X120021888Y-82320000D02*
X120021888Y-82780000D01*
X119181888Y-84860000D02*
X119181888Y-86067000D01*
X119101888Y-81530000D02*
X119101888Y-82780000D01*
X119661888Y-84860000D02*
X119661888Y-85721000D01*
X119621888Y-84860000D02*
X119621888Y-85757000D01*
X119861888Y-82121000D02*
X119861888Y-82780000D01*
X118460888Y-84860000D02*
X118460888Y-86340000D01*
X118060888Y-81244000D02*
X118060888Y-86396000D01*
X119741888Y-81994000D02*
X119741888Y-82780000D01*
X118580888Y-84860000D02*
X118580888Y-86311000D01*
X119461888Y-84860000D02*
X119461888Y-85885000D01*
X118981888Y-81472000D02*
X118981888Y-82780000D01*
X117940888Y-81240000D02*
X117940888Y-86400000D01*
X118941888Y-84860000D02*
X118941888Y-86185000D01*
X118140888Y-84860000D02*
X118140888Y-86389000D01*
X119381888Y-84860000D02*
X119381888Y-85942000D01*
X118500888Y-81309000D02*
X118500888Y-82780000D01*
X120181888Y-84860000D02*
X120181888Y-85071000D01*
X118741888Y-84860000D02*
X118741888Y-86262000D01*
X119101888Y-84860000D02*
X119101888Y-86110000D01*
X120301888Y-82809000D02*
X120301888Y-84831000D01*
X119781888Y-84860000D02*
X119781888Y-85605000D01*
X119701888Y-84860000D02*
X119701888Y-85684000D01*
X118621888Y-84860000D02*
X118621888Y-86300000D01*
X119301888Y-81645000D02*
X119301888Y-82780000D01*
X119581888Y-84860000D02*
X119581888Y-85791000D01*
X119661888Y-81919000D02*
X119661888Y-82780000D01*
X119621888Y-81883000D02*
X119621888Y-82780000D01*
X118220888Y-84860000D02*
X118220888Y-86381000D01*
X119861888Y-84860000D02*
X119861888Y-85519000D01*
X120101888Y-82437000D02*
X120101888Y-82780000D01*
X118420888Y-84860000D02*
X118420888Y-86348000D01*
X119941888Y-84860000D02*
X119941888Y-85425000D01*
X118741888Y-81378000D02*
X118741888Y-82780000D01*
X115096113Y-82345000D02*
X115596113Y-82345000D01*
X119541888Y-81816000D02*
X119541888Y-82780000D01*
X119421888Y-81725000D02*
X119421888Y-82780000D01*
X119221888Y-84860000D02*
X119221888Y-86044000D01*
X119821888Y-84860000D02*
X119821888Y-85563000D01*
X120181888Y-82569000D02*
X120181888Y-82780000D01*
X120501888Y-83536000D02*
X120501888Y-84104000D01*
X119941888Y-82215000D02*
X119941888Y-82780000D01*
X118701888Y-84860000D02*
X118701888Y-86275000D01*
X118220888Y-81259000D02*
X118220888Y-82780000D01*
X119901888Y-82167000D02*
X119901888Y-82780000D01*
X120381888Y-83015000D02*
X120381888Y-84625000D01*
X118901888Y-81438000D02*
X118901888Y-82780000D01*
X119301888Y-84860000D02*
X119301888Y-85995000D01*
X117980888Y-81241000D02*
X117980888Y-86399000D01*
X119781888Y-82035000D02*
X119781888Y-82780000D01*
X119141888Y-84860000D02*
X119141888Y-86088000D01*
X119461888Y-81755000D02*
X119461888Y-82780000D01*
X118580888Y-81329000D02*
X118580888Y-82780000D01*
X118661888Y-84860000D02*
X118661888Y-86288000D01*
X119581888Y-81849000D02*
X119581888Y-82780000D01*
X120141888Y-84860000D02*
X120141888Y-85139000D01*
X120021888Y-84860000D02*
X120021888Y-85320000D01*
X118420888Y-81292000D02*
X118420888Y-82780000D01*
X118901888Y-84860000D02*
X118901888Y-86202000D01*
X120141888Y-82501000D02*
X120141888Y-82780000D01*
X118340888Y-81277000D02*
X118340888Y-82780000D01*
X118380888Y-84860000D02*
X118380888Y-86356000D01*
X119501888Y-84860000D02*
X119501888Y-85855000D01*
X118340888Y-84860000D02*
X118340888Y-86363000D01*
X118821888Y-81406000D02*
X118821888Y-82780000D01*
X118140888Y-81251000D02*
X118140888Y-82780000D01*
X120461888Y-83302000D02*
X120461888Y-84338000D01*
X119061888Y-81510000D02*
X119061888Y-82780000D01*
X119181888Y-81573000D02*
X119181888Y-82780000D01*
X118981888Y-84860000D02*
X118981888Y-86168000D01*
X118300888Y-81270000D02*
X118300888Y-82780000D01*
X118260888Y-84860000D02*
X118260888Y-86376000D01*
X119221888Y-81596000D02*
X119221888Y-82780000D01*
X118701888Y-81365000D02*
X118701888Y-82780000D01*
X119261888Y-84860000D02*
X119261888Y-86020000D01*
X118821888Y-84860000D02*
X118821888Y-86234000D01*
X120520888Y-83820000D02*
G75*
G03*
X120520888Y-83820000I-2620000J0D01*
G01*
%TO.C,74HC00*%
X105690000Y-104205000D02*
X106940000Y-104205000D01*
X113190000Y-86245000D02*
X102690000Y-86245000D01*
X110190000Y-104205000D02*
X110190000Y-86305000D01*
X113190000Y-104265000D02*
X113190000Y-86245000D01*
X110190000Y-86305000D02*
X105690000Y-86305000D01*
X108940000Y-104205000D02*
X110190000Y-104205000D01*
X102690000Y-104265000D02*
X113190000Y-104265000D01*
X102690000Y-86245000D02*
X102690000Y-104265000D01*
X105690000Y-86305000D02*
X105690000Y-104205000D01*
X108940000Y-104205000D02*
G75*
G03*
X106940000Y-104205000I-1000000J0D01*
G01*
%TO.C,1M*%
X90710000Y-87530000D02*
X90710000Y-90270000D01*
X90710000Y-90270000D02*
X97250000Y-90270000D01*
X97250000Y-90270000D02*
X97250000Y-87530000D01*
X89940000Y-88900000D02*
X90710000Y-88900000D01*
X97250000Y-87530000D02*
X90710000Y-87530000D01*
X98020000Y-88900000D02*
X97250000Y-88900000D01*
%TD*%
M02*
