M48
; DRILL file {KiCad 6.0.11+dfsg-1} date ven 2 gen 2026, 12:46:04
; FORMAT={-:-/ absolute / inch / decimal}
; #@! TF.CreationDate,2026-01-02T12:46:04+01:00
; #@! TF.GenerationSoftware,Kicad,Pcbnew,6.0.11+dfsg-1
; #@! TF.FileFunction,Plated,1,2,PTH
FMAT,2
INCH
; #@! TA.AperFunction,Plated,PTH,ViaDrill
T1C0.0157
; #@! TA.AperFunction,Plated,PTH,ComponentDrill
T2C0.0315
; #@! TA.AperFunction,Plated,PTH,ComponentDrill
T3C0.0354
; #@! TA.AperFunction,Plated,PTH,ComponentDrill
T4C0.0394
%
G90
G05
T1
X5.65Y-4.45
X5.9Y-2.95
X6.35Y-4.75
X6.4498Y-4.4002
T2
X3.5Y-3.5
X3.5Y-3.65
X3.5Y-3.9
X3.5984Y-3.9
X3.6Y-4.2
X3.7929Y-4.2
X3.8Y-3.9
X3.8984Y-3.9
X3.9Y-3.5
X3.9Y-3.65
X4.0516Y-4.25
X4.0996Y-3.4502
X4.0996Y-3.5502
X4.0996Y-3.6502
X4.0996Y-3.7502
X4.0996Y-3.8502
X4.0996Y-3.9502
X4.0996Y-4.0502
X4.2484Y-4.25
X4.3996Y-3.4502
X4.3996Y-3.5502
X4.3996Y-3.6502
X4.3996Y-3.7502
X4.3996Y-3.8502
X4.3996Y-3.9502
X4.3996Y-4.0502
X4.5926Y-3.3
X4.691Y-3.3
X4.85Y-3.4
X5.25Y-3.4
X5.3Y-3.15
X5.4969Y-3.15
X5.6498Y-3.1492
X5.6498Y-3.7492
X5.7498Y-3.1492
X5.7498Y-3.7492
X5.8498Y-3.1492
X5.8498Y-3.7492
X5.9498Y-3.1492
X5.9498Y-3.7492
X6.0498Y-3.1492
X6.0498Y-3.7492
X6.1498Y-3.1492
X6.1498Y-3.7492
X6.2498Y-3.1492
X6.2498Y-3.7492
X6.3498Y-3.1492
X6.3498Y-3.7492
X6.4498Y-3.1492
X6.4498Y-3.7492
X6.5498Y-3.1492
X6.5498Y-3.7492
X6.6498Y-3.1492
X6.6498Y-3.7492
X6.7498Y-3.1492
X6.7498Y-3.7492
T3
X4.75Y-4.2
X4.75Y-4.6
T4
X3.55Y-5.15
X3.65Y-5.15
X3.75Y-5.15
X3.85Y-5.15
X3.95Y-5.15
X4.05Y-5.15
X4.15Y-5.15
X4.25Y-5.15
X4.35Y-5.15
X4.45Y-5.15
X4.55Y-5.15
X4.65Y-5.15
X4.75Y-5.15
X4.85Y-5.15
X4.9006Y-3.6492
X4.9006Y-3.7492
X4.95Y-5.15
X5.0Y-2.8
X5.0Y-4.6
X5.0006Y-3.6492
X5.0006Y-3.7492
X5.05Y-5.15
X5.1Y-2.8
X5.1Y-4.6
X5.1006Y-3.6492
X5.1006Y-3.7492
X5.15Y-5.15
X5.25Y-5.15
X5.35Y-5.15
X5.45Y-5.15
X5.55Y-5.15
X5.65Y-5.15
X5.7Y-2.8
X5.75Y-5.15
X5.8Y-2.8
X5.85Y-5.15
X5.9Y-2.8
X5.95Y-5.15
X6.0Y-2.8
X6.05Y-5.15
X6.1Y-2.8
X6.15Y-5.15
X6.2Y-2.8
X6.25Y-5.15
X6.35Y-5.15
X6.45Y-5.15
X6.55Y-5.15
X6.65Y-5.15
X6.75Y-5.15
X6.85Y-5.15
X6.95Y-5.15
X7.05Y-5.15
T0
M30
