%TF.GenerationSoftware,KiCad,Pcbnew,6.0.11+dfsg-1*%
%TF.CreationDate,2025-09-19T17:12:33+02:00*%
%TF.ProjectId,out,6f75742e-6b69-4636-9164-5f7063625858,rev?*%
%TF.SameCoordinates,Original*%
%TF.FileFunction,Copper,L1,Top*%
%TF.FilePolarity,Positive*%
%FSLAX46Y46*%
G04 Gerber Fmt 4.6, Leading zero omitted, Abs format (unit mm)*
G04 Created by KiCad (PCBNEW 6.0.11+dfsg-1) date 2025-09-19 17:12:33*
%MOMM*%
%LPD*%
G01*
G04 APERTURE LIST*
%ADD10C,0.300000*%
%TA.AperFunction,NonConductor*%
%ADD11C,0.300000*%
%TD*%
%ADD12C,0.200000*%
%TA.AperFunction,NonConductor*%
%ADD13C,0.200000*%
%TD*%
%TA.AperFunction,ComponentPad*%
%ADD14R,1.700000X1.700000*%
%TD*%
%TA.AperFunction,ComponentPad*%
%ADD15O,1.700000X1.700000*%
%TD*%
%TA.AperFunction,ComponentPad*%
%ADD16C,1.600000*%
%TD*%
%TA.AperFunction,ComponentPad*%
%ADD17O,1.600000X1.600000*%
%TD*%
%TA.AperFunction,ComponentPad*%
%ADD18R,1.600000X2.400000*%
%TD*%
%TA.AperFunction,ComponentPad*%
%ADD19O,1.600000X2.400000*%
%TD*%
%TA.AperFunction,ComponentPad*%
%ADD20R,1.800000X1.800000*%
%TD*%
%TA.AperFunction,ComponentPad*%
%ADD21C,1.800000*%
%TD*%
%TA.AperFunction,Conductor*%
%ADD22C,1.000000*%
%TD*%
%TA.AperFunction,Conductor*%
%ADD23C,0.500000*%
%TD*%
%TA.AperFunction,Conductor*%
%ADD24C,0.250000*%
%TD*%
G04 APERTURE END LIST*
D10*
D11*
X142525714Y-65218571D02*
X142240000Y-65218571D01*
X142097142Y-65290000D01*
X142025714Y-65361428D01*
X141882857Y-65575714D01*
X141811428Y-65861428D01*
X141811428Y-66432857D01*
X141882857Y-66575714D01*
X141954285Y-66647142D01*
X142097142Y-66718571D01*
X142382857Y-66718571D01*
X142525714Y-66647142D01*
X142597142Y-66575714D01*
X142668571Y-66432857D01*
X142668571Y-66075714D01*
X142597142Y-65932857D01*
X142525714Y-65861428D01*
X142382857Y-65790000D01*
X142097142Y-65790000D01*
X141954285Y-65861428D01*
X141882857Y-65932857D01*
X141811428Y-66075714D01*
D10*
D11*
X111070000Y-71370000D02*
X111784285Y-71370000D01*
X110927142Y-71798571D02*
X111427142Y-70298571D01*
X111927142Y-71798571D01*
X112284285Y-70298571D02*
X113284285Y-70298571D01*
X112641428Y-71798571D01*
X114998571Y-71227142D02*
X116141428Y-71227142D01*
X117927142Y-71370000D02*
X118641428Y-71370000D01*
X117784285Y-71798571D02*
X118284285Y-70298571D01*
X118784285Y-71798571D01*
X119570000Y-70298571D02*
X119712857Y-70298571D01*
X119855714Y-70370000D01*
X119927142Y-70441428D01*
X119998571Y-70584285D01*
X120070000Y-70870000D01*
X120070000Y-71227142D01*
X119998571Y-71512857D01*
X119927142Y-71655714D01*
X119855714Y-71727142D01*
X119712857Y-71798571D01*
X119570000Y-71798571D01*
X119427142Y-71727142D01*
X119355714Y-71655714D01*
X119284285Y-71512857D01*
X119212857Y-71227142D01*
X119212857Y-70870000D01*
X119284285Y-70584285D01*
X119355714Y-70441428D01*
X119427142Y-70370000D01*
X119570000Y-70298571D01*
D12*
D13*
X101204285Y-65667142D02*
X103204285Y-65667142D01*
X101204285Y-68667142D01*
X103204285Y-68667142D01*
X104775714Y-66952857D02*
X104490000Y-66810000D01*
X104347142Y-66667142D01*
X104204285Y-66381428D01*
X104204285Y-66238571D01*
X104347142Y-65952857D01*
X104490000Y-65810000D01*
X104775714Y-65667142D01*
X105347142Y-65667142D01*
X105632857Y-65810000D01*
X105775714Y-65952857D01*
X105918571Y-66238571D01*
X105918571Y-66381428D01*
X105775714Y-66667142D01*
X105632857Y-66810000D01*
X105347142Y-66952857D01*
X104775714Y-66952857D01*
X104490000Y-67095714D01*
X104347142Y-67238571D01*
X104204285Y-67524285D01*
X104204285Y-68095714D01*
X104347142Y-68381428D01*
X104490000Y-68524285D01*
X104775714Y-68667142D01*
X105347142Y-68667142D01*
X105632857Y-68524285D01*
X105775714Y-68381428D01*
X105918571Y-68095714D01*
X105918571Y-67524285D01*
X105775714Y-67238571D01*
X105632857Y-67095714D01*
X105347142Y-66952857D01*
X107775714Y-65667142D02*
X108061428Y-65667142D01*
X108347142Y-65810000D01*
X108490000Y-65952857D01*
X108632857Y-66238571D01*
X108775714Y-66810000D01*
X108775714Y-67524285D01*
X108632857Y-68095714D01*
X108490000Y-68381428D01*
X108347142Y-68524285D01*
X108061428Y-68667142D01*
X107775714Y-68667142D01*
X107490000Y-68524285D01*
X107347142Y-68381428D01*
X107204285Y-68095714D01*
X107061428Y-67524285D01*
X107061428Y-66810000D01*
X107204285Y-66238571D01*
X107347142Y-65952857D01*
X107490000Y-65810000D01*
X107775714Y-65667142D01*
X112918571Y-65667142D02*
X113490000Y-65667142D01*
X113775714Y-65810000D01*
X114061428Y-66095714D01*
X114204285Y-66667142D01*
X114204285Y-67667142D01*
X114061428Y-68238571D01*
X113775714Y-68524285D01*
X113490000Y-68667142D01*
X112918571Y-68667142D01*
X112632857Y-68524285D01*
X112347142Y-68238571D01*
X112204285Y-67667142D01*
X112204285Y-66667142D01*
X112347142Y-66095714D01*
X112632857Y-65810000D01*
X112918571Y-65667142D01*
X115490000Y-65667142D02*
X115490000Y-68095714D01*
X115632857Y-68381428D01*
X115775714Y-68524285D01*
X116061428Y-68667142D01*
X116632857Y-68667142D01*
X116918571Y-68524285D01*
X117061428Y-68381428D01*
X117204285Y-68095714D01*
X117204285Y-65667142D01*
X118204285Y-65667142D02*
X119918571Y-65667142D01*
X119061428Y-68667142D02*
X119061428Y-65667142D01*
D10*
D11*
X164600000Y-65218571D02*
X165528571Y-65218571D01*
X165028571Y-65790000D01*
X165242857Y-65790000D01*
X165385714Y-65861428D01*
X165457142Y-65932857D01*
X165528571Y-66075714D01*
X165528571Y-66432857D01*
X165457142Y-66575714D01*
X165385714Y-66647142D01*
X165242857Y-66718571D01*
X164814285Y-66718571D01*
X164671428Y-66647142D01*
X164600000Y-66575714D01*
D10*
D11*
X172291428Y-65361428D02*
X172362857Y-65290000D01*
X172505714Y-65218571D01*
X172862857Y-65218571D01*
X173005714Y-65290000D01*
X173077142Y-65361428D01*
X173148571Y-65504285D01*
X173148571Y-65647142D01*
X173077142Y-65861428D01*
X172220000Y-66718571D01*
X173148571Y-66718571D01*
D10*
D11*
X157765714Y-65718571D02*
X157765714Y-66718571D01*
X157408571Y-65147142D02*
X157051428Y-66218571D01*
X157980000Y-66218571D01*
D10*
D11*
X180768571Y-66718571D02*
X179911428Y-66718571D01*
X180340000Y-66718571D02*
X180340000Y-65218571D01*
X180197142Y-65432857D01*
X180054285Y-65575714D01*
X179911428Y-65647142D01*
D10*
D11*
X150217142Y-65218571D02*
X149502857Y-65218571D01*
X149431428Y-65932857D01*
X149502857Y-65861428D01*
X149645714Y-65790000D01*
X150002857Y-65790000D01*
X150145714Y-65861428D01*
X150217142Y-65932857D01*
X150288571Y-66075714D01*
X150288571Y-66432857D01*
X150217142Y-66575714D01*
X150145714Y-66647142D01*
X150002857Y-66718571D01*
X149645714Y-66718571D01*
X149502857Y-66647142D01*
X149431428Y-66575714D01*
D10*
D11*
X134120000Y-65218571D02*
X135120000Y-65218571D01*
X134477142Y-66718571D01*
D10*
D11*
X187888571Y-65218571D02*
X188031428Y-65218571D01*
X188174285Y-65290000D01*
X188245714Y-65361428D01*
X188317142Y-65504285D01*
X188388571Y-65790000D01*
X188388571Y-66147142D01*
X188317142Y-66432857D01*
X188245714Y-66575714D01*
X188174285Y-66647142D01*
X188031428Y-66718571D01*
X187888571Y-66718571D01*
X187745714Y-66647142D01*
X187674285Y-66575714D01*
X187602857Y-66432857D01*
X187531428Y-66147142D01*
X187531428Y-65790000D01*
X187602857Y-65504285D01*
X187674285Y-65361428D01*
X187745714Y-65290000D01*
X187888571Y-65218571D01*
D14*
%TO.P,REF\u002A\u002A,1*%
%TO.N,N/C*%
X168910000Y-130810000D03*
D15*
%TO.P,REF\u002A\u002A,2*%
X171450000Y-130810000D03*
%TO.P,REF\u002A\u002A,3*%
X173990000Y-130810000D03*
%TO.P,REF\u002A\u002A,4*%
X176530000Y-130810000D03*
%TO.P,REF\u002A\u002A,5*%
X179070000Y-130810000D03*
%TO.P,REF\u002A\u002A,6*%
X181610000Y-130810000D03*
%TO.P,REF\u002A\u002A,7*%
X184150000Y-130810000D03*
%TO.P,REF\u002A\u002A,8*%
X186690000Y-130810000D03*
%TO.P,REF\u002A\u002A,9*%
X189230000Y-130810000D03*
%TO.P,REF\u002A\u002A,10*%
X191770000Y-130810000D03*
%TD*%
D14*
%TO.P,REF\u002A\u002A,1*%
%TO.N,N/C*%
X143510000Y-128270000D03*
D15*
%TO.P,REF\u002A\u002A,2*%
X143510000Y-130810000D03*
%TO.P,REF\u002A\u002A,3*%
X146050000Y-128270000D03*
%TO.P,REF\u002A\u002A,4*%
X146050000Y-130810000D03*
%TO.P,REF\u002A\u002A,5*%
X148590000Y-128270000D03*
%TO.P,REF\u002A\u002A,6*%
X148590000Y-130810000D03*
%TO.P,REF\u002A\u002A,7*%
X151130000Y-128270000D03*
%TO.P,REF\u002A\u002A,8*%
X151130000Y-130810000D03*
%TO.P,REF\u002A\u002A,9*%
X153670000Y-128270000D03*
%TO.P,REF\u002A\u002A,10*%
X153670000Y-130810000D03*
%TO.P,REF\u002A\u002A,11*%
X156210000Y-128270000D03*
%TO.P,REF\u002A\u002A,12*%
X156210000Y-130810000D03*
%TO.P,REF\u002A\u002A,13*%
X158750000Y-128270000D03*
%TO.P,REF\u002A\u002A,14*%
X158750000Y-130810000D03*
%TO.P,REF\u002A\u002A,15*%
X161290000Y-128270000D03*
%TO.P,REF\u002A\u002A,16*%
X161290000Y-130810000D03*
%TO.P,REF\u002A\u002A,17*%
X163830000Y-128270000D03*
%TO.P,REF\u002A\u002A,18*%
X163830000Y-130810000D03*
%TO.P,REF\u002A\u002A,19*%
X166370000Y-128270000D03*
%TO.P,REF\u002A\u002A,20*%
X166370000Y-130810000D03*
%TD*%
D16*
%TO.P,1k,1*%
%TO.N,N/C*%
X144780000Y-90170000D03*
D17*
%TO.P,1k,2*%
X144780000Y-80010000D03*
%TD*%
D16*
%TO.P,1k,1*%
%TO.N,N/C*%
X148590000Y-90170000D03*
D17*
%TO.P,1k,2*%
X148590000Y-80010000D03*
%TD*%
D18*
%TO.P,74hc32,1*%
%TO.N,N/C*%
X139700000Y-110490000D03*
D19*
%TO.P,74hc32,2*%
X142240000Y-110490000D03*
%TO.P,74hc32,3*%
X144780000Y-110490000D03*
%TO.P,74hc32,4*%
X147320000Y-110490000D03*
%TO.P,74hc32,5*%
X149860000Y-110490000D03*
%TO.P,74hc32,6*%
X152400000Y-110490000D03*
%TO.P,74hc32,7*%
X154940000Y-110490000D03*
%TO.P,74hc32,8*%
X154940000Y-102870000D03*
%TO.P,74hc32,9*%
X152400000Y-102870000D03*
%TO.P,74hc32,10*%
X149860000Y-102870000D03*
%TO.P,74hc32,11*%
X147320000Y-102870000D03*
%TO.P,74hc32,12*%
X144780000Y-102870000D03*
%TO.P,74hc32,13*%
X142240000Y-102870000D03*
%TO.P,74hc32,14*%
X139700000Y-102870000D03*
%TD*%
D20*
%TO.P,REF\u002A\u002A,1*%
%TO.N,N/C*%
X180340000Y-68580000D03*
D21*
%TO.P,REF\u002A\u002A,2*%
X180340000Y-71120000D03*
%TD*%
D14*
%TO.P,REF\u002A\u002A,1*%
%TO.N,N/C*%
X192990000Y-106362500D03*
D15*
%TO.P,REF\u002A\u002A,2*%
X192990000Y-103822500D03*
%TD*%
D20*
%TO.P,REF\u002A\u002A,1*%
%TO.N,N/C*%
X142240000Y-68580000D03*
D21*
%TO.P,REF\u002A\u002A,2*%
X142240000Y-71120000D03*
%TD*%
D14*
%TO.P,REF\u002A\u002A,1*%
%TO.N,N/C*%
X106680000Y-74930000D03*
D15*
%TO.P,REF\u002A\u002A,2*%
X106680000Y-77470000D03*
%TO.P,REF\u002A\u002A,3*%
X109220000Y-74930000D03*
%TO.P,REF\u002A\u002A,4*%
X109220000Y-77470000D03*
%TO.P,REF\u002A\u002A,5*%
X111760000Y-74930000D03*
%TO.P,REF\u002A\u002A,6*%
X111760000Y-77470000D03*
%TO.P,REF\u002A\u002A,7*%
X114300000Y-74930000D03*
%TO.P,REF\u002A\u002A,8*%
X114300000Y-77470000D03*
%TO.P,REF\u002A\u002A,9*%
X116840000Y-74930000D03*
%TO.P,REF\u002A\u002A,10*%
X116840000Y-77470000D03*
%TO.P,REF\u002A\u002A,11*%
X119380000Y-74930000D03*
%TO.P,REF\u002A\u002A,12*%
X119380000Y-77470000D03*
%TO.P,REF\u002A\u002A,13*%
X121920000Y-74930000D03*
%TO.P,REF\u002A\u002A,14*%
X121920000Y-77470000D03*
%TO.P,REF\u002A\u002A,15*%
X124460000Y-74930000D03*
%TO.P,REF\u002A\u002A,16*%
X124460000Y-77470000D03*
%TD*%
D16*
%TO.P,1k,1*%
%TO.N,N/C*%
X167640000Y-90170000D03*
D17*
%TO.P,1k,2*%
X167640000Y-80010000D03*
%TD*%
D16*
%TO.P,100nF,1*%
%TO.N,N/C*%
X132040000Y-114300000D03*
%TO.P,100nF,2*%
X127040000Y-114300000D03*
%TD*%
%TO.P,1k,1*%
%TO.N,N/C*%
X156210000Y-90170000D03*
D17*
%TO.P,1k,2*%
X156210000Y-80010000D03*
%TD*%
D16*
%TO.P,10k,1*%
%TO.N,N/C*%
X138430000Y-93980000D03*
D17*
%TO.P,10k,2*%
X128270000Y-93980000D03*
%TD*%
D16*
%TO.P,10k,1*%
%TO.N,N/C*%
X138430000Y-78740000D03*
D17*
%TO.P,10k,2*%
X128270000Y-78740000D03*
%TD*%
D16*
%TO.P,10k,1*%
%TO.N,N/C*%
X138430000Y-86360000D03*
D17*
%TO.P,10k,2*%
X128270000Y-86360000D03*
%TD*%
D20*
%TO.P,REF\u002A\u002A,1*%
%TO.N,N/C*%
X149860000Y-68580000D03*
D21*
%TO.P,REF\u002A\u002A,2*%
X149860000Y-71120000D03*
%TD*%
D18*
%TO.P,74hc574,1*%
%TO.N,N/C*%
X165100000Y-110490000D03*
D19*
%TO.P,74hc574,2*%
X167640000Y-110490000D03*
%TO.P,74hc574,3*%
X170180000Y-110490000D03*
%TO.P,74hc574,4*%
X172720000Y-110490000D03*
%TO.P,74hc574,5*%
X175260000Y-110490000D03*
%TO.P,74hc574,6*%
X177800000Y-110490000D03*
%TO.P,74hc574,7*%
X180340000Y-110490000D03*
%TO.P,74hc574,8*%
X182880000Y-110490000D03*
%TO.P,74hc574,9*%
X185420000Y-110490000D03*
%TO.P,74hc574,10*%
X187960000Y-110490000D03*
%TO.P,74hc574,11*%
X187960000Y-102870000D03*
%TO.P,74hc574,12*%
X185420000Y-102870000D03*
%TO.P,74hc574,13*%
X182880000Y-102870000D03*
%TO.P,74hc574,14*%
X180340000Y-102870000D03*
%TO.P,74hc574,15*%
X177800000Y-102870000D03*
%TO.P,74hc574,16*%
X175260000Y-102870000D03*
%TO.P,74hc574,17*%
X172720000Y-102870000D03*
%TO.P,74hc574,18*%
X170180000Y-102870000D03*
%TO.P,74hc574,19*%
X167640000Y-102870000D03*
%TO.P,74hc574,20*%
X165100000Y-102870000D03*
%TD*%
D16*
%TO.P,10k,1*%
%TO.N,N/C*%
X138430000Y-91440000D03*
D17*
%TO.P,10k,2*%
X128270000Y-91440000D03*
%TD*%
D16*
%TO.P,1k,1*%
%TO.N,N/C*%
X152400000Y-90170000D03*
D17*
%TO.P,1k,2*%
X152400000Y-80010000D03*
%TD*%
D16*
%TO.P,1k,1*%
%TO.N,N/C*%
X163830000Y-90170000D03*
D17*
%TO.P,1k,2*%
X163830000Y-80010000D03*
%TD*%
D16*
%TO.P,10k,1*%
%TO.N,N/C*%
X138430000Y-83820000D03*
D17*
%TO.P,10k,2*%
X128270000Y-83820000D03*
%TD*%
D20*
%TO.P,REF\u002A\u002A,1*%
%TO.N,N/C*%
X157480000Y-68580000D03*
D21*
%TO.P,REF\u002A\u002A,2*%
X157480000Y-71120000D03*
%TD*%
D20*
%TO.P,REF\u002A\u002A,1*%
%TO.N,N/C*%
X165100000Y-68580000D03*
D21*
%TO.P,REF\u002A\u002A,2*%
X165100000Y-71120000D03*
%TD*%
D14*
%TO.P,REF\u002A\u002A,1*%
%TO.N,N/C*%
X193040000Y-78740000D03*
D15*
%TO.P,REF\u002A\u002A,2*%
X193040000Y-81280000D03*
%TO.P,REF\u002A\u002A,3*%
X193040000Y-83820000D03*
%TO.P,REF\u002A\u002A,4*%
X193040000Y-86360000D03*
%TO.P,REF\u002A\u002A,5*%
X193040000Y-88900000D03*
%TO.P,REF\u002A\u002A,6*%
X193040000Y-91440000D03*
%TO.P,REF\u002A\u002A,7*%
X193040000Y-93980000D03*
%TO.P,REF\u002A\u002A,8*%
X193040000Y-96520000D03*
%TO.P,REF\u002A\u002A,9*%
X193040000Y-99060000D03*
%TD*%
D16*
%TO.P,10k,1*%
%TO.N,N/C*%
X138430000Y-88900000D03*
D17*
%TO.P,10k,2*%
X128270000Y-88900000D03*
%TD*%
D20*
%TO.P,REF\u002A\u002A,1*%
%TO.N,N/C*%
X187960000Y-68580000D03*
D21*
%TO.P,REF\u002A\u002A,2*%
X187960000Y-71120000D03*
%TD*%
D20*
%TO.P,REF\u002A\u002A,1*%
%TO.N,N/C*%
X134620000Y-68580000D03*
D21*
%TO.P,REF\u002A\u002A,2*%
X134620000Y-71120000D03*
%TD*%
D16*
%TO.P,1k,1*%
%TO.N,N/C*%
X160020000Y-90170000D03*
D17*
%TO.P,1k,2*%
X160020000Y-80010000D03*
%TD*%
D16*
%TO.P,10k,1*%
%TO.N,N/C*%
X138430000Y-96520000D03*
D17*
%TO.P,10k,2*%
X128270000Y-96520000D03*
%TD*%
D20*
%TO.P,REF\u002A\u002A,1*%
%TO.N,N/C*%
X172720000Y-68580000D03*
D21*
%TO.P,REF\u002A\u002A,2*%
X172720000Y-71120000D03*
%TD*%
D16*
%TO.P,100nF,1*%
%TO.N,N/C*%
X193040000Y-114260000D03*
%TO.P,100nF,2*%
X193040000Y-109260000D03*
%TD*%
%TO.P,100nF,1*%
%TO.N,N/C*%
X159980000Y-114300000D03*
%TO.P,100nF,2*%
X154980000Y-114300000D03*
%TD*%
%TO.P,1k,1*%
%TO.N,N/C*%
X171450000Y-90170000D03*
D17*
%TO.P,1k,2*%
X171450000Y-80010000D03*
%TD*%
D18*
%TO.P,74hc688,1*%
%TO.N,N/C*%
X104140000Y-110490000D03*
D19*
%TO.P,74hc688,2*%
X106680000Y-110490000D03*
%TO.P,74hc688,3*%
X109220000Y-110490000D03*
%TO.P,74hc688,4*%
X111760000Y-110490000D03*
%TO.P,74hc688,5*%
X114300000Y-110490000D03*
%TO.P,74hc688,6*%
X116840000Y-110490000D03*
%TO.P,74hc688,7*%
X119380000Y-110490000D03*
%TO.P,74hc688,8*%
X121920000Y-110490000D03*
%TO.P,74hc688,9*%
X124460000Y-110490000D03*
%TO.P,74hc688,10*%
X127000000Y-110490000D03*
%TO.P,74hc688,11*%
X127000000Y-102870000D03*
%TO.P,74hc688,12*%
X124460000Y-102870000D03*
%TO.P,74hc688,13*%
X121920000Y-102870000D03*
%TO.P,74hc688,14*%
X119380000Y-102870000D03*
%TO.P,74hc688,15*%
X116840000Y-102870000D03*
%TO.P,74hc688,16*%
X114300000Y-102870000D03*
%TO.P,74hc688,17*%
X111760000Y-102870000D03*
%TO.P,74hc688,18*%
X109220000Y-102870000D03*
%TO.P,74hc688,19*%
X106680000Y-102870000D03*
%TO.P,74hc688,20*%
X104140000Y-102870000D03*
%TD*%
D14*
%TO.P,REF\u002A\u002A,1*%
%TO.N,N/C*%
X102870000Y-130810000D03*
D15*
%TO.P,REF\u002A\u002A,2*%
X105410000Y-130810000D03*
%TO.P,REF\u002A\u002A,3*%
X107950000Y-130810000D03*
%TO.P,REF\u002A\u002A,4*%
X110490000Y-130810000D03*
%TO.P,REF\u002A\u002A,5*%
X113030000Y-130810000D03*
%TO.P,REF\u002A\u002A,6*%
X115570000Y-130810000D03*
%TO.P,REF\u002A\u002A,7*%
X118110000Y-130810000D03*
%TO.P,REF\u002A\u002A,8*%
X120650000Y-130810000D03*
%TO.P,REF\u002A\u002A,9*%
X123190000Y-130810000D03*
%TO.P,REF\u002A\u002A,10*%
X125730000Y-130810000D03*
%TO.P,REF\u002A\u002A,11*%
X128270000Y-130810000D03*
%TO.P,REF\u002A\u002A,12*%
X130810000Y-130810000D03*
%TO.P,REF\u002A\u002A,13*%
X133350000Y-130810000D03*
%TO.P,REF\u002A\u002A,14*%
X135890000Y-130810000D03*
%TO.P,REF\u002A\u002A,15*%
X138430000Y-130810000D03*
%TO.P,REF\u002A\u002A,16*%
X140970000Y-130810000D03*
%TD*%
D16*
%TO.P,10k,1*%
%TO.N,N/C*%
X138430000Y-81280000D03*
D17*
%TO.P,10k,2*%
X128270000Y-81280000D03*
%TD*%
D22*
%TO.N,*%
X138430000Y-86360000D02*
X138430000Y-88900000D01*
X172720000Y-68580000D02*
X180340000Y-68580000D01*
X186690000Y-68580000D02*
X187960000Y-68580000D01*
X149860000Y-68580000D02*
X157480000Y-68580000D01*
X140970000Y-119380000D02*
X144780000Y-119380000D01*
D23*
X120650000Y-88900000D02*
X114300000Y-82550000D01*
X127000000Y-77470000D02*
X124460000Y-77470000D01*
D22*
X193000000Y-114260000D02*
X193040000Y-114260000D01*
D23*
X193040000Y-96520000D02*
X187960000Y-96520000D01*
D22*
X127040000Y-110530000D02*
X127000000Y-110490000D01*
X132080000Y-106680000D02*
X130810000Y-105410000D01*
X158750000Y-119380000D02*
X165100000Y-119380000D01*
D23*
X157480000Y-95250000D02*
X182245000Y-95250000D01*
D22*
X195580000Y-68580000D02*
X186690000Y-68580000D01*
X144780000Y-119380000D02*
X149860000Y-114300000D01*
X154980000Y-110530000D02*
X154940000Y-110490000D01*
X180340000Y-68580000D02*
X186690000Y-68580000D01*
D23*
X144780000Y-91440000D02*
X144780000Y-90170000D01*
X175260000Y-90170000D02*
X186690000Y-78740000D01*
X188595000Y-88900000D02*
X193040000Y-88900000D01*
X185420000Y-99060000D02*
X152400000Y-99060000D01*
D24*
X120650000Y-86360000D02*
X128270000Y-86360000D01*
D23*
X152400000Y-99060000D02*
X144780000Y-91440000D01*
D22*
X127000000Y-119380000D02*
X127040000Y-119340000D01*
D24*
X121920000Y-80010000D02*
X123190000Y-81280000D01*
D22*
X195262500Y-103822500D02*
X195580000Y-104140000D01*
D23*
X163830000Y-92710000D02*
X180340000Y-92710000D01*
D22*
X195580000Y-104140000D02*
X195580000Y-99060000D01*
X100330000Y-110490000D02*
X104140000Y-110490000D01*
D23*
X182880000Y-96520000D02*
X154940000Y-96520000D01*
D22*
X130810000Y-105410000D02*
X104140000Y-105410000D01*
D23*
X187960000Y-100330000D02*
X187960000Y-102870000D01*
D22*
X127040000Y-119340000D02*
X127040000Y-114300000D01*
X195580000Y-99060000D02*
X193040000Y-99060000D01*
D24*
X123190000Y-81280000D02*
X128270000Y-81280000D01*
D23*
X154940000Y-96520000D02*
X152400000Y-93980000D01*
X128270000Y-88900000D02*
X120650000Y-88900000D01*
D22*
X100330000Y-99060000D02*
X100330000Y-110490000D01*
X138430000Y-88900000D02*
X138430000Y-91440000D01*
D23*
X152400000Y-102870000D02*
X152400000Y-110490000D01*
D22*
X127040000Y-114300000D02*
X127040000Y-110530000D01*
X140970000Y-119380000D02*
X127000000Y-119380000D01*
D23*
X189230000Y-86360000D02*
X181610000Y-93980000D01*
D24*
X116840000Y-77470000D02*
X116840000Y-82550000D01*
D23*
X193040000Y-86360000D02*
X189230000Y-86360000D01*
X106680000Y-102870000D02*
X106680000Y-100330000D01*
X182245000Y-95250000D02*
X188595000Y-88900000D01*
X167640000Y-91440000D02*
X179070000Y-91440000D01*
D22*
X157480000Y-68580000D02*
X165100000Y-68580000D01*
X189230000Y-110490000D02*
X193000000Y-114260000D01*
D23*
X148590000Y-92710000D02*
X153670000Y-97790000D01*
X156210000Y-90170000D02*
X156210000Y-93980000D01*
D22*
X187960000Y-114300000D02*
X187960000Y-110490000D01*
X195580000Y-114260000D02*
X195580000Y-104140000D01*
D23*
X181610000Y-93980000D02*
X160020000Y-93980000D01*
X104140000Y-107950000D02*
X127000000Y-107950000D01*
D24*
X111760000Y-82550000D02*
X120650000Y-91440000D01*
D22*
X149860000Y-114300000D02*
X154980000Y-114300000D01*
D23*
X104140000Y-110490000D02*
X104140000Y-107950000D01*
X187960000Y-93980000D02*
X193040000Y-93980000D01*
X106680000Y-83820000D02*
X106680000Y-77470000D01*
D24*
X121920000Y-77470000D02*
X121920000Y-80010000D01*
D23*
X148590000Y-90170000D02*
X148590000Y-92710000D01*
D22*
X154980000Y-115570000D02*
X158750000Y-119340000D01*
X170180000Y-114300000D02*
X187960000Y-114300000D01*
D23*
X193040000Y-91440000D02*
X187960000Y-91440000D01*
D22*
X165100000Y-68580000D02*
X172720000Y-68580000D01*
X138430000Y-81280000D02*
X138430000Y-83820000D01*
X138430000Y-99060000D02*
X100330000Y-99060000D01*
X132080000Y-110490000D02*
X132080000Y-106680000D01*
D23*
X189230000Y-83820000D02*
X193040000Y-83820000D01*
X128270000Y-96520000D02*
X119380000Y-96520000D01*
X106680000Y-100330000D02*
X149860000Y-100330000D01*
D22*
X195580000Y-99060000D02*
X195580000Y-68580000D01*
X165100000Y-119380000D02*
X170180000Y-114300000D01*
D23*
X114300000Y-82550000D02*
X114300000Y-77470000D01*
D22*
X132040000Y-114300000D02*
X132040000Y-110530000D01*
D24*
X109220000Y-82550000D02*
X120650000Y-93980000D01*
D23*
X119380000Y-81280000D02*
X119380000Y-77470000D01*
X119380000Y-96520000D02*
X106680000Y-83820000D01*
X186690000Y-78740000D02*
X193040000Y-78740000D01*
X153670000Y-97790000D02*
X184150000Y-97790000D01*
D22*
X134620000Y-68580000D02*
X149860000Y-68580000D01*
X138430000Y-83820000D02*
X138430000Y-86360000D01*
D23*
X149860000Y-100330000D02*
X149860000Y-102870000D01*
X171450000Y-90170000D02*
X175260000Y-90170000D01*
X167640000Y-90170000D02*
X167640000Y-91440000D01*
X128270000Y-83820000D02*
X121920000Y-83820000D01*
X152400000Y-93980000D02*
X152400000Y-90170000D01*
D22*
X104140000Y-105410000D02*
X104140000Y-102870000D01*
X138430000Y-78740000D02*
X138430000Y-81280000D01*
D23*
X154940000Y-100330000D02*
X187960000Y-100330000D01*
D24*
X120650000Y-91440000D02*
X128270000Y-91440000D01*
D23*
X184150000Y-97790000D02*
X187960000Y-93980000D01*
X160020000Y-93980000D02*
X160020000Y-90170000D01*
D22*
X132040000Y-110530000D02*
X132080000Y-110490000D01*
D23*
X121920000Y-83820000D02*
X119380000Y-81280000D01*
D24*
X111760000Y-77470000D02*
X111760000Y-82550000D01*
X116840000Y-82550000D02*
X120650000Y-86360000D01*
D22*
X193357500Y-103822500D02*
X195262500Y-103822500D01*
D23*
X156210000Y-93980000D02*
X157480000Y-95250000D01*
X187960000Y-91440000D02*
X182880000Y-96520000D01*
X163830000Y-90170000D02*
X163830000Y-92710000D01*
D22*
X143510000Y-130810000D02*
X143510000Y-128270000D01*
X158750000Y-119340000D02*
X158750000Y-119380000D01*
D24*
X120650000Y-93980000D02*
X128270000Y-93980000D01*
D22*
X154980000Y-114300000D02*
X154980000Y-110530000D01*
D23*
X180340000Y-92710000D02*
X189230000Y-83820000D01*
D22*
X193040000Y-114260000D02*
X195580000Y-114260000D01*
D23*
X187960000Y-96520000D02*
X185420000Y-99060000D01*
D24*
X109220000Y-77470000D02*
X109220000Y-82550000D01*
D23*
X189230000Y-81280000D02*
X193040000Y-81280000D01*
D22*
X143510000Y-119380000D02*
X140970000Y-119380000D01*
D23*
X179070000Y-91440000D02*
X189230000Y-81280000D01*
D22*
X143510000Y-128270000D02*
X143510000Y-119380000D01*
X187960000Y-110490000D02*
X189230000Y-110490000D01*
X132080000Y-110490000D02*
X139700000Y-110490000D01*
D23*
X127000000Y-107950000D02*
X127000000Y-110490000D01*
X128270000Y-78740000D02*
X127000000Y-77470000D01*
D22*
X154980000Y-114300000D02*
X154980000Y-115570000D01*
X138430000Y-91440000D02*
X138430000Y-99060000D01*
D23*
X154940000Y-102870000D02*
X154940000Y-100330000D01*
%TD*%
M02*
