%TF.GenerationSoftware,KiCad,Pcbnew,6.0.11+dfsg-1*%
%TF.CreationDate,2025-09-19T17:12:34+02:00*%
%TF.ProjectId,out,6f75742e-6b69-4636-9164-5f7063625858,rev?*%
%TF.SameCoordinates,Original*%
%TF.FileFunction,Soldermask,Bot*%
%TF.FilePolarity,Negative*%
%FSLAX46Y46*%
G04 Gerber Fmt 4.6, Leading zero omitted, Abs format (unit mm)*
G04 Created by KiCad (PCBNEW 6.0.11+dfsg-1) date 2025-09-19 17:12:34*
%MOMM*%
%LPD*%
G01*
G04 APERTURE LIST*
%ADD10R,1.700000X1.700000*%
%ADD11O,1.700000X1.700000*%
%ADD12C,1.600000*%
%ADD13O,1.600000X1.600000*%
%ADD14R,1.600000X2.400000*%
%ADD15O,1.600000X2.400000*%
%ADD16R,1.800000X1.800000*%
%ADD17C,1.800000*%
G04 APERTURE END LIST*
D10*
%TO.C,REF\u002A\u002A*%
X168910000Y-130810000D03*
D11*
X171450000Y-130810000D03*
X173990000Y-130810000D03*
X176530000Y-130810000D03*
X179070000Y-130810000D03*
X181610000Y-130810000D03*
X184150000Y-130810000D03*
X186690000Y-130810000D03*
X189230000Y-130810000D03*
X191770000Y-130810000D03*
%TD*%
D10*
%TO.C,REF\u002A\u002A*%
X143510000Y-128270000D03*
D11*
X143510000Y-130810000D03*
X146050000Y-128270000D03*
X146050000Y-130810000D03*
X148590000Y-128270000D03*
X148590000Y-130810000D03*
X151130000Y-128270000D03*
X151130000Y-130810000D03*
X153670000Y-128270000D03*
X153670000Y-130810000D03*
X156210000Y-128270000D03*
X156210000Y-130810000D03*
X158750000Y-128270000D03*
X158750000Y-130810000D03*
X161290000Y-128270000D03*
X161290000Y-130810000D03*
X163830000Y-128270000D03*
X163830000Y-130810000D03*
X166370000Y-128270000D03*
X166370000Y-130810000D03*
%TD*%
D12*
%TO.C,1k*%
X144780000Y-90170000D03*
D13*
X144780000Y-80010000D03*
%TD*%
D12*
%TO.C,1k*%
X148590000Y-90170000D03*
D13*
X148590000Y-80010000D03*
%TD*%
D14*
%TO.C,74hc32*%
X139700000Y-110490000D03*
D15*
X142240000Y-110490000D03*
X144780000Y-110490000D03*
X147320000Y-110490000D03*
X149860000Y-110490000D03*
X152400000Y-110490000D03*
X154940000Y-110490000D03*
X154940000Y-102870000D03*
X152400000Y-102870000D03*
X149860000Y-102870000D03*
X147320000Y-102870000D03*
X144780000Y-102870000D03*
X142240000Y-102870000D03*
X139700000Y-102870000D03*
%TD*%
D16*
%TO.C,REF\u002A\u002A*%
X180340000Y-68580000D03*
D17*
X180340000Y-71120000D03*
%TD*%
D10*
%TO.C,REF\u002A\u002A*%
X192990000Y-106362500D03*
D11*
X192990000Y-103822500D03*
%TD*%
D16*
%TO.C,REF\u002A\u002A*%
X142240000Y-68580000D03*
D17*
X142240000Y-71120000D03*
%TD*%
D10*
%TO.C,REF\u002A\u002A*%
X106680000Y-74930000D03*
D11*
X106680000Y-77470000D03*
X109220000Y-74930000D03*
X109220000Y-77470000D03*
X111760000Y-74930000D03*
X111760000Y-77470000D03*
X114300000Y-74930000D03*
X114300000Y-77470000D03*
X116840000Y-74930000D03*
X116840000Y-77470000D03*
X119380000Y-74930000D03*
X119380000Y-77470000D03*
X121920000Y-74930000D03*
X121920000Y-77470000D03*
X124460000Y-74930000D03*
X124460000Y-77470000D03*
%TD*%
D12*
%TO.C,1k*%
X167640000Y-90170000D03*
D13*
X167640000Y-80010000D03*
%TD*%
D12*
%TO.C,100nF*%
X132040000Y-114300000D03*
X127040000Y-114300000D03*
%TD*%
%TO.C,1k*%
X156210000Y-90170000D03*
D13*
X156210000Y-80010000D03*
%TD*%
D12*
%TO.C,10k*%
X138430000Y-93980000D03*
D13*
X128270000Y-93980000D03*
%TD*%
D12*
%TO.C,10k*%
X138430000Y-78740000D03*
D13*
X128270000Y-78740000D03*
%TD*%
D12*
%TO.C,10k*%
X138430000Y-86360000D03*
D13*
X128270000Y-86360000D03*
%TD*%
D16*
%TO.C,REF\u002A\u002A*%
X149860000Y-68580000D03*
D17*
X149860000Y-71120000D03*
%TD*%
D14*
%TO.C,74hc574*%
X165100000Y-110490000D03*
D15*
X167640000Y-110490000D03*
X170180000Y-110490000D03*
X172720000Y-110490000D03*
X175260000Y-110490000D03*
X177800000Y-110490000D03*
X180340000Y-110490000D03*
X182880000Y-110490000D03*
X185420000Y-110490000D03*
X187960000Y-110490000D03*
X187960000Y-102870000D03*
X185420000Y-102870000D03*
X182880000Y-102870000D03*
X180340000Y-102870000D03*
X177800000Y-102870000D03*
X175260000Y-102870000D03*
X172720000Y-102870000D03*
X170180000Y-102870000D03*
X167640000Y-102870000D03*
X165100000Y-102870000D03*
%TD*%
D12*
%TO.C,10k*%
X138430000Y-91440000D03*
D13*
X128270000Y-91440000D03*
%TD*%
D12*
%TO.C,1k*%
X152400000Y-90170000D03*
D13*
X152400000Y-80010000D03*
%TD*%
D12*
%TO.C,1k*%
X163830000Y-90170000D03*
D13*
X163830000Y-80010000D03*
%TD*%
D12*
%TO.C,10k*%
X138430000Y-83820000D03*
D13*
X128270000Y-83820000D03*
%TD*%
D16*
%TO.C,REF\u002A\u002A*%
X157480000Y-68580000D03*
D17*
X157480000Y-71120000D03*
%TD*%
D16*
%TO.C,REF\u002A\u002A*%
X165100000Y-68580000D03*
D17*
X165100000Y-71120000D03*
%TD*%
D10*
%TO.C,REF\u002A\u002A*%
X193040000Y-78740000D03*
D11*
X193040000Y-81280000D03*
X193040000Y-83820000D03*
X193040000Y-86360000D03*
X193040000Y-88900000D03*
X193040000Y-91440000D03*
X193040000Y-93980000D03*
X193040000Y-96520000D03*
X193040000Y-99060000D03*
%TD*%
D12*
%TO.C,10k*%
X138430000Y-88900000D03*
D13*
X128270000Y-88900000D03*
%TD*%
D16*
%TO.C,REF\u002A\u002A*%
X187960000Y-68580000D03*
D17*
X187960000Y-71120000D03*
%TD*%
D16*
%TO.C,REF\u002A\u002A*%
X134620000Y-68580000D03*
D17*
X134620000Y-71120000D03*
%TD*%
D12*
%TO.C,1k*%
X160020000Y-90170000D03*
D13*
X160020000Y-80010000D03*
%TD*%
D12*
%TO.C,10k*%
X138430000Y-96520000D03*
D13*
X128270000Y-96520000D03*
%TD*%
D16*
%TO.C,REF\u002A\u002A*%
X172720000Y-68580000D03*
D17*
X172720000Y-71120000D03*
%TD*%
D12*
%TO.C,100nF*%
X193040000Y-114260000D03*
X193040000Y-109260000D03*
%TD*%
%TO.C,100nF*%
X159980000Y-114300000D03*
X154980000Y-114300000D03*
%TD*%
%TO.C,1k*%
X171450000Y-90170000D03*
D13*
X171450000Y-80010000D03*
%TD*%
D14*
%TO.C,74hc688*%
X104140000Y-110490000D03*
D15*
X106680000Y-110490000D03*
X109220000Y-110490000D03*
X111760000Y-110490000D03*
X114300000Y-110490000D03*
X116840000Y-110490000D03*
X119380000Y-110490000D03*
X121920000Y-110490000D03*
X124460000Y-110490000D03*
X127000000Y-110490000D03*
X127000000Y-102870000D03*
X124460000Y-102870000D03*
X121920000Y-102870000D03*
X119380000Y-102870000D03*
X116840000Y-102870000D03*
X114300000Y-102870000D03*
X111760000Y-102870000D03*
X109220000Y-102870000D03*
X106680000Y-102870000D03*
X104140000Y-102870000D03*
%TD*%
D10*
%TO.C,REF\u002A\u002A*%
X102870000Y-130810000D03*
D11*
X105410000Y-130810000D03*
X107950000Y-130810000D03*
X110490000Y-130810000D03*
X113030000Y-130810000D03*
X115570000Y-130810000D03*
X118110000Y-130810000D03*
X120650000Y-130810000D03*
X123190000Y-130810000D03*
X125730000Y-130810000D03*
X128270000Y-130810000D03*
X130810000Y-130810000D03*
X133350000Y-130810000D03*
X135890000Y-130810000D03*
X138430000Y-130810000D03*
X140970000Y-130810000D03*
%TD*%
D12*
%TO.C,10k*%
X138430000Y-81280000D03*
D13*
X128270000Y-81280000D03*
%TD*%
M02*
