M48
; DRILL file {KiCad 6.0.11+dfsg-1} date ven 19 set 2025, 17:12:38
; FORMAT={-:-/ absolute / inch / decimal}
; #@! TF.CreationDate,2025-09-19T17:12:38+02:00
; #@! TF.GenerationSoftware,Kicad,Pcbnew,6.0.11+dfsg-1
; #@! TF.FileFunction,Plated,1,2,PTH
FMAT,2
INCH
; #@! TA.AperFunction,Plated,PTH,ComponentDrill
T1C0.0315
; #@! TA.AperFunction,Plated,PTH,ComponentDrill
T2C0.0354
; #@! TA.AperFunction,Plated,PTH,ComponentDrill
T3C0.0394
%
G90
G05
T1
X4.1Y-4.05
X4.1Y-4.35
X4.2Y-4.05
X4.2Y-4.35
X4.3Y-4.05
X4.3Y-4.35
X4.4Y-4.05
X4.4Y-4.35
X4.5Y-4.05
X4.5Y-4.35
X4.6Y-4.05
X4.6Y-4.35
X4.7Y-4.05
X4.7Y-4.35
X4.8Y-4.05
X4.8Y-4.35
X4.9Y-4.05
X4.9Y-4.35
X5.0Y-4.05
X5.0Y-4.35
X5.0016Y-4.5
X5.05Y-3.1
X5.05Y-3.2
X5.05Y-3.3
X5.05Y-3.4
X5.05Y-3.5
X5.05Y-3.6
X5.05Y-3.7
X5.05Y-3.8
X5.1984Y-4.5
X5.45Y-3.1
X5.45Y-3.2
X5.45Y-3.3
X5.45Y-3.4
X5.45Y-3.5
X5.45Y-3.6
X5.45Y-3.7
X5.45Y-3.8
X5.5Y-4.05
X5.5Y-4.35
X5.6Y-4.05
X5.6Y-4.35
X5.7Y-3.15
X5.7Y-3.55
X5.7Y-4.05
X5.7Y-4.35
X5.8Y-4.05
X5.8Y-4.35
X5.85Y-3.15
X5.85Y-3.55
X5.9Y-4.05
X5.9Y-4.35
X6.0Y-3.15
X6.0Y-3.55
X6.0Y-4.05
X6.0Y-4.35
X6.1Y-4.05
X6.1Y-4.35
X6.1016Y-4.5
X6.15Y-3.15
X6.15Y-3.55
X6.2984Y-4.5
X6.3Y-3.15
X6.3Y-3.55
X6.45Y-3.15
X6.45Y-3.55
X6.5Y-4.05
X6.5Y-4.35
X6.6Y-3.15
X6.6Y-3.55
X6.6Y-4.05
X6.6Y-4.35
X6.7Y-4.05
X6.7Y-4.35
X6.75Y-3.15
X6.75Y-3.55
X6.8Y-4.05
X6.8Y-4.35
X6.9Y-4.05
X6.9Y-4.35
X7.0Y-4.05
X7.0Y-4.35
X7.1Y-4.05
X7.1Y-4.35
X7.2Y-4.05
X7.2Y-4.35
X7.3Y-4.05
X7.3Y-4.35
X7.4Y-4.05
X7.4Y-4.35
X7.6Y-4.3016
X7.6Y-4.4984
T2
X5.3Y-2.7
X5.3Y-2.8
X5.6Y-2.7
X5.6Y-2.8
X5.9Y-2.7
X5.9Y-2.8
X6.2Y-2.7
X6.2Y-2.8
X6.5Y-2.7
X6.5Y-2.8
X6.8Y-2.7
X6.8Y-2.8
X7.1Y-2.7
X7.1Y-2.8
X7.4Y-2.7
X7.4Y-2.8
T3
X4.05Y-5.15
X4.15Y-5.15
X4.2Y-2.95
X4.2Y-3.05
X4.25Y-5.15
X4.3Y-2.95
X4.3Y-3.05
X4.35Y-5.15
X4.4Y-2.95
X4.4Y-3.05
X4.45Y-5.15
X4.5Y-2.95
X4.5Y-3.05
X4.55Y-5.15
X4.6Y-2.95
X4.6Y-3.05
X4.65Y-5.15
X4.7Y-2.95
X4.7Y-3.05
X4.75Y-5.15
X4.8Y-2.95
X4.8Y-3.05
X4.85Y-5.15
X4.9Y-2.95
X4.9Y-3.05
X4.95Y-5.15
X5.05Y-5.15
X5.15Y-5.15
X5.25Y-5.15
X5.35Y-5.15
X5.45Y-5.15
X5.55Y-5.15
X5.65Y-5.05
X5.65Y-5.15
X5.75Y-5.05
X5.75Y-5.15
X5.85Y-5.05
X5.85Y-5.15
X5.95Y-5.05
X5.95Y-5.15
X6.05Y-5.05
X6.05Y-5.15
X6.15Y-5.05
X6.15Y-5.15
X6.25Y-5.05
X6.25Y-5.15
X6.35Y-5.05
X6.35Y-5.15
X6.45Y-5.05
X6.45Y-5.15
X6.55Y-5.05
X6.55Y-5.15
X6.65Y-5.15
X6.75Y-5.15
X6.85Y-5.15
X6.95Y-5.15
X7.05Y-5.15
X7.15Y-5.15
X7.25Y-5.15
X7.35Y-5.15
X7.45Y-5.15
X7.55Y-5.15
X7.598Y-4.0875
X7.598Y-4.1875
X7.6Y-3.1
X7.6Y-3.2
X7.6Y-3.3
X7.6Y-3.4
X7.6Y-3.5
X7.6Y-3.6
X7.6Y-3.7
X7.6Y-3.8
X7.6Y-3.9
T0
M30
