%TF.GenerationSoftware,KiCad,Pcbnew,6.0.11+dfsg-1*%
%TF.CreationDate,2026-01-02T13:29:43+01:00*%
%TF.ProjectId,clock,636c6f63-6b2e-46b6-9963-61645f706362,rev?*%
%TF.SameCoordinates,Original*%
%TF.FileFunction,Legend,Top*%
%TF.FilePolarity,Positive*%
%FSLAX46Y46*%
G04 Gerber Fmt 4.6, Leading zero omitted, Abs format (unit mm)*
G04 Created by KiCad (PCBNEW 6.0.11+dfsg-1) date 2026-01-02 13:29:43*
%MOMM*%
%LPD*%
G01*
G04 APERTURE LIST*
%ADD10C,0.200000*%
%ADD11C,0.150000*%
%ADD12C,0.120000*%
G04 APERTURE END LIST*
D10*
X196635619Y-95877142D02*
X196635619Y-95400952D01*
X196159428Y-95353333D01*
X196207047Y-95400952D01*
X196254666Y-95496190D01*
X196254666Y-95734285D01*
X196207047Y-95829523D01*
X196159428Y-95877142D01*
X196064190Y-95924761D01*
X195826095Y-95924761D01*
X195730857Y-95877142D01*
X195683238Y-95829523D01*
X195635619Y-95734285D01*
X195635619Y-95496190D01*
X195683238Y-95400952D01*
X195730857Y-95353333D01*
X196635619Y-96543809D02*
X196635619Y-96639047D01*
X196588000Y-96734285D01*
X196540380Y-96781904D01*
X196445142Y-96829523D01*
X196254666Y-96877142D01*
X196016571Y-96877142D01*
X195826095Y-96829523D01*
X195730857Y-96781904D01*
X195683238Y-96734285D01*
X195635619Y-96639047D01*
X195635619Y-96543809D01*
X195683238Y-96448571D01*
X195730857Y-96400952D01*
X195826095Y-96353333D01*
X196016571Y-96305714D01*
X196254666Y-96305714D01*
X196445142Y-96353333D01*
X196540380Y-96400952D01*
X196588000Y-96448571D01*
X196635619Y-96543809D01*
X195635619Y-97305714D02*
X196635619Y-97305714D01*
X196016571Y-97400952D02*
X195635619Y-97686666D01*
X196302285Y-97686666D02*
X195921333Y-97305714D01*
X104489857Y-122737428D02*
X104347000Y-122880285D01*
X103918428Y-123023142D01*
X103632714Y-123023142D01*
X103204142Y-122880285D01*
X102918428Y-122594571D01*
X102775571Y-122308857D01*
X102632714Y-121737428D01*
X102632714Y-121308857D01*
X102775571Y-120737428D01*
X102918428Y-120451714D01*
X103204142Y-120166000D01*
X103632714Y-120023142D01*
X103918428Y-120023142D01*
X104347000Y-120166000D01*
X104489857Y-120308857D01*
X107204142Y-123023142D02*
X105775571Y-123023142D01*
X105775571Y-120023142D01*
X108775571Y-120023142D02*
X109347000Y-120023142D01*
X109632714Y-120166000D01*
X109918428Y-120451714D01*
X110061285Y-121023142D01*
X110061285Y-122023142D01*
X109918428Y-122594571D01*
X109632714Y-122880285D01*
X109347000Y-123023142D01*
X108775571Y-123023142D01*
X108489857Y-122880285D01*
X108204142Y-122594571D01*
X108061285Y-122023142D01*
X108061285Y-121023142D01*
X108204142Y-120451714D01*
X108489857Y-120166000D01*
X108775571Y-120023142D01*
X113061285Y-122737428D02*
X112918428Y-122880285D01*
X112489857Y-123023142D01*
X112204142Y-123023142D01*
X111775571Y-122880285D01*
X111489857Y-122594571D01*
X111347000Y-122308857D01*
X111204142Y-121737428D01*
X111204142Y-121308857D01*
X111347000Y-120737428D01*
X111489857Y-120451714D01*
X111775571Y-120166000D01*
X112204142Y-120023142D01*
X112489857Y-120023142D01*
X112918428Y-120166000D01*
X113061285Y-120308857D01*
X114347000Y-123023142D02*
X114347000Y-120023142D01*
X116061285Y-123023142D02*
X114775571Y-121308857D01*
X116061285Y-120023142D02*
X114347000Y-121737428D01*
D11*
%TO.C,*%
%TO.C,104*%
X140303333Y-114752380D02*
X139731904Y-114752380D01*
X140017619Y-114752380D02*
X140017619Y-113752380D01*
X139922380Y-113895238D01*
X139827142Y-113990476D01*
X139731904Y-114038095D01*
X140922380Y-113752380D02*
X141017619Y-113752380D01*
X141112857Y-113800000D01*
X141160476Y-113847619D01*
X141208095Y-113942857D01*
X141255714Y-114133333D01*
X141255714Y-114371428D01*
X141208095Y-114561904D01*
X141160476Y-114657142D01*
X141112857Y-114704761D01*
X141017619Y-114752380D01*
X140922380Y-114752380D01*
X140827142Y-114704761D01*
X140779523Y-114657142D01*
X140731904Y-114561904D01*
X140684285Y-114371428D01*
X140684285Y-114133333D01*
X140731904Y-113942857D01*
X140779523Y-113847619D01*
X140827142Y-113800000D01*
X140922380Y-113752380D01*
X142112857Y-114085714D02*
X142112857Y-114752380D01*
X141874761Y-113704761D02*
X141636666Y-114419047D01*
X142255714Y-114419047D01*
%TO.C,1k*%
X122372380Y-106799047D02*
X122372380Y-107370476D01*
X122372380Y-107084761D02*
X121372380Y-107084761D01*
X121515238Y-107180000D01*
X121610476Y-107275238D01*
X121658095Y-107370476D01*
X122372380Y-106370476D02*
X121372380Y-106370476D01*
X121991428Y-106275238D02*
X122372380Y-105989523D01*
X121705714Y-105989523D02*
X122086666Y-106370476D01*
X114752380Y-106799047D02*
X114752380Y-107370476D01*
X114752380Y-107084761D02*
X113752380Y-107084761D01*
X113895238Y-107180000D01*
X113990476Y-107275238D01*
X114038095Y-107370476D01*
X114752380Y-106370476D02*
X113752380Y-106370476D01*
X114371428Y-106275238D02*
X114752380Y-105989523D01*
X114085714Y-105989523D02*
X114466666Y-106370476D01*
X107132380Y-106799047D02*
X107132380Y-107370476D01*
X107132380Y-107084761D02*
X106132380Y-107084761D01*
X106275238Y-107180000D01*
X106370476Y-107275238D01*
X106418095Y-107370476D01*
X107132380Y-106370476D02*
X106132380Y-106370476D01*
X106751428Y-106275238D02*
X107132380Y-105989523D01*
X106465714Y-105989523D02*
X106846666Y-106370476D01*
%TO.C,tiny85*%
X142550714Y-99065714D02*
X142931666Y-99065714D01*
X142693571Y-98732380D02*
X142693571Y-99589523D01*
X142741190Y-99684761D01*
X142836428Y-99732380D01*
X142931666Y-99732380D01*
X143265000Y-99732380D02*
X143265000Y-99065714D01*
X143265000Y-98732380D02*
X143217380Y-98780000D01*
X143265000Y-98827619D01*
X143312619Y-98780000D01*
X143265000Y-98732380D01*
X143265000Y-98827619D01*
X143741190Y-99065714D02*
X143741190Y-99732380D01*
X143741190Y-99160952D02*
X143788809Y-99113333D01*
X143884047Y-99065714D01*
X144026904Y-99065714D01*
X144122142Y-99113333D01*
X144169761Y-99208571D01*
X144169761Y-99732380D01*
X144550714Y-99065714D02*
X144788809Y-99732380D01*
X145026904Y-99065714D02*
X144788809Y-99732380D01*
X144693571Y-99970476D01*
X144645952Y-100018095D01*
X144550714Y-100065714D01*
X145550714Y-99160952D02*
X145455476Y-99113333D01*
X145407857Y-99065714D01*
X145360238Y-98970476D01*
X145360238Y-98922857D01*
X145407857Y-98827619D01*
X145455476Y-98780000D01*
X145550714Y-98732380D01*
X145741190Y-98732380D01*
X145836428Y-98780000D01*
X145884047Y-98827619D01*
X145931666Y-98922857D01*
X145931666Y-98970476D01*
X145884047Y-99065714D01*
X145836428Y-99113333D01*
X145741190Y-99160952D01*
X145550714Y-99160952D01*
X145455476Y-99208571D01*
X145407857Y-99256190D01*
X145360238Y-99351428D01*
X145360238Y-99541904D01*
X145407857Y-99637142D01*
X145455476Y-99684761D01*
X145550714Y-99732380D01*
X145741190Y-99732380D01*
X145836428Y-99684761D01*
X145884047Y-99637142D01*
X145931666Y-99541904D01*
X145931666Y-99351428D01*
X145884047Y-99256190D01*
X145836428Y-99208571D01*
X145741190Y-99160952D01*
X146836428Y-98732380D02*
X146360238Y-98732380D01*
X146312619Y-99208571D01*
X146360238Y-99160952D01*
X146455476Y-99113333D01*
X146693571Y-99113333D01*
X146788809Y-99160952D01*
X146836428Y-99208571D01*
X146884047Y-99303809D01*
X146884047Y-99541904D01*
X146836428Y-99637142D01*
X146788809Y-99684761D01*
X146693571Y-99732380D01*
X146455476Y-99732380D01*
X146360238Y-99684761D01*
X146312619Y-99637142D01*
D12*
%TO.C,104*%
X143440000Y-113245000D02*
X143440000Y-112930000D01*
X143440000Y-115670000D02*
X143440000Y-115355000D01*
X138500000Y-115670000D02*
X138500000Y-115355000D01*
X143440000Y-115670000D02*
X138500000Y-115670000D01*
X143440000Y-112930000D02*
X138500000Y-112930000D01*
X138500000Y-113245000D02*
X138500000Y-112930000D01*
%TO.C,1k*%
X123290000Y-103410000D02*
X120550000Y-103410000D01*
X121920000Y-110720000D02*
X121920000Y-109950000D01*
X121920000Y-102640000D02*
X121920000Y-103410000D01*
X120550000Y-103410000D02*
X120550000Y-109950000D01*
X123290000Y-109950000D02*
X123290000Y-103410000D01*
X120550000Y-109950000D02*
X123290000Y-109950000D01*
X115670000Y-103410000D02*
X112930000Y-103410000D01*
X114300000Y-110720000D02*
X114300000Y-109950000D01*
X114300000Y-102640000D02*
X114300000Y-103410000D01*
X112930000Y-103410000D02*
X112930000Y-109950000D01*
X115670000Y-109950000D02*
X115670000Y-103410000D01*
X112930000Y-109950000D02*
X115670000Y-109950000D01*
X106680000Y-102640000D02*
X106680000Y-103410000D01*
X106680000Y-110720000D02*
X106680000Y-109950000D01*
X105310000Y-109950000D02*
X108050000Y-109950000D01*
X108050000Y-103410000D02*
X105310000Y-103410000D01*
X108050000Y-109950000D02*
X108050000Y-103410000D01*
X105310000Y-103410000D02*
X105310000Y-109950000D01*
%TO.C,tiny85*%
X147015000Y-110560000D02*
X147015000Y-100280000D01*
X143765000Y-100280000D02*
X142515000Y-100280000D01*
X147015000Y-100280000D02*
X145765000Y-100280000D01*
X142515000Y-110560000D02*
X147015000Y-110560000D01*
X142515000Y-100280000D02*
X142515000Y-110560000D01*
X143765000Y-100280000D02*
G75*
G03*
X145765000Y-100280000I1000000J0D01*
G01*
%TO.C,REF\u002A\u002A*%
X107970000Y-94255000D02*
X107970000Y-91165000D01*
X107970000Y-91165170D02*
G75*
G03*
X102420000Y-92710462I-2560000J-1544830D01*
G01*
X102420000Y-92709538D02*
G75*
G03*
X107970000Y-94254830I2990000J-462D01*
G01*
X107910000Y-92710000D02*
G75*
G03*
X107910000Y-92710000I-2500000J0D01*
G01*
X115590000Y-94255000D02*
X115590000Y-91165000D01*
X115590000Y-91165170D02*
G75*
G03*
X110040000Y-92710462I-2560000J-1544830D01*
G01*
X110040000Y-92709538D02*
G75*
G03*
X115590000Y-94254830I2990000J-462D01*
G01*
X115530000Y-92710000D02*
G75*
G03*
X115530000Y-92710000I-2500000J0D01*
G01*
X123210000Y-94255000D02*
X123210000Y-91165000D01*
X123210000Y-91165170D02*
G75*
G03*
X117660000Y-92710462I-2560000J-1544830D01*
G01*
X117660000Y-92709538D02*
G75*
G03*
X123210000Y-94254830I2990000J-462D01*
G01*
X123150000Y-92710000D02*
G75*
G03*
X123150000Y-92710000I-2500000J0D01*
G01*
X170180000Y-132140000D02*
X193100000Y-132140000D01*
X167580000Y-129480000D02*
X168910000Y-129480000D01*
X167580000Y-130810000D02*
X167580000Y-129480000D01*
X170180000Y-132140000D02*
X170180000Y-129480000D01*
X193100000Y-132140000D02*
X193100000Y-129480000D01*
X170180000Y-129480000D02*
X193100000Y-129480000D01*
X144810000Y-132140000D02*
X144810000Y-129480000D01*
X167730000Y-132140000D02*
X167730000Y-129480000D01*
X144810000Y-132140000D02*
X167730000Y-132140000D01*
X142210000Y-130810000D02*
X142210000Y-129480000D01*
X142210000Y-129480000D02*
X143540000Y-129480000D01*
X144810000Y-129480000D02*
X167730000Y-129480000D01*
X101540000Y-130810000D02*
X101540000Y-129480000D01*
X104140000Y-132140000D02*
X142300000Y-132140000D01*
X104140000Y-132140000D02*
X104140000Y-129480000D01*
X142300000Y-132140000D02*
X142300000Y-129480000D01*
X101540000Y-129480000D02*
X102870000Y-129480000D01*
X104140000Y-129480000D02*
X142300000Y-129480000D01*
%TD*%
M02*
