M48
; DRILL file {KiCad 6.0.11+dfsg-1} date ven 2 gen 2026, 13:29:45
; FORMAT={-:-/ absolute / inch / decimal}
; #@! TF.CreationDate,2026-01-02T13:29:45+01:00
; #@! TF.GenerationSoftware,Kicad,Pcbnew,6.0.11+dfsg-1
; #@! TF.FileFunction,Plated,1,2,PTH
FMAT,2
INCH
; #@! TA.AperFunction,Plated,PTH,ComponentDrill
T1C0.0315
; #@! TA.AperFunction,Plated,PTH,ComponentDrill
T2C0.0354
; #@! TA.AperFunction,Plated,PTH,ComponentDrill
T3C0.0394
; #@! TA.AperFunction,Plated,PTH,ComponentDrill
T4C0.0472
%
G90
G05
T1
X4.2Y-4.0
X4.2Y-4.4
X4.5Y-4.0
X4.5Y-4.4
X4.8Y-4.0
X4.8Y-4.4
X5.4516Y-4.5
X5.5494Y-4.0004
X5.5494Y-4.1004
X5.5494Y-4.2004
X5.5494Y-4.3004
X5.6484Y-4.5
X5.8494Y-4.0004
X5.8494Y-4.1004
X5.8494Y-4.2004
X5.8494Y-4.3004
T2
X4.1Y-3.65
X4.2Y-3.65
X4.4Y-3.65
X4.5Y-3.65
X4.7Y-3.65
X4.8Y-3.65
T3
X4.05Y-5.15
X4.15Y-5.15
X4.25Y-5.15
X4.35Y-5.15
X4.45Y-5.15
X4.55Y-5.15
X4.65Y-5.15
X4.75Y-5.15
X4.85Y-5.15
X4.95Y-5.15
X5.05Y-5.15
X5.15Y-5.15
X5.25Y-5.15
X5.35Y-5.15
X5.45Y-5.15
X5.55Y-5.15
X5.6512Y-5.15
X5.7512Y-5.15
X5.8512Y-5.15
X5.9512Y-5.15
X6.0512Y-5.15
X6.1512Y-5.15
X6.2512Y-5.15
X6.3512Y-5.15
X6.4512Y-5.15
X6.5512Y-5.15
X6.65Y-5.15
X6.75Y-5.15
X6.85Y-5.15
X6.95Y-5.15
X7.05Y-5.15
X7.15Y-5.15
X7.25Y-5.15
X7.35Y-5.15
X7.45Y-5.15
X7.55Y-5.15
T4
X7.6Y-3.6063
X7.6Y-3.8031
X7.6Y-4.0
T0
M30
