M48
; DRILL file {KiCad 6.0.11+dfsg-1} date dom 28 dic 2025, 18:33:30
; FORMAT={-:-/ absolute / inch / decimal}
; #@! TF.CreationDate,2025-12-28T18:33:30+01:00
; #@! TF.GenerationSoftware,Kicad,Pcbnew,6.0.11+dfsg-1
; #@! TF.FileFunction,Plated,1,2,PTH
FMAT,2
INCH
; #@! TA.AperFunction,Plated,PTH,ViaDrill
T1C0.0157
; #@! TA.AperFunction,Plated,PTH,ComponentDrill
T2C0.0315
; #@! TA.AperFunction,Plated,PTH,ComponentDrill
T3C0.0394
%
G90
G05
T1
X6.3Y-3.3
X6.3Y-3.85
X6.35Y-4.1
X6.4Y-4.05
X6.45Y-4.0
X6.45Y-4.2
X6.9Y-4.2
X7.25Y-4.3
X7.35Y-4.3
X7.45Y-4.3
X7.8Y-3.7
X7.85Y-4.35
X8.0Y-4.3
X8.05Y-4.35
X8.1Y-4.7
X8.15Y-3.7
X8.3Y-4.05
X8.3Y-4.1
X8.3Y-4.15
X8.35Y-4.2
X8.4Y-3.55
X8.5Y-4.35
X8.55Y-4.0
X8.7Y-4.35
X8.7Y-4.65
X8.75Y-4.45
X8.75Y-4.75
X8.9Y-4.7
X8.95Y-4.0
T2
X6.8Y-3.3
X6.8Y-3.9
X6.9Y-3.3
X6.9Y-3.9
X7.0Y-3.3
X7.0Y-3.9
X7.1Y-3.3
X7.1Y-3.9
X7.2Y-3.3
X7.2Y-3.9
X7.3Y-3.3
X7.3Y-3.9
X7.4Y-3.3
X7.4Y-3.9
X7.5Y-3.3
X7.5Y-3.9
X7.6Y-3.3
X7.6Y-3.9
X7.7Y-3.3
X7.7Y-3.9
X7.75Y-2.7531
X7.75Y-2.95
X7.8Y-3.3
X7.8Y-3.9
X7.9Y-3.3
X7.9Y-3.9
X8.0Y-3.3
X8.0Y-3.9
X8.05Y-2.65
X8.05Y-3.05
X8.1Y-3.3
X8.1Y-3.9
X8.2Y-2.65
X8.2Y-3.05
X8.2Y-3.3
X8.2Y-3.9
X8.3Y-3.3
X8.3Y-3.9
X8.35Y-2.65
X8.35Y-3.05
X8.4Y-3.3
X8.4Y-3.9
X8.5Y-2.65
X8.5Y-3.05
X8.5Y-3.3
X8.5Y-3.9
X8.6Y-3.3
X8.6Y-3.9
X8.65Y-2.65
X8.65Y-3.05
X8.7Y-3.3
X8.7Y-3.9
X8.85Y-2.65
X8.85Y-3.05
T3
X5.5Y-4.9
X5.6Y-4.9
X5.7Y-4.9
X5.8Y-4.9
X5.9Y-4.9
X6.0Y-4.9
X6.1Y-4.9
X6.2Y-4.9
X6.3Y-4.9
X6.4Y-4.9
X6.5Y-4.9
X6.6Y-4.9
X6.7Y-4.9
X6.8Y-4.9
X6.9Y-4.9
X7.0Y-4.9
X7.1Y-4.8
X7.1Y-4.9
X7.2Y-4.8
X7.2Y-4.9
X7.3Y-4.8
X7.3Y-4.9
X7.4Y-4.8
X7.4Y-4.9
X7.5Y-4.8
X7.5Y-4.9
X7.6Y-4.8
X7.6Y-4.9
X7.7Y-4.8
X7.7Y-4.9
X7.8Y-4.8
X7.8Y-4.9
X7.9Y-4.8
X7.9Y-4.9
X8.0Y-4.8
X8.0Y-4.9
X8.1Y-4.9
X8.2Y-4.9
X8.3Y-4.9
X8.4Y-4.9
X8.5Y-4.9
X8.6Y-4.9
X8.7Y-4.9
X8.8Y-4.9
X8.9Y-4.9
X9.0Y-4.9
T0
M30
