%TF.GenerationSoftware,KiCad,Pcbnew,6.0.11+dfsg-1*%
%TF.CreationDate,2025-12-28T18:33:27+01:00*%
%TF.ProjectId,cpuz80,6370757a-3830-42e6-9b69-6361645f7063,rev?*%
%TF.SameCoordinates,Original*%
%TF.FileFunction,Copper,L2,Bot*%
%TF.FilePolarity,Positive*%
%FSLAX46Y46*%
G04 Gerber Fmt 4.6, Leading zero omitted, Abs format (unit mm)*
G04 Created by KiCad (PCBNEW 6.0.11+dfsg-1) date 2025-12-28 18:33:27*
%MOMM*%
%LPD*%
G01*
G04 APERTURE LIST*
%TA.AperFunction,ComponentPad*%
%ADD10R,1.700000X1.700000*%
%TD*%
%TA.AperFunction,ComponentPad*%
%ADD11O,1.700000X1.700000*%
%TD*%
%TA.AperFunction,ComponentPad*%
%ADD12R,1.600000X2.400000*%
%TD*%
%TA.AperFunction,ComponentPad*%
%ADD13O,1.600000X2.400000*%
%TD*%
%TA.AperFunction,ComponentPad*%
%ADD14C,1.600000*%
%TD*%
%TA.AperFunction,ComponentPad*%
%ADD15O,1.600000X1.600000*%
%TD*%
%TA.AperFunction,ViaPad*%
%ADD16C,0.800000*%
%TD*%
%TA.AperFunction,ViaPad*%
%ADD17C,1.000000*%
%TD*%
%TA.AperFunction,Conductor*%
%ADD18C,0.400000*%
%TD*%
%TA.AperFunction,Conductor*%
%ADD19C,1.000000*%
%TD*%
G04 APERTURE END LIST*
D10*
%TO.P,REF\u002A\u002A,1*%
%TO.N,N/C*%
X180340000Y-121920000D03*
D11*
%TO.P,REF\u002A\u002A,2*%
X180340000Y-124460000D03*
%TO.P,REF\u002A\u002A,3*%
X182880000Y-121920000D03*
%TO.P,REF\u002A\u002A,4*%
X182880000Y-124460000D03*
%TO.P,REF\u002A\u002A,5*%
X185420000Y-121920000D03*
%TO.P,REF\u002A\u002A,6*%
X185420000Y-124460000D03*
%TO.P,REF\u002A\u002A,7*%
X187960000Y-121920000D03*
%TO.P,REF\u002A\u002A,8*%
X187960000Y-124460000D03*
%TO.P,REF\u002A\u002A,9*%
X190500000Y-121920000D03*
%TO.P,REF\u002A\u002A,10*%
X190500000Y-124460000D03*
%TO.P,REF\u002A\u002A,11*%
X193040000Y-121920000D03*
%TO.P,REF\u002A\u002A,12*%
X193040000Y-124460000D03*
%TO.P,REF\u002A\u002A,13*%
X195580000Y-121920000D03*
%TO.P,REF\u002A\u002A,14*%
X195580000Y-124460000D03*
%TO.P,REF\u002A\u002A,15*%
X198120000Y-121920000D03*
%TO.P,REF\u002A\u002A,16*%
X198120000Y-124460000D03*
%TO.P,REF\u002A\u002A,17*%
X200660000Y-121920000D03*
%TO.P,REF\u002A\u002A,18*%
X200660000Y-124460000D03*
%TO.P,REF\u002A\u002A,19*%
X203200000Y-121920000D03*
%TO.P,REF\u002A\u002A,20*%
X203200000Y-124460000D03*
%TD*%
D10*
%TO.P,REF\u002A\u002A,1*%
%TO.N,N/C*%
X205740000Y-124460000D03*
D11*
%TO.P,REF\u002A\u002A,2*%
X208280000Y-124460000D03*
%TO.P,REF\u002A\u002A,3*%
X210820000Y-124460000D03*
%TO.P,REF\u002A\u002A,4*%
X213360000Y-124460000D03*
%TO.P,REF\u002A\u002A,5*%
X215900000Y-124460000D03*
%TO.P,REF\u002A\u002A,6*%
X218440000Y-124460000D03*
%TO.P,REF\u002A\u002A,7*%
X220980000Y-124460000D03*
%TO.P,REF\u002A\u002A,8*%
X223520000Y-124460000D03*
%TO.P,REF\u002A\u002A,9*%
X226060000Y-124460000D03*
%TO.P,REF\u002A\u002A,10*%
X228600000Y-124460000D03*
%TD*%
D12*
%TO.P,REF\u002A\u002A,1*%
%TO.N,N/C*%
X172720000Y-99060000D03*
D13*
%TO.P,REF\u002A\u002A,2*%
X175260000Y-99060000D03*
%TO.P,REF\u002A\u002A,3*%
X177800000Y-99060000D03*
%TO.P,REF\u002A\u002A,4*%
X180340000Y-99060000D03*
%TO.P,REF\u002A\u002A,5*%
X182880000Y-99060000D03*
%TO.P,REF\u002A\u002A,6*%
X185420000Y-99060000D03*
%TO.P,REF\u002A\u002A,7*%
X187960000Y-99060000D03*
%TO.P,REF\u002A\u002A,8*%
X190500000Y-99060000D03*
%TO.P,REF\u002A\u002A,9*%
X193040000Y-99060000D03*
%TO.P,REF\u002A\u002A,10*%
X195580000Y-99060000D03*
%TO.P,REF\u002A\u002A,11*%
X198120000Y-99060000D03*
%TO.P,REF\u002A\u002A,12*%
X200660000Y-99060000D03*
%TO.P,REF\u002A\u002A,13*%
X203200000Y-99060000D03*
%TO.P,REF\u002A\u002A,14*%
X205740000Y-99060000D03*
%TO.P,REF\u002A\u002A,15*%
X208280000Y-99060000D03*
%TO.P,REF\u002A\u002A,16*%
X210820000Y-99060000D03*
%TO.P,REF\u002A\u002A,17*%
X213360000Y-99060000D03*
%TO.P,REF\u002A\u002A,18*%
X215900000Y-99060000D03*
%TO.P,REF\u002A\u002A,19*%
X218440000Y-99060000D03*
%TO.P,REF\u002A\u002A,20*%
X220980000Y-99060000D03*
%TO.P,REF\u002A\u002A,21*%
X220980000Y-83820000D03*
%TO.P,REF\u002A\u002A,22*%
X218440000Y-83820000D03*
%TO.P,REF\u002A\u002A,23*%
X215900000Y-83820000D03*
%TO.P,REF\u002A\u002A,24*%
X213360000Y-83820000D03*
%TO.P,REF\u002A\u002A,25*%
X210820000Y-83820000D03*
%TO.P,REF\u002A\u002A,26*%
X208280000Y-83820000D03*
%TO.P,REF\u002A\u002A,27*%
X205740000Y-83820000D03*
%TO.P,REF\u002A\u002A,28*%
X203200000Y-83820000D03*
%TO.P,REF\u002A\u002A,29*%
X200660000Y-83820000D03*
%TO.P,REF\u002A\u002A,30*%
X198120000Y-83820000D03*
%TO.P,REF\u002A\u002A,31*%
X195580000Y-83820000D03*
%TO.P,REF\u002A\u002A,32*%
X193040000Y-83820000D03*
%TO.P,REF\u002A\u002A,33*%
X190500000Y-83820000D03*
%TO.P,REF\u002A\u002A,34*%
X187960000Y-83820000D03*
%TO.P,REF\u002A\u002A,35*%
X185420000Y-83820000D03*
%TO.P,REF\u002A\u002A,36*%
X182880000Y-83820000D03*
%TO.P,REF\u002A\u002A,37*%
X180340000Y-83820000D03*
%TO.P,REF\u002A\u002A,38*%
X177800000Y-83820000D03*
%TO.P,REF\u002A\u002A,39*%
X175260000Y-83820000D03*
%TO.P,REF\u002A\u002A,40*%
X172720000Y-83820000D03*
%TD*%
D14*
%TO.P,100nF,1*%
%TO.N,N/C*%
X196850000Y-74930000D03*
%TO.P,100nF,2*%
X196850000Y-69930000D03*
%TD*%
%TO.P,10k,1*%
%TO.N,N/C*%
X208280000Y-77470000D03*
D15*
%TO.P,10k,2*%
X208280000Y-67310000D03*
%TD*%
D10*
%TO.P,REF\u002A\u002A,1*%
%TO.N,N/C*%
X139700000Y-124460000D03*
D11*
%TO.P,REF\u002A\u002A,2*%
X142240000Y-124460000D03*
%TO.P,REF\u002A\u002A,3*%
X144780000Y-124460000D03*
%TO.P,REF\u002A\u002A,4*%
X147320000Y-124460000D03*
%TO.P,REF\u002A\u002A,5*%
X149860000Y-124460000D03*
%TO.P,REF\u002A\u002A,6*%
X152400000Y-124460000D03*
%TO.P,REF\u002A\u002A,7*%
X154940000Y-124460000D03*
%TO.P,REF\u002A\u002A,8*%
X157480000Y-124460000D03*
%TO.P,REF\u002A\u002A,9*%
X160020000Y-124460000D03*
%TO.P,REF\u002A\u002A,10*%
X162560000Y-124460000D03*
%TO.P,REF\u002A\u002A,11*%
X165100000Y-124460000D03*
%TO.P,REF\u002A\u002A,12*%
X167640000Y-124460000D03*
%TO.P,REF\u002A\u002A,13*%
X170180000Y-124460000D03*
%TO.P,REF\u002A\u002A,14*%
X172720000Y-124460000D03*
%TO.P,REF\u002A\u002A,15*%
X175260000Y-124460000D03*
%TO.P,REF\u002A\u002A,16*%
X177800000Y-124460000D03*
%TD*%
D14*
%TO.P,10k,1*%
%TO.N,N/C*%
X215900000Y-77470000D03*
D15*
%TO.P,10k,2*%
X215900000Y-67310000D03*
%TD*%
D14*
%TO.P,10k,1*%
%TO.N,N/C*%
X219710000Y-77470000D03*
D15*
%TO.P,10k,2*%
X219710000Y-67310000D03*
%TD*%
D14*
%TO.P,10k,1*%
%TO.N,N/C*%
X204470000Y-77470000D03*
D15*
%TO.P,10k,2*%
X204470000Y-67310000D03*
%TD*%
D14*
%TO.P,10k,1*%
%TO.N,N/C*%
X212090000Y-77470000D03*
D15*
%TO.P,10k,2*%
X212090000Y-67310000D03*
%TD*%
D14*
%TO.P,10k,1*%
%TO.N,N/C*%
X224790000Y-77470000D03*
D15*
%TO.P,10k,2*%
X224790000Y-67310000D03*
%TD*%
D16*
%TO.N,*%
X186690000Y-109220000D03*
X203200000Y-109220000D03*
X222250000Y-120650000D03*
X160020000Y-83820000D03*
X199390000Y-110490000D03*
X205740000Y-119380000D03*
X160020000Y-97790000D03*
D17*
X207010000Y-93980000D03*
D16*
X210820000Y-105410000D03*
X226060000Y-119380000D03*
X222250000Y-113030000D03*
X204470000Y-110490000D03*
X220980000Y-118110000D03*
X213360000Y-90170000D03*
X163830000Y-101600000D03*
X212090000Y-106680000D03*
X220980000Y-110490000D03*
X210820000Y-102870000D03*
D17*
X198120000Y-93980000D03*
D16*
X217170000Y-101600000D03*
D17*
X175260000Y-106680000D03*
D16*
X189230000Y-109220000D03*
X184150000Y-109220000D03*
X215900000Y-110490000D03*
X210820000Y-104140000D03*
X161290000Y-104140000D03*
D17*
X163830000Y-106680000D03*
D16*
X162560000Y-102870000D03*
X227330000Y-101600000D03*
%TD*%
D18*
%TO.N,*%
X166370000Y-92710000D02*
X182880000Y-92710000D01*
X201930000Y-116840000D02*
X226060000Y-116840000D01*
X210820000Y-104140000D02*
X193040000Y-104140000D01*
D19*
X157480000Y-81280000D02*
X160020000Y-78740000D01*
D18*
X185420000Y-99060000D02*
X185420000Y-105410000D01*
X191770000Y-105410000D02*
X190500000Y-104140000D01*
X199390000Y-123190000D02*
X199390000Y-115570000D01*
X170180000Y-96520000D02*
X170180000Y-118110000D01*
X200660000Y-99060000D02*
X200660000Y-95250000D01*
X214630000Y-109220000D02*
X215900000Y-110490000D01*
X208280000Y-83820000D02*
X208280000Y-88900000D01*
X198120000Y-121920000D02*
X198120000Y-114300000D01*
X195580000Y-102870000D02*
X210820000Y-102870000D01*
X205740000Y-87630000D02*
X205740000Y-83820000D01*
X177800000Y-95250000D02*
X177800000Y-99060000D01*
X195580000Y-124460000D02*
X196850000Y-123190000D01*
X180340000Y-93980000D02*
X167640000Y-93980000D01*
X217170000Y-111760000D02*
X217170000Y-101600000D01*
X210820000Y-92710000D02*
X210820000Y-83820000D01*
X200660000Y-95250000D02*
X222250000Y-95250000D01*
X144780000Y-124460000D02*
X144780000Y-116840000D01*
X163830000Y-88900000D02*
X163830000Y-101600000D01*
D19*
X219710000Y-67310000D02*
X215900000Y-67310000D01*
D18*
X227330000Y-88900000D02*
X224790000Y-88900000D01*
X170180000Y-118110000D02*
X147320000Y-118110000D01*
X198120000Y-114300000D02*
X223520000Y-114300000D01*
D19*
X180340000Y-124460000D02*
X180340000Y-121920000D01*
D18*
X208280000Y-83820000D02*
X208280000Y-77470000D01*
X223520000Y-114300000D02*
X223520000Y-93980000D01*
X210820000Y-78740000D02*
X212090000Y-77470000D01*
X187960000Y-124460000D02*
X189230000Y-123190000D01*
X219710000Y-81280000D02*
X219710000Y-77470000D01*
X203200000Y-109220000D02*
X214630000Y-109220000D01*
D19*
X196850000Y-67310000D02*
X196850000Y-69930000D01*
D18*
X185420000Y-105410000D02*
X186690000Y-106680000D01*
X189230000Y-123190000D02*
X189230000Y-109220000D01*
X222250000Y-120650000D02*
X210820000Y-120650000D01*
D19*
X180340000Y-110490000D02*
X176530000Y-106680000D01*
D18*
X161290000Y-104140000D02*
X161290000Y-86360000D01*
D19*
X176530000Y-106680000D02*
X175260000Y-106680000D01*
D18*
X190500000Y-104140000D02*
X190500000Y-99060000D01*
D19*
X196850000Y-78740000D02*
X199390000Y-78740000D01*
D18*
X194310000Y-123190000D02*
X194310000Y-111760000D01*
X224790000Y-115570000D02*
X224790000Y-91440000D01*
X185420000Y-121920000D02*
X185420000Y-110490000D01*
X220980000Y-90170000D02*
X220980000Y-83820000D01*
D19*
X208280000Y-67310000D02*
X196850000Y-67310000D01*
X200660000Y-80010000D02*
X200660000Y-83820000D01*
D18*
X218440000Y-113030000D02*
X218440000Y-99060000D01*
X227330000Y-101600000D02*
X227330000Y-88900000D01*
X223520000Y-81280000D02*
X219710000Y-81280000D01*
X201930000Y-123190000D02*
X201930000Y-116840000D01*
D19*
X182880000Y-124460000D02*
X182880000Y-121920000D01*
D18*
X166370000Y-114300000D02*
X166370000Y-92710000D01*
X160020000Y-97790000D02*
X160020000Y-83820000D01*
X172720000Y-119380000D02*
X172720000Y-99060000D01*
X220980000Y-110490000D02*
X220980000Y-99060000D01*
D19*
X158750000Y-106680000D02*
X157480000Y-105410000D01*
D18*
X224790000Y-91440000D02*
X218440000Y-91440000D01*
D19*
X180340000Y-121920000D02*
X180340000Y-110490000D01*
D18*
X217170000Y-101600000D02*
X210820000Y-101600000D01*
X162560000Y-87630000D02*
X205740000Y-87630000D01*
X210820000Y-83820000D02*
X210820000Y-78740000D01*
X144780000Y-116840000D02*
X168910000Y-116840000D01*
X195580000Y-99060000D02*
X195580000Y-102870000D01*
X199390000Y-115570000D02*
X224790000Y-115570000D01*
X222250000Y-95250000D02*
X222250000Y-113030000D01*
X182880000Y-92710000D02*
X182880000Y-99060000D01*
X223520000Y-93980000D02*
X212090000Y-93980000D01*
X204470000Y-110490000D02*
X199390000Y-110490000D01*
X196850000Y-113030000D02*
X218440000Y-113030000D01*
X185420000Y-110490000D02*
X184150000Y-109220000D01*
X168910000Y-116840000D02*
X168910000Y-95250000D01*
D19*
X212090000Y-67310000D02*
X208280000Y-67310000D01*
X163830000Y-106680000D02*
X158750000Y-106680000D01*
D18*
X226060000Y-116840000D02*
X226060000Y-90170000D01*
X198120000Y-124460000D02*
X199390000Y-123190000D01*
X149860000Y-124460000D02*
X149860000Y-119380000D01*
X204470000Y-118110000D02*
X204470000Y-123190000D01*
X220980000Y-118110000D02*
X204470000Y-118110000D01*
X224790000Y-88900000D02*
X223520000Y-87630000D01*
X205740000Y-119380000D02*
X226060000Y-119380000D01*
D19*
X160020000Y-78740000D02*
X196850000Y-78740000D01*
X208280000Y-67310000D02*
X204470000Y-67310000D01*
X199390000Y-78740000D02*
X200660000Y-80010000D01*
D18*
X212090000Y-93980000D02*
X210820000Y-92710000D01*
X168910000Y-95250000D02*
X177800000Y-95250000D01*
X162560000Y-102870000D02*
X162560000Y-87630000D01*
X186690000Y-123190000D02*
X186690000Y-109220000D01*
X139700000Y-124460000D02*
X139700000Y-114300000D01*
X210820000Y-105410000D02*
X191770000Y-105410000D01*
X212090000Y-106680000D02*
X190500000Y-106680000D01*
X213360000Y-90170000D02*
X213360000Y-83820000D01*
X226060000Y-90170000D02*
X220980000Y-90170000D01*
X210820000Y-101600000D02*
X210820000Y-99060000D01*
X213360000Y-83820000D02*
X213360000Y-80010000D01*
X167640000Y-115570000D02*
X142240000Y-115570000D01*
X190500000Y-106680000D02*
X187960000Y-104140000D01*
X218440000Y-91440000D02*
X218440000Y-83820000D01*
X189230000Y-106680000D02*
X191770000Y-109220000D01*
X213360000Y-80010000D02*
X215900000Y-77470000D01*
X210820000Y-120650000D02*
X210820000Y-124460000D01*
X193040000Y-124460000D02*
X194310000Y-123190000D01*
X180340000Y-99060000D02*
X180340000Y-93980000D01*
D19*
X196850000Y-78740000D02*
X196850000Y-74930000D01*
D18*
X204470000Y-123190000D02*
X203200000Y-124460000D01*
D19*
X198120000Y-93980000D02*
X207010000Y-93980000D01*
D18*
X208280000Y-88900000D02*
X163830000Y-88900000D01*
X175260000Y-96520000D02*
X170180000Y-96520000D01*
X196850000Y-123190000D02*
X196850000Y-113030000D01*
D19*
X157480000Y-105410000D02*
X157480000Y-81280000D01*
D18*
X223520000Y-87630000D02*
X223520000Y-81280000D01*
X200660000Y-124460000D02*
X201930000Y-123190000D01*
X191770000Y-109220000D02*
X191770000Y-123190000D01*
X139700000Y-114300000D02*
X166370000Y-114300000D01*
X149860000Y-119380000D02*
X172720000Y-119380000D01*
X185420000Y-124460000D02*
X186690000Y-123190000D01*
X142240000Y-115570000D02*
X142240000Y-124460000D01*
X193040000Y-104140000D02*
X193040000Y-99060000D01*
D19*
X224790000Y-67310000D02*
X219710000Y-67310000D01*
D18*
X167640000Y-93980000D02*
X167640000Y-115570000D01*
X161290000Y-86360000D02*
X203200000Y-86360000D01*
X187960000Y-104140000D02*
X187960000Y-99060000D01*
X203200000Y-86360000D02*
X203200000Y-83820000D01*
X147320000Y-118110000D02*
X147320000Y-124460000D01*
X175260000Y-99060000D02*
X175260000Y-96520000D01*
X191770000Y-123190000D02*
X190500000Y-124460000D01*
X194310000Y-111760000D02*
X217170000Y-111760000D01*
D19*
X215900000Y-67310000D02*
X212090000Y-67310000D01*
D18*
X186690000Y-106680000D02*
X189230000Y-106680000D01*
%TD*%
M02*
