%TF.GenerationSoftware,KiCad,Pcbnew,6.0.11+dfsg-1*%
%TF.CreationDate,2025-12-28T18:54:00+01:00*%
%TF.ProjectId,b2,62322e6b-6963-4616-945f-706362585858,rev?*%
%TF.SameCoordinates,Original*%
%TF.FileFunction,Copper,L2,Bot*%
%TF.FilePolarity,Positive*%
%FSLAX46Y46*%
G04 Gerber Fmt 4.6, Leading zero omitted, Abs format (unit mm)*
G04 Created by KiCad (PCBNEW 6.0.11+dfsg-1) date 2025-12-28 18:54:00*
%MOMM*%
%LPD*%
G01*
G04 APERTURE LIST*
%TA.AperFunction,ComponentPad*%
%ADD10R,1.700000X1.700000*%
%TD*%
%TA.AperFunction,ComponentPad*%
%ADD11O,1.700000X1.700000*%
%TD*%
%TA.AperFunction,ComponentPad*%
%ADD12C,1.600000*%
%TD*%
%TA.AperFunction,ComponentPad*%
%ADD13R,1.800000X1.800000*%
%TD*%
%TA.AperFunction,ComponentPad*%
%ADD14C,1.800000*%
%TD*%
%TA.AperFunction,ComponentPad*%
%ADD15O,1.600000X1.600000*%
%TD*%
%TA.AperFunction,Conductor*%
%ADD16C,0.400000*%
%TD*%
%TA.AperFunction,Conductor*%
%ADD17C,0.250000*%
%TD*%
%TA.AperFunction,Conductor*%
%ADD18C,1.000000*%
%TD*%
G04 APERTURE END LIST*
D10*
%TO.P,REF\u002A\u002A,1*%
%TO.N,N/C*%
X151205000Y-66065000D03*
D11*
%TO.P,REF\u002A\u002A,2*%
X151205000Y-68605000D03*
%TO.P,REF\u002A\u002A,3*%
X151205000Y-71145000D03*
%TO.P,REF\u002A\u002A,4*%
X151205000Y-73685000D03*
%TO.P,REF\u002A\u002A,5*%
X151205000Y-76225000D03*
%TO.P,REF\u002A\u002A,6*%
X151205000Y-78765000D03*
%TO.P,REF\u002A\u002A,7*%
X151205000Y-81305000D03*
%TO.P,REF\u002A\u002A,8*%
X151205000Y-83845000D03*
%TO.P,REF\u002A\u002A,9*%
X151205000Y-86385000D03*
%TO.P,REF\u002A\u002A,10*%
X151205000Y-88925000D03*
%TO.P,REF\u002A\u002A,11*%
X151205000Y-91465000D03*
%TO.P,REF\u002A\u002A,12*%
X151205000Y-94005000D03*
%TO.P,REF\u002A\u002A,13*%
X151205000Y-96545000D03*
%TO.P,REF\u002A\u002A,14*%
X151205000Y-99085000D03*
%TO.P,REF\u002A\u002A,15*%
X151205000Y-101625000D03*
%TO.P,REF\u002A\u002A,16*%
X151205000Y-104165000D03*
%TO.P,REF\u002A\u002A,17*%
X151205000Y-106705000D03*
%TO.P,REF\u002A\u002A,18*%
X151205000Y-109245000D03*
%TO.P,REF\u002A\u002A,19*%
X151205000Y-111785000D03*
%TO.P,REF\u002A\u002A,20*%
X151205000Y-114325000D03*
%TO.P,REF\u002A\u002A,21*%
X151205000Y-116865000D03*
%TO.P,REF\u002A\u002A,22*%
X151205000Y-119405000D03*
%TO.P,REF\u002A\u002A,23*%
X151205000Y-121945000D03*
%TO.P,REF\u002A\u002A,24*%
X151205000Y-124485000D03*
%TO.P,REF\u002A\u002A,25*%
X151205000Y-127025000D03*
%TO.P,REF\u002A\u002A,26*%
X151205000Y-129565000D03*
%TO.P,REF\u002A\u002A,27*%
X151205000Y-132105000D03*
%TO.P,REF\u002A\u002A,28*%
X151205000Y-134645000D03*
%TO.P,REF\u002A\u002A,29*%
X151205000Y-137185000D03*
%TO.P,REF\u002A\u002A,30*%
X151205000Y-139725000D03*
%TO.P,REF\u002A\u002A,31*%
X151205000Y-142265000D03*
%TO.P,REF\u002A\u002A,32*%
X151205000Y-144805000D03*
%TO.P,REF\u002A\u002A,33*%
X151205000Y-147345000D03*
%TO.P,REF\u002A\u002A,34*%
X151205000Y-149885000D03*
%TO.P,REF\u002A\u002A,35*%
X151205000Y-152425000D03*
%TO.P,REF\u002A\u002A,36*%
X151205000Y-154965000D03*
%TD*%
D10*
%TO.P,REF\u002A\u002A,1*%
%TO.N,N/C*%
X102930000Y-106715000D03*
D11*
%TO.P,REF\u002A\u002A,2*%
X102930000Y-109255000D03*
%TO.P,REF\u002A\u002A,3*%
X102930000Y-111795000D03*
%TO.P,REF\u002A\u002A,4*%
X102930000Y-114335000D03*
%TO.P,REF\u002A\u002A,5*%
X102930000Y-116875000D03*
%TO.P,REF\u002A\u002A,6*%
X102930000Y-119415000D03*
%TO.P,REF\u002A\u002A,7*%
X102930000Y-121955000D03*
%TO.P,REF\u002A\u002A,8*%
X102930000Y-124495000D03*
%TO.P,REF\u002A\u002A,9*%
X102930000Y-127035000D03*
%TO.P,REF\u002A\u002A,10*%
X102930000Y-129575000D03*
%TO.P,REF\u002A\u002A,11*%
X102930000Y-132115000D03*
%TO.P,REF\u002A\u002A,12*%
X102930000Y-134655000D03*
%TO.P,REF\u002A\u002A,13*%
X102930000Y-137195000D03*
%TO.P,REF\u002A\u002A,14*%
X102930000Y-139735000D03*
%TO.P,REF\u002A\u002A,15*%
X102930000Y-142275000D03*
%TO.P,REF\u002A\u002A,16*%
X102930000Y-144815000D03*
%TO.P,REF\u002A\u002A,17*%
X102930000Y-147355000D03*
%TO.P,REF\u002A\u002A,18*%
X102930000Y-149895000D03*
%TO.P,REF\u002A\u002A,19*%
X102930000Y-152435000D03*
%TO.P,REF\u002A\u002A,20*%
X102930000Y-154975000D03*
%TD*%
D12*
%TO.P,C,1*%
%TO.N,N/C*%
X190500000Y-109220000D03*
%TO.P,C,2*%
X190500000Y-106720000D03*
%TD*%
%TO.P,C,1*%
%TO.N,N/C*%
X177800000Y-109220000D03*
%TO.P,C,2*%
X177800000Y-106720000D03*
%TD*%
%TO.P,C,1*%
%TO.N,N/C*%
X132080000Y-109220000D03*
%TO.P,C,2*%
X132080000Y-106720000D03*
%TD*%
D10*
%TO.P,REF\u002A\u002A,1*%
%TO.N,N/C*%
X194335000Y-106715000D03*
D11*
%TO.P,REF\u002A\u002A,2*%
X194335000Y-109255000D03*
%TO.P,REF\u002A\u002A,3*%
X194335000Y-111795000D03*
%TO.P,REF\u002A\u002A,4*%
X194335000Y-114335000D03*
%TO.P,REF\u002A\u002A,5*%
X194335000Y-116875000D03*
%TO.P,REF\u002A\u002A,6*%
X194335000Y-119415000D03*
%TO.P,REF\u002A\u002A,7*%
X194335000Y-121955000D03*
%TO.P,REF\u002A\u002A,8*%
X194335000Y-124495000D03*
%TO.P,REF\u002A\u002A,9*%
X194335000Y-127035000D03*
%TO.P,REF\u002A\u002A,10*%
X194335000Y-129575000D03*
%TO.P,REF\u002A\u002A,11*%
X194335000Y-132115000D03*
%TO.P,REF\u002A\u002A,12*%
X194335000Y-134655000D03*
%TO.P,REF\u002A\u002A,13*%
X194335000Y-137195000D03*
%TO.P,REF\u002A\u002A,14*%
X194335000Y-139735000D03*
%TO.P,REF\u002A\u002A,15*%
X194335000Y-142275000D03*
%TO.P,REF\u002A\u002A,16*%
X194335000Y-144815000D03*
%TO.P,REF\u002A\u002A,17*%
X194335000Y-147355000D03*
%TO.P,REF\u002A\u002A,18*%
X194335000Y-149895000D03*
%TO.P,REF\u002A\u002A,19*%
X194335000Y-152435000D03*
%TO.P,REF\u002A\u002A,20*%
X194335000Y-154975000D03*
%TD*%
D10*
%TO.P,REF\u002A\u002A,1*%
%TO.N,N/C*%
X148665000Y-106715000D03*
D11*
%TO.P,REF\u002A\u002A,2*%
X148665000Y-109255000D03*
%TO.P,REF\u002A\u002A,3*%
X148665000Y-111795000D03*
%TO.P,REF\u002A\u002A,4*%
X148665000Y-114335000D03*
%TO.P,REF\u002A\u002A,5*%
X148665000Y-116875000D03*
%TO.P,REF\u002A\u002A,6*%
X148665000Y-119415000D03*
%TO.P,REF\u002A\u002A,7*%
X148665000Y-121955000D03*
%TO.P,REF\u002A\u002A,8*%
X148665000Y-124495000D03*
%TO.P,REF\u002A\u002A,9*%
X148665000Y-127035000D03*
%TO.P,REF\u002A\u002A,10*%
X148665000Y-129575000D03*
%TO.P,REF\u002A\u002A,11*%
X148665000Y-132115000D03*
%TO.P,REF\u002A\u002A,12*%
X148665000Y-134655000D03*
%TO.P,REF\u002A\u002A,13*%
X148665000Y-137195000D03*
%TO.P,REF\u002A\u002A,14*%
X148665000Y-139735000D03*
%TO.P,REF\u002A\u002A,15*%
X148665000Y-142275000D03*
%TO.P,REF\u002A\u002A,16*%
X148665000Y-144815000D03*
%TO.P,REF\u002A\u002A,17*%
X148665000Y-147355000D03*
%TO.P,REF\u002A\u002A,18*%
X148665000Y-149895000D03*
%TO.P,REF\u002A\u002A,19*%
X148665000Y-152435000D03*
%TO.P,REF\u002A\u002A,20*%
X148665000Y-154975000D03*
%TD*%
D13*
%TO.P,REF\u002A\u002A,1*%
%TO.N,N/C*%
X120650000Y-63500000D03*
D14*
%TO.P,REF\u002A\u002A,2*%
X123190000Y-63500000D03*
%TD*%
D12*
%TO.P,1k,1*%
%TO.N,N/C*%
X133350000Y-63500000D03*
D15*
%TO.P,1k,2*%
X143510000Y-63500000D03*
%TD*%
D12*
%TO.P,C,1*%
%TO.N,N/C*%
X109220000Y-109220000D03*
%TO.P,C,2*%
X109220000Y-106720000D03*
%TD*%
D10*
%TO.P,REF\u002A\u002A,1*%
%TO.N,N/C*%
X174065000Y-66065000D03*
D11*
%TO.P,REF\u002A\u002A,2*%
X174065000Y-68605000D03*
%TO.P,REF\u002A\u002A,3*%
X174065000Y-71145000D03*
%TO.P,REF\u002A\u002A,4*%
X174065000Y-73685000D03*
%TO.P,REF\u002A\u002A,5*%
X174065000Y-76225000D03*
%TO.P,REF\u002A\u002A,6*%
X174065000Y-78765000D03*
%TO.P,REF\u002A\u002A,7*%
X174065000Y-81305000D03*
%TO.P,REF\u002A\u002A,8*%
X174065000Y-83845000D03*
%TO.P,REF\u002A\u002A,9*%
X174065000Y-86385000D03*
%TO.P,REF\u002A\u002A,10*%
X174065000Y-88925000D03*
%TO.P,REF\u002A\u002A,11*%
X174065000Y-91465000D03*
%TO.P,REF\u002A\u002A,12*%
X174065000Y-94005000D03*
%TO.P,REF\u002A\u002A,13*%
X174065000Y-96545000D03*
%TO.P,REF\u002A\u002A,14*%
X174065000Y-99085000D03*
%TO.P,REF\u002A\u002A,15*%
X174065000Y-101625000D03*
%TO.P,REF\u002A\u002A,16*%
X174065000Y-104165000D03*
%TO.P,REF\u002A\u002A,17*%
X174065000Y-106705000D03*
%TO.P,REF\u002A\u002A,18*%
X174065000Y-109245000D03*
%TO.P,REF\u002A\u002A,19*%
X174065000Y-111785000D03*
%TO.P,REF\u002A\u002A,20*%
X174065000Y-114325000D03*
%TO.P,REF\u002A\u002A,21*%
X174065000Y-116865000D03*
%TO.P,REF\u002A\u002A,22*%
X174065000Y-119405000D03*
%TO.P,REF\u002A\u002A,23*%
X174065000Y-121945000D03*
%TO.P,REF\u002A\u002A,24*%
X174065000Y-124485000D03*
%TO.P,REF\u002A\u002A,25*%
X174065000Y-127025000D03*
%TO.P,REF\u002A\u002A,26*%
X174065000Y-129565000D03*
%TO.P,REF\u002A\u002A,27*%
X174065000Y-132105000D03*
%TO.P,REF\u002A\u002A,28*%
X174065000Y-134645000D03*
%TO.P,REF\u002A\u002A,29*%
X174065000Y-137185000D03*
%TO.P,REF\u002A\u002A,30*%
X174065000Y-139725000D03*
%TO.P,REF\u002A\u002A,31*%
X174065000Y-142265000D03*
%TO.P,REF\u002A\u002A,32*%
X174065000Y-144805000D03*
%TO.P,REF\u002A\u002A,33*%
X174065000Y-147345000D03*
%TO.P,REF\u002A\u002A,34*%
X174065000Y-149885000D03*
%TO.P,REF\u002A\u002A,35*%
X174065000Y-152425000D03*
%TO.P,REF\u002A\u002A,36*%
X174065000Y-154965000D03*
%TD*%
D10*
%TO.P,REF\u002A\u002A,1*%
%TO.N,N/C*%
X128320000Y-66065000D03*
D11*
%TO.P,REF\u002A\u002A,2*%
X128320000Y-68605000D03*
%TO.P,REF\u002A\u002A,3*%
X128320000Y-71145000D03*
%TO.P,REF\u002A\u002A,4*%
X128320000Y-73685000D03*
%TO.P,REF\u002A\u002A,5*%
X128320000Y-76225000D03*
%TO.P,REF\u002A\u002A,6*%
X128320000Y-78765000D03*
%TO.P,REF\u002A\u002A,7*%
X128320000Y-81305000D03*
%TO.P,REF\u002A\u002A,8*%
X128320000Y-83845000D03*
%TO.P,REF\u002A\u002A,9*%
X128320000Y-86385000D03*
%TO.P,REF\u002A\u002A,10*%
X128320000Y-88925000D03*
%TO.P,REF\u002A\u002A,11*%
X128320000Y-91465000D03*
%TO.P,REF\u002A\u002A,12*%
X128320000Y-94005000D03*
%TO.P,REF\u002A\u002A,13*%
X128320000Y-96545000D03*
%TO.P,REF\u002A\u002A,14*%
X128320000Y-99085000D03*
%TO.P,REF\u002A\u002A,15*%
X128320000Y-101625000D03*
%TO.P,REF\u002A\u002A,16*%
X128320000Y-104165000D03*
%TO.P,REF\u002A\u002A,17*%
X128320000Y-106705000D03*
%TO.P,REF\u002A\u002A,18*%
X128320000Y-109245000D03*
%TO.P,REF\u002A\u002A,19*%
X128320000Y-111785000D03*
%TO.P,REF\u002A\u002A,20*%
X128320000Y-114325000D03*
%TO.P,REF\u002A\u002A,21*%
X128320000Y-116865000D03*
%TO.P,REF\u002A\u002A,22*%
X128320000Y-119405000D03*
%TO.P,REF\u002A\u002A,23*%
X128320000Y-121945000D03*
%TO.P,REF\u002A\u002A,24*%
X128320000Y-124485000D03*
%TO.P,REF\u002A\u002A,25*%
X128320000Y-127025000D03*
%TO.P,REF\u002A\u002A,26*%
X128320000Y-129565000D03*
%TO.P,REF\u002A\u002A,27*%
X128320000Y-132105000D03*
%TO.P,REF\u002A\u002A,28*%
X128320000Y-134645000D03*
%TO.P,REF\u002A\u002A,29*%
X128320000Y-137185000D03*
%TO.P,REF\u002A\u002A,30*%
X128320000Y-139725000D03*
%TO.P,REF\u002A\u002A,31*%
X128320000Y-142265000D03*
%TO.P,REF\u002A\u002A,32*%
X128320000Y-144805000D03*
%TO.P,REF\u002A\u002A,33*%
X128320000Y-147345000D03*
%TO.P,REF\u002A\u002A,34*%
X128320000Y-149885000D03*
%TO.P,REF\u002A\u002A,35*%
X128320000Y-152425000D03*
%TO.P,REF\u002A\u002A,36*%
X128320000Y-154965000D03*
%TD*%
D10*
%TO.P,5V,1*%
%TO.N,N/C*%
X160020000Y-63500000D03*
D11*
%TO.P,5V,2*%
X162560000Y-63500000D03*
%TD*%
D12*
%TO.P,C,1*%
%TO.N,N/C*%
X154940000Y-109220000D03*
%TO.P,C,2*%
X154940000Y-106720000D03*
%TD*%
D10*
%TO.P,REF\u002A\u002A,1*%
%TO.N,N/C*%
X125780000Y-106715000D03*
D11*
%TO.P,REF\u002A\u002A,2*%
X125780000Y-109255000D03*
%TO.P,REF\u002A\u002A,3*%
X125780000Y-111795000D03*
%TO.P,REF\u002A\u002A,4*%
X125780000Y-114335000D03*
%TO.P,REF\u002A\u002A,5*%
X125780000Y-116875000D03*
%TO.P,REF\u002A\u002A,6*%
X125780000Y-119415000D03*
%TO.P,REF\u002A\u002A,7*%
X125780000Y-121955000D03*
%TO.P,REF\u002A\u002A,8*%
X125780000Y-124495000D03*
%TO.P,REF\u002A\u002A,9*%
X125780000Y-127035000D03*
%TO.P,REF\u002A\u002A,10*%
X125780000Y-129575000D03*
%TO.P,REF\u002A\u002A,11*%
X125780000Y-132115000D03*
%TO.P,REF\u002A\u002A,12*%
X125780000Y-134655000D03*
%TO.P,REF\u002A\u002A,13*%
X125780000Y-137195000D03*
%TO.P,REF\u002A\u002A,14*%
X125780000Y-139735000D03*
%TO.P,REF\u002A\u002A,15*%
X125780000Y-142275000D03*
%TO.P,REF\u002A\u002A,16*%
X125780000Y-144815000D03*
%TO.P,REF\u002A\u002A,17*%
X125780000Y-147355000D03*
%TO.P,REF\u002A\u002A,18*%
X125780000Y-149895000D03*
%TO.P,REF\u002A\u002A,19*%
X125780000Y-152435000D03*
%TO.P,REF\u002A\u002A,20*%
X125780000Y-154975000D03*
%TD*%
D10*
%TO.P,REF\u002A\u002A,1*%
%TO.N,N/C*%
X105470000Y-66065000D03*
D11*
%TO.P,REF\u002A\u002A,2*%
X105470000Y-68605000D03*
%TO.P,REF\u002A\u002A,3*%
X105470000Y-71145000D03*
%TO.P,REF\u002A\u002A,4*%
X105470000Y-73685000D03*
%TO.P,REF\u002A\u002A,5*%
X105470000Y-76225000D03*
%TO.P,REF\u002A\u002A,6*%
X105470000Y-78765000D03*
%TO.P,REF\u002A\u002A,7*%
X105470000Y-81305000D03*
%TO.P,REF\u002A\u002A,8*%
X105470000Y-83845000D03*
%TO.P,REF\u002A\u002A,9*%
X105470000Y-86385000D03*
%TO.P,REF\u002A\u002A,10*%
X105470000Y-88925000D03*
%TO.P,REF\u002A\u002A,11*%
X105470000Y-91465000D03*
%TO.P,REF\u002A\u002A,12*%
X105470000Y-94005000D03*
%TO.P,REF\u002A\u002A,13*%
X105470000Y-96545000D03*
%TO.P,REF\u002A\u002A,14*%
X105470000Y-99085000D03*
%TO.P,REF\u002A\u002A,15*%
X105470000Y-101625000D03*
%TO.P,REF\u002A\u002A,16*%
X105470000Y-104165000D03*
%TO.P,REF\u002A\u002A,17*%
X105470000Y-106705000D03*
%TO.P,REF\u002A\u002A,18*%
X105470000Y-109245000D03*
%TO.P,REF\u002A\u002A,19*%
X105470000Y-111785000D03*
%TO.P,REF\u002A\u002A,20*%
X105470000Y-114325000D03*
%TO.P,REF\u002A\u002A,21*%
X105470000Y-116865000D03*
%TO.P,REF\u002A\u002A,22*%
X105470000Y-119405000D03*
%TO.P,REF\u002A\u002A,23*%
X105470000Y-121945000D03*
%TO.P,REF\u002A\u002A,24*%
X105470000Y-124485000D03*
%TO.P,REF\u002A\u002A,25*%
X105470000Y-127025000D03*
%TO.P,REF\u002A\u002A,26*%
X105470000Y-129565000D03*
%TO.P,REF\u002A\u002A,27*%
X105470000Y-132105000D03*
%TO.P,REF\u002A\u002A,28*%
X105470000Y-134645000D03*
%TO.P,REF\u002A\u002A,29*%
X105470000Y-137185000D03*
%TO.P,REF\u002A\u002A,30*%
X105470000Y-139725000D03*
%TO.P,REF\u002A\u002A,31*%
X105470000Y-142265000D03*
%TO.P,REF\u002A\u002A,32*%
X105470000Y-144805000D03*
%TO.P,REF\u002A\u002A,33*%
X105470000Y-147345000D03*
%TO.P,REF\u002A\u002A,34*%
X105470000Y-149885000D03*
%TO.P,REF\u002A\u002A,35*%
X105470000Y-152425000D03*
%TO.P,REF\u002A\u002A,36*%
X105470000Y-154965000D03*
%TD*%
D10*
%TO.P,REF\u002A\u002A,1*%
%TO.N,N/C*%
X171525000Y-106715000D03*
D11*
%TO.P,REF\u002A\u002A,2*%
X171525000Y-109255000D03*
%TO.P,REF\u002A\u002A,3*%
X171525000Y-111795000D03*
%TO.P,REF\u002A\u002A,4*%
X171525000Y-114335000D03*
%TO.P,REF\u002A\u002A,5*%
X171525000Y-116875000D03*
%TO.P,REF\u002A\u002A,6*%
X171525000Y-119415000D03*
%TO.P,REF\u002A\u002A,7*%
X171525000Y-121955000D03*
%TO.P,REF\u002A\u002A,8*%
X171525000Y-124495000D03*
%TO.P,REF\u002A\u002A,9*%
X171525000Y-127035000D03*
%TO.P,REF\u002A\u002A,10*%
X171525000Y-129575000D03*
%TO.P,REF\u002A\u002A,11*%
X171525000Y-132115000D03*
%TO.P,REF\u002A\u002A,12*%
X171525000Y-134655000D03*
%TO.P,REF\u002A\u002A,13*%
X171525000Y-137195000D03*
%TO.P,REF\u002A\u002A,14*%
X171525000Y-139735000D03*
%TO.P,REF\u002A\u002A,15*%
X171525000Y-142275000D03*
%TO.P,REF\u002A\u002A,16*%
X171525000Y-144815000D03*
%TO.P,REF\u002A\u002A,17*%
X171525000Y-147355000D03*
%TO.P,REF\u002A\u002A,18*%
X171525000Y-149895000D03*
%TO.P,REF\u002A\u002A,19*%
X171525000Y-152435000D03*
%TO.P,REF\u002A\u002A,20*%
X171525000Y-154975000D03*
%TD*%
D10*
%TO.P,REF\u002A\u002A,1*%
%TO.N,N/C*%
X196875000Y-66065000D03*
D11*
%TO.P,REF\u002A\u002A,2*%
X196875000Y-68605000D03*
%TO.P,REF\u002A\u002A,3*%
X196875000Y-71145000D03*
%TO.P,REF\u002A\u002A,4*%
X196875000Y-73685000D03*
%TO.P,REF\u002A\u002A,5*%
X196875000Y-76225000D03*
%TO.P,REF\u002A\u002A,6*%
X196875000Y-78765000D03*
%TO.P,REF\u002A\u002A,7*%
X196875000Y-81305000D03*
%TO.P,REF\u002A\u002A,8*%
X196875000Y-83845000D03*
%TO.P,REF\u002A\u002A,9*%
X196875000Y-86385000D03*
%TO.P,REF\u002A\u002A,10*%
X196875000Y-88925000D03*
%TO.P,REF\u002A\u002A,11*%
X196875000Y-91465000D03*
%TO.P,REF\u002A\u002A,12*%
X196875000Y-94005000D03*
%TO.P,REF\u002A\u002A,13*%
X196875000Y-96545000D03*
%TO.P,REF\u002A\u002A,14*%
X196875000Y-99085000D03*
%TO.P,REF\u002A\u002A,15*%
X196875000Y-101625000D03*
%TO.P,REF\u002A\u002A,16*%
X196875000Y-104165000D03*
%TO.P,REF\u002A\u002A,17*%
X196875000Y-106705000D03*
%TO.P,REF\u002A\u002A,18*%
X196875000Y-109245000D03*
%TO.P,REF\u002A\u002A,19*%
X196875000Y-111785000D03*
%TO.P,REF\u002A\u002A,20*%
X196875000Y-114325000D03*
%TO.P,REF\u002A\u002A,21*%
X196875000Y-116865000D03*
%TO.P,REF\u002A\u002A,22*%
X196875000Y-119405000D03*
%TO.P,REF\u002A\u002A,23*%
X196875000Y-121945000D03*
%TO.P,REF\u002A\u002A,24*%
X196875000Y-124485000D03*
%TO.P,REF\u002A\u002A,25*%
X196875000Y-127025000D03*
%TO.P,REF\u002A\u002A,26*%
X196875000Y-129565000D03*
%TO.P,REF\u002A\u002A,27*%
X196875000Y-132105000D03*
%TO.P,REF\u002A\u002A,28*%
X196875000Y-134645000D03*
%TO.P,REF\u002A\u002A,29*%
X196875000Y-137185000D03*
%TO.P,REF\u002A\u002A,30*%
X196875000Y-139725000D03*
%TO.P,REF\u002A\u002A,31*%
X196875000Y-142265000D03*
%TO.P,REF\u002A\u002A,32*%
X196875000Y-144805000D03*
%TO.P,REF\u002A\u002A,33*%
X196875000Y-147345000D03*
%TO.P,REF\u002A\u002A,34*%
X196875000Y-149885000D03*
%TO.P,REF\u002A\u002A,35*%
X196875000Y-152425000D03*
%TO.P,REF\u002A\u002A,36*%
X196875000Y-154965000D03*
%TD*%
D16*
%TO.N,*%
X174065000Y-78765000D02*
X196875000Y-78765000D01*
D17*
X123190000Y-118110000D02*
X124460000Y-116840000D01*
X124460000Y-111760000D02*
X124495000Y-111795000D01*
X124460000Y-113030000D02*
X127025000Y-113030000D01*
X104140000Y-135865000D02*
X104140000Y-135890000D01*
X174065000Y-142265000D02*
X191745000Y-142265000D01*
X172770000Y-140970000D02*
X174065000Y-142265000D01*
X102930000Y-147355000D02*
X104140000Y-148565000D01*
X127025000Y-120650000D02*
X128320000Y-121945000D01*
X124495000Y-137195000D02*
X125780000Y-137195000D01*
X170180000Y-120650000D02*
X172770000Y-120650000D01*
X151205000Y-154965000D02*
X168885000Y-154965000D01*
X102930000Y-114335000D02*
X104140000Y-115545000D01*
X146025000Y-152425000D02*
X147320000Y-151130000D01*
X105470000Y-147345000D02*
X123165000Y-147345000D01*
X151205000Y-111785000D02*
X168885000Y-111785000D01*
X104140000Y-123190000D02*
X123190000Y-123190000D01*
X128320000Y-127025000D02*
X146025000Y-127025000D01*
X174065000Y-114325000D02*
X191745000Y-114325000D01*
X146025000Y-127025000D02*
X147320000Y-125730000D01*
X174065000Y-129565000D02*
X191745000Y-129565000D01*
D18*
X148655000Y-106705000D02*
X148665000Y-106715000D01*
D17*
X104140000Y-113030000D02*
X123190000Y-113030000D01*
X193040000Y-140970000D02*
X195580000Y-140970000D01*
X104140000Y-120650000D02*
X123190000Y-120650000D01*
D18*
X128310000Y-106715000D02*
X128320000Y-106705000D01*
D17*
X170180000Y-146050000D02*
X172770000Y-146050000D01*
X146025000Y-114325000D02*
X147320000Y-113030000D01*
D18*
X174065000Y-106705000D02*
X171535000Y-106705000D01*
D17*
X124495000Y-152435000D02*
X125780000Y-152435000D01*
X124460000Y-148590000D02*
X127025000Y-148590000D01*
X124460000Y-120650000D02*
X127025000Y-120650000D01*
D16*
X105470000Y-104165000D02*
X128320000Y-104165000D01*
D17*
X123190000Y-133350000D02*
X124460000Y-132080000D01*
X104140000Y-140970000D02*
X123190000Y-140970000D01*
X123165000Y-119405000D02*
X124460000Y-118110000D01*
X151205000Y-116865000D02*
X168885000Y-116865000D01*
X105470000Y-149885000D02*
X123165000Y-149885000D01*
X105470000Y-152425000D02*
X123165000Y-152425000D01*
X174065000Y-152425000D02*
X191745000Y-152425000D01*
D16*
X128320000Y-96545000D02*
X151205000Y-96545000D01*
D17*
X124460000Y-124460000D02*
X124495000Y-124495000D01*
X147320000Y-151130000D02*
X149910000Y-151130000D01*
D16*
X105470000Y-73685000D02*
X128320000Y-73685000D01*
X174065000Y-91465000D02*
X196875000Y-91465000D01*
D17*
X123165000Y-144805000D02*
X124460000Y-143510000D01*
D16*
X128320000Y-73685000D02*
X151205000Y-73685000D01*
D17*
X124460000Y-128270000D02*
X127025000Y-128270000D01*
X127025000Y-151130000D02*
X128320000Y-152425000D01*
X123165000Y-121945000D02*
X124460000Y-120650000D01*
D16*
X151205000Y-94005000D02*
X174065000Y-94005000D01*
D17*
X168885000Y-152425000D02*
X170180000Y-151130000D01*
X102930000Y-129575000D02*
X104140000Y-130785000D01*
X151205000Y-137185000D02*
X168885000Y-137185000D01*
D16*
X128320000Y-91465000D02*
X151205000Y-91465000D01*
X174065000Y-76225000D02*
X196875000Y-76225000D01*
D17*
X151205000Y-132105000D02*
X168885000Y-132105000D01*
D18*
X105460000Y-109255000D02*
X105470000Y-109245000D01*
D17*
X104140000Y-115570000D02*
X123190000Y-115570000D01*
X151205000Y-147345000D02*
X168885000Y-147345000D01*
X195580000Y-113030000D02*
X196875000Y-114325000D01*
X124460000Y-115570000D02*
X127025000Y-115570000D01*
X193040000Y-135890000D02*
X195580000Y-135890000D01*
X128320000Y-149885000D02*
X146025000Y-149885000D01*
X174065000Y-134645000D02*
X191745000Y-134645000D01*
X191745000Y-137185000D02*
X193040000Y-135890000D01*
X172770000Y-120650000D02*
X174065000Y-121945000D01*
X147320000Y-148590000D02*
X149910000Y-148590000D01*
X170180000Y-130810000D02*
X172770000Y-130810000D01*
D16*
X105470000Y-76225000D02*
X128320000Y-76225000D01*
D17*
X146025000Y-142265000D02*
X147320000Y-140970000D01*
X193040000Y-115570000D02*
X195580000Y-115570000D01*
D18*
X174065000Y-106705000D02*
X194325000Y-106705000D01*
X125770000Y-106705000D02*
X125780000Y-106715000D01*
D17*
X124460000Y-144780000D02*
X124495000Y-144815000D01*
D18*
X194335000Y-106715000D02*
X196865000Y-106715000D01*
D17*
X149910000Y-138430000D02*
X151205000Y-139725000D01*
X149910000Y-118110000D02*
X151205000Y-119405000D01*
X151205000Y-149885000D02*
X168885000Y-149885000D01*
X123190000Y-123190000D02*
X124460000Y-121920000D01*
X149910000Y-148590000D02*
X151205000Y-149885000D01*
X170180000Y-153670000D02*
X172770000Y-153670000D01*
X123165000Y-134645000D02*
X124460000Y-133350000D01*
X172770000Y-115570000D02*
X174065000Y-116865000D01*
X174065000Y-147345000D02*
X191745000Y-147345000D01*
X172770000Y-151130000D02*
X174065000Y-152425000D01*
X191745000Y-139725000D02*
X193040000Y-138430000D01*
X127025000Y-140970000D02*
X128320000Y-142265000D01*
D16*
X151205000Y-66065000D02*
X174065000Y-66065000D01*
D17*
X104140000Y-146025000D02*
X104140000Y-146050000D01*
X191745000Y-124485000D02*
X193040000Y-123190000D01*
X124460000Y-118110000D02*
X127025000Y-118110000D01*
X105470000Y-127025000D02*
X123165000Y-127025000D01*
X149910000Y-128270000D02*
X151205000Y-129565000D01*
X123165000Y-147345000D02*
X124460000Y-146050000D01*
X195580000Y-140970000D02*
X196875000Y-142265000D01*
X124460000Y-116840000D02*
X124495000Y-116875000D01*
D16*
X128320000Y-83845000D02*
X151205000Y-83845000D01*
D17*
X147320000Y-130810000D02*
X149910000Y-130810000D01*
X127025000Y-148590000D02*
X128320000Y-149885000D01*
X151205000Y-114325000D02*
X168885000Y-114325000D01*
X123190000Y-138430000D02*
X124460000Y-137160000D01*
X191745000Y-129565000D02*
X193040000Y-128270000D01*
D18*
X171515000Y-109245000D02*
X171525000Y-109255000D01*
D17*
X195580000Y-133350000D02*
X196875000Y-134645000D01*
X168885000Y-127025000D02*
X170180000Y-125730000D01*
X128320000Y-142265000D02*
X146025000Y-142265000D01*
X172770000Y-133350000D02*
X174065000Y-134645000D01*
X104140000Y-113005000D02*
X104140000Y-113030000D01*
X104140000Y-143485000D02*
X104140000Y-143510000D01*
X147320000Y-123190000D02*
X149910000Y-123190000D01*
D18*
X151195000Y-106715000D02*
X151205000Y-106705000D01*
D17*
X168885000Y-149885000D02*
X170180000Y-148590000D01*
X146025000Y-124485000D02*
X147320000Y-123190000D01*
X104140000Y-130785000D02*
X104140000Y-130810000D01*
X193040000Y-151130000D02*
X195580000Y-151130000D01*
D16*
X174065000Y-104165000D02*
X196875000Y-104165000D01*
D17*
X128320000Y-129565000D02*
X146025000Y-129565000D01*
X147320000Y-140970000D02*
X149910000Y-140970000D01*
X151205000Y-121945000D02*
X168885000Y-121945000D01*
D18*
X196865000Y-109255000D02*
X196875000Y-109245000D01*
D17*
X128320000Y-116865000D02*
X146025000Y-116865000D01*
X104140000Y-133325000D02*
X104140000Y-133350000D01*
D18*
X102930000Y-109255000D02*
X105460000Y-109255000D01*
D17*
X193040000Y-130810000D02*
X195580000Y-130810000D01*
X123190000Y-115570000D02*
X124460000Y-114300000D01*
X146025000Y-121945000D02*
X147320000Y-120650000D01*
D18*
X194325000Y-109245000D02*
X194335000Y-109255000D01*
D17*
X128320000Y-134645000D02*
X146025000Y-134645000D01*
X168885000Y-119405000D02*
X170180000Y-118110000D01*
X128320000Y-154965000D02*
X146025000Y-154965000D01*
X123190000Y-151130000D02*
X124460000Y-149860000D01*
D16*
X174065000Y-68605000D02*
X151205000Y-68605000D01*
D17*
X104140000Y-118085000D02*
X104140000Y-118110000D01*
X170180000Y-118110000D02*
X172770000Y-118110000D01*
X146025000Y-111785000D02*
X147320000Y-110490000D01*
X168885000Y-154965000D02*
X170180000Y-153670000D01*
X128320000Y-132105000D02*
X146025000Y-132105000D01*
X124495000Y-132115000D02*
X125780000Y-132115000D01*
X146025000Y-147345000D02*
X147320000Y-146050000D01*
D18*
X196865000Y-106715000D02*
X196875000Y-106705000D01*
D17*
X193040000Y-120650000D02*
X195580000Y-120650000D01*
X123165000Y-154965000D02*
X124460000Y-153670000D01*
X125780000Y-154975000D02*
X127000000Y-156195000D01*
X127025000Y-110490000D02*
X128320000Y-111785000D01*
X149910000Y-143510000D02*
X151205000Y-144805000D01*
X172770000Y-146050000D02*
X174065000Y-147345000D01*
X168885000Y-142265000D02*
X170180000Y-140970000D01*
D16*
X174065000Y-83845000D02*
X196875000Y-83845000D01*
X105470000Y-81305000D02*
X128320000Y-81305000D01*
D17*
X147320000Y-135890000D02*
X149910000Y-135890000D01*
X104140000Y-140945000D02*
X104140000Y-140970000D01*
X123190000Y-130810000D02*
X124460000Y-129540000D01*
D16*
X151205000Y-71145000D02*
X174065000Y-71145000D01*
D17*
X127025000Y-146050000D02*
X128320000Y-147345000D01*
X147320000Y-125730000D02*
X149910000Y-125730000D01*
X124460000Y-151130000D02*
X127025000Y-151130000D01*
X123165000Y-142265000D02*
X124460000Y-140970000D01*
X195580000Y-123190000D02*
X196875000Y-124485000D01*
X195580000Y-148590000D02*
X196875000Y-149885000D01*
X104140000Y-123165000D02*
X104140000Y-123190000D01*
X191745000Y-127025000D02*
X193040000Y-125730000D01*
X151205000Y-119405000D02*
X168885000Y-119405000D01*
D16*
X151205000Y-104165000D02*
X174065000Y-104165000D01*
D17*
X151205000Y-124485000D02*
X168885000Y-124485000D01*
D16*
X174065000Y-86385000D02*
X196875000Y-86385000D01*
D17*
X168885000Y-111785000D02*
X170180000Y-110490000D01*
X193040000Y-110490000D02*
X195580000Y-110490000D01*
X191745000Y-149885000D02*
X193040000Y-148590000D01*
D18*
X128320000Y-106705000D02*
X148655000Y-106705000D01*
D17*
X123190000Y-148590000D02*
X124460000Y-147320000D01*
X191745000Y-144805000D02*
X193040000Y-143510000D01*
X124460000Y-119380000D02*
X124495000Y-119415000D01*
X104140000Y-135890000D02*
X123190000Y-135890000D01*
X172770000Y-135890000D02*
X174065000Y-137185000D01*
X102930000Y-149895000D02*
X104140000Y-151105000D01*
D18*
X194325000Y-106705000D02*
X194335000Y-106715000D01*
D17*
X105470000Y-144805000D02*
X123165000Y-144805000D01*
X104140000Y-118110000D02*
X123190000Y-118110000D01*
X124460000Y-153670000D02*
X127025000Y-153670000D01*
D16*
X151205000Y-88925000D02*
X174065000Y-88925000D01*
D17*
X191745000Y-134645000D02*
X193040000Y-133350000D01*
D16*
X174065000Y-81305000D02*
X196875000Y-81305000D01*
D17*
X170180000Y-128270000D02*
X172770000Y-128270000D01*
D16*
X105470000Y-96545000D02*
X128320000Y-96545000D01*
D17*
X149910000Y-140970000D02*
X151205000Y-142265000D01*
X147320000Y-153670000D02*
X149910000Y-153670000D01*
X127025000Y-125730000D02*
X128320000Y-127025000D01*
X170180000Y-151130000D02*
X172770000Y-151130000D01*
X102930000Y-127035000D02*
X104140000Y-128245000D01*
D18*
X105470000Y-109245000D02*
X125770000Y-109245000D01*
D17*
X124495000Y-121955000D02*
X125780000Y-121955000D01*
D18*
X151205000Y-109245000D02*
X171515000Y-109245000D01*
X128320000Y-109245000D02*
X148655000Y-109245000D01*
D17*
X104140000Y-153645000D02*
X104140000Y-153670000D01*
X151205000Y-142265000D02*
X168885000Y-142265000D01*
X123165000Y-132105000D02*
X124460000Y-130810000D01*
X128320000Y-139725000D02*
X146025000Y-139725000D01*
X124495000Y-114335000D02*
X125780000Y-114335000D01*
X191745000Y-142265000D02*
X193040000Y-140970000D01*
X151205000Y-152425000D02*
X168885000Y-152425000D01*
X195580000Y-130810000D02*
X196875000Y-132105000D01*
X105470000Y-134645000D02*
X123165000Y-134645000D01*
X124495000Y-116875000D02*
X125780000Y-116875000D01*
X170180000Y-115570000D02*
X172770000Y-115570000D01*
X174065000Y-137185000D02*
X191745000Y-137185000D01*
X147320000Y-143510000D02*
X149910000Y-143510000D01*
D16*
X128320000Y-78765000D02*
X151205000Y-78765000D01*
D17*
X172770000Y-125730000D02*
X174065000Y-127025000D01*
X149910000Y-146050000D02*
X151205000Y-147345000D01*
X105470000Y-111785000D02*
X123165000Y-111785000D01*
X174065000Y-119405000D02*
X191745000Y-119405000D01*
X151205000Y-144805000D02*
X168885000Y-144805000D01*
X191745000Y-121945000D02*
X193040000Y-120650000D01*
X193040000Y-148590000D02*
X195580000Y-148590000D01*
X124495000Y-127035000D02*
X125780000Y-127035000D01*
X104140000Y-146050000D02*
X123190000Y-146050000D01*
X124460000Y-114300000D02*
X124495000Y-114335000D01*
X172770000Y-138430000D02*
X174065000Y-139725000D01*
X127025000Y-123190000D02*
X128320000Y-124485000D01*
X147430000Y-156210000D02*
X148665000Y-154975000D01*
X193040000Y-153670000D02*
X195580000Y-153670000D01*
X193040000Y-133350000D02*
X195580000Y-133350000D01*
X128320000Y-144805000D02*
X146025000Y-144805000D01*
X147320000Y-133350000D02*
X149910000Y-133350000D01*
X146025000Y-154965000D02*
X147320000Y-153670000D01*
D16*
X105470000Y-78765000D02*
X128320000Y-78765000D01*
D17*
X127025000Y-153670000D02*
X128320000Y-154965000D01*
D18*
X194335000Y-109255000D02*
X196865000Y-109255000D01*
D17*
X123165000Y-114325000D02*
X124460000Y-113030000D01*
X123190000Y-135890000D02*
X124460000Y-134620000D01*
X149910000Y-153670000D02*
X151205000Y-154965000D01*
D16*
X174065000Y-94005000D02*
X196875000Y-94005000D01*
D17*
X102930000Y-134655000D02*
X104140000Y-135865000D01*
X191745000Y-154965000D02*
X193040000Y-153670000D01*
X148665000Y-154975000D02*
X149900000Y-156210000D01*
D16*
X174065000Y-99085000D02*
X196875000Y-99085000D01*
D17*
X149910000Y-133350000D02*
X151205000Y-134645000D01*
X104140000Y-151105000D02*
X104140000Y-151130000D01*
D16*
X128320000Y-81305000D02*
X151205000Y-81305000D01*
D17*
X104140000Y-125705000D02*
X104140000Y-125730000D01*
X174065000Y-154965000D02*
X191745000Y-154965000D01*
D18*
X125780000Y-109255000D02*
X128310000Y-109255000D01*
D17*
X105470000Y-137185000D02*
X123165000Y-137185000D01*
D16*
X105470000Y-91465000D02*
X128320000Y-91465000D01*
D17*
X124495000Y-119415000D02*
X125780000Y-119415000D01*
X124460000Y-129540000D02*
X124495000Y-129575000D01*
X102930000Y-137195000D02*
X104140000Y-138405000D01*
X127025000Y-133350000D02*
X128320000Y-134645000D01*
D18*
X105460000Y-106715000D02*
X105470000Y-106705000D01*
D17*
X123165000Y-139725000D02*
X124460000Y-138430000D01*
X146025000Y-116865000D02*
X147320000Y-115570000D01*
D18*
X105470000Y-106705000D02*
X125770000Y-106705000D01*
D17*
X123165000Y-127025000D02*
X124460000Y-125730000D01*
X170180000Y-138430000D02*
X172770000Y-138430000D01*
D16*
X151205000Y-78765000D02*
X174065000Y-78765000D01*
D17*
X191745000Y-116865000D02*
X193040000Y-115570000D01*
D18*
X151205000Y-106705000D02*
X171515000Y-106705000D01*
D17*
X147320000Y-128270000D02*
X149910000Y-128270000D01*
X168885000Y-134645000D02*
X170180000Y-133350000D01*
X127025000Y-113030000D02*
X128320000Y-114325000D01*
X174065000Y-127025000D02*
X191745000Y-127025000D01*
X172770000Y-148590000D02*
X174065000Y-149885000D01*
X149900000Y-156210000D02*
X170290000Y-156210000D01*
X128320000Y-114325000D02*
X146025000Y-114325000D01*
X102930000Y-124495000D02*
X104140000Y-125705000D01*
X123165000Y-124485000D02*
X124460000Y-123190000D01*
X104140000Y-120625000D02*
X104140000Y-120650000D01*
X195580000Y-118110000D02*
X196875000Y-119405000D01*
X146025000Y-139725000D02*
X147320000Y-138430000D01*
D16*
X105470000Y-88925000D02*
X128320000Y-88925000D01*
D17*
X151205000Y-127025000D02*
X168885000Y-127025000D01*
X128320000Y-111785000D02*
X146025000Y-111785000D01*
X124460000Y-133350000D02*
X127025000Y-133350000D01*
X195580000Y-115570000D02*
X196875000Y-116865000D01*
X170180000Y-135890000D02*
X172770000Y-135890000D01*
D16*
X151205000Y-86385000D02*
X174065000Y-86385000D01*
X128320000Y-68605000D02*
X151205000Y-68605000D01*
D17*
X104140000Y-130810000D02*
X123190000Y-130810000D01*
X128320000Y-137185000D02*
X146025000Y-137185000D01*
X124495000Y-139735000D02*
X125780000Y-139735000D01*
D16*
X151205000Y-101625000D02*
X174065000Y-101625000D01*
D17*
X104140000Y-133350000D02*
X123190000Y-133350000D01*
D18*
X102930000Y-106715000D02*
X105460000Y-106715000D01*
D16*
X196875000Y-73685000D02*
X174065000Y-73685000D01*
D17*
X123165000Y-152425000D02*
X124460000Y-151130000D01*
D18*
X148655000Y-109245000D02*
X148665000Y-109255000D01*
D17*
X102930000Y-142275000D02*
X104140000Y-143485000D01*
X195580000Y-143510000D02*
X196875000Y-144805000D01*
X102930000Y-121955000D02*
X104140000Y-123165000D01*
D16*
X105470000Y-71145000D02*
X128320000Y-71145000D01*
D17*
X123165000Y-111785000D02*
X124460000Y-110490000D01*
X105470000Y-121945000D02*
X123165000Y-121945000D01*
D16*
X105470000Y-94005000D02*
X128320000Y-94005000D01*
D17*
X191745000Y-111785000D02*
X193040000Y-110490000D01*
D16*
X105470000Y-99085000D02*
X128320000Y-99085000D01*
D17*
X146025000Y-119405000D02*
X147320000Y-118110000D01*
X124460000Y-135890000D02*
X127025000Y-135890000D01*
X127025000Y-130810000D02*
X128320000Y-132105000D01*
X127025000Y-135890000D02*
X128320000Y-137185000D01*
D16*
X128320000Y-76225000D02*
X151205000Y-76225000D01*
D17*
X170180000Y-125730000D02*
X172770000Y-125730000D01*
X170180000Y-110490000D02*
X172770000Y-110490000D01*
X147320000Y-118110000D02*
X149910000Y-118110000D01*
X149910000Y-123190000D02*
X151205000Y-124485000D01*
D16*
X105470000Y-101625000D02*
X128320000Y-101625000D01*
D17*
X124495000Y-124495000D02*
X125780000Y-124495000D01*
D18*
X171515000Y-106705000D02*
X171525000Y-106715000D01*
D17*
X170180000Y-113030000D02*
X172770000Y-113030000D01*
X174065000Y-139725000D02*
X191745000Y-139725000D01*
X170180000Y-143510000D02*
X172770000Y-143510000D01*
X170180000Y-123190000D02*
X172770000Y-123190000D01*
D18*
X148665000Y-109255000D02*
X151195000Y-109255000D01*
D17*
X195580000Y-120650000D02*
X196875000Y-121945000D01*
X123190000Y-128270000D02*
X124460000Y-127000000D01*
X105470000Y-132105000D02*
X123165000Y-132105000D01*
X123190000Y-143510000D02*
X124460000Y-142240000D01*
X151205000Y-139725000D02*
X168885000Y-139725000D01*
X124460000Y-123190000D02*
X127025000Y-123190000D01*
X174065000Y-116865000D02*
X191745000Y-116865000D01*
X127025000Y-118110000D02*
X128320000Y-119405000D01*
X127025000Y-128270000D02*
X128320000Y-129565000D01*
X170290000Y-156210000D02*
X171525000Y-154975000D01*
X124460000Y-138430000D02*
X127025000Y-138430000D01*
D16*
X174065000Y-101625000D02*
X196875000Y-101625000D01*
D17*
X102930000Y-111795000D02*
X104140000Y-113005000D01*
D16*
X128320000Y-66065000D02*
X151205000Y-66065000D01*
D17*
X193040000Y-143510000D02*
X195580000Y-143510000D01*
X123190000Y-153670000D02*
X124460000Y-152400000D01*
X104140000Y-128245000D02*
X104140000Y-128270000D01*
X193040000Y-118110000D02*
X195580000Y-118110000D01*
D16*
X128320000Y-86385000D02*
X151205000Y-86385000D01*
D17*
X170180000Y-133350000D02*
X172770000Y-133350000D01*
X124460000Y-130810000D02*
X127025000Y-130810000D01*
X124495000Y-142275000D02*
X125780000Y-142275000D01*
X123190000Y-113030000D02*
X124460000Y-111760000D01*
X172770000Y-153670000D02*
X174065000Y-154965000D01*
X168885000Y-116865000D02*
X170180000Y-115570000D01*
X124460000Y-127000000D02*
X124495000Y-127035000D01*
X195580000Y-110490000D02*
X196875000Y-111785000D01*
D16*
X174065000Y-71145000D02*
X196875000Y-71145000D01*
D17*
X172770000Y-143510000D02*
X174065000Y-144805000D01*
X170180000Y-148590000D02*
X172770000Y-148590000D01*
D18*
X171525000Y-109255000D02*
X174055000Y-109255000D01*
D16*
X128320000Y-94005000D02*
X151205000Y-94005000D01*
D17*
X127025000Y-143510000D02*
X128320000Y-144805000D01*
X172770000Y-118110000D02*
X174065000Y-119405000D01*
X172770000Y-110490000D02*
X174065000Y-111785000D01*
X124460000Y-139700000D02*
X124495000Y-139735000D01*
X174065000Y-121945000D02*
X191745000Y-121945000D01*
X123190000Y-120650000D02*
X124460000Y-119380000D01*
D16*
X128320000Y-104165000D02*
X151205000Y-104165000D01*
D17*
X191745000Y-114325000D02*
X193040000Y-113030000D01*
X124460000Y-140970000D02*
X127025000Y-140970000D01*
X127000000Y-156195000D02*
X127000000Y-156210000D01*
X174065000Y-111785000D02*
X191745000Y-111785000D01*
X149910000Y-135890000D02*
X151205000Y-137185000D01*
X124495000Y-129575000D02*
X125780000Y-129575000D01*
X149910000Y-151130000D02*
X151205000Y-152425000D01*
X124460000Y-132080000D02*
X124495000Y-132115000D01*
X168885000Y-124485000D02*
X170180000Y-123190000D01*
X123165000Y-149885000D02*
X124460000Y-148590000D01*
X168885000Y-137185000D02*
X170180000Y-135890000D01*
D18*
X174065000Y-109245000D02*
X194325000Y-109245000D01*
X125770000Y-109245000D02*
X125780000Y-109255000D01*
D17*
X193040000Y-113030000D02*
X195580000Y-113030000D01*
X105470000Y-124485000D02*
X123165000Y-124485000D01*
X174065000Y-132105000D02*
X191745000Y-132105000D01*
X128320000Y-147345000D02*
X146025000Y-147345000D01*
D16*
X105470000Y-66065000D02*
X128320000Y-66065000D01*
D17*
X168885000Y-121945000D02*
X170180000Y-120650000D01*
D18*
X171535000Y-106705000D02*
X171525000Y-106715000D01*
D17*
X102930000Y-119415000D02*
X104140000Y-120625000D01*
X124495000Y-134655000D02*
X125780000Y-134655000D01*
D16*
X174065000Y-88925000D02*
X196875000Y-88925000D01*
D17*
X195580000Y-153670000D02*
X196875000Y-154965000D01*
X105470000Y-129565000D02*
X123165000Y-129565000D01*
X105470000Y-119405000D02*
X123165000Y-119405000D01*
X124460000Y-149860000D02*
X124495000Y-149895000D01*
X193040000Y-146050000D02*
X195580000Y-146050000D01*
X105470000Y-114325000D02*
X123165000Y-114325000D01*
X168885000Y-132105000D02*
X170180000Y-130810000D01*
X124460000Y-152400000D02*
X124495000Y-152435000D01*
X128320000Y-124485000D02*
X146025000Y-124485000D01*
X195580000Y-125730000D02*
X196875000Y-127025000D01*
X123165000Y-129565000D02*
X124460000Y-128270000D01*
X149910000Y-120650000D02*
X151205000Y-121945000D01*
X124460000Y-143510000D02*
X127025000Y-143510000D01*
X174065000Y-149885000D02*
X191745000Y-149885000D01*
X147320000Y-110490000D02*
X149910000Y-110490000D01*
X195580000Y-138430000D02*
X196875000Y-139725000D01*
D18*
X125780000Y-106715000D02*
X128310000Y-106715000D01*
D17*
X124460000Y-134620000D02*
X124495000Y-134655000D01*
X149910000Y-115570000D02*
X151205000Y-116865000D01*
X195580000Y-135890000D02*
X196875000Y-137185000D01*
X128320000Y-119405000D02*
X146025000Y-119405000D01*
X168885000Y-139725000D02*
X170180000Y-138430000D01*
X123190000Y-140970000D02*
X124460000Y-139700000D01*
X149910000Y-130810000D02*
X151205000Y-132105000D01*
X195580000Y-146050000D02*
X196875000Y-147345000D01*
X195580000Y-128270000D02*
X196875000Y-129565000D01*
D16*
X128320000Y-99085000D02*
X151205000Y-99085000D01*
D17*
X124460000Y-137160000D02*
X124495000Y-137195000D01*
X124460000Y-147320000D02*
X124495000Y-147355000D01*
X102930000Y-139735000D02*
X104140000Y-140945000D01*
X127000000Y-156210000D02*
X147430000Y-156210000D01*
X172770000Y-113030000D02*
X174065000Y-114325000D01*
X151205000Y-134645000D02*
X168885000Y-134645000D01*
X124460000Y-142240000D02*
X124495000Y-142275000D01*
X191745000Y-152425000D02*
X193040000Y-151130000D01*
X124460000Y-121920000D02*
X124495000Y-121955000D01*
X124460000Y-146050000D02*
X127025000Y-146050000D01*
X104140000Y-138430000D02*
X123190000Y-138430000D01*
X191745000Y-147345000D02*
X193040000Y-146050000D01*
D16*
X105470000Y-86385000D02*
X128320000Y-86385000D01*
D17*
X104140000Y-115545000D02*
X104140000Y-115570000D01*
X149910000Y-110490000D02*
X151205000Y-111785000D01*
D16*
X151205000Y-96545000D02*
X174065000Y-96545000D01*
X105470000Y-83845000D02*
X128320000Y-83845000D01*
D17*
X128320000Y-121945000D02*
X146025000Y-121945000D01*
X191745000Y-132105000D02*
X193040000Y-130810000D01*
X102930000Y-152435000D02*
X104140000Y-153645000D01*
D16*
X128320000Y-71145000D02*
X151205000Y-71145000D01*
X105470000Y-68605000D02*
X128320000Y-68605000D01*
D17*
X104140000Y-153670000D02*
X123190000Y-153670000D01*
X172770000Y-130810000D02*
X174065000Y-132105000D01*
D16*
X151205000Y-99085000D02*
X174065000Y-99085000D01*
D17*
X123165000Y-137185000D02*
X124460000Y-135890000D01*
X149910000Y-125730000D02*
X151205000Y-127025000D01*
X102930000Y-144815000D02*
X104140000Y-146025000D01*
X123190000Y-146050000D02*
X124460000Y-144780000D01*
X149910000Y-113030000D02*
X151205000Y-114325000D01*
X172770000Y-123190000D02*
X174065000Y-124485000D01*
X102930000Y-116875000D02*
X104140000Y-118085000D01*
D16*
X196875000Y-68605000D02*
X174065000Y-68605000D01*
X151205000Y-76225000D02*
X174065000Y-76225000D01*
D17*
X104140000Y-125730000D02*
X123190000Y-125730000D01*
D18*
X128310000Y-109255000D02*
X128320000Y-109245000D01*
D17*
X172770000Y-128270000D02*
X174065000Y-129565000D01*
X105470000Y-116865000D02*
X123165000Y-116865000D01*
X147320000Y-115570000D02*
X149910000Y-115570000D01*
X195580000Y-151130000D02*
X196875000Y-152425000D01*
X168885000Y-147345000D02*
X170180000Y-146050000D01*
X104140000Y-151130000D02*
X123190000Y-151130000D01*
X193040000Y-138430000D02*
X195580000Y-138430000D01*
X102930000Y-132115000D02*
X104140000Y-133325000D01*
X102930000Y-106715000D02*
X102930000Y-106740000D01*
X193040000Y-123190000D02*
X195580000Y-123190000D01*
X146025000Y-129565000D02*
X147320000Y-128270000D01*
X191745000Y-119405000D02*
X193040000Y-118110000D01*
X104140000Y-138405000D02*
X104140000Y-138430000D01*
X105470000Y-154965000D02*
X123165000Y-154965000D01*
X123165000Y-116865000D02*
X124460000Y-115570000D01*
X105470000Y-139725000D02*
X123165000Y-139725000D01*
X151205000Y-129565000D02*
X168885000Y-129565000D01*
D16*
X174065000Y-73685000D02*
X151205000Y-73685000D01*
D17*
X128320000Y-152425000D02*
X146025000Y-152425000D01*
X124495000Y-111795000D02*
X125780000Y-111795000D01*
X124460000Y-125730000D02*
X127025000Y-125730000D01*
X127025000Y-115570000D02*
X128320000Y-116865000D01*
X146025000Y-149885000D02*
X147320000Y-148590000D01*
X174065000Y-124485000D02*
X191745000Y-124485000D01*
X174065000Y-144805000D02*
X191745000Y-144805000D01*
D16*
X128320000Y-88925000D02*
X151205000Y-88925000D01*
X151205000Y-83845000D02*
X174065000Y-83845000D01*
D17*
X146025000Y-132105000D02*
X147320000Y-130810000D01*
X147320000Y-138430000D02*
X149910000Y-138430000D01*
X124460000Y-110490000D02*
X127025000Y-110490000D01*
X146025000Y-137185000D02*
X147320000Y-135890000D01*
X146025000Y-134645000D02*
X147320000Y-133350000D01*
X104140000Y-128270000D02*
X123190000Y-128270000D01*
D16*
X128320000Y-101625000D02*
X151205000Y-101625000D01*
D17*
X127025000Y-138430000D02*
X128320000Y-139725000D01*
D16*
X151205000Y-81305000D02*
X174065000Y-81305000D01*
D17*
X124495000Y-144815000D02*
X125780000Y-144815000D01*
X168885000Y-114325000D02*
X170180000Y-113030000D01*
X147320000Y-146050000D02*
X149910000Y-146050000D01*
X104140000Y-148565000D02*
X104140000Y-148590000D01*
X193040000Y-125730000D02*
X195580000Y-125730000D01*
X104140000Y-148590000D02*
X123190000Y-148590000D01*
X170180000Y-140970000D02*
X172770000Y-140970000D01*
X146025000Y-144805000D02*
X147320000Y-143510000D01*
X124495000Y-147355000D02*
X125780000Y-147355000D01*
X147320000Y-113030000D02*
X149910000Y-113030000D01*
X168885000Y-144805000D02*
X170180000Y-143510000D01*
X124495000Y-149895000D02*
X125780000Y-149895000D01*
X147320000Y-120650000D02*
X149910000Y-120650000D01*
X123190000Y-125730000D02*
X124460000Y-124460000D01*
D16*
X174065000Y-96545000D02*
X196875000Y-96545000D01*
D18*
X151195000Y-109255000D02*
X151205000Y-109245000D01*
D17*
X168885000Y-129565000D02*
X170180000Y-128270000D01*
X193040000Y-128270000D02*
X195580000Y-128270000D01*
X105470000Y-142265000D02*
X123165000Y-142265000D01*
D18*
X174055000Y-109255000D02*
X174065000Y-109245000D01*
D16*
X151205000Y-91465000D02*
X174065000Y-91465000D01*
D18*
X148665000Y-106715000D02*
X151195000Y-106715000D01*
D16*
X174065000Y-66065000D02*
X196875000Y-66065000D01*
D17*
X104140000Y-143510000D02*
X123190000Y-143510000D01*
%TD*%
M02*
