%TF.GenerationSoftware,KiCad,Pcbnew,6.0.11+dfsg-1*%
%TF.CreationDate,2025-12-28T18:54:01+01:00*%
%TF.ProjectId,b2,62322e6b-6963-4616-945f-706362585858,rev?*%
%TF.SameCoordinates,Original*%
%TF.FileFunction,Soldermask,Top*%
%TF.FilePolarity,Negative*%
%FSLAX46Y46*%
G04 Gerber Fmt 4.6, Leading zero omitted, Abs format (unit mm)*
G04 Created by KiCad (PCBNEW 6.0.11+dfsg-1) date 2025-12-28 18:54:01*
%MOMM*%
%LPD*%
G01*
G04 APERTURE LIST*
%ADD10R,1.700000X1.700000*%
%ADD11O,1.700000X1.700000*%
%ADD12C,1.600000*%
%ADD13R,1.800000X1.800000*%
%ADD14C,1.800000*%
%ADD15O,1.600000X1.600000*%
%ADD16C,2.200000*%
G04 APERTURE END LIST*
D10*
%TO.C,REF\u002A\u002A*%
X151205000Y-66065000D03*
D11*
X151205000Y-68605000D03*
X151205000Y-71145000D03*
X151205000Y-73685000D03*
X151205000Y-76225000D03*
X151205000Y-78765000D03*
X151205000Y-81305000D03*
X151205000Y-83845000D03*
X151205000Y-86385000D03*
X151205000Y-88925000D03*
X151205000Y-91465000D03*
X151205000Y-94005000D03*
X151205000Y-96545000D03*
X151205000Y-99085000D03*
X151205000Y-101625000D03*
X151205000Y-104165000D03*
X151205000Y-106705000D03*
X151205000Y-109245000D03*
X151205000Y-111785000D03*
X151205000Y-114325000D03*
X151205000Y-116865000D03*
X151205000Y-119405000D03*
X151205000Y-121945000D03*
X151205000Y-124485000D03*
X151205000Y-127025000D03*
X151205000Y-129565000D03*
X151205000Y-132105000D03*
X151205000Y-134645000D03*
X151205000Y-137185000D03*
X151205000Y-139725000D03*
X151205000Y-142265000D03*
X151205000Y-144805000D03*
X151205000Y-147345000D03*
X151205000Y-149885000D03*
X151205000Y-152425000D03*
X151205000Y-154965000D03*
%TD*%
D10*
%TO.C,REF\u002A\u002A*%
X102930000Y-106715000D03*
D11*
X102930000Y-109255000D03*
X102930000Y-111795000D03*
X102930000Y-114335000D03*
X102930000Y-116875000D03*
X102930000Y-119415000D03*
X102930000Y-121955000D03*
X102930000Y-124495000D03*
X102930000Y-127035000D03*
X102930000Y-129575000D03*
X102930000Y-132115000D03*
X102930000Y-134655000D03*
X102930000Y-137195000D03*
X102930000Y-139735000D03*
X102930000Y-142275000D03*
X102930000Y-144815000D03*
X102930000Y-147355000D03*
X102930000Y-149895000D03*
X102930000Y-152435000D03*
X102930000Y-154975000D03*
%TD*%
D12*
%TO.C,C*%
X190500000Y-109220000D03*
X190500000Y-106720000D03*
%TD*%
%TO.C,C*%
X177800000Y-109220000D03*
X177800000Y-106720000D03*
%TD*%
%TO.C,C*%
X132080000Y-109220000D03*
X132080000Y-106720000D03*
%TD*%
D10*
%TO.C,REF\u002A\u002A*%
X194335000Y-106715000D03*
D11*
X194335000Y-109255000D03*
X194335000Y-111795000D03*
X194335000Y-114335000D03*
X194335000Y-116875000D03*
X194335000Y-119415000D03*
X194335000Y-121955000D03*
X194335000Y-124495000D03*
X194335000Y-127035000D03*
X194335000Y-129575000D03*
X194335000Y-132115000D03*
X194335000Y-134655000D03*
X194335000Y-137195000D03*
X194335000Y-139735000D03*
X194335000Y-142275000D03*
X194335000Y-144815000D03*
X194335000Y-147355000D03*
X194335000Y-149895000D03*
X194335000Y-152435000D03*
X194335000Y-154975000D03*
%TD*%
D10*
%TO.C,REF\u002A\u002A*%
X148665000Y-106715000D03*
D11*
X148665000Y-109255000D03*
X148665000Y-111795000D03*
X148665000Y-114335000D03*
X148665000Y-116875000D03*
X148665000Y-119415000D03*
X148665000Y-121955000D03*
X148665000Y-124495000D03*
X148665000Y-127035000D03*
X148665000Y-129575000D03*
X148665000Y-132115000D03*
X148665000Y-134655000D03*
X148665000Y-137195000D03*
X148665000Y-139735000D03*
X148665000Y-142275000D03*
X148665000Y-144815000D03*
X148665000Y-147355000D03*
X148665000Y-149895000D03*
X148665000Y-152435000D03*
X148665000Y-154975000D03*
%TD*%
D13*
%TO.C,REF\u002A\u002A*%
X120650000Y-63500000D03*
D14*
X123190000Y-63500000D03*
%TD*%
D12*
%TO.C,1k*%
X133350000Y-63500000D03*
D15*
X143510000Y-63500000D03*
%TD*%
D12*
%TO.C,C*%
X109220000Y-109220000D03*
X109220000Y-106720000D03*
%TD*%
D16*
%TO.C,REF\u002A\u002A*%
X113030000Y-62230000D03*
%TD*%
D10*
%TO.C,REF\u002A\u002A*%
X174065000Y-66065000D03*
D11*
X174065000Y-68605000D03*
X174065000Y-71145000D03*
X174065000Y-73685000D03*
X174065000Y-76225000D03*
X174065000Y-78765000D03*
X174065000Y-81305000D03*
X174065000Y-83845000D03*
X174065000Y-86385000D03*
X174065000Y-88925000D03*
X174065000Y-91465000D03*
X174065000Y-94005000D03*
X174065000Y-96545000D03*
X174065000Y-99085000D03*
X174065000Y-101625000D03*
X174065000Y-104165000D03*
X174065000Y-106705000D03*
X174065000Y-109245000D03*
X174065000Y-111785000D03*
X174065000Y-114325000D03*
X174065000Y-116865000D03*
X174065000Y-119405000D03*
X174065000Y-121945000D03*
X174065000Y-124485000D03*
X174065000Y-127025000D03*
X174065000Y-129565000D03*
X174065000Y-132105000D03*
X174065000Y-134645000D03*
X174065000Y-137185000D03*
X174065000Y-139725000D03*
X174065000Y-142265000D03*
X174065000Y-144805000D03*
X174065000Y-147345000D03*
X174065000Y-149885000D03*
X174065000Y-152425000D03*
X174065000Y-154965000D03*
%TD*%
D16*
%TO.C,REF\u002A\u002A*%
X186420000Y-62230000D03*
%TD*%
D10*
%TO.C,REF\u002A\u002A*%
X128320000Y-66065000D03*
D11*
X128320000Y-68605000D03*
X128320000Y-71145000D03*
X128320000Y-73685000D03*
X128320000Y-76225000D03*
X128320000Y-78765000D03*
X128320000Y-81305000D03*
X128320000Y-83845000D03*
X128320000Y-86385000D03*
X128320000Y-88925000D03*
X128320000Y-91465000D03*
X128320000Y-94005000D03*
X128320000Y-96545000D03*
X128320000Y-99085000D03*
X128320000Y-101625000D03*
X128320000Y-104165000D03*
X128320000Y-106705000D03*
X128320000Y-109245000D03*
X128320000Y-111785000D03*
X128320000Y-114325000D03*
X128320000Y-116865000D03*
X128320000Y-119405000D03*
X128320000Y-121945000D03*
X128320000Y-124485000D03*
X128320000Y-127025000D03*
X128320000Y-129565000D03*
X128320000Y-132105000D03*
X128320000Y-134645000D03*
X128320000Y-137185000D03*
X128320000Y-139725000D03*
X128320000Y-142265000D03*
X128320000Y-144805000D03*
X128320000Y-147345000D03*
X128320000Y-149885000D03*
X128320000Y-152425000D03*
X128320000Y-154965000D03*
%TD*%
D10*
%TO.C,5V*%
X160020000Y-63500000D03*
D11*
X162560000Y-63500000D03*
%TD*%
D12*
%TO.C,C*%
X154940000Y-109220000D03*
X154940000Y-106720000D03*
%TD*%
D16*
%TO.C,REF\u002A\u002A*%
X113300000Y-157480000D03*
%TD*%
D10*
%TO.C,REF\u002A\u002A*%
X125780000Y-106715000D03*
D11*
X125780000Y-109255000D03*
X125780000Y-111795000D03*
X125780000Y-114335000D03*
X125780000Y-116875000D03*
X125780000Y-119415000D03*
X125780000Y-121955000D03*
X125780000Y-124495000D03*
X125780000Y-127035000D03*
X125780000Y-129575000D03*
X125780000Y-132115000D03*
X125780000Y-134655000D03*
X125780000Y-137195000D03*
X125780000Y-139735000D03*
X125780000Y-142275000D03*
X125780000Y-144815000D03*
X125780000Y-147355000D03*
X125780000Y-149895000D03*
X125780000Y-152435000D03*
X125780000Y-154975000D03*
%TD*%
D16*
%TO.C,REF\u002A\u002A*%
X186420000Y-157480000D03*
%TD*%
D10*
%TO.C,REF\u002A\u002A*%
X105470000Y-66065000D03*
D11*
X105470000Y-68605000D03*
X105470000Y-71145000D03*
X105470000Y-73685000D03*
X105470000Y-76225000D03*
X105470000Y-78765000D03*
X105470000Y-81305000D03*
X105470000Y-83845000D03*
X105470000Y-86385000D03*
X105470000Y-88925000D03*
X105470000Y-91465000D03*
X105470000Y-94005000D03*
X105470000Y-96545000D03*
X105470000Y-99085000D03*
X105470000Y-101625000D03*
X105470000Y-104165000D03*
X105470000Y-106705000D03*
X105470000Y-109245000D03*
X105470000Y-111785000D03*
X105470000Y-114325000D03*
X105470000Y-116865000D03*
X105470000Y-119405000D03*
X105470000Y-121945000D03*
X105470000Y-124485000D03*
X105470000Y-127025000D03*
X105470000Y-129565000D03*
X105470000Y-132105000D03*
X105470000Y-134645000D03*
X105470000Y-137185000D03*
X105470000Y-139725000D03*
X105470000Y-142265000D03*
X105470000Y-144805000D03*
X105470000Y-147345000D03*
X105470000Y-149885000D03*
X105470000Y-152425000D03*
X105470000Y-154965000D03*
%TD*%
D10*
%TO.C,REF\u002A\u002A*%
X171525000Y-106715000D03*
D11*
X171525000Y-109255000D03*
X171525000Y-111795000D03*
X171525000Y-114335000D03*
X171525000Y-116875000D03*
X171525000Y-119415000D03*
X171525000Y-121955000D03*
X171525000Y-124495000D03*
X171525000Y-127035000D03*
X171525000Y-129575000D03*
X171525000Y-132115000D03*
X171525000Y-134655000D03*
X171525000Y-137195000D03*
X171525000Y-139735000D03*
X171525000Y-142275000D03*
X171525000Y-144815000D03*
X171525000Y-147355000D03*
X171525000Y-149895000D03*
X171525000Y-152435000D03*
X171525000Y-154975000D03*
%TD*%
D10*
%TO.C,REF\u002A\u002A*%
X196875000Y-66065000D03*
D11*
X196875000Y-68605000D03*
X196875000Y-71145000D03*
X196875000Y-73685000D03*
X196875000Y-76225000D03*
X196875000Y-78765000D03*
X196875000Y-81305000D03*
X196875000Y-83845000D03*
X196875000Y-86385000D03*
X196875000Y-88925000D03*
X196875000Y-91465000D03*
X196875000Y-94005000D03*
X196875000Y-96545000D03*
X196875000Y-99085000D03*
X196875000Y-101625000D03*
X196875000Y-104165000D03*
X196875000Y-106705000D03*
X196875000Y-109245000D03*
X196875000Y-111785000D03*
X196875000Y-114325000D03*
X196875000Y-116865000D03*
X196875000Y-119405000D03*
X196875000Y-121945000D03*
X196875000Y-124485000D03*
X196875000Y-127025000D03*
X196875000Y-129565000D03*
X196875000Y-132105000D03*
X196875000Y-134645000D03*
X196875000Y-137185000D03*
X196875000Y-139725000D03*
X196875000Y-142265000D03*
X196875000Y-144805000D03*
X196875000Y-147345000D03*
X196875000Y-149885000D03*
X196875000Y-152425000D03*
X196875000Y-154965000D03*
%TD*%
M02*
