M48
; DRILL file {KiCad 6.0.11+dfsg-1} date dom 28 dic 2025, 18:54:03
; FORMAT={-:-/ absolute / inch / decimal}
; #@! TF.CreationDate,2025-12-28T18:54:03+01:00
; #@! TF.GenerationSoftware,Kicad,Pcbnew,6.0.11+dfsg-1
; #@! TF.FileFunction,Plated,1,2,PTH
FMAT,2
INCH
; #@! TA.AperFunction,Plated,PTH,ComponentDrill
T1C0.0315
; #@! TA.AperFunction,Plated,PTH,ComponentDrill
T2C0.0354
; #@! TA.AperFunction,Plated,PTH,ComponentDrill
T3C0.0394
%
G90
G05
T1
X4.3Y-4.2016
X4.3Y-4.3
X5.2Y-4.2016
X5.2Y-4.3
X5.25Y-2.5
X5.65Y-2.5
X6.1Y-4.2016
X6.1Y-4.3
X7.0Y-4.2016
X7.0Y-4.3
X7.5Y-4.2016
X7.5Y-4.3
T2
X4.75Y-2.5
X4.85Y-2.5
T3
X4.0524Y-4.2014
X4.0524Y-4.3014
X4.0524Y-4.4014
X4.0524Y-4.5014
X4.0524Y-4.6014
X4.0524Y-4.7014
X4.0524Y-4.8014
X4.0524Y-4.9014
X4.0524Y-5.0014
X4.0524Y-5.1014
X4.0524Y-5.2014
X4.0524Y-5.3014
X4.0524Y-5.4014
X4.0524Y-5.5014
X4.0524Y-5.6014
X4.0524Y-5.7014
X4.0524Y-5.8014
X4.0524Y-5.9014
X4.0524Y-6.0014
X4.0524Y-6.1014
X4.1524Y-2.601
X4.1524Y-2.701
X4.1524Y-2.801
X4.1524Y-2.901
X4.1524Y-3.001
X4.1524Y-3.101
X4.1524Y-3.201
X4.1524Y-3.301
X4.1524Y-3.401
X4.1524Y-3.501
X4.1524Y-3.601
X4.1524Y-3.701
X4.1524Y-3.801
X4.1524Y-3.901
X4.1524Y-4.001
X4.1524Y-4.101
X4.1524Y-4.201
X4.1524Y-4.301
X4.1524Y-4.401
X4.1524Y-4.501
X4.1524Y-4.601
X4.1524Y-4.701
X4.1524Y-4.801
X4.1524Y-4.901
X4.1524Y-5.001
X4.1524Y-5.101
X4.1524Y-5.201
X4.1524Y-5.301
X4.1524Y-5.401
X4.1524Y-5.501
X4.1524Y-5.601
X4.1524Y-5.701
X4.1524Y-5.801
X4.1524Y-5.901
X4.1524Y-6.001
X4.1524Y-6.101
X4.952Y-4.2014
X4.952Y-4.3014
X4.952Y-4.4014
X4.952Y-4.5014
X4.952Y-4.6014
X4.952Y-4.7014
X4.952Y-4.8014
X4.952Y-4.9014
X4.952Y-5.0014
X4.952Y-5.1014
X4.952Y-5.2014
X4.952Y-5.3014
X4.952Y-5.4014
X4.952Y-5.5014
X4.952Y-5.6014
X4.952Y-5.7014
X4.952Y-5.8014
X4.952Y-5.9014
X4.952Y-6.0014
X4.952Y-6.1014
X5.052Y-2.601
X5.052Y-2.701
X5.052Y-2.801
X5.052Y-2.901
X5.052Y-3.001
X5.052Y-3.101
X5.052Y-3.201
X5.052Y-3.301
X5.052Y-3.401
X5.052Y-3.501
X5.052Y-3.601
X5.052Y-3.701
X5.052Y-3.801
X5.052Y-3.901
X5.052Y-4.001
X5.052Y-4.101
X5.052Y-4.201
X5.052Y-4.301
X5.052Y-4.401
X5.052Y-4.501
X5.052Y-4.601
X5.052Y-4.701
X5.052Y-4.801
X5.052Y-4.901
X5.052Y-5.001
X5.052Y-5.101
X5.052Y-5.201
X5.052Y-5.301
X5.052Y-5.401
X5.052Y-5.501
X5.052Y-5.601
X5.052Y-5.701
X5.052Y-5.801
X5.052Y-5.901
X5.052Y-6.001
X5.052Y-6.101
X5.853Y-4.2014
X5.853Y-4.3014
X5.853Y-4.4014
X5.853Y-4.5014
X5.853Y-4.6014
X5.853Y-4.7014
X5.853Y-4.8014
X5.853Y-4.9014
X5.853Y-5.0014
X5.853Y-5.1014
X5.853Y-5.2014
X5.853Y-5.3014
X5.853Y-5.4014
X5.853Y-5.5014
X5.853Y-5.6014
X5.853Y-5.7014
X5.853Y-5.8014
X5.853Y-5.9014
X5.853Y-6.0014
X5.853Y-6.1014
X5.953Y-2.601
X5.953Y-2.701
X5.953Y-2.801
X5.953Y-2.901
X5.953Y-3.001
X5.953Y-3.101
X5.953Y-3.201
X5.953Y-3.301
X5.953Y-3.401
X5.953Y-3.501
X5.953Y-3.601
X5.953Y-3.701
X5.953Y-3.801
X5.953Y-3.901
X5.953Y-4.001
X5.953Y-4.101
X5.953Y-4.201
X5.953Y-4.301
X5.953Y-4.401
X5.953Y-4.501
X5.953Y-4.601
X5.953Y-4.701
X5.953Y-4.801
X5.953Y-4.901
X5.953Y-5.001
X5.953Y-5.101
X5.953Y-5.201
X5.953Y-5.301
X5.953Y-5.401
X5.953Y-5.501
X5.953Y-5.601
X5.953Y-5.701
X5.953Y-5.801
X5.953Y-5.901
X5.953Y-6.001
X5.953Y-6.101
X6.3Y-2.5
X6.4Y-2.5
X6.753Y-4.2014
X6.753Y-4.3014
X6.753Y-4.4014
X6.753Y-4.5014
X6.753Y-4.6014
X6.753Y-4.7014
X6.753Y-4.8014
X6.753Y-4.9014
X6.753Y-5.0014
X6.753Y-5.1014
X6.753Y-5.2014
X6.753Y-5.3014
X6.753Y-5.4014
X6.753Y-5.5014
X6.753Y-5.6014
X6.753Y-5.7014
X6.753Y-5.8014
X6.753Y-5.9014
X6.753Y-6.0014
X6.753Y-6.1014
X6.853Y-2.601
X6.853Y-2.701
X6.853Y-2.801
X6.853Y-2.901
X6.853Y-3.001
X6.853Y-3.101
X6.853Y-3.201
X6.853Y-3.301
X6.853Y-3.401
X6.853Y-3.501
X6.853Y-3.601
X6.853Y-3.701
X6.853Y-3.801
X6.853Y-3.901
X6.853Y-4.001
X6.853Y-4.101
X6.853Y-4.201
X6.853Y-4.301
X6.853Y-4.401
X6.853Y-4.501
X6.853Y-4.601
X6.853Y-4.701
X6.853Y-4.801
X6.853Y-4.901
X6.853Y-5.001
X6.853Y-5.101
X6.853Y-5.201
X6.853Y-5.301
X6.853Y-5.401
X6.853Y-5.501
X6.853Y-5.601
X6.853Y-5.701
X6.853Y-5.801
X6.853Y-5.901
X6.853Y-6.001
X6.853Y-6.101
X7.651Y-4.2014
X7.651Y-4.3014
X7.651Y-4.4014
X7.651Y-4.5014
X7.651Y-4.6014
X7.651Y-4.7014
X7.651Y-4.8014
X7.651Y-4.9014
X7.651Y-5.0014
X7.651Y-5.1014
X7.651Y-5.2014
X7.651Y-5.3014
X7.651Y-5.4014
X7.651Y-5.5014
X7.651Y-5.6014
X7.651Y-5.7014
X7.651Y-5.8014
X7.651Y-5.9014
X7.651Y-6.0014
X7.651Y-6.1014
X7.751Y-2.601
X7.751Y-2.701
X7.751Y-2.801
X7.751Y-2.901
X7.751Y-3.001
X7.751Y-3.101
X7.751Y-3.201
X7.751Y-3.301
X7.751Y-3.401
X7.751Y-3.501
X7.751Y-3.601
X7.751Y-3.701
X7.751Y-3.801
X7.751Y-3.901
X7.751Y-4.001
X7.751Y-4.101
X7.751Y-4.201
X7.751Y-4.301
X7.751Y-4.401
X7.751Y-4.501
X7.751Y-4.601
X7.751Y-4.701
X7.751Y-4.801
X7.751Y-4.901
X7.751Y-5.001
X7.751Y-5.101
X7.751Y-5.201
X7.751Y-5.301
X7.751Y-5.401
X7.751Y-5.501
X7.751Y-5.601
X7.751Y-5.701
X7.751Y-5.801
X7.751Y-5.901
X7.751Y-6.001
X7.751Y-6.101
T0
M30
